<?xml version="1.0" encoding="utf-8"?>
<!-- Generator: Adobe Illustrator 26.0.3, SVG Export Plug-In . SVG Version: 6.00 Build 0)  -->
<svg version="1.1" id="Camada_1" xmlns="http://www.w3.org/2000/svg" xmlns:xlink="http://www.w3.org/1999/xlink" x="0px" y="0px"
	 viewBox="0 0 24 24" style="enable-background:new 0 0 24 24;" xml:space="preserve">
<style type="text/css">
	.st0{fill:none;}
	.st1{fill:none;stroke:#323232;stroke-width:1.5;stroke-linecap:round;stroke-linejoin:round;}
	.st2{fill:none;stroke:#940DFF;stroke-width:1.5;stroke-linecap:round;stroke-linejoin:round;}
</style>
<g>
	<path class="st0" d="M0,0h24v24H0V0z"/>
	<path class="st1" d="M12,9.4V8.5"/>
	<path class="st2" d="M12,14.6v0.9"/>
	<path class="st2" d="M10.5,14c0.2,0.4,0.6,0.6,1.1,0.6H12h0.5c0.7,0,1.2-0.6,1.2-1.2c0-0.6-0.4-1.1-0.9-1.2l-1.6-0.4
		c-0.5-0.1-0.9-0.6-0.9-1.2c0-0.7,0.6-1.2,1.2-1.2H12h0.4c0.5,0,0.9,0.3,1.1,0.6"/>
	<path class="st2" d="M19.8,18.2L19.8,18.2c-2.5-0.5-5.1-0.4-7.6,0.2L12,18.5c-2.6,0.7-5.4,0.7-8,0.2l-0.2,0c-0.5-0.1-0.8-0.5-0.8-1
		V6.8c0-0.6,0.6-1.1,1.2-1l0,0c2.5,0.5,5.1,0.4,7.6-0.2l0.5-0.1c2.5-0.6,5.1-0.7,7.6-0.2l0.4,0.1c0.5,0.1,0.8,0.5,0.8,1v10.8
		C21,17.9,20.4,18.3,19.8,18.2z"/>
</g>
</svg>
