<?xml version="1.0" encoding="utf-8"?>
<!-- Generator: Adobe Illustrator 26.0.3, SVG Export Plug-In . SVG Version: 6.00 Build 0)  -->
<svg version="1.1" id="Camada_1" xmlns="http://www.w3.org/2000/svg" xmlns:xlink="http://www.w3.org/1999/xlink" x="0px" y="0px"
	 viewBox="0 0 24 24" style="enable-background:new 0 0 24 24;" xml:space="preserve">
<style type="text/css">
	.st0{fill:none;stroke:#4BA9FF;stroke-width:1.5;stroke-linecap:round;stroke-linejoin:round;}
	.st1{fill:none;}
</style>
<g>
	<path class="st0" d="M7,17H5c-1.1,0-2-0.9-2-2V5c0-1.1,0.9-2,2-2h14c1.1,0,2,0.9,2,2v10c0,1.1-0.9,2-2,2h-6.1l-4.2,3.7
		C8,21.3,7,20.9,7,20V17z"/>
	<line class="st0" x1="7" y1="7.5" x2="17" y2="7.5"/>
	<line class="st0" x1="7" y1="12" x2="14" y2="12"/>
</g>
<path class="st1" d="M0,0h24v24H0C0,24,0,0,0,0z"/>
</svg>
