<?xml version="1.0" encoding="utf-8"?>
<!-- Generator: Adobe Illustrator 26.0.3, SVG Export Plug-In . SVG Version: 6.00 Build 0)  -->
<svg version="1.1" id="Camada_1" xmlns="http://www.w3.org/2000/svg" xmlns:xlink="http://www.w3.org/1999/xlink" x="0px" y="0px"
	 viewBox="0 0 24 24" style="enable-background:new 0 0 24 24;" xml:space="preserve">
<style type="text/css">
	.st0{fill:none;}
	.st1{fill:none;stroke:#FF4B8C;stroke-width:1.5;stroke-linecap:round;stroke-linejoin:round;}
	.st2{fill:none;stroke:#FF4C8C;stroke-width:1.5;stroke-linecap:round;stroke-linejoin:round;}
</style>
<g>
	<path class="st0" d="M0,0h24v24H0V0z"/>
	<path class="st1" d="M18,15v1"/>
	<path class="st2" d="M18,20v1"/>
	<path class="st1" d="M15.4,16.5l0.9,0.5"/>
	<path class="st1" d="M19.7,19l0.9,0.5"/>
	<path class="st1" d="M15.4,19.5l0.9-0.5"/>
	<path class="st1" d="M19.7,17l0.9-0.5"/>
	<path class="st1" d="M19.4,16.6c0.8,0.8,0.8,2,0,2.8s-2,0.8-2.8,0c-0.8-0.8-0.8-2,0-2.8C17.4,15.8,18.6,15.8,19.4,16.6"/>
	<path class="st1" d="M15,5.2c1.7,1.7,1.7,4.4,0,6s-4.4,1.7-6,0s-1.7-4.4,0-6S13.3,3.6,15,5.2"/>
	<path class="st1" d="M4,20L4,20c0-2.5,2-4.5,4.5-4.5h2.6"/>
</g>
</svg>
