<?xml version="1.0" encoding="UTF-8"?>
<svg width="96px" height="16px" viewBox="0 0 96 16" version="1.1" xmlns="http://www.w3.org/2000/svg" xmlns:xlink="http://www.w3.org/1999/xlink">
    <title>svgexport-1 (4)</title>
    <g id="Symbols" stroke="none" stroke-width="1" fill="none" fill-rule="evenodd">
        <g id="marcas-/-parceiros-final-copy-4" transform="translate(-808.000000, -11.000000)" fill="#121E48" fill-rule="nonzero">
            <g id="svgexport-1-(4)" transform="translate(808.000000, 11.000000)">
                <path d="M20.6233446,15.0818182 L20.6233446,13.4060606 C21.4213244,13.9646465 22.2991021,14.2838384 23.2566779,14.2838384 C24.2142536,14.2838384 24.9324355,14.0444444 25.3314254,13.5656566 C25.8102132,13.0868687 25.9698092,12.2888889 25.9698092,11.1717172 L25.9698092,1.27676768 L27.5657688,1.27676768 L27.5657688,11.3313131 C27.5657688,12.2090909 27.4061728,12.9272727 27.1667789,13.5656566 C26.927385,14.2040404 26.608193,14.6828283 26.2092031,15.0020202 C25.7304153,15.2414141 25.3314254,15.4808081 24.8526375,15.640404 C24.4536476,15.720202 23.9748597,15.8 23.4162738,15.8 C22.3789001,15.8 21.5011223,15.5606061 20.6233446,15.0818182" id="Path"></path>
                <path d="M30.67789,11.0919192 L30.67789,4.86767677 L32.1940516,4.86767677 L32.1940516,11.1717172 C32.1940516,12.2888889 32.4334456,13.0868687 32.9122334,13.5656566 C33.3910213,14.0444444 34.1890011,14.3636364 35.1465769,14.3636364 C36.1839506,14.3636364 36.9021324,14.0444444 37.3809203,13.5656566 C37.8597082,13.0868687 38.0991021,12.2888889 38.0991021,11.1717172 L38.0991021,4.86767677 L39.6950617,4.86767677 L39.6950617,11.0919192 C39.6950617,12.6080808 39.2960718,13.7252525 38.498092,14.6030303 C37.7001122,15.4010101 36.5829405,15.8 35.1465769,15.8 C33.7102132,15.8 32.5930415,15.4010101 31.8748597,14.6030303 C31.0768799,13.7252525 30.67789,12.6080808 30.67789,11.0919192" id="Path"></path>
                <path d="M41.8496072,7.82020202 C41.8496072,6.94242424 42.1687991,6.22424242 42.8071829,5.58585859 C43.4455668,5.02727273 44.4031425,4.70808081 45.6799102,4.70808081 C46.557688,4.70808081 47.5152637,4.86767677 48.3930415,5.34646465 L48.3930415,6.86262626 C47.5950617,6.38383838 46.717284,6.14444444 45.8395062,6.14444444 C44.2435466,6.14444444 43.3657688,6.7030303 43.3657688,7.82020202 C43.3657688,8.13939394 43.6051627,8.45858586 44.0041526,8.6979798 C44.4031425,8.93737374 44.8819304,9.0969697 45.4405163,9.25656566 C45.9991021,9.41616162 46.557688,9.57575758 47.1162738,9.81515152 C47.6748597,10.0545455 48.1536476,10.3737374 48.5526375,10.8525253 C48.9516274,11.4111111 49.1910213,12.0494949 49.1910213,12.7676768 C49.1910213,13.7252525 48.7920314,14.4434343 48.1536476,15.0020202 C47.4354658,15.5606061 46.47789,15.8 45.2011223,15.8 C44.0041526,15.8 42.9667789,15.5606061 42.0092031,15.0020202 L42.0092031,13.3262626 C43.0465769,13.9646465 44.0839506,14.2838384 45.2011223,14.2838384 C46.7970819,14.2838384 47.5950617,13.8050505 47.5950617,12.7676768 C47.5950617,12.2888889 47.4354658,11.889899 47.0364759,11.5707071 C46.637486,11.2515152 46.1586981,11.0121212 45.6001122,10.8525253 C45.0415264,10.6929293 44.4829405,10.5333333 43.8445567,10.3737374 C43.2859708,10.2141414 42.8071829,9.89494949 42.408193,9.4959596 C42.0092031,9.01717172 41.8496072,8.45858586 41.8496072,7.82020202" id="Path"></path>
                <path d="M52.6223345,12.4484848 C52.6223345,13.7252525 53.5799102,14.3636364 55.4152637,14.3636364 C55.8142536,14.3636364 56.2132435,14.3636364 56.5324355,14.2040404 C56.8516274,14.1242424 57.1708193,13.9646465 57.4900112,13.7252525 C57.8890011,13.4060606 58.1283951,13.0070707 58.367789,12.3686869 C58.527385,11.810101 58.6071829,11.0121212 58.6071829,10.1343434 C58.6071829,8.6979798 58.367789,7.74040404 57.8092031,7.1020202 C57.2506173,6.46363636 56.4526375,6.14444444 55.2556678,6.14444444 C54.37789,6.14444444 53.5001122,6.3040404 52.6223345,6.7030303 L52.6223345,12.4484848 Z M51.0263749,12.3686869 L51.0263749,0.797979798 L52.6223345,0.797979798 L52.6223345,5.10707071 C53.4203143,4.86767677 54.298092,4.70808081 55.2556678,4.70808081 C55.7344557,4.70808081 56.2132435,4.70808081 56.6122334,4.78787879 C57.0910213,4.86767677 57.4900112,5.02727273 57.9687991,5.34646465 C58.367789,5.58585859 58.7667789,5.90505051 59.0859708,6.22424242 C59.4051627,6.62323232 59.6445567,7.18181818 59.8839506,7.82020202 C60.0435466,8.45858586 60.2031425,9.25656566 60.2031425,10.1343434 C60.2031425,11.0919192 60.0435466,11.889899 59.8839506,12.6080808 C59.6445567,13.3262626 59.3253648,13.8848485 59.0061728,14.2838384 C58.6869809,14.6828283 58.287991,15.0020202 57.8890011,15.2414141 C57.4102132,15.4808081 57.0112233,15.640404 56.6122334,15.720202 C56.2132435,15.8 55.8142536,15.8 55.4152637,15.8 C54.6970819,15.8 53.9789001,15.720202 53.4203143,15.4808081 C52.8617284,15.3212121 52.3829405,15.0818182 52.1435466,14.8424242 C51.8243547,14.6030303 51.5849607,14.2838384 51.4253648,13.9646465 C51.2657688,13.5656566 51.1061728,13.3262626 51.1061728,13.0868687 C51.0263749,12.8474747 51.0263749,12.6080808 51.0263749,12.3686869 L51.0263749,12.3686869 Z" id="Shape"></path>
                <path d="M62.5970819,15.640404 L62.5970819,5.74545455 C64.1930415,5.02727273 65.9485971,4.70808081 67.7839506,4.70808081 L67.7839506,6.14444444 C66.5869809,6.22424242 65.3900112,6.38383838 64.1132435,6.7030303 L64.1132435,15.640404 L62.5970819,15.640404" id="Path"></path>
                <path d="M70.17789,12.2888889 C70.17789,13.6454545 71.1354658,14.3636364 73.1304153,14.3636364 L73.1304153,14.3636364 C75.0455668,14.3636364 76.0031425,13.6454545 76.0031425,12.3686869 L76.0031425,10.2939394 C75.5243547,10.2141414 74.8859708,10.2141414 74.087991,10.2141414 C71.4546577,10.2141414 70.17789,10.9323232 70.17789,12.2888889 Z M68.6617284,12.2888889 C68.6617284,11.810101 68.7415264,11.4111111 68.9011223,11.0121212 C69.0607183,10.6131313 69.3001122,10.2939394 69.5395062,10.0545455 C69.8586981,9.89494949 70.17789,9.65555556 70.5768799,9.4959596 C70.9758698,9.33636364 71.2950617,9.17676768 71.6142536,9.0969697 C71.9334456,9.01717172 72.2526375,8.93737374 72.7314254,8.93737374 C73.1304153,8.85757576 73.4496072,8.85757576 73.6092031,8.85757576 C73.7687991,8.85757576 74.008193,8.85757576 74.247587,8.85757576 L76.0031425,8.93737374 C76.0031425,7.97979798 75.6839506,7.26161616 75.2051627,6.86262626 C74.6465769,6.46363636 73.8485971,6.22424242 72.8112233,6.22424242 C71.6940516,6.22424242 70.6566779,6.38383838 69.6991021,6.78282828 L69.6991021,5.26666667 C70.7364759,4.86767677 71.8536476,4.70808081 72.8910213,4.70808081 C74.4071829,4.70808081 75.6041526,5.10707071 76.4021324,5.82525253 C77.2001122,6.62323232 77.5193042,7.74040404 77.5193042,9.17676768 L77.5193042,12.3686869 C77.5193042,13.0868687 77.3597082,13.6454545 77.0405163,14.1242424 C76.7213244,14.6828283 76.3223345,15.0020202 75.8435466,15.2414141 C75.3647587,15.4010101 74.8859708,15.5606061 74.4071829,15.640404 C74.008193,15.720202 73.6092031,15.8 73.1304153,15.8 C72.8112233,15.8 72.4920314,15.8 72.0930415,15.720202 C71.7738496,15.720202 71.3748597,15.5606061 70.9758698,15.4808081 C70.4970819,15.3212121 70.098092,15.0818182 69.7789001,14.8424242 C69.4597082,14.6030303 69.2203143,14.2838384 68.9809203,13.8848485 C68.7415264,13.4060606 68.6617284,12.9272727 68.6617284,12.2888889 L68.6617284,12.2888889 Z" id="Shape"></path>
                <path d="M79.4344557,7.82020202 C79.4344557,6.94242424 79.7536476,6.22424242 80.3122334,5.58585859 C80.9506173,5.02727273 81.908193,4.70808081 83.2647587,4.70808081 C84.1425365,4.70808081 85.1001122,4.86767677 85.97789,5.34646465 L85.97789,6.86262626 C85.1799102,6.38383838 84.3021324,6.14444444 83.4243547,6.14444444 C81.7485971,6.14444444 80.9506173,6.7030303 80.9506173,7.82020202 C80.9506173,8.13939394 81.1900112,8.45858586 81.5890011,8.6979798 C81.908193,8.93737374 82.3869809,9.0969697 83.0253648,9.25656566 C83.5839506,9.41616162 84.1425365,9.57575758 84.7011223,9.81515152 C85.2597082,10.0545455 85.7384961,10.3737374 86.137486,10.8525253 C86.5364759,11.4111111 86.7758698,12.0494949 86.7758698,12.7676768 C86.7758698,13.7252525 86.3768799,14.4434343 85.6586981,15.0020202 C85.0203143,15.5606061 84.0627385,15.8 82.7859708,15.8 C81.5890011,15.8 80.5516274,15.5606061 79.5142536,15.0020202 L79.5142536,13.3262626 C80.5516274,13.9646465 81.6687991,14.2838384 82.7061728,14.2838384 C84.3819304,14.2838384 85.1799102,13.8050505 85.1799102,12.7676768 C85.1799102,12.2888889 85.0203143,11.889899 84.6213244,11.5707071 C84.2223345,11.2515152 83.7435466,11.0121212 83.1849607,10.8525253 C82.5465769,10.6929293 81.987991,10.5333333 81.4294052,10.3737374 C80.8708193,10.2141414 80.3920314,9.89494949 79.9930415,9.4959596 C79.5940516,9.01717172 79.4344557,8.45858586 79.4344557,7.82020202" id="Path"></path>
                <path d="M88.8506173,15.640404 L90.3667789,15.640404 L90.3667789,4.86767677 L88.8506173,4.86767677 L88.8506173,15.640404 Z M88.7708193,2.95252525 L90.5263749,2.95252525 L90.5263749,1.27676768 L88.7708193,1.27676768 L88.7708193,2.95252525 Z" id="Shape"></path>
                <polygon id="Path" points="93.4789001 15.640404 95.0748597 15.640404 95.0748597 0.797979798 93.4789001 0.797979798"></polygon>
                <path d="M1.31223345,15.4010101 L1.31223345,15.4010101 C0.0354657688,14.6828283 -0.36352413,13.0868687 0.354657688,11.889899 L6.41930415,1.35656566 C7.13748597,0.0797979798 8.73344557,-0.319191919 10.0102132,0.398989899 C11.2869809,1.11717172 11.6859708,2.71313131 10.967789,3.91010101 L4.90314254,14.4434343 C4.18496072,15.720202 2.58900112,16.1191919 1.31223345,15.4010101" id="Path"></path>
                <path d="M16.1546577,15.4010101 L16.1546577,15.4010101 C14.87789,16.1191919 13.2819304,15.720202 12.5637486,14.4434343 L6.41930415,3.91010101 C5.70112233,2.71313131 6.17991021,1.11717172 7.37687991,0.398989899 C8.65364759,-0.319191919 10.2496072,0.0797979798 10.967789,1.35656566 L17.1122334,11.889899 C17.8304153,13.0868687 17.3516274,14.6828283 16.1546577,15.4010101" id="Path"></path>
                <path d="M10.887991,1.1969697 C10.887991,1.11717172 10.808193,1.11717172 10.808193,1.11717172 C10.808193,1.03737374 10.7283951,1.03737374 10.7283951,0.957575758 C10.7283951,0.957575758 10.6485971,0.877777778 10.6485971,0.877777778 C10.6485971,0.877777778 10.5687991,0.797979798 10.5687991,0.797979798 C10.5687991,0.718181818 10.4890011,0.718181818 10.4890011,0.718181818 C10.4092031,0.638383838 10.4092031,0.638383838 10.4092031,0.638383838 C10.3294052,0.558585859 10.3294052,0.558585859 10.2496072,0.558585859 C10.2496072,0.478787879 10.2496072,0.478787879 10.1698092,0.478787879 C10.1698092,0.478787879 10.0900112,0.398989899 10.0102132,0.398989899 C10.0102132,0.398989899 10.0102132,0.319191919 9.93041526,0.319191919 C9.93041526,0.319191919 9.85061728,0.319191919 9.85061728,0.239393939 C9.7708193,0.239393939 9.7708193,0.239393939 9.69102132,0.239393939 C9.69102132,0.239393939 9.61122334,0.15959596 9.61122334,0.15959596 C9.53142536,0.15959596 9.53142536,0.15959596 9.45162738,0.15959596 C9.45162738,0.0797979798 9.37182941,0.0797979798 9.37182941,0.0797979798 C9.29203143,0.0797979798 9.29203143,0.0797979798 9.21223345,0.0797979798 C9.13243547,0.0797979798 9.13243547,0.0797979798 9.13243547,0.0797979798 C9.05263749,0.0797979798 8.97283951,0 8.97283951,0 C8.89304153,0 8.89304153,0 8.81324355,0 C8.81324355,0 8.73344557,0 8.73344557,0 C8.65364759,0 8.65364759,0 8.57384961,0 C8.57384961,0 8.49405163,0 8.49405163,0 C8.41425365,0 8.41425365,0.0797979798 8.33445567,0.0797979798 C8.33445567,0.0797979798 8.25465769,0.0797979798 8.25465769,0.0797979798 C8.17485971,0.0797979798 8.09506173,0.0797979798 8.09506173,0.0797979798 C8.01526375,0.0797979798 8.01526375,0.0797979798 8.01526375,0.15959596 C7.93546577,0.15959596 7.85566779,0.15959596 7.85566779,0.15959596 C7.77586981,0.15959596 7.77586981,0.239393939 7.69607183,0.239393939 C7.69607183,0.239393939 7.61627385,0.239393939 7.61627385,0.239393939 C7.53647587,0.319191919 7.53647587,0.319191919 7.45667789,0.319191919 C7.45667789,0.319191919 7.37687991,0.398989899 7.37687991,0.398989899 C7.29708193,0.398989899 7.29708193,0.478787879 7.21728395,0.478787879 C7.21728395,0.478787879 7.21728395,0.478787879 7.13748597,0.558585859 C7.13748597,0.558585859 7.05768799,0.558585859 7.05768799,0.638383838 C6.97789001,0.638383838 6.97789001,0.638383838 6.97789001,0.718181818 C6.89809203,0.718181818 6.89809203,0.718181818 6.89809203,0.797979798 C6.81829405,0.797979798 6.81829405,0.877777778 6.73849607,0.877777778 C6.73849607,0.877777778 6.73849607,0.957575758 6.73849607,0.957575758 C6.65869809,1.03737374 6.65869809,1.03737374 6.57890011,1.11717172 C6.57890011,1.11717172 6.57890011,1.11717172 6.57890011,1.1969697 C6.49910213,1.1969697 6.49910213,1.27676768 6.49910213,1.27676768 C6.02031425,2.07474747 5.94051627,3.11212121 6.41930415,3.91010101 L8.73344557,7.82020202 L10.967789,3.91010101 C11.4465769,3.11212121 11.4465769,2.07474747 10.967789,1.27676768 C10.967789,1.27676768 10.887991,1.1969697 10.887991,1.1969697" id="Path"></path>
            </g>
        </g>
    </g>
</svg>