<?xml version="1.0" encoding="UTF-8"?>
<svg width="117px" height="36px" viewBox="0 0 117 36" version="1.1" xmlns="http://www.w3.org/2000/svg" xmlns:xlink="http://www.w3.org/1999/xlink">
    <title>svgexport-1 (5)</title>
    <g id="Symbols" stroke="none" stroke-width="1" fill="none" fill-rule="evenodd">
        <g id="marcas-/-parceiros-final-copy-4" transform="translate(-1139.000000, -3.000000)">
            <g id="svgexport-1-(5)" transform="translate(1139.000000, 3.000000)">
                <path d="M34.2491237,5.1569077 L34.2564552,5.39419862 L34.2564552,30.0961323 C34.2564552,33.3447203 31.7475343,35.7012475 28.7477375,35.2022106 L28.547046,35.1646895 L3.84511232,30.2126509 C1.81332001,29.8175801 0.109577508,27.9462853 0.00507777395,25.4991948 L0,25.2606123 L0,9.64712588 C0,7.27670153 1.640249,5.23432697 3.64955402,4.73822881 L3.84511232,4.69508729 L28.4887867,0.0926043584 C31.5663964,-0.477323357 34.0864681,1.62893124 34.2491237,5.1569077 Z M12.2344483,8.48194033 L9.6127808,8.48194033 L9.6127808,13.3174604 C8.91366947,12.6766083 7.98152103,12.2687934 6.93285403,12.2687934 C4.25292726,12.2687934 2.21385255,14.4826459 2.21385255,17.5703876 C2.21385255,20.6581293 4.19466799,22.8719819 6.93285403,22.8719819 C8.07473587,22.8719819 9.0643668,22.3644789 9.75964597,21.6336745 L9.90407719,21.4737592 L10.078855,22.6389448 L12.2344483,22.6389448 L12.2344483,8.48194033 Z M18.9925245,12.2687934 C16.0213013,12.2687934 13.9822266,14.3661274 13.9822266,17.5703876 C13.9822266,20.6581293 16.2543384,22.8719819 19.2255616,22.8719819 C21.2913385,22.8719819 22.6080386,22.0158942 23.6371468,20.3037187 L23.7697853,20.0755366 L21.6724513,19.0268696 C21.0315992,20.0755366 20.0994508,20.5416108 19.2255616,20.5416108 C17.832405,20.5973371 16.9722822,19.8002092 16.6961791,18.6090997 L16.6621534,18.4442768 L23.711526,18.4442768 C23.8280445,18.0364619 23.8280445,17.5703876 23.8280445,17.1625727 C23.8280445,14.3661274 22.0802662,12.2687934 18.9925245,12.2687934 Z M28.7218239,12.1522748 C26.2749342,12.1522748 24.8767115,13.5504975 24.8767115,15.2982758 C24.8767115,17.1625727 25.8671192,18.0364619 27.4401197,18.4442768 C29.1878981,18.8520917 29.8870094,19.1433881 29.8870094,19.8424995 C29.8870094,20.366833 29.4209352,20.7163886 28.7218239,20.7163886 C27.7314161,20.7163886 27.0905641,20.4250922 26.1584156,19.318166 L26.1584156,19.318166 L24.5271559,20.6581293 C25.5758229,22.1146113 26.7992677,22.8719819 28.4305275,22.8719819 C30.64438,22.8719819 32.3338991,21.5902778 32.3338991,19.6677216 C32.3338991,17.7451655 31.052195,17.0460541 28.954861,16.5217206 C27.4401197,16.172165 27.2070826,15.8226093 27.2070826,15.2982758 C27.2070826,14.715683 27.7314161,14.3661274 28.547046,14.3661274 C29.595713,14.3661274 30.2948243,14.8322016 30.64438,15.3565351 L30.64438,15.3565351 L32.2756398,13.9000531 C31.5765285,12.9679047 30.3530836,12.1522748 28.7218239,12.1522748 Z M7.22415042,14.5991645 C8.73889164,14.5991645 9.6127808,15.76435 9.6127808,17.5703876 C9.6127808,19.3764252 8.79715092,20.5416108 7.22415042,20.5416108 C5.82592776,20.5416108 4.83552004,19.3764252 4.83552004,17.5703876 C4.83552004,15.76435 5.82592776,14.5991645 7.22415042,14.5991645 Z M18.9925245,14.3078681 C20.2715805,14.3078681 21.0198029,15.051035 21.1865214,16.233346 L21.206377,16.4052021 L16.7786719,16.4052021 C16.9534498,15.0652387 17.6525611,14.3078681 18.9925245,14.3078681 Z" id="Combined-Shape" fill="#121E48" fill-rule="nonzero"></path>
                <g id="Group" transform="translate(24.527156, 12.152275)"></g>
                <g id="Group" transform="translate(35.712937, 7.724570)" fill="#121E48" fill-rule="nonzero">
                    <path d="M5.18507571,15.1474122 C2.15559327,15.1474122 -4.13957065e-15,12.9335596 -4.13957065e-15,9.84581791 C-4.13957065e-15,6.7580762 2.15559327,4.54422365 5.18507571,4.54422365 C7.2824097,4.54422365 8.91366947,5.35985354 9.90407719,7.22415042 L7.69022464,8.33107669 C6.99111331,7.22415042 6.29200198,6.81633548 5.18507571,6.81633548 C3.61207521,6.81633548 2.62166749,7.98152103 2.62166749,9.78755863 C2.62166749,11.5935962 3.55381593,12.7587818 5.18507571,12.7587818 C6.2337427,12.7587818 6.99111331,12.3509668 7.69022464,11.2440406 L9.90407719,12.3509668 C8.97192875,14.3317823 7.34066898,15.1474122 5.18507571,15.1474122 Z" id="Path"></path>
                    <path d="M21.0898585,9.84581791 C21.0898585,12.9335596 18.9342652,15.1474122 15.8465235,15.1474122 C12.7587818,15.1474122 10.6031885,12.9335596 10.6031885,9.84581791 C10.6031885,6.7580762 12.7587818,4.54422365 15.8465235,4.54422365 C18.9342652,4.54422365 21.0898585,6.7580762 21.0898585,9.84581791 Z M18.3516724,9.84581791 C18.3516724,8.09803958 17.419524,6.87459476 15.7300049,6.87459476 C14.1570045,6.87459476 13.1083375,8.09803958 13.1083375,9.84581791 C13.1083375,11.6518555 14.0404859,12.8170411 15.7300049,12.8170411 C17.419524,12.7587818 18.3516724,11.5935962 18.3516724,9.84581791 Z" id="Shape"></path>
                    <path d="M25.401045,7.8067432 L25.401045,14.9143751 L22.7793775,14.9143751 L22.7793775,4.77726076 L24.9349708,4.77726076 L25.1097486,5.7094092 C25.9836378,4.89377932 27.1488234,4.48596437 28.3140089,4.48596437 C29.8870094,4.48596437 30.7608986,5.06855715 31.1687135,5.88418704 C32.0426027,4.95203859 33.3243068,4.48596437 34.6060109,4.48596437 C37.577234,4.48596437 37.985049,6.58329837 37.985049,8.68063236 L37.985049,14.8561158 L35.3633815,14.8561158 L35.3633815,8.62237308 C35.3633815,7.22415042 34.9555666,6.81633548 33.9651588,6.81633548 C33.0912697,6.81633548 32.2756398,7.22415042 31.6347877,7.8067432 C31.6347877,8.09803958 31.6347877,8.38933597 31.6347877,8.68063236 L31.6347877,14.8561158 L28.954861,14.8561158 L28.954861,8.62237308 C28.954861,7.22415042 28.547046,6.81633548 27.5566383,6.81633548 C26.9157862,6.81633548 26.0418971,7.22415042 25.401045,7.8067432 Z" id="Path"></path>
                    <path d="M42.9370876,14.0987452 L42.9370876,18.468191 L40.3154201,18.468191 L40.3154201,4.77726076 L42.4710134,4.77726076 L42.7040505,5.88418704 C43.4614211,5.01029787 44.4518288,4.48596437 45.6752736,4.48596437 C48.4134597,4.48596437 50.3942751,6.69981692 50.3942751,9.78755863 C50.3942751,12.8753003 48.3552004,15.0891529 45.6752736,15.0891529 C44.6266066,15.1474122 43.6944582,14.7395972 42.9370876,14.0987452 Z M47.7726076,9.84581791 C47.7726076,8.03978031 46.8404592,6.87459476 45.3839772,6.87459476 C43.8109767,6.87459476 42.9953469,8.03978031 42.9953469,9.84581791 C42.9953469,11.6518555 43.869236,12.8170411 45.3839772,12.8170411 C46.7821999,12.7587818 47.7726076,11.6518555 47.7726076,9.84581791 Z" id="Shape"></path>
                    <path d="M55.3463137,14.9143751 C55.1132766,14.9143751 54.8802395,14.9726343 54.5889431,14.9726343 C52.7829055,14.9726343 51.7342385,14.0404859 51.7342385,11.8848926 L51.7342385,0.699111331 L54.355906,0.699111331 L54.355906,11.3022999 C54.355906,12.176189 54.6472024,12.4092261 55.3463137,12.4092261 L55.3463137,14.9143751 L55.3463137,14.9143751 Z" id="Path"></path>
                    <path d="M58.3175369,0 C59.2496853,0 59.9487966,0.757370609 59.9487966,1.68951905 C59.9487966,2.56340821 59.191426,3.32077882 58.3175369,3.32077882 C57.4436477,3.32077882 56.6862771,2.56340821 56.6862771,1.68951905 C56.6280178,0.699111331 57.3853884,0 58.3175369,0 Z M56.9775735,14.8561158 L56.9775735,4.71900148 L59.599241,4.71900148 L59.599241,14.8561158 L56.9775735,14.8561158 Z" id="Shape"></path>
                    <path d="M66.532095,15.1474122 C63.5026126,15.1474122 61.3470193,12.9335596 61.3470193,9.84581791 C61.3470193,6.7580762 63.5026126,4.54422365 66.532095,4.54422365 C68.629429,4.54422365 70.2606888,5.35985354 71.2510965,7.22415042 L69.0372439,8.33107669 C68.3381326,7.22415042 67.6390213,6.81633548 66.532095,6.81633548 C64.9590945,6.81633548 63.9686868,7.98152103 63.9686868,9.78755863 C63.9686868,11.5935962 64.9008352,12.7587818 66.532095,12.7587818 C67.580762,12.7587818 68.3381326,12.3509668 69.0372439,11.2440406 L71.2510965,12.3509668 C70.2606888,14.3317823 68.629429,15.1474122 66.532095,15.1474122 Z" id="Path"></path>
                    <path d="M78.6500247,14.0404859 C77.8926541,14.7978565 76.8439871,15.2056715 75.7370609,15.2056715 C73.6979861,15.2056715 71.8919485,13.7491895 71.8919485,11.7683741 C71.8919485,9.6127808 73.6979861,8.33107669 75.8535794,8.33107669 C76.9022464,8.33107669 77.659617,8.73889164 78.1839505,9.20496586 L78.1839505,8.15629886 C78.1839505,7.2824097 77.3683206,6.7580762 76.2613944,6.7580762 C75.5040238,6.7580762 74.5718753,6.93285403 73.5232083,7.51544681 L72.7658377,5.59289065 C74.0475418,4.89377932 75.2127274,4.60248293 76.7274686,4.60248293 C79.4073954,4.60248293 80.8638773,6.11722415 80.8638773,8.68063236 L80.8638773,14.9726343 L78.7665433,14.9726343 L78.6500247,14.0404859 Z M76.3779129,13.0500782 C77.3100614,13.0500782 77.9509134,12.5257447 78.0091727,11.7101148 C78.0091727,10.8944849 77.3683206,10.3701514 76.3779129,10.3701514 C75.4457645,10.3701514 74.6301346,10.9527442 74.6301346,11.7101148 C74.6301346,12.5257447 75.3875052,13.0500782 76.3779129,13.0500782 Z" id="Shape"></path>
                </g>
            </g>
        </g>
    </g>
</svg>