<?xml version="1.0" encoding="UTF-8"?>
<svg width="113px" height="18px" viewBox="0 0 113 18" version="1.1" xmlns="http://www.w3.org/2000/svg" xmlns:xlink="http://www.w3.org/1999/xlink">
    <title>Reclame AQUI</title>
    <g id="Symbols" stroke="none" stroke-width="1" fill="none" fill-rule="evenodd">
        <g id="marcas-/-parceiros-final-copy-4" transform="translate(-387.000000, -10.000000)" fill="#121E48" fill-rule="nonzero">
            <g id="Group" transform="translate(387.000000, 10.000000)">
                <g id="vetor" transform="translate(56.293041, 8.975744) scale(-1, 1) rotate(-180.000000) translate(-56.293041, -8.975744) translate(0.000000, 0.000000)">
                    <path d="M6.3400445,13.6714867 L5.70460286,10.2561146 C6.28000463,10.2683766 6.72417667,10.4111982 7.03733609,10.6830533 C7.35013356,10.9548912 7.5609157,11.3818299 7.66944725,11.9639036 C7.77522747,12.5335953 7.73024732,12.9605168 7.53461542,13.2445653 C7.33925504,13.5302086 6.99604851,13.6714867 6.5057017,13.6714867 L6.3400445,13.6714867 Z M-1.55736709e-15,2.31593004 L2.66673351,16.6461491 L7.52520309,16.6461491 C9.16876081,16.6461491 10.389632,16.2499596 11.1887578,15.4584039 C11.9874493,14.6666423 12.2602262,13.5900949 12.0068894,12.2287788 C11.85126,11.3918109 11.5060081,10.6768795 10.9707716,10.0841559 C10.4358792,9.49282133 9.71100215,9.01987035 8.79606827,8.66676061 L10.6076906,2.31593004 L6.13259289,2.31593004 L5.25887421,7.86206827 L4.22643087,2.31593004 L-1.55736709e-15,2.31593004 Z" id="path22"></path>
                    <path d="M15.5391239,8.60747454 L17.8075163,8.60747454 C17.9132784,9.17656603 17.8979472,9.60348755 17.7609071,9.88753598 C17.6240299,10.1732479 17.3655345,10.3153321 16.986199,10.3153321 C16.6887328,10.3153321 16.4228885,10.1762662 16.1882859,9.89832305 C15.9536832,9.62037988 15.7369641,9.19042289 15.5391239,8.60747454 M20.5022515,5.83039242 C20.130645,4.65235385 19.4763063,3.72487052 18.5388733,3.04759951 C17.6012593,2.37032849 16.4974813,2.03169299 15.2267609,2.03169299 C13.7350677,2.03169299 12.6702423,2.48788883 12.031633,3.40084645 C11.3938021,4.31459295 11.2316745,5.61387903 11.5461734,7.30304358 C11.8614506,8.99688995 12.5138526,10.3113877 13.502601,11.2474458 C14.4916208,12.1834353 15.7182299,12.6510356 17.1822653,12.6510356 C18.777621,12.6510356 19.8915354,12.2356215 20.5245153,11.4048618 C21.1565902,10.5740506 21.3171431,9.32086257 21.0054497,7.64550342 C20.9690674,7.45042701 20.9393824,7.30002525 20.9171186,7.19934009 C20.8948547,7.09718006 20.8687898,7.00506969 20.8392857,6.91985345 L15.2246974,6.91985345 L15.1991755,6.78251969 C15.0614476,6.04227541 15.0511845,5.51238785 15.1674993,5.19217101 C15.2838142,4.87128532 15.5423096,4.71150271 15.9427143,4.71150271 C16.239746,4.71150271 16.4967029,4.80296141 16.7138384,4.98563868 C16.9311187,5.16919056 17.1166504,5.45107814 17.2702164,5.83039242 L20.5022515,5.83039242" id="path24"></path>
                    <path d="M27.1283588,2.47336314 C26.8242678,2.32275557 26.5049722,2.21222657 26.1704721,2.1400783 C25.8356099,2.06786144 25.4649085,2.03169299 25.0572817,2.03169299 C23.6899581,2.03169299 22.7009382,2.50397513 22.0894981,3.45008288 C21.4778769,4.39511021 21.3256504,5.69204679 21.6322755,7.34135571 C21.9332894,8.95770316 22.5789398,10.2469396 23.5695887,11.2083276 C24.5600567,12.1695613 25.728273,12.6510356 27.0751428,12.6510356 C27.4480164,12.6510356 27.7892138,12.6180055 28.09783,12.5535574 C28.4069892,12.4874973 28.6899024,12.3860747 28.9476558,12.2494269 L28.374227,9.16739103 C28.2574777,9.24562739 28.1334882,9.30330139 28.0018965,9.33928118 C27.8706667,9.37472937 27.7254995,9.39307942 27.5667567,9.39307942 C27.1661892,9.39307942 26.8125023,9.20885869 26.5062392,8.8432812 C26.1999761,8.477052 25.9876554,7.97563276 25.8696391,7.34135571 C25.7501748,6.70025318 25.7704476,6.21812716 25.9317244,5.89322846 C26.0920962,5.56999329 26.390395,5.40801555 26.8251728,5.40801555 C26.9491623,5.40801555 27.0858223,5.4264342 27.2338856,5.4617966 C27.381949,5.49865105 27.5415968,5.54922516 27.712829,5.61387903 L27.1283588,2.47336314" id="path26"></path>
                    <polyline id="path28" points="28.3110557 2.31593004 31.2209172 17.951489 35.0638676 17.951489 32.1545491 2.31593004 28.3110557 2.31593004"></polyline>
                    <path d="M38.3931213,7.34135571 C38.2606245,6.62724741 38.2387227,6.09132319 38.3270539,5.73210824 C38.4153851,5.37182995 38.6148544,5.19217101 38.9260046,5.19217101 C39.2367929,5.19217101 39.5075787,5.37652895 39.7385431,5.74731989 C39.9698695,6.11596717 40.14979,6.6479984 40.2790287,7.34135571 C40.4102584,8.047781 40.4292642,8.58691222 40.3356837,8.95689711 C40.2426464,9.32554439 40.0402811,9.51137719 39.7296738,9.51137719 C39.4255827,9.51137719 39.1602271,9.32701925 38.9332449,8.96005264 C38.7059006,8.59461236 38.5265231,8.05548119 38.3931213,7.34135571 M39.4264878,2.31593004 L39.6328352,3.42542179 C39.1625802,2.94161513 38.7055387,2.58771651 38.2599005,2.36496068 C37.8146243,2.14309663 37.3537816,2.03169299 36.8768293,2.03169299 C35.820475,2.03169299 35.0801582,2.49780129 34.6567838,3.42998358 C34.2325044,4.36214872 34.1765734,5.66592799 34.4882667,7.34135571 C34.8024941,9.029114 35.3411696,10.3367691 36.1032072,11.2628461 C36.8663309,12.1880486 37.7829482,12.6510356 38.853059,12.6510356 C39.3368895,12.6510356 39.7582728,12.5412269 40.1181139,12.3224326 C40.4779549,12.1035869 40.8034047,11.7549703 41.0942822,11.2773203 L41.2968286,12.3669186 L45.1399599,12.3669186 L43.2699812,2.31593004 L39.4264878,2.31593004" id="path30"></path>
                    <path d="M44.6783932,2.31593004 L46.5489151,12.3669186 L50.2367429,12.3669186 L49.9587166,10.8750428 C50.4251705,11.4508912 50.9274639,11.8762864 51.4654152,12.1511426 C52.0033669,12.4260675 52.5970683,12.5626638 53.2461579,12.5626638 C53.853978,12.5626638 54.3302065,12.424524 54.6757476,12.1450546 C55.0211085,11.8671114 55.2305328,11.4431911 55.3043837,10.8750428 C55.7083902,11.4508912 56.1674231,11.8762864 56.6813005,12.1511426 C57.1949973,12.4260675 57.7801915,12.5626638 58.43634,12.5626638 C59.2443534,12.5626638 59.8181441,12.3338885 60.1577126,11.8762864 C60.4967379,11.4170551 60.5850691,10.7507084 60.4218011,9.87379914 L59.015199,2.31593004 L55.1722489,2.31593004 L56.2606412,8.16601017 C56.3191066,8.47940153 56.3040826,8.71198405 56.2144845,8.86169985 C56.1248864,9.01304483 55.9590842,9.08900032 55.7176216,9.08900032 C55.4964313,9.08900032 55.3076416,9.0015203 55.1510708,8.82801808 C54.9946816,8.65437861 54.8877064,8.4140788 54.8306894,8.10706707 L53.7531574,2.31593004 L49.9304797,2.31593004 L51.0192341,8.16601017 C51.0775184,8.47940153 51.0621328,8.71198405 50.9725343,8.86169985 C50.8834793,9.01304483 50.7176771,9.08900032 50.4762145,9.08900032 C50.2481464,9.08900032 50.0539262,9.0015203 49.8939165,8.82801808 C49.7339064,8.65437861 49.6256648,8.4140788 49.5682857,8.10706707 L48.4907533,2.31593004 L44.6783932,2.31593004" id="path32"></path>
                    <path d="M64.9203575,8.60747454 L67.1887317,8.60747454 C67.2949822,9.17656603 67.2795967,9.60348755 67.142575,9.88753598 C67.005734,10.1732479 66.7467137,10.3153321 66.3675048,10.3153321 C66.0704731,10.3153321 65.8042124,10.1762662 65.5696281,9.89832305 C65.3350433,9.62037988 65.1181976,9.19042289 64.9203575,8.60747454 M69.8831952,5.83039242 C69.5119509,4.65235385 68.8579741,3.72487052 67.920179,3.04759951 C66.983108,2.37032849 65.878787,2.03169299 64.6081208,2.03169299 C63.1164457,2.03169299 62.0512225,2.48788883 61.4133549,3.40084645 C60.7751258,4.31459295 60.612944,5.61387903 60.9275334,7.30304358 C61.242847,8.99688995 61.8946517,10.3113877 62.8842145,11.2474458 C63.8730535,12.1834353 65.0995537,12.6510356 66.563535,12.6510356 C68.15947,12.6510356 69.2728414,12.2356215 69.9058212,11.4048618 C70.5382578,10.5740506 70.6988107,9.32086257 70.3871175,7.64550342 C70.3503733,7.45042701 70.320688,7.30002525 70.2987862,7.19934009 C70.2761607,7.09718006 70.2506385,7.00506969 70.2205916,6.91985345 L64.6061297,6.91985345 L64.5804269,6.78251969 C64.4426811,6.04227541 64.4321824,5.51238785 64.5487506,5.19217101 C64.6651382,4.87128532 64.9237964,4.71150271 65.324545,4.71150271 C65.6213957,4.71150271 65.878425,4.80296141 66.09509,4.98563868 C66.3124788,5.16919056 66.4978296,5.45107814 66.6511421,5.83039242 L69.8831952,5.83039242" id="path34"></path>
                    <path d="M75.3300449,7.32146224 L77.0077946,7.32146224 L77.1469887,12.6318624 L75.3300449,7.32146224 Z M69.5403689,2.31593004 L75.5219115,16.6461491 L80.2767734,16.6461491 L80.9140973,2.31593004 L76.8018093,2.31593004 L76.8734877,4.42659681 L74.3768643,4.42659681 L73.6629742,2.31593004 L69.5403689,2.31593004 Z" id="path36"></path>
                    <path d="M86.7082986,9.56973718 C86.4315392,8.08314345 86.3461042,7.06656807 86.4510879,6.51670125 C86.555891,5.96692021 86.867222,5.69204679 87.385082,5.69204679 C87.8960636,5.69204679 88.3036905,5.96235842 88.6079622,6.50217558 C88.9118723,7.041907 89.2043789,8.0647248 89.484034,9.56973718 C89.7644134,11.0746124 89.8527447,12.097413 89.7506568,12.641106 C89.647302,13.1847475 89.3404957,13.4565168 88.8296951,13.4565168 C88.3118356,13.4565168 87.8980546,13.1808546 87.5888952,12.6318624 C87.2791931,12.0820813 86.9854196,11.0608756 86.7082986,9.56973718 M88.4387211,0 L87.1943012,2.05098626 C87.1459724,2.05098626 87.0710357,2.04796793 86.969853,2.04174264 C86.8679462,2.03556879 86.7935526,2.03169299 86.7452238,2.03169299 C84.9286417,2.03169299 83.6440382,2.67902084 82.8903271,3.97508282 C82.1375207,5.26987573 81.981131,7.10340538 82.4217011,9.47138439 C82.8629949,11.839432 83.6996073,13.6753111 84.9331669,14.9768781 C86.1665459,16.2790968 87.6808469,16.930249 89.4767936,16.930249 C91.2649578,16.930249 92.5303747,16.2814463 93.2728634,14.9822288 C94.0155336,13.6837487 94.1657687,11.8464119 93.7233886,9.47138439 C93.4688935,8.10303692 93.0824447,6.91596051 92.5633179,5.90862878 C92.0447338,4.90122845 91.381707,4.0504552 90.5756847,3.35629186 L92.100846,1.53113634 L88.4387211,0" id="path38"></path>
                    <path d="M94.495382,7.43970854 L96.208609,16.6461491 L100.424795,16.6461491 L98.6402512,7.05651845 C98.5620561,6.63815455 98.5839579,6.32865618 98.7057755,6.12970397 C98.827412,5.93006576 99.0543943,5.83039242 99.3858171,5.83039242 C99.7237562,5.83039242 99.9909221,5.93006576 100.187314,6.12970397 C100.383163,6.32865618 100.520004,6.63815455 100.598018,7.05651845 L102.382924,16.6461491 L106.619744,16.6461491 L104.906517,7.43970854 C104.557899,5.56764381 103.88383,4.19936496 102.883407,3.33164791 C101.882803,2.46478835 100.481088,2.03169299 98.6788054,2.03169299 C96.8832202,2.03169299 95.6502038,2.46478835 94.9792125,3.33164791 C94.3084022,4.19936496 94.1469442,5.56764381 94.495382,7.43970854" id="path40"></path>
                    <polyline id="path42" points="105.692991 2.31593004 108.35958 16.6461491 112.586083 16.6461491 109.919856 2.31593004 105.692991 2.31593004"></polyline>
                </g>
            </g>
        </g>
    </g>
</svg>