<?xml version="1.0" encoding="UTF-8"?>
<svg width="66px" height="40px" viewBox="0 0 66 40" version="1.1" xmlns="http://www.w3.org/2000/svg" xmlns:xlink="http://www.w3.org/1999/xlink">
    <title>trello</title>
    <g id="trello" stroke="none" stroke-width="1" fill="none" fill-rule="evenodd">
        <g id="Group" transform="translate(0.000000, 14.000000)" fill="#121E48" fill-rule="nonzero">
            <g id="Trello_logo" transform="translate(0.000000, -0.000000)">
                <path d="M11.5521377,1.84741111e-15 L1.55823769,1.84741111e-15 C0.698487024,1.84741111e-15 0.00119638197,0.696350117 1.23732891e-05,1.5561 L1.23732891e-05,11.5353 C-0.00163759743,11.9496508 0.16178956,12.3476055 0.454190519,12.6411887 C0.746591481,12.9347718 1.14388349,13.0998 1.55823769,13.0998 L11.5521377,13.0998 C11.9661278,13.0992455 12.3628796,12.9339678 12.6548261,12.6404453 C12.9467725,12.3469229 13.1099119,11.9492872 13.108263,11.5353 L13.108263,1.5561 C13.1070809,0.697169323 12.4110684,0.0011568102 11.5521377,1.84741111e-15 Z M5.65323769,9.4353 C5.65268377,9.5737912 5.59699167,9.70635838 5.49847348,9.80369433 C5.39995532,9.90103029 5.26672549,9.95511798 5.12823769,9.95403347 L2.94423769,9.95403347 C2.65858802,9.95284351 2.42763769,9.720952 2.42763769,9.4353 L2.42763769,2.9358 C2.42763769,2.650148 2.65858802,2.41825649 2.94423769,2.4171 L5.12823769,2.4171 C5.41422972,2.41825088 5.6457868,2.64980797 5.64693769,2.9358 L5.65323769,9.4353 Z M10.6932377,6.4512 C10.6932377,6.58986632 10.6377354,6.7227635 10.5390934,6.82022177 C10.4404514,6.91768004 10.3068938,6.9715842 10.1682377,6.96997492 L7.98423769,6.96997492 C7.69824566,6.96874912 7.46668857,6.73719203 7.46553769,6.4512 L7.46553769,2.9358 C7.46668857,2.64980797 7.69824566,2.41825088 7.98423769,2.4171 L10.1682377,2.4171 C10.4538874,2.41825649 10.68484,2.650148 10.6848377,2.9358 L10.6932377,6.4512 Z" id="Shape"></path>
                <g id="Group" transform="translate(18.265838, 0.000000)">
                    <polygon id="Path" points="8.8956 0.9597 8.8956 3.4923 5.8947 3.4923 5.8947 13.0998 3.0009 13.0998 3.0009 3.4923 3.73034936e-16 3.4923 3.73034936e-16 0.9597"></polygon>
                    <path d="M12.579,13.0998 L9.9036,13.0998 L9.9036,3.6498 L12.579,3.6498 L12.579,5.46 C13.0872,4.1853 13.8999,3.4272 15.3468,3.5196 L15.3468,6.3189 C13.4568,6.1719 12.579,6.6339 12.579,8.148 L12.579,13.0998 Z" id="Path"></path>
                    <path d="M29.9628,13.1733 C28.2093,13.1733 27.1068,12.3333 27.1068,10.3467 L27.1068,0 L29.8011,0 L29.8011,9.9771 C29.8011,10.5504 30.1791,10.7541 30.6411,10.7541 C30.774374,10.7568013 30.907678,10.7504868 31.0401,10.7352 L31.0401,13.0641 C30.6877425,13.1499385 30.3252153,13.1866859 29.9628,13.1733 L29.9628,13.1733 Z" id="Path"></path>
                    <path d="M35.5824,13.1733 C33.8289,13.1733 32.7243,12.3333 32.7243,10.3467 L32.7243,0 L35.4186,0 L35.4186,9.9771 C35.4186,10.5504 35.7987,10.7541 36.2691,10.7541 C36.4016761,10.7568486 36.5342851,10.7505339 36.666,10.7352 L36.666,13.0641 C36.3116437,13.150761 35.9469222,13.1875159 35.5824,13.1733 Z" id="Path"></path>
                    <path d="M37.9575,8.3706 C37.9575,5.4516 39.6375,3.4545 42.5313,3.4545 C45.4251,3.4545 47.0694,5.4453 47.0694,8.3706 C47.0694,11.2959 45.4062,13.3224 42.5313,13.3224 C39.6564,13.3224 37.9575,11.2707 37.9575,8.3706 L37.9575,8.3706 Z M40.5804,8.3706 C40.5804,9.7923 41.1768,10.92 42.5313,10.92 C43.8858,10.92 44.4486,9.7923 44.4486,8.3706 C44.4486,6.9489 43.8711,5.8506 42.5313,5.8506 C41.1915,5.8506 40.5804,6.9468 40.5804,8.3706 Z" id="Shape"></path>
                    <path d="M18.9588,9.2253 C19.7078711,9.3076058 20.4606433,9.35176284 21.2142,9.3576 C23.2638,9.3576 24.9942,8.8074 24.9942,6.8229 C24.9942,4.8972 23.2155,3.4503 21.0756,3.4503 C18.1944,3.4503 16.3485,5.5398 16.3485,8.4588 C16.3485,11.4891 17.9403,13.2888 21.5376,13.2888 C22.6047856,13.2974873 23.6643189,13.1080815 24.6624,12.7302 L24.6624,10.4664 C23.7384,10.7625 22.6989,11.0565 21.6321,11.0565 C20.1999,11.0565 19.2024,10.5861 18.9588,9.2253 L18.9588,9.2253 Z M21.021,5.5125 C21.7791,5.5125 22.3881,6.027 22.3881,6.7305 C22.3881,7.6356 21.4326,7.9191 20.3322,7.9191 C19.863876,7.91694872 19.3963699,7.87974478 18.9336,7.8078 C18.9685558,7.36652631 19.0951505,6.93739154 19.3053,6.5478 C19.6486132,5.91908346 20.3047019,5.52478781 21.021,5.5167 L21.021,5.5125 Z" id="Shape"></path>
                </g>
            </g>
        </g>
    </g>
</svg>