<?xml version="1.0" encoding="utf-8"?>
<!-- Generator: Adobe Illustrator 24.3.0, SVG Export Plug-In . SVG Version: 6.00 Build 0)  -->
<svg version="1.1" id="Layer_1" xmlns="http://www.w3.org/2000/svg" xmlns:xlink="http://www.w3.org/1999/xlink" x="0px" y="0px"
	 viewBox="0 0 44 40" style="enable-background:new 0 0 44 40;" xml:space="preserve">
<style type="text/css">
	.st0{fill:#121E48;}
</style>
<g id="Symbols">
	<g id="marcas-_x2F_-integrações-atual" transform="translate(-504.000000, -12.000000)">
		<g id="flash-logo-gradient" transform="translate(504.000000, 12.000000)">
			<path id="Path" class="st0" d="M43.6,26.2c-0.1,0.1-0.1,0.3-0.2,0.4c-0.2,0.3-0.7,0.4-1,0.3c-0.3-0.1-0.6-0.4-0.6-0.8
				c0-1.5,0-3,0-4.5c0-0.6-0.1-1.1-0.4-1.6c-0.4-0.6-0.9-1-1.6-1.1c-0.8-0.2-1.5-0.1-2.2,0.2c-0.8,0.4-1.3,1.1-1.3,2.1
				c0,1.6,0,3.3,0,4.9c0,0.4-0.1,0.7-0.5,0.8c-0.3,0.2-0.7,0.1-1-0.1c-0.2-0.1-0.3-0.4-0.3-0.6c0-0.1,0-0.2,0-0.2
				c0-3.9,0-7.9,0-11.8c0-0.6,0.1-1,0.7-1.1c0.1,0,0.3,0,0.4,0c0.5,0.2,0.7,0.4,0.7,1.1c0,1.3,0,2.6,0,3.9c0,0,0,0.1,0,0.1
				c0,0.1,0,0.1,0.1,0c0.1-0.1,0.2-0.2,0.3-0.3c1-0.7,2.1-0.9,3.3-0.8c1.7,0.3,3,1.4,3.4,3.1c0.1,0.3,0.1,0.6,0.2,0.9
				C43.6,22.8,43.6,24.5,43.6,26.2z"/>
			<path id="Shape" class="st0" d="M16.4,27c-0.3-0.1-0.6-0.1-0.9-0.2c-1.4-0.4-2.3-1.4-2.8-2.7c-0.5-1.3-0.6-2.7,0-4.1
				c0.7-1.6,1.9-2.6,3.7-2.9c1.3-0.2,2.6,0,3.7,0.8c1.1,0.8,1.8,1.9,2,3.2c0.1,0.3,0.1,0.6,0.1,0.9c0,1.3,0,2.6,0,4
				c0,0.4-0.3,0.8-0.6,0.9c-0.4,0.1-0.8,0-1.1-0.4c-0.1-0.2-0.1-0.3-0.1-0.5c0-0.2,0-0.4,0-0.6c-0.3,0.3-0.5,0.6-0.8,0.8
				c-0.6,0.4-1.3,0.7-2,0.8c0,0-0.1,0-0.1,0C17,27,16.7,27,16.4,27z M20.4,22.1c0-1.1-0.4-2-1.2-2.7c-1.4-1.1-3.5-0.8-4.5,0.6
				c-0.5,0.8-0.7,1.7-0.6,2.6c0.1,0.7,0.4,1.4,1,1.9c0.7,0.6,1.5,0.9,2.5,0.8c0.9-0.1,1.6-0.5,2.1-1.2
				C20.1,23.6,20.4,22.9,20.4,22.1z"/>
			<path id="Path_1_" class="st0" d="M27.8,27c-0.3-0.1-0.6-0.1-0.9-0.2c-0.8-0.2-1.6-0.5-2.3-1c-0.3-0.2-0.5-0.5-0.4-0.9
				c0.1-0.7,1.1-1,1.6-0.5c0.7,0.7,1.6,1,2.6,1c0.5,0,1-0.1,1.5-0.3c0.6-0.4,0.8-1.1,0.3-1.6c-0.2-0.2-0.4-0.3-0.6-0.4
				c-0.6-0.2-1.1-0.4-1.7-0.5c-0.7-0.2-1.4-0.4-2.1-0.8c-0.6-0.4-1-0.9-1.1-1.6c-0.2-1,0.2-1.8,1-2.4c0.6-0.4,1.2-0.6,1.9-0.7
				c1-0.1,1.9,0,2.9,0.3c0.5,0.2,1,0.5,1.4,1c0,0,0,0,0.1,0.1c0.2,0.3,0.3,0.6,0.1,0.9c-0.2,0.3-0.5,0.4-0.9,0.4
				c-0.3,0-0.5-0.1-0.7-0.3c-0.5-0.5-1.1-0.7-1.8-0.7c-0.5,0-0.9,0-1.3,0.1c-0.2,0-0.4,0.1-0.5,0.2c-0.6,0.4-0.5,1.2,0,1.5
				c0.3,0.2,0.7,0.3,1,0.4c0.7,0.2,1.4,0.3,2,0.5c0.5,0.2,1,0.4,1.5,0.7c0.6,0.4,0.9,1,0.9,1.7c0.1,1.4-0.7,2.4-2,2.9
				c-0.4,0.1-0.7,0.2-1.1,0.2c0,0-0.1,0-0.1,0C28.5,27,28.2,27,27.8,27z"/>
			<path id="Path_2_" class="st0" d="M5.8,13c0.1,0.1,0.3,0.1,0.4,0.2c0.3,0.2,0.4,0.5,0.3,0.9c-0.1,0.3-0.4,0.6-0.7,0.6
				c-0.2,0-0.4,0-0.6,0.1c-0.9,0.2-1.6,0.8-1.7,1.7c-0.1,0.3-0.1,0.6-0.1,0.9c0,0.1,0,0.2,0.2,0.2c0.5,0,1.1,0,1.6,0
				c0.1,0,0.2,0,0.4,0c0.4,0.1,0.6,0.5,0.6,0.8c-0.1,0.4-0.4,0.7-0.8,0.7c-0.6,0-1.1,0-1.7,0c-0.2,0-0.2,0-0.2,0.2
				c0,2.2,0,4.5,0,6.7c0,0.5-0.3,0.9-0.9,0.9c-0.5,0-0.9-0.4-0.9-1c0-2.2,0-4.4,0-6.7c0-0.3,0-0.3-0.3-0.3c-0.1,0-0.3,0-0.4,0
				c-0.4,0-0.8-0.2-0.9-0.6c0-0.1,0-0.3,0-0.4c0.2-0.5,0.5-0.6,1-0.6c0.1,0,0.3,0,0.4,0c0.2,0,0.2,0,0.2-0.2c0-0.5,0-1,0.2-1.5
				c0.5-1.5,1.5-2.5,3-2.8c0.1,0,0.2,0,0.4-0.1C5.4,13,5.6,13,5.8,13z"/>
			<path id="Path_3_" class="st0" d="M8.7,13c0.3,0.1,0.6,0.3,0.7,0.6c0,0.2,0.1,0.3,0.1,0.5c0,3.2,0,6.4,0,9.6c0,0.4,0,0.7,0.2,1.1
				c0.2,0.3,0.4,0.4,0.7,0.4c0.1,0,0.2,0,0.3,0c0.4,0,0.7,0.2,0.8,0.6c0.1,0.4,0,0.8-0.4,1c-0.4,0.2-0.8,0.2-1.3,0.2
				c-1-0.2-1.6-0.8-2-1.8c-0.2-0.5-0.3-1-0.3-1.6c0-3.2,0-6.4,0-9.5c0-0.6,0.2-0.8,0.7-1C8.4,13,8.6,13,8.7,13z"/>
		</g>
	</g>
</g>
</svg>
