<?xml version="1.0" encoding="UTF-8"?>
<svg width="93px" height="20px" viewBox="0 0 93 20" version="1.1" xmlns="http://www.w3.org/2000/svg" xmlns:xlink="http://www.w3.org/1999/xlink">
    <title>GetNinjas (2)</title>
    <g id="Symbols" stroke="none" stroke-width="1" fill="none" fill-rule="evenodd">
        <g id="marcas-/-parceiros-final-copy-4" transform="translate(-208.000000, -10.000000)" fill="#121E48" fill-rule="nonzero">
            <g id="GetNinjas-(2)" transform="translate(208.000000, 10.000000)">
                <path d="M12.6835026,7.89177772 C13.0219657,7.89417024 13.2948866,8.16958991 13.2941957,8.50806076 L13.2941957,14.3124282 L13.2302053,14.3602647 C12.8572529,14.6358934 12.4605807,14.8778883 12.0448545,15.0834032 C11.6348274,15.284068 11.1937378,15.4524275 10.7315255,15.5804057 C10.2693132,15.7083838 9.77355326,15.8059205 9.25294319,15.8661821 C8.73233312,15.9264436 8.16885658,15.956885 7.5755599,15.956885 C6.49644333,15.956885 5.48380083,15.7618116 4.56434629,15.3772559 C3.66688429,15.0067308 2.85165885,14.4621914 2.16568819,13.7750443 C1.49100736,13.0978784 0.956729724,12.2840369 0.57528034,11.3533998 C0.193830957,10.4227627 0,9.40142267 0,8.31236604 C0,7.20529308 0.185133414,6.17277048 0.549187712,5.24337589 C0.913242009,4.3139813 1.44379213,3.5038673 2.12530674,2.82173143 C2.80682136,2.13959556 3.63930047,1.61339422 4.60162147,1.23815736 C5.56394247,0.862920511 6.65051409,0.674680831 7.83337993,0.674680831 C8.44407169,0.674680831 9.02742832,0.726244836 9.56667599,0.828130339 C10.0776281,0.922540047 10.5789627,1.06310505 11.0645171,1.24809741 C11.5205169,1.42577579 11.9448327,1.63948684 12.3244184,1.88612431 L12.6139223,2.08306154 C13.1028484,2.43344827 13.2258566,3.1081291 12.8934862,3.61755661 L12.3964837,4.38791042 C12.2908707,4.54819371 12.16165,4.67555059 12.0137918,4.76811729 C11.6627838,4.98555587 11.233498,4.95697823 10.8060759,4.68735439 L10.0605722,4.27856988 C9.83319355,4.16550182 9.59773864,4.07231386 9.36228373,4.00211226 C9.11655489,3.92903846 8.86508697,3.87687445 8.61056751,3.84617774 C8.31237195,3.8118976 8.01239086,3.79550859 7.71223558,3.79709875 C7.10589259,3.79709875 6.55421986,3.90643929 6.07212748,4.12015034 C5.598085,4.32858874 5.17593215,4.63915747 4.83583388,5.02966483 C4.49600845,5.42105427 4.22949088,5.89755537 4.04497872,6.44798559 C3.8586028,7.00214332 3.76355108,7.62836642 3.76355108,8.31174479 C3.76355108,9.06718852 3.8691641,9.74683938 4.07417762,10.3289535 C4.27919113,10.9110676 4.57118007,11.4055851 4.92529432,11.803187 C5.28023626,12.1967363 5.71735266,12.5074473 6.20569689,12.7133228 C6.69897183,12.9220638 7.24753828,13.0276768 7.83462243,13.0276768 C8.28627341,13.0276768 8.69070916,12.9885379 9.03736837,12.9108812 C9.34985866,12.8406797 9.6499239,12.7493554 9.93010903,12.6375299 L9.93010903,10.6818252 L8.65219147,10.6818252 C8.39872022,10.6818252 8.19432796,10.6097599 8.04584848,10.4674929 C7.89364147,10.3233622 7.81722735,10.1394713 7.81722735,9.92079023 L7.81722735,8.66461653 C7.81653465,8.24061076 8.15861361,7.89575518 8.58261113,7.89302022 L12.6847451,7.89302022 L12.6835026,7.89177772 Z M23.3889355,6.19886311 C23.8113876,6.62131519 24.1456217,7.14503153 24.3810766,7.7569658 C24.6171528,8.36579381 24.7351909,9.06159724 24.7351909,9.83008729 C24.7351909,10.072376 24.7246296,10.271177 24.7041282,10.4246265 C24.6805206,10.5960923 24.6382754,10.7315255 24.5724226,10.838381 C24.5003572,10.9564191 24.401578,11.0390458 24.2785699,11.0843972 C24.1710931,11.1247787 24.04063,11.1446588 23.8809679,11.1446588 L18.0989656,11.1446588 C18.2076849,11.8820862 18.4468673,12.4263039 18.8134066,12.763023 C19.2072811,13.1258348 19.7254061,13.3097257 20.3522505,13.3097257 C20.6926972,13.3097257 20.9877924,13.2681018 21.2300811,13.1867176 C21.4785823,13.1034697 21.7040972,13.008418 21.8991706,12.90529 L22.4582984,12.613301 C22.6508868,12.515143 22.8540366,12.4654428 23.0633989,12.4654428 C23.3616003,12.4654428 23.5933277,12.5791321 23.7505048,12.804647 L24.3655453,13.5687882 C24.5776133,13.8328277 24.5572794,14.2140886 24.3183301,14.4540739 C24.0822539,14.6839375 23.8300252,14.8827385 23.5697201,15.0455068 C23.2029727,15.2767996 22.8103473,15.4642507 22.3999006,15.6040133 C22.0111912,15.7352059 21.6106815,15.8284155 21.2039884,15.8823347 C20.8286775,15.9317288 20.4506098,15.9572515 20.0720654,15.9587488 C19.3327742,15.9587488 18.627652,15.8357407 17.9784425,15.5922095 C17.3338246,15.3532797 16.7474241,14.9799232 16.2581928,14.4969403 C15.7692666,14.0148479 15.3778772,13.4078837 15.095207,12.6934427 C14.8125369,11.9790016 14.6702146,11.1434163 14.6702146,10.2084304 C14.6672162,9.51295371 14.7905716,8.8227108 15.0343242,8.1713416 C15.2828255,7.53145094 15.6294847,6.96300438 16.0904544,6.48029075 C16.5592023,5.98829223 17.122855,5.59646165 17.7473364,5.32848756 C18.3921971,5.04643867 19.1302457,4.90292921 19.9384959,4.90292921 C20.6386482,4.90292921 21.2897214,5.01475476 21.873078,5.23467835 C22.4601621,5.45584444 22.9726959,5.78262355 23.395148,6.20569689 L23.3889355,6.19886311 Z M32.3921349,13.3327121 L33.1022272,14.4522101 C33.1749138,14.5665207 33.2159165,14.7007113 33.2016277,14.8355233 C33.1863394,15.0127717 33.0876123,15.1721651 32.9357314,15.2648091 C32.6099397,15.4623636 32.2602422,15.6174832 31.8951325,15.7264001 C31.385705,15.8817134 30.8501848,15.95937 30.3047246,15.95937 C29.7952971,15.95937 29.3399186,15.8829559 28.9479079,15.7326127 C28.5521697,15.5810269 28.2148293,15.3617246 27.943963,15.0821607 C27.6730966,14.8025968 27.4655981,14.4596651 27.3258162,14.0645482 C27.1872767,13.6744013 27.1176964,13.2333116 27.1176964,12.7537042 L27.1176964,7.52461715 L26.3970428,7.52461715 C26.2063114,7.52767446 26.0217803,7.45688931 25.882024,7.32705868 C25.7354083,7.19286801 25.6620964,6.99903706 25.6620964,6.75239959 L25.6620964,5.99322834 C25.6609639,5.65436167 25.9000293,5.36217069 26.2324108,5.2961824 L27.335135,5.08060759 L27.9191129,2.63721927 C27.9812382,2.36138291 28.1862517,2.03336129 28.7497282,2.03336129 L29.8213897,2.03336129 C30.2090517,2.03336129 30.5221632,2.35020035 30.5221632,2.73972603 L30.5221632,5.07750132 L32.5083093,5.07750132 C32.6484692,5.07799445 32.7826833,5.13418885 32.8813832,5.23370451 C32.9800832,5.33322017 33.0351711,5.4678922 33.0345106,5.60805144 L33.0345106,6.80272109 C33.0358859,7.20048638 32.7147273,7.52414752 32.3169633,7.52585966 L30.521542,7.52585966 L30.521542,12.5443419 C30.521542,12.7493554 30.5693784,12.9183363 30.6644302,13.0475569 C30.7514056,13.16311 30.8737924,13.2202653 31.042152,13.2202653 C31.1390675,13.2202653 31.2192091,13.2109465 31.2800919,13.1916876 C31.3396311,13.1745577 31.3972865,13.151454 31.452179,13.1227285 L31.6180536,13.0388594 C31.6894977,13.0053117 31.7702606,12.9891591 31.8590998,12.9891591 C31.9870779,12.9891591 32.095176,13.0220855 32.1790451,13.0866959 C32.2517317,13.1426086 32.3206908,13.2233715 32.3902712,13.3333333 L32.3921349,13.3327121 Z M48.0228621,0.836206629 C48.2721169,0.838255122 48.4729992,1.04107968 48.4726523,1.29034262 L48.4726523,15.2064113 C48.4736816,15.5353131 48.2082516,15.8029666 47.8793527,15.804678 L46.5604324,15.804678 C46.2808685,15.804678 46.0385798,15.7593266 45.8397788,15.6711086 C45.6366291,15.5791632 45.4421769,15.4151524 45.2620135,15.1803187 L39.138322,6.88659025 L39.1507471,7.09657379 L39.1718697,7.79361973 L39.1718697,15.1697574 C39.1718697,15.5189016 38.8898208,15.8034355 38.5444041,15.8034355 L36.4178548,15.8034355 C36.1196533,15.8034355 35.8773618,15.5586618 35.8773618,15.2567328 L35.8773618,1.45994471 C35.8763333,1.11707722 36.1532664,0.838197807 36.4961327,0.836827882 L37.8094617,0.836827882 C37.9396423,0.835420763 38.0697721,0.842684788 38.1989874,0.858571739 C38.3074222,0.871953845 38.4132017,0.901697776 38.5127202,0.946789675 C38.6059081,0.990277389 38.6978536,1.0524027 38.782344,1.12943808 C38.8773618,1.21901897 38.9660053,1.31513335 39.047619,1.41707825 L45.216662,9.77479576 L45.2011307,9.50144441 L45.1812506,8.74351567 L45.1812506,1.3064952 C45.1812506,1.04681142 45.3906129,0.836206629 45.6484329,0.836206629 L48.0228621,0.836206629 Z M53.8154257,5.05762122 C54.0595782,5.05762122 54.2583792,5.25766471 54.2583792,5.50492343 L54.2583792,15.3530271 C54.2583792,15.5990433 54.0595782,15.8003293 53.8154257,15.8003293 L51.2906532,15.8003293 C51.0458795,15.8003293 50.8476998,15.5996645 50.8476998,15.3530271 L50.8476998,5.50430218 C50.8476998,5.25828596 51.0465008,5.05699997 51.2906532,5.05699997 L53.8098344,5.05699997 L53.8154257,5.05762122 Z M65.2365421,6.07274873 C65.5484111,6.44550057 65.7863511,6.88037772 65.9447706,7.38359271 C66.1019476,7.88308017 66.1808468,8.43164663 66.1808468,9.01500326 L66.1808468,15.0610381 C66.1808468,15.4673376 65.8528251,15.7978443 65.4502532,15.7978443 L63.3690554,15.7978443 C63.0406425,15.7957924 62.7756893,15.5286173 62.77638,15.2001988 L62.77638,9.01624577 C62.77638,8.5471997 62.6707669,8.18003914 62.4632684,7.92594663 C62.2601187,7.67744541 61.9637809,7.55630106 61.5581027,7.55630106 C61.2449911,7.55630106 60.9461684,7.6258814 60.6697108,7.76131457 C60.3915993,7.9008436 60.1330177,8.0762948 59.9005995,8.28316715 L59.9005995,15.1063896 C59.9019758,15.4867582 59.5951017,15.7964119 59.2147361,15.7984655 L57.0813531,15.7984655 C56.7568571,15.7960746 56.4951611,15.5321584 56.4955111,15.2076538 L56.4955111,5.64470537 C56.4955111,5.32165378 56.7564377,5.05762122 57.0776256,5.05762122 L58.5667692,5.05762122 C58.7904203,5.05762122 58.9817662,5.11042773 59.1370795,5.21479825 C59.2967415,5.32165378 59.4104308,5.48193707 59.4744199,5.6919206 L59.5818967,6.05535365 L60.0273351,5.69254186 C60.2472587,5.52480353 60.4870624,5.38191532 60.7386699,5.26698351 C60.9902774,5.15205169 61.2654925,5.06196999 61.5568602,4.99549592 C61.8482279,4.92902184 62.1781133,4.89609542 62.5135899,4.89609542 C63.0975678,4.89609542 63.6243904,5.00046594 64.0791476,5.20672196 C64.5339049,5.41297798 64.9228093,5.70496692 65.2346783,6.07274873 L65.2365421,6.07274873 Z M71.3527786,5.05762122 C71.4633886,5.05794943 71.5693193,5.10228964 71.6471822,5.18085197 C71.7250452,5.25941431 71.7684365,5.36573727 71.767783,5.47634579 L71.767783,16.2737241 C71.767783,16.7756966 71.7037865,17.2553039 71.5776722,17.6994999 C71.4484515,18.1530146 71.2322555,18.5555866 70.936539,18.8966546 C70.6408225,19.2377225 70.2432206,19.5179076 69.7598857,19.7080111 C69.2815208,19.9024633 68.6826329,20 67.9818594,20 C67.7234181,20 67.4798869,19.9844687 67.2574783,19.953406 L66.7791135,19.8651881 C66.5927376,19.8217004 66.4498493,19.6371882 66.4684869,19.4365235 L66.5554624,18.0138539 C66.5741,17.8262355 66.6393315,17.6845898 66.7517783,17.5895381 C66.8642251,17.4944864 67.0468735,17.4528624 67.3307862,17.4528624 C67.5556798,17.4528624 67.7395707,17.4342248 67.8787314,17.3907371 C68.002982,17.358432 68.09617,17.3050042 68.1657503,17.2273476 C68.2353307,17.1496909 68.2875159,17.0347591 68.3179573,16.8931134 C68.3521262,16.7328301 68.3695213,16.5222253 68.3695213,16.2681328 L68.3695213,5.49684714 C68.3695213,5.24834591 68.565216,5.05824248 68.8043985,5.05824248 L71.3596123,5.05824248 L71.3527786,5.05762122 Z M81.6469419,6.06591495 C82.0156574,6.45602419 82.3004654,6.91759496 82.4837698,7.4221104 C82.6763582,7.94023545 82.772654,8.51365204 82.772654,9.12620756 L82.772654,15.2691579 C82.7733457,15.5595946 82.5393638,15.7960745 82.2489361,15.7984655 L81.1990184,15.7984655 C80.8772093,15.7984655 80.6361631,15.7524928 80.461591,15.6586836 C80.2770789,15.5592831 80.1304631,15.3685584 80.0161526,15.0747057 L79.8751281,14.7069239 L79.2849377,15.1567111 C79.040164,15.3287982 78.7879353,15.4772777 78.5176902,15.5978008 C78.2451939,15.7216797 77.959125,15.8132134 77.665331,15.8705309 C77.3671295,15.9289286 77.0328953,15.9587488 76.6731898,15.9587488 C76.1873699,15.9587488 75.738204,15.8935172 75.3393595,15.7649178 C74.935545,15.6344547 74.5851583,15.4381387 74.3006244,15.1821825 C74.0160905,14.9262262 73.7911968,14.6025534 73.6358836,14.2217252 C73.4824341,13.8446246 73.4047774,13.4053987 73.4047774,12.9158513 C73.4047774,12.5244618 73.5041779,12.1175411 73.6998726,11.7075141 C73.8955674,11.297487 74.2403628,10.9154164 74.7187277,10.5818035 C75.19088,10.2537819 75.8295282,9.97670301 76.6210046,9.75740068 C77.3739633,9.5492809 78.3244805,9.43931911 79.4458423,9.43000031 L79.4458423,9.14173889 C79.4458423,8.57018607 79.3340167,8.15705278 79.1134719,7.91538533 C78.892927,7.67371789 78.5841643,7.55505855 78.1679247,7.55505855 C77.8212655,7.55505855 77.5367316,7.59233374 77.321778,7.66688411 C77.0981269,7.74454074 76.8974622,7.83213742 76.7228901,7.92781039 L76.1799149,8.20364676 C75.993539,8.29372845 75.7574628,8.33845867 75.4965365,8.33845867 C75.2523841,8.33845867 75.0392943,8.27633336 74.8628584,8.15518902 C74.6938776,8.03715093 74.5522319,7.88991396 74.4615289,7.71534184 L74.0533656,7.00338583 C73.9278725,6.78346224 73.9788153,6.50017084 74.1701612,6.34361507 C74.7460628,5.87519026 75.3834685,5.51486348 76.0662256,5.27133228 C76.8409282,4.99611717 77.6814836,4.85509272 78.5661479,4.85509272 C79.2079023,4.85509272 79.796229,4.96194825 80.3149753,5.17317429 C80.8337216,5.38440034 81.2828876,5.68508682 81.6444569,6.06405119 L81.6469419,6.06591495 Z M92.2921132,11.1011711 C92.4368652,11.4223589 92.5095518,11.8093996 92.5095518,12.252353 C92.5095518,12.7866306 92.412015,13.2898456 92.2175628,13.7433604 C92.0231106,14.1968751 91.7286367,14.5982046 91.341596,14.9274687 C90.9589041,15.2542478 90.4811605,15.5114466 89.922654,15.69161 C89.3641475,15.8717734 88.7217718,15.9606126 88.0048458,15.9606126 C87.6406503,15.9600467 87.277301,15.9255213 86.9195167,15.8574845 C86.5604324,15.7953592 86.2081819,15.6959587 85.8758115,15.5804057 C85.5403349,15.4642314 85.2234958,15.3232069 84.9439319,15.1616811 C84.7699811,15.0641444 84.610319,14.9603951 84.465567,14.8535396 C84.2500656,14.6901781 84.1950584,14.3892565 84.3388314,14.1602212 L84.8867766,13.2842543 C84.9861771,13.1301836 85.106079,13.0077967 85.2446184,12.9189575 C85.3893704,12.8257696 85.5757463,12.7785543 85.8037462,12.7785543 C86.0087597,12.7785543 86.1982419,12.8257696 86.3641164,12.9189575 L86.8275712,13.1798838 C87.006911,13.2786716 87.1941359,13.3624137 87.3873202,13.4302488 C87.5910912,13.5047992 87.8569875,13.5420744 88.1763116,13.5420744 C88.3999627,13.5420744 88.5882024,13.5184667 88.7397882,13.4737365 C88.8839189,13.4302488 88.9982294,13.3712298 89.0814773,13.2997857 C89.1647253,13.2283416 89.2225018,13.1494424 89.2591557,13.0637095 C89.2960269,12.9792338 89.3152644,12.8881202 89.3156897,12.7959494 C89.3215177,12.6464799 89.2629253,12.5016955 89.1547852,12.3983475 C89.0305346,12.2778244 88.8609325,12.1715901 88.6540552,12.0815084 C88.4079528,11.9784856 88.1558927,11.8903164 87.8992328,11.8174758 L87.0077346,11.5279719 C86.6986377,11.4168734 86.3974621,11.2848626 86.1062964,11.132855 C85.8037462,10.9750567 85.5297736,10.7725282 85.2936974,10.5302395 C85.0445442,10.2699933 84.8472017,9.96470272 84.7122045,9.63066505 C84.5655888,9.27841456 84.4904172,8.84788619 84.4904172,8.35336874 C84.4904172,7.89177772 84.5804989,7.44633927 84.757556,7.0288572 C84.9346131,6.61137514 85.2061007,6.23800205 85.5608362,5.92302674 C85.9155717,5.60805144 86.3610102,5.35768645 86.8903178,5.17317429 C87.4196254,4.98866213 88.0371509,4.89795918 88.7354394,4.89795918 C89.1081912,4.89795918 89.4883981,4.93274936 89.8474824,5.00108719 C90.1921213,5.06573854 90.5299143,5.16266684 90.8563974,5.29059112 C91.1707514,5.41484174 91.4621191,5.56394247 91.7218029,5.72546827 C91.8678711,5.81991696 92.0083058,5.92280554 92.1423912,6.03360979 C92.3585873,6.21998571 92.4058025,6.53185475 92.252353,6.77911347 L91.7398192,7.58363619 C91.6466313,7.73149442 91.5435032,7.84021371 91.4329202,7.90668779 C91.2030566,8.04336346 90.8315472,8.0414997 90.5072531,7.90047526 L90.0338583,7.69421924 C89.87109,7.62339639 89.6847141,7.55630106 89.4778368,7.49417575 C89.2557225,7.43175022 89.0257789,7.40162113 88.7950797,7.40471531 C88.4384804,7.40471531 88.1651291,7.47118939 87.9843444,7.60165253 C87.8166061,7.72217563 87.7358432,7.88556518 87.7358432,8.10114 C87.7358432,8.25024074 87.7867859,8.37076383 87.8911565,8.46767931 C88.0135433,8.58198987 88.1806604,8.68511788 88.3881589,8.77519958 C88.6080825,8.86963004 88.8603112,8.9615755 89.1336626,9.04544466 L90.018327,9.33991862 C90.322741,9.4486379 90.6228062,9.57847979 90.9129314,9.72385301 C91.2061394,9.87076994 91.4768438,10.0588405 91.7168329,10.2823595 C91.9566365,10.5060106 92.15171,10.7824682 92.2970832,11.1024136 L92.2921132,11.1011711 Z M52.566707,3.30444507 C50.8570186,3.30444507 50.8570186,3.30444507 50.8570186,1.72397726 C50.8570186,0.77159631 51.6224024,0 52.566707,0 C53.5110117,0 54.2770167,0.77159631 54.2770167,1.72397726 C54.2770167,3.30444507 54.2770167,3.30444507 52.566707,3.30444507 Z M70.0953623,3.30444507 C68.3850527,3.30444507 68.3850527,3.30444507 68.3850527,1.72397726 C68.3850527,0.77159631 69.1510577,0 70.0953623,0 C71.039667,0 71.8050508,0.77159631 71.8050508,1.72397726 C71.8050508,3.30444507 71.8050508,3.30444507 70.0953623,3.30444507 Z M18.4425186,9.0224583 L21.9501134,9.0224583 C21.9389308,8.84415867 21.9109744,8.66834405 21.8650017,8.49874196 C21.8101437,8.29121194 21.7144706,8.09669785 21.5835741,7.92656789 C21.4562172,7.76255708 21.2853726,7.62712391 21.0753891,7.5239959 C20.8654055,7.42086789 20.6032367,7.36868263 20.296959,7.36868263 C19.7514988,7.36868263 19.3228342,7.5239959 19.0221477,7.82965241 C18.7475538,8.10921629 18.5518591,8.50992452 18.4425186,9.0224583 Z M77.5323828,11.992048 C77.3273693,12.0995247 77.1863449,12.2188053 77.1124157,12.3461622 C77.0360016,12.4784891 76.9987264,12.6176498 76.9987264,12.7735843 C76.9987264,13.0779983 77.0751406,13.2892244 77.2248625,13.4010499 C77.3888734,13.5253005 77.6423446,13.5874258 77.9784425,13.5874258 C78.3511944,13.5874258 78.6823222,13.5209518 78.9600224,13.3911099 C79.2259187,13.2668593 79.5005125,13.0618457 79.7763489,12.7860094 L79.7763489,11.5832634 C79.2420713,11.589476 78.792284,11.6292362 78.4394123,11.7013015 C78.0560992,11.7795794 77.7510639,11.8771161 77.5323828,11.9908055 L77.5323828,11.992048 Z" id="Shape"></path>
            </g>
        </g>
    </g>
</svg>