<?xml version="1.0" encoding="utf-8"?>
<!-- Generator: Adobe Illustrator 26.0.3, SVG Export Plug-In . SVG Version: 6.00 Build 0)  -->
<svg version="1.1" id="Camada_1" xmlns="http://www.w3.org/2000/svg" xmlns:xlink="http://www.w3.org/1999/xlink" x="0px" y="0px"
	 viewBox="0 0 24 24" style="enable-background:new 0 0 24 24;" xml:space="preserve">
<style type="text/css">
	.st0{fill:none;stroke:#4BA9FF;stroke-width:1.5;stroke-linecap:round;stroke-linejoin:round;}
	.st1{fill:none;}
</style>
<g>
	<path class="st0" d="M19,21.5H5c-1.1,0-2-0.9-2-2v-3c0-1.1,0.9-2,2-2h14c1.1,0,2,0.9,2,2v3C21,20.6,20.1,21.5,19,21.5z"/>
	<path class="st0" d="M17.1,14.5H7c-1.1,0-2-0.9-2-2v-3c0-1.1,0.9-2,2-2h10c1.1,0,2,0.9,2,2v3.1C19,13.7,18.2,14.5,17.1,14.5z"/>
	<path class="st0" d="M13.2,2.5c1.1,0,1.8,0.9,1.8,1.8c0,1.8-2.9,3.2-3,3.2S9,6.1,9,4.3c0-0.9,0.7-1.8,1.8-1.8c0.6,0,1,0.3,1.2,0.5
		C12.2,2.8,12.6,2.5,13.2,2.5z"/>
	<path class="st0" d="M21,17.5c-0.5,0-1.1,0.2-1.5,0.5s-1,0.5-1.5,0.5s-1.1-0.2-1.5-0.5s-1-0.5-1.5-0.5s-1.1,0.2-1.5,0.5
		s-1,0.5-1.5,0.5s-1.1-0.2-1.5-0.5s-1-0.5-1.5-0.5S7.9,17.7,7.5,18s-1,0.5-1.5,0.5S4.9,18.3,4.5,18s-1-0.5-1.5-0.5"/>
	<path class="st0" d="M19,10.5c-0.4,0-0.8,0.2-1.2,0.5c-0.3,0.3-0.7,0.5-1.2,0.5c-0.4,0-0.8-0.2-1.2-0.5s-0.7-0.5-1.2-0.5
		c-0.4,0-0.8,0.2-1.2,0.5c-0.3,0.3-0.7,0.5-1.2,0.5c-0.4,0-0.8-0.2-1.2-0.5c-0.3-0.3-0.7-0.5-1.2-0.5c-0.4,0-0.8,0.2-1.2,0.5
		s-0.7,0.5-1.2,0.5c-0.4,0-0.8-0.2-1.2-0.5c-0.3-0.3-0.7-0.5-1.2-0.5"/>
</g>
<path class="st1" d="M0,0h24v24H0V0z"/>
</svg>
