<?xml version="1.0" encoding="UTF-8"?>
<svg width="110px" height="40px" viewBox="0 0 110 40" version="1.1" xmlns="http://www.w3.org/2000/svg" xmlns:xlink="http://www.w3.org/1999/xlink">
    <title>clicksign</title>
    <g id="clicksign" stroke="none" stroke-width="1" fill="none" fill-rule="evenodd">
        <g id="Group" transform="translate(0.000000, 7.000000)" fill="#121E48" fill-rule="nonzero">
            <g id="clicksign-2021-preto-(1)" transform="translate(-0.004329, -0.007229)">
                <g id="g10" transform="translate(54.271474, 14.011566) scale(-1, 1) rotate(-180.000000) translate(-54.271474, -14.011566) translate(0.000000, 0.000000)">
                    <g id="g14" transform="translate(0.000000, -0.000000)">
                        <g id="g20" transform="translate(-0.000000, 0.000000)">
                            <path d="M13.6763801,1.01789556 C12.1705809,1.01789556 10.6953681,1.27306021 9.29180187,1.77612847 C7.93488624,2.2624899 6.67461318,2.96873888 5.54606702,3.87546978 C3.28556908,5.69111632 1.67940045,8.23614437 1.02359324,11.0419274 C1.01909525,11.061076 1.01626794,11.0903772 1.04299886,11.1239837 C1.06388239,11.150329 1.09369765,11.1647869 1.12698279,11.1647869 L4.01006706,11.1647869 C4.0562036,11.1647869 4.09700681,11.1325298 4.11165742,11.0845298 C5.40495859,6.85384722 9.24874966,4.01137339 13.6763801,4.01137339 C18.0804924,4.01137339 22.0252955,6.95877894 23.2695043,11.1790519 C23.3730224,11.5298953 23.3067734,11.8991162 23.0876569,12.1919354 C22.8689903,12.4846905 22.5338899,12.6525941 22.1683959,12.6525941 L17.6576169,12.6525941 C17.1602675,12.6525941 16.6845728,12.4114374 16.385135,12.0073893 C15.7417937,11.1394053 14.7544202,10.6416062 13.6763801,10.6416062 C12.7965729,10.6416062 11.9641231,10.97857 11.3322837,11.5904254 C10.7017938,12.2010599 10.338099,13.0192447 10.308348,13.8943611 C10.2772476,14.8080318 10.6154966,15.6789715 11.2608299,16.346602 C11.9060347,17.014104 12.7638018,17.3815899 13.6755447,17.3815899 L13.675866,17.3815899 L13.7097937,17.3813972 C14.773376,17.3712445 15.7480266,16.8741522 16.3838499,16.0177345 C16.6845728,15.6124655 17.1607816,15.3705378 17.6577454,15.3705378 L22.1715445,15.3705378 C22.5360746,15.3705378 22.8704682,15.5379916 23.0887493,15.8299755 C23.3073517,16.122345 23.3736007,16.4907305 23.2704682,16.840867 C22.0272232,21.0630035 18.0820346,24.0118227 13.6763801,24.0118227 C9.24489424,24.0118227 5.40020357,21.1663288 4.10940842,16.9311482 C4.09591445,16.8870036 4.05986625,16.8584092 4.01758513,16.8584092 L1.11438842,16.8584092 C1.08431613,16.8584092 1.05623581,16.8720317 1.0374085,16.8956783 C1.01427597,16.9247867 1.01613942,16.9490759 1.02031613,16.9670036 C1.67361732,19.7762565 3.2788221,22.3249472 5.54034814,24.1434853 C6.66972964,25.0515656 7.93064527,25.7589712 9.28813922,26.2458467 C10.6927336,26.7497503 12.169103,27.005172 13.6763801,27.005172 C14.6971029,27.005172 15.7335688,26.8864893 16.7569262,26.6522082 C19.1001229,26.1155977 21.2382755,24.9253648 22.9403156,23.2099593 C24.6415846,21.495389 25.8165243,19.3476622 26.3379701,16.9991321 C26.7918817,14.9542808 26.7822432,12.9216382 26.3093757,10.9576222 C25.8670946,9.1211564 25.0052794,7.36758215 23.8171027,5.88665046 C21.334661,2.79248186 17.6384683,1.01789556 13.6763801,1.01789556 M27.3315123,17.219855 C26.1869018,22.3753247 22.1253437,26.4672122 16.9842033,27.6442724 C15.8862435,27.8957101 14.773376,28.0231318 13.6763801,28.0231318 C10.4935368,28.0231318 7.37752079,26.9269712 4.90246864,24.9366741 C2.46423577,22.9761279 0.733408505,20.2275979 0.0288302098,17.1974935 C-0.0475713947,16.8689474 0.0295370371,16.5281924 0.240428598,16.2626823 C0.453504898,15.994345 0.772026978,15.8405137 1.11438842,15.8405137 L4.01758513,15.8405137 C4.51011524,15.8405137 4.93825981,16.1594213 5.08296663,16.6341522 C6.24254893,20.4381682 9.69591431,22.9939914 13.6763801,22.9939914 C17.6337776,22.9939914 21.1775526,20.3455095 22.2940827,16.5533811 C22.3057774,16.513349 22.2985807,16.4729313 22.2735204,16.4395177 C22.2489742,16.4065538 22.2127333,16.3884333 22.1715445,16.3884333 L17.6577454,16.3884333 C17.4814242,16.3884333 17.3107575,16.4766582 17.2010707,16.6243209 C16.3738258,17.7389233 15.1047495,18.385863 13.7185969,18.399357 L13.6770869,18.3994855 C12.4855689,18.3994855 11.3674966,17.9216702 10.5289424,17.0540076 C9.69006692,16.1861522 9.2504846,15.0517587 9.29109504,13.8597908 C9.37186612,11.4844656 11.2981633,9.62377486 13.6763801,9.62377486 C15.0595768,9.62377486 16.3779382,10.2882568 17.2029342,11.4013812 C17.3112073,11.5475017 17.4811671,11.6347628 17.6576169,11.6347628 L22.1683959,11.5731403 C22.2103558,11.5731403 22.2473035,11.6162567 22.2724923,11.5824575 C22.2978096,11.5486583 22.3051991,11.5074696 22.2932473,11.4667949 C21.1756249,7.67646567 17.6322354,5.02920469 13.6763801,5.02920469 C9.69925567,5.02920469 6.24666138,7.58213636 5.08508711,11.3820399 C4.93870961,11.8608832 4.50670962,12.1826182 4.01006706,12.1826182 L1.12698279,12.1826182 C0.781537018,12.1826182 0.460123372,12.0272447 0.245376389,11.7564013 C0.0323643462,11.4878712 -0.0452581418,11.1430037 0.0324928603,10.8102166 C0.739769951,7.78390342 2.47149682,5.03929305 4.90857306,3.08176699 C7.38278987,1.09442568 10.4966211,4.56573634e-16 13.6763801,4.56573634e-16 C17.9488298,4.56573634e-16 21.9343076,1.91344574 24.6110625,5.24973481 C27.288203,8.58647368 28.2798175,12.9495258 27.3315123,17.219855" id="path22"></path>
                        </g>
                        <g id="g24" transform="translate(46.766429, 9.118233)">
                            <polygon id="path26" points="0 12.5411081 0.00469076293 0 2.44607223 0.000963855398 2.44138147 12.542072"></polygon>
                        </g>
                        <g id="g28" transform="translate(50.753802, 19.272648)">
                            <path d="M1.42213664,2.84542991 C0.596690878,2.84510849 -0.000321155519,2.24764666 0,1.4222009 C0.000257157719,0.596755135 0.59771899,-0.000321155533 1.42322901,0 C2.24861052,0.000321414732 2.84568681,0.597783247 2.84536565,1.42322901 C2.84504424,2.24867477 2.2475824,2.84575106 1.42213664,2.84542991" id="path30"></path>
                        </g>
                        <g id="g32" transform="translate(50.965536, 9.119891)">
                            <polygon id="path34" points="0 9.06338933 0.0034056224 0 2.44478709 0.000835341345 2.44138147 9.06428893"></polygon>
                        </g>
                        <g id="g36" transform="translate(54.813516, 8.876851)">
                            <path d="M4.84902854,1.93233781 C3.46133379,1.9317595 2.49497237,2.87980767 2.49426554,4.77686786 C2.49355871,6.6738638 3.45921331,7.62287582 4.84690805,7.62338988 C5.74258675,7.62377542 6.65619315,7.16742202 6.90242607,5.97294815 L9.23855453,5.97384775 C9.02682763,8.39781556 7.00639394,9.55624124 4.86355062,9.55547054 C2.0530768,9.55437778 -0.00122033961,8.00796818 0,4.77590401 C0.00115717037,1.54409686 2.05667519,-0.0010275997 4.86708476,0 C7.00999234,0.000771597045 9.02952642,1.17866715 9.23938987,3.58490002 L6.90338993,3.58400042 C6.65792809,2.40732575 5.74470723,1.9326591 4.84902854,1.93233781" id="path38"></path>
                        </g>
                        <g id="g40" transform="translate(33.026785, 8.876381)">
                            <path d="M6.29031376,2.50666728 C4.49015317,2.50596046 3.23656284,3.73571143 3.23566324,6.19662703 C3.23469938,8.65747838 4.48739012,9.88851449 6.28755071,9.88922132 C7.44951052,9.88967112 8.63453861,9.29767113 8.9540888,7.74824145 L11.9844502,7.74939808 C11.7097514,10.8937514 9.08890004,12.3965305 6.30907682,12.3955029 C2.66339016,12.394153 -0.00154149965,10.3881129 0,6.19540615 C0.00160709464,2.00302071 2.66801667,-0.00134871668 6.31376758,0 C9.09352655,0.0010287933 11.7132855,1.52906088 11.9856068,4.65034595 L8.95524543,4.64918932 C8.63691612,3.12282791 7.45227358,2.50705283 6.29031376,2.50666728" id="path42"></path>
                        </g>
                        <g id="g44" transform="translate(65.419196, 9.125179)">
                            <polygon id="path46" points="8.73098773 9.0667307 5.8152609 9.06563833 2.61982323 5.5162087 2.44395175 5.51614444 2.44131721 12.5420077 0 12.5411081 0.00469076293 0 2.44600797 0.000899598371 2.44453006 4.07582319 2.62033728 4.07588745 5.76578299 0.0021847389 8.78701986 0.00327710835 4.88578301 4.97272277"></polygon>
                        </g>
                        <g id="g48" transform="translate(74.239951, 8.884015)">
                            <path d="M2.47511658,6.74435407 C2.47485955,7.46454682 3.0893495,7.74567132 4.09066674,7.7459926 C5.32009643,7.7464424 5.79463457,7.23726972 5.7948916,6.7103621 C5.7948916,6.64006492 5.77728517,6.60504484 5.77728517,6.58743841 L8.18364656,6.58827375 C8.20118872,6.67624162 8.20118872,6.74653881 8.20112447,6.83444242 C8.20061041,8.41503676 6.91804016,9.55643432 4.08995991,9.5554069 C1.68366278,9.55450661 0.0681768798,8.41201668 0.0688194501,6.63788018 C0.0702331047,2.87910116 5.95360645,4.4972216 5.95424902,2.82840236 C5.95444179,2.10853089 5.18213659,1.80979998 4.19842577,1.80941444 C3.14448202,1.80902889 2.44151015,2.2653823 2.44131738,2.88006501 L2.44131738,2.96796862 L0.0351487682,2.96706902 C0.0176066,2.87910116 0,2.75617746 0,2.65066743 C0.00051423093,1.35113332 1.00228127,-0.00122005747 4.1991326,0 C6.83367069,0.000964681427 8.36144575,1.17841044 8.3608676,2.95254694 C8.35938952,6.71132596 2.47582341,5.04051476 2.47511658,6.74435407" id="path50"></path>
                        </g>
                        <g id="g52" transform="translate(83.791103, 19.285044)">
                            <path d="M1.42245793,2.84542986 C0.596690878,2.84510849 -0.000321155519,2.24764666 0,1.4222009 C0.000321414746,0.596690878 0.597783247,-0.000321155519 1.42355029,0 C2.2489318,0.000321414746 2.84600809,0.597783247 2.84568694,1.42322901 C2.84542978,2.24867477 2.24790369,2.84568681 1.42245793,2.84542986" id="path54"></path>
                        </g>
                        <g id="g56" transform="translate(84.002907, 9.132215)">
                            <polygon id="path58" points="0 9.06345359 0.0034056224 0 2.44472283 0.000899598371 2.44131721 9.06435319"></polygon>
                        </g>
                        <g id="g60" transform="translate(87.850829, 5.552429)">
                            <path d="M4.8662499,6.04189686 C3.44379211,6.04138305 2.44221783,6.84915813 2.44163921,8.46496532 C2.44099695,10.0985075 3.44199291,10.8893829 4.86445071,10.8898972 C6.28710127,10.8904753 7.35910125,9.92482071 7.35961554,8.46682878 C7.36019362,7.0089011 6.28896473,6.04247542 4.8662499,6.04189686 M7.48093257,12.6473267 L7.30589643,11.4527885 L7.12996069,11.4527243 C6.44472376,12.4010937 5.5488523,12.8924672 4.14380815,12.8919536 C1.94801704,12.8911178 -0.00115559795,11.4326761 5.14032685e-07,8.46406572 C0.00109339797,5.51338307 1.95135841,4.03849154 4.14714952,4.03932688 C5.55219366,4.03990519 6.46535026,4.54952767 7.13227394,5.49815415 L7.30808117,5.49821841 L7.30846671,4.46188109 C7.30904502,2.91656385 6.46631412,1.93233898 4.85044267,1.93169641 C3.62088447,1.93124661 2.95325397,2.33529479 2.95293268,3.21343132 L0.511294188,3.21253172 L0.511358445,3.12462811 C0.547278123,1.19229081 1.88247488,-0.00115494781 4.88616958,8.38726124e-07 C7.22223378,0.000837020016 9.73371966,1.05542334 9.73237081,4.76189714 L9.72941444,12.6482263 L7.48093257,12.6473267 Z" id="path62"></path>
                        </g>
                        <g id="g64" transform="translate(99.337293, 9.137870)">
                            <path d="M4.60028955,9.31103663 C1.75492416,9.30994354 -0.0010918601,8.02692349 0,5.04122076 L0.00186396312,0 L2.44330969,0.000963855398 L2.44138197,5.04212036 C2.44086792,6.48218458 3.17834581,7.23791147 4.60106064,7.23848978 C6.0237112,7.23900384 6.77918106,6.50146168 6.77975938,5.07874686 L6.78162283,0.00257028106 L9.2056549,0.00346987943 L9.20372719,5.07964646 C9.20263482,8.06567048 7.46338988,9.31212828 4.60028955,9.31103663" id="path66"></path>
                        </g>
                    </g>
                </g>
            </g>
        </g>
    </g>
</svg>