<?xml version="1.0" encoding="UTF-8"?>
<svg width="178px" height="80px" viewBox="0 0 122 80" version="1.1" xmlns="http://www.w3.org/2000/svg" xmlns:xlink="http://www.w3.org/1999/xlink">
    <title>alelo-1</title>
    <g id="Preço" stroke="none" stroke-width="1" fill="none" fill-rule="evenodd">
        <g id="Desktop-/-Home---Página-de-Preço" transform="translate(-801.000000, -1866.000000)" fill-rule="nonzero">
            <g id="Group-15" transform="translate(728.000000, 1772.000000)">
                <g id="alelo-1" transform="translate(73.000000, 94.000000)">
                    <path d="M81.9415429,0 C74.0053733,-0.00377370533 66.2484963,2.35768199 59.6631885,6.78228898 C59.2098165,7.09187762 56.0763849,9.32779557 55.9386517,9.43672491 C50.7334823,13.3467148 47.2385009,14.0232233 42.4522703,12.8250006 C42.1595871,12.75047 40.7879934,12.2803539 40.357577,12.1140933 C28.0751899,7.49424768 14.213128,11.4329889 6.20297424,21.8187204 C-1.80717952,32.2044519 -2.08507082,46.5991612 5.51828051,57.2857079 C13.1216318,67.9722547 26.8213669,72.4420111 39.2729276,68.2986983 C46.4121014,66.1659765 50.2858493,66.7507551 54.767919,69.9097058 C55.6631852,70.5403494 57.8210062,71.922032 58.2686393,72.24882 C72.27406,82.5158606 91.3088324,82.5897817 105.393733,72.4318292 C119.478633,62.2738768 125.400155,44.2016136 120.053864,27.6896559 C114.707574,11.1776982 99.3132413,-0.00670856338 81.9415429,0 Z" id="Path" fill="#007858"></path>
                    <g id="Group" transform="translate(41.000000, 23.000000)" fill="#FFFFFF">
                        <path d="M26.9134615,22.8230769 C24.5538911,25.1453527 20.9041644,25.5328073 18.1096154,23.7576923 L15.4384615,27.9980769 C20.2029773,31.0089245 26.4122316,30.3497883 30.4384615,26.4057692 L26.9134615,22.8230769 Z M22.1019231,5.55 C17.6063054,5.47856528 13.4380676,7.89333162 11.2637636,11.8288218 C9.08945966,15.764312 9.26388776,20.5783413 11.7173077,24.3461538 L33.7442308,14.9307692 C32.4689977,9.50706325 27.6727622,5.64250485 22.1019231,5.55 L22.1019231,5.55 Z M14.8038462,18.4615385 C14.4618603,15.3332066 16.2060294,12.3492224 19.0996478,11.1121342 C21.9932661,9.87504599 25.3555435,10.6759072 27.3807692,13.0846154 L14.8038462,18.4615385 Z M40.6615385,0.075 L40.6615385,23.55 L44.7346154,25.2403846 L42.8134615,29.8557692 L38.775,28.1826923 C37.961831,27.8347226 37.2708652,27.2522224 36.7903846,26.5096154 C36.2537428,25.6451575 35.9829119,24.6420804 36.0115385,23.625 L36.0115385,0.075 L40.6615385,0.075 Z M5.19230769,0.075 L5.19230769,23.55 L9.23076923,25.2403846 L7.30961538,29.8557692 L3.27115385,28.1826923 C2.48518524,27.8320175 1.81782928,27.260857 1.35,26.5384615 C0.811333506,25.6746314 0.538484601,24.6715104 0.565384615,23.6538462 L0.565384615,0.075 L5.19230769,0.075 Z" id="Shape"></path>
                    </g>
                    <path d="M101.116222,34.5649798 C102.796661,35.3695504 104.086195,36.8040118 104.701005,38.5526472 C105.315815,40.3012827 105.205512,42.2207767 104.394373,43.8886595 L108.823847,46 C111.296623,40.8803902 109.770553,34.7392676 105.182992,31.3486942 C100.595432,27.9581208 94.2314523,28.2678655 90,32.0876737 L93.3121803,35.6966583 C95.4349371,33.76918 98.5267685,33.3208278 101.116222,34.5649798 Z" id="Path" fill="#C7D540"></path>
                    <path d="M94.8571166,47.3331751 C91.3353153,45.6401198 89.852089,41.4201144 91.5422086,37.9017561 L87.0861963,35.7603227 C84.6236417,40.9313602 86.1618553,47.1186606 90.7606619,50.5404693 C95.3594685,53.962278 101.738997,53.6662881 106,49.8334124 L102.667975,46.1884196 C100.538814,48.1179109 97.4520439,48.5703064 94.8571166,47.3331751 L94.8571166,47.3331751 Z M36.9631902,47.6691979 L36.9631902,40.9601329 C36.9631902,34.3547339 31.5988473,29 24.9815951,29 C18.3643428,29 13,34.3547339 13,40.9601329 C13,47.5655319 18.3643428,52.9202658 24.9815951,52.9202658 C26.8391454,52.9204941 28.6713089,52.4895955 30.3333742,51.6616042 L28.404908,47.1623161 C26.2079853,48.3749245 23.532308,48.336747 21.371004,47.0619537 C19.2097,45.7871604 17.8853959,43.4660449 17.8896319,40.9601329 C17.8831837,39.8031257 18.1634663,38.6624819 18.7055215,37.6397722 C19.6707692,35.8341688 21.3699665,34.5324696 23.3669325,34.0688182 C23.8904356,33.9450545 24.4264946,33.8819893 24.9644785,33.8808733 C28.885339,33.8777246 32.067261,37.0462995 32.0735583,40.9601329 L32.0735583,47.6122449 C32.0452479,48.6162919 32.3130879,49.6065152 32.8438037,50.4598956 C33.3223266,51.1900339 34.0046629,51.7642289 34.8065031,52.111533 L37.0544785,53 L38.9601227,48.4437589 L36.9631902,47.6691979 Z" id="Shape" fill="#FFFFFF"></path>
                </g>
            </g>
        </g>
    </g>
</svg>