<?xml version="1.0" encoding="UTF-8"?>
<svg width="84px" height="56px" viewBox="0 0 84 56" version="1.1" xmlns="http://www.w3.org/2000/svg" xmlns:xlink="http://www.w3.org/1999/xlink">
    <title>marcas / alelo copy</title>
    <g id="Page-1" stroke="none" stroke-width="1" fill="none" fill-rule="evenodd">
        <g id="alelo" fill="#121E48">
            <path d="M56.3620374,0.276425532 C71.4902804,0.276425532 83.7515327,12.6849929 83.7515327,27.9888794 C83.7515327,43.2983262 71.4902804,55.7049078 56.3620374,55.7049078 C50.2857757,55.7049078 44.6754393,53.6980426 40.1331589,50.3106383 C39.8297383,50.0842553 38.3522804,49.1286809 37.7399439,48.6894184 C34.6908224,46.5006525 32.0405047,46.0963404 27.156729,47.5745816 C25.1281682,48.2596879 22.9586916,48.6350071 20.7024673,48.6350071 C9.43390654,48.6350071 0.301457944,39.3938156 0.301457944,27.9888794 C0.301457944,16.5899007 9.43390654,7.34553191 20.7024673,7.34553191 C23.2358131,7.34553191 25.6604299,7.81537589 27.8982056,8.67007092 C28.0061138,8.71094262 28.1988331,8.7803838 28.4099263,8.85459929 L28.732042,8.96652887 C28.9981145,9.05783014 29.2409924,9.13800129 29.3309159,9.16056738 C32.6061308,10.0025532 34.9958131,9.52238298 38.555215,6.81214184 C38.6494206,6.73985816 40.7929907,5.18853901 41.1034766,4.9764539 C45.4636262,2.01043972 50.711271,0.276425532 56.3620374,0.276425532 Z M17.1795701,20.3915461 C16.3242617,20.3923404 15.4991776,20.5249929 14.7235514,20.7676596 C13.431757,21.1747518 12.2745981,21.8948085 11.3411776,22.8396596 C9.84605607,24.3516596 8.92284112,26.4411348 8.92127103,28.7482553 C8.92284112,33.3628936 12.6188411,37.1017872 17.1795701,37.1033759 L17.1834953,37.1033759 C18.5023738,37.1033759 19.7553084,36.7856454 20.864972,36.2244539 L19.5280374,33.0725674 C18.8309159,33.4605957 18.0368411,33.6841986 17.1795701,33.6841986 C14.4856822,33.6794326 12.3056075,31.4723972 12.2989346,28.7482553 L12.3005047,28.7482553 C12.3024673,27.9102411 12.5108972,27.1230638 12.8735888,26.4327943 C13.5283178,25.1916596 14.690972,24.269844 16.0797196,23.9433759 C16.4341682,23.8595745 16.8003925,23.8107234 17.178785,23.8107234 C17.9006355,23.8123121 18.5828411,23.9751489 19.1975327,24.2591206 C20.882243,25.0387518 22.0551028,26.7517163 22.058243,28.7482553 L22.0602056,28.7482553 L22.0604229,31.2388084 C22.0604374,31.3174056 22.0604528,31.3957374 22.0604693,31.4734408 L22.0613371,33.252906 C22.0613806,33.2817304 22.0614258,33.3062954 22.0614727,33.3262379 L22.0617757,33.3875177 C22.0617757,34.2636596 22.2878692,34.9181844 22.5928598,35.3904113 C22.9068785,35.8562837 23.3221682,36.2725106 23.9427477,36.5401986 L25.4908598,37.1613617 L26.7987477,33.9761135 L25.4362991,33.4264397 L25.4362991,28.7482553 C25.4362991,25.0145248 23.0183551,21.8574752 19.680729,20.7855319 C18.891757,20.532539 18.0521495,20.3923404 17.1795701,20.3915461 Z M59.9073084,25.1241418 C57.9293832,29.2919716 59.6611963,34.2930496 63.7791589,36.2959433 C66.9107103,37.8178723 70.5144673,37.166922 72.9347664,34.9384397 L70.643215,32.3942128 C69.2171776,33.7048511 67.0963738,34.0897021 65.2530841,33.1937021 C62.8300374,32.0137305 61.807514,29.0683688 62.9721308,26.6166809 L62.9721308,26.6150922 L59.9073084,25.1241418 Z M46.4818318,32.2714894 C45.5868785,33.1591489 44.3594579,33.7012766 43.008,33.6794326 C42.0812523,33.6663262 41.2216262,33.3855319 40.4907477,32.9172766 L38.6753271,35.8336454 C39.9180561,36.6255887 41.3825607,37.0970213 42.9554019,37.1208511 C45.251271,37.1569929 47.3410654,36.2439149 48.8644486,34.7382695 L46.4818318,32.2714894 Z M55.8356636,16.6105532 L52.6746729,16.6105532 L52.6746729,32.8163972 C52.6746729,33.6933333 52.9003738,34.3466667 53.2069346,34.8196879 C53.4860623,35.2345028 53.8448965,35.6088364 54.3573199,35.8743483 L54.5568224,35.9686809 L57.2982056,37.1208511 L58.6049159,33.9352057 L55.8356636,32.7735035 L55.8356636,16.6105532 Z M31.7174579,16.6105532 L28.5560748,16.6105532 L28.5560748,32.8163972 C28.5560748,33.6933333 28.7821682,34.3466667 29.0879439,34.8196879 C29.3681184,35.2345028 29.727379,35.6088364 30.2393329,35.8743483 L30.4386168,35.9686809 L33.1803925,37.1208511 L34.4867103,33.9352057 L31.7174579,32.7735035 L31.7174579,16.6105532 Z M43.2093645,20.3812199 C38.6419626,20.3121135 34.8815888,24.0009645 34.8117196,28.6231489 C34.7858131,30.3539858 35.280785,31.971234 36.1502243,33.32 L51.1383364,26.8406809 C50.2932336,23.1875745 47.0859252,20.4431773 43.2093645,20.3812199 Z M61.7941682,22.5616454 L64.0853271,25.1090496 C65.5097944,23.795234 67.6321682,23.4095887 69.4734953,24.3071773 C71.9004673,25.4871489 72.921028,28.4317163 71.7548411,30.8869787 L74.8200561,32.3763404 C76.8003364,28.2097021 75.0665607,23.2098156 70.947028,21.2061277 C67.8182243,19.6841986 64.2125047,20.3331631 61.7941682,22.5616454 Z M43.1583364,23.821844 C44.6228411,23.8452766 45.9228785,24.5220426 46.8009533,25.5717447 L38.2423738,29.2729078 C38.2223551,29.0763121 38.2086168,28.8785248 38.2121495,28.674383 C38.2533645,25.9534184 40.4671963,23.7797447 43.1583364,23.821844 Z" id="Combined-Shape"></path>
            <path d="M69.4734953,24.3071773 C71.9004673,25.4871489 72.921028,28.4317163 71.7548411,30.8869787 L74.8200561,32.3763404 C76.8003364,28.2097021 75.0665607,23.2098156 70.947028,21.2061277 C67.8182243,19.6841986 64.2125047,20.3331631 61.7941682,22.5616454 L64.0853271,25.1090496 C65.5097944,23.795234 67.6321682,23.4095887 69.4734953,24.3071773" id="Fill-6" opacity="0.35"></path>
        </g>
    </g>
</svg>