<?xml version="1.0" encoding="utf-8"?>
<!-- Generator: Adobe Illustrator 26.0.3, SVG Export Plug-In . SVG Version: 6.00 Build 0)  -->
<svg version="1.1" id="Camada_1" xmlns="http://www.w3.org/2000/svg" xmlns:xlink="http://www.w3.org/1999/xlink" x="0px" y="0px"
	 viewBox="0 0 24 24" style="enable-background:new 0 0 24 24;" xml:space="preserve">
<style type="text/css">
	.st0{fill:none;}
	.st1{fill:none;stroke:#940DFF;stroke-width:1.5;stroke-linecap:round;stroke-linejoin:round;}
</style>
<g>
	<path class="st0" d="M0,0h24v24H0V0z"/>
	<path class="st1" d="M17.1,21H6.9C5.9,21,5,20.1,5,19.1V4.9C5,3.9,5.9,3,6.9,3h10.1C18.1,3,19,3.9,19,4.9v14.1
		C19,20.1,18.1,21,17.1,21z"/>
	<path class="st1" d="M19,8H5"/>
	<path class="st1" d="M8,14.9C8,14.9,8.1,15,8,14.9C8.1,15,8,15,8,15S8,15,8,14.9C8,15,8,14.9,8,14.9"/>
	<path class="st1" d="M12,15C12,15,12.1,15,12,15c0.1,0.1,0,0.1,0,0.1S12,15,12,15C11.9,15,12,15,12,15"/>
	<path class="st1" d="M16,14.9C16,14.9,16.1,15,16,14.9c0,0.1,0,0.1,0,0.1S16,15,16,14.9C16,15,16,14.9,16,14.9"/>
	<path class="st1" d="M8,11.9C8,11.9,8.1,12,8,11.9C8.1,12,8,12,8,12S8,12,8,11.9C8,12,8,11.9,8,11.9"/>
	<path class="st1" d="M12,12C12,12,12.1,12,12,12c0.1,0.1,0,0.1,0,0.1S12,12,12,12C11.9,12,12,12,12,12"/>
	<path class="st1" d="M16,11.9C16,11.9,16.1,12,16,11.9c0,0.1,0,0.1,0,0.1S16,12,16,11.9C16,12,16,11.9,16,11.9"/>
	<path class="st1" d="M8,17.9C8,17.9,8.1,18,8,17.9C8.1,18,8,18,8,17.9C8,18,8,18,8,17.9C8,18,8,17.9,8,17.9"/>
	<path class="st1" d="M12,18C12,18,12.1,18,12,18C12.1,18,12,18.1,12,18C12,18.1,12,18,12,18C11.9,18,12,18,12,18"/>
	<path class="st1" d="M16,17.9C16,17.9,16.1,18,16,17.9C16.1,18,16,18,16,17.9C16,18,16,18,16,17.9C16,18,16,17.9,16,17.9"/>
</g>
</svg>
