<?xml version="1.0" encoding="UTF-8"?>
<svg width="44px" height="36px" viewBox="0 0 44 36" version="1.1" xmlns="http://www.w3.org/2000/svg" xmlns:xlink="http://www.w3.org/1999/xlink">
    <title>“</title>
    <g id="Page-1" stroke="none" stroke-width="1" fill="0" fill-rule="evenodd">
        <g id="Desktop-/-Home-A" transform="translate(-564.000000, -4307.000000)" fill="#940dff" opacity="1" fill-rule="nonzero">
            <g id="Card-Depoimento-Copy-11" transform="translate(80.000000, 4277.000000)">
                <path d="M502.832,65.552 L502.832,47.888 L494.64,47.888 C494.981333,45.9253333 495.706667,44.0053333 496.816,42.128 C497.925333,40.2506667 499.504,38.2026667 501.552,35.984 L501.552,35.984 L495.024,30.864 C491.354667,34.5333333 488.752,38.1813333 487.216,41.808 C485.68,45.4346667 484.912,49.4666667 484.912,53.904 L484.912,53.904 L484.912,65.552 L502.832,65.552 Z M527.408,65.552 L527.408,47.888 L519.216,47.888 C519.557333,45.9253333 520.282667,44.0053333 521.392,42.128 C522.501333,40.2506667 524.08,38.2026667 526.128,35.984 L526.128,35.984 L519.6,30.864 C515.930667,34.5333333 513.328,38.1813333 511.792,41.808 C510.256,45.4346667 509.488,49.4666667 509.488,53.904 L509.488,53.904 L509.488,65.552 L527.408,65.552 Z" id="“"></path>
            </g>
        </g>
    </g>
</svg>