<?xml version="1.0" encoding="UTF-8"?>
<svg width="50px" height="50px" viewBox="0 0 50 50" version="1.1" xmlns="http://www.w3.org/2000/svg" xmlns:xlink="http://www.w3.org/1999/xlink">
    <title>icon 1</title>
    <defs>
        <filter id="filter-1">
            <feColorMatrix in="SourceGraphic" type="matrix" values="0 0 0 0 1.000000 0 0 0 0 1.000000 0 0 0 0 1.000000 0 0 0 1.000000 0"></feColorMatrix>
        </filter>
    </defs>
    <g id="Internas" stroke="none" stroke-width="1" fill="none" fill-rule="evenodd">
        <g id="Group-9">
            <rect id="Rectangle" fill="#FF4BB7" x="0" y="0" width="50" height="50" rx="8"></rect>
            <g filter="url(#filter-1)" id="checklist">
                <g transform="translate(6.000000, 6.000000)">
                    <polygon id="Path" points="36 36 0 36 0 0 36 0"></polygon>
                    <g id="Group" stroke-linecap="round" stroke-linejoin="round" transform="scale(1.45) translate(2.000000, 2.000000)" stroke="#323232" stroke-width="1.5">
                        <path d="M16.71918,7.92963a2.0004,2.0004,0,0,1,2.35333.88952l1.6535,2.8274a1.99969,1.99969,0,0,1-.73576,2.747c-2.54267,1.44924-6.47716,3.69193-10.05214,5.72957A6.68267,6.68267,0,0,1,6.626,21h0" fill="none" stroke="#323232" stroke-linecap="round" stroke-linejoin="round" stroke-width="1"/>
                        <path d="M5,3H8a2,2,0,0,1,2,2V17.5A3.5,3.5,0,0,1,6.5,21h0A3.5,3.5,0,0,1,3,17.5V5A2,2,0,0,1,5,3Z" fill="none" stroke="#323232" stroke-linecap="round" stroke-linejoin="round" stroke-width="1"/>
                        <path d="M6.5,21h0a4.69317,4.69317,0,0,0,4.05351-2.32379c2.125-3.63359,4.40161-7.5265,5.95009-10.17432a1.99994,1.99994,0,0,0-.73608-2.74719L12.88116,4.10956a2,2,0,0,0-2.71679.728L10,5.11859" fill="none" stroke="#323232" stroke-linecap="round" stroke-linejoin="round" stroke-width="1"/>
                        <line x1="10" y1="9" x2="3" y2="9" fill="none" stroke="#323232" stroke-linecap="round" stroke-linejoin="round" stroke-width="1"/>
                        <line x1="10" y1="15" x2="3" y2="15" fill="none" stroke="#323232" stroke-linecap="round" stroke-linejoin="round" stroke-width="1"/>
                    </g>
                    <rect width="24" height="24" transform="translate(24 24) rotate(-180)" fill="none"/>
                </g>
            </g>
        </g>
    </g>
</svg>