<?xml version="1.0" encoding="utf-8"?>
<!-- Generator: Adobe Illustrator 26.0.3, SVG Export Plug-In . SVG Version: 6.00 Build 0)  -->
<svg version="1.1" id="Camada_1" xmlns="http://www.w3.org/2000/svg" xmlns:xlink="http://www.w3.org/1999/xlink" x="0px" y="0px"
	 viewBox="0 0 24 24" style="enable-background:new 0 0 24 24;" xml:space="preserve">
<style type="text/css">
	.st0{fill:none;}
	.st1{fill:none;stroke:#E64BFF;stroke-width:1.5;stroke-linecap:round;stroke-linejoin:round;}
</style>
<g>
	<path class="st0" d="M0,0h24v24H0V0z"/>
	<path class="st1" d="M9.2,6.5L9.2,6.5c0-1.5,1.2-2.8,2.8-2.8l0,0c1.5,0,2.8,1.2,2.8,2.8l0,0c0,1.5-1.2,2.8-2.8,2.8l0,0
		C10.5,9.2,9.2,8,9.2,6.5z"/>
	<path class="st1" d="M2.5,17.5L2.5,17.5c0-1.5,1.2-2.8,2.8-2.8l0,0c1.5,0,2.8,1.2,2.8,2.8l0,0c0,1.5-1.2,2.8-2.8,2.8l0,0
		C3.7,20.3,2.5,19.1,2.5,17.5z"/>
	<path class="st1" d="M16,17.5L16,17.5c0-1.5,1.2-2.8,2.8-2.8l0,0c1.5,0,2.8,1.2,2.8,2.8l0,0c0,1.5-1.2,2.8-2.8,2.8l0,0
		C17.2,20.3,16,19.1,16,17.5z"/>
	<path class="st1" d="M8.5,11.9l-2,3.1"/>
	<path class="st1" d="M13.5,8.8l2,3.1"/>
	<path class="st1" d="M15.9,17.5H12"/>
</g>
</svg>
