<?xml version="1.0" encoding="UTF-8"?>
<svg width="121px" height="40px" viewBox="0 0 121 40" version="1.1" xmlns="http://www.w3.org/2000/svg" xmlns:xlink="http://www.w3.org/1999/xlink">
    <title>pontomais</title>
    <g id="pontomais" stroke="none" stroke-width="1" fill="none" fill-rule="evenodd">
        <g id="Group" transform="translate(0.000000, 6.000000)" fill="#121E48" fill-rule="nonzero">
            <g id="Logo-pontomais" transform="translate(0.128285, 0.042832)">
                <g id="XMLID_46_" transform="translate(80.434482, 7.038667)">
                    <path d="M21.1099534,6.82450922 L21.6373459,6.82450922 L21.6373459,6.56751933 C21.6373459,5.83938132 21.052938,5.58239143 20.383007,5.58239143 C19.4422529,5.58239143 18.4872448,6.09637121 18.1023909,6.32480666 C18.0026139,6.38191553 17.8885831,6.33908388 17.8315677,6.25342058 L16.9620828,4.5687091 C16.9193212,4.48304581 16.9478289,4.38310529 17.0190982,4.32599643 C17.4467137,4.05472933 18.8008296,3.26948245 20.6395763,3.26948245 C23.2195234,3.26948245 24.6021469,4.5687091 24.6021469,6.8958953 L24.6021469,9.83700178 C24.6021469,10.05116 24.7731932,10.2224866 24.9870009,10.2224866 L25.457378,10.2224866 C25.557155,10.2224866 25.6426781,10.3081499 25.6426781,10.4080904 L25.6426781,12.1927424 C25.6426781,12.2926829 25.557155,12.3783462 25.457378,12.3783462 L23.0769849,12.3783462 C22.2217538,12.3783462 21.8939152,11.8786437 21.8939152,11.4503272 L21.8939152,11.3932183 C21.8939152,11.2361689 21.9224229,11.1219512 21.9224229,11.1219512 L21.8939152,11.1219512 C21.8939152,11.1219512 21.1669688,12.5925045 19.2712066,12.5925045 C17.7175369,12.5925045 16.363421,11.635931 16.363421,9.851279 C16.3776749,7.20999405 19.7415837,6.82450922 21.1099534,6.82450922 Z M20.1691993,10.3938132 C20.9246534,10.3938132 21.6801075,9.48007139 21.6801075,8.70910173 L21.6801075,8.49494349 L21.4092843,8.49494349 C20.4257686,8.49494349 19.3709836,8.80904224 19.3709836,9.59428911 C19.3709836,10.0654372 19.6845683,10.3938132 20.1691993,10.3938132 Z" id="XMLID_53_"></path>
                    <path d="M26.512163,10.1939322 L27.4386633,10.1939322 L27.4386633,5.62522308 L26.4266399,5.62522308 C26.3268629,5.62522308 26.2413398,5.53955979 26.2413398,5.43961927 L26.2413398,3.65496728 C26.2413398,3.55502677 26.3268629,3.46936347 26.4266399,3.46936347 L30.2324181,3.46936347 C30.3321951,3.46936347 30.4177182,3.55502677 30.4177182,3.65496728 L30.4177182,10.1939322 L31.3442185,10.1939322 C31.4439955,10.1939322 31.5295186,10.2795955 31.5295186,10.379536 L31.5295186,12.164188 C31.5295186,12.2641285 31.4439955,12.3497918 31.3442185,12.3497918 L26.4979091,12.3497918 C26.3981322,12.3497918 26.3126091,12.2641285 26.3126091,12.164188 L26.3126091,10.379536 C26.3268629,10.2795955 26.412386,10.1939322 26.512163,10.1939322 Z M27.6667249,0 L30.2039104,0 C30.3036874,0 30.3892105,0.0856632957 30.3892105,0.185603807 L30.3892105,2.14158239 C30.3892105,2.2415229 30.3036874,2.3271862 30.2039104,2.3271862 L27.6667249,2.3271862 C27.566948,2.3271862 27.4814249,2.2415229 27.4814249,2.14158239 L27.4814249,0.199881023 C27.4814249,0.0856632957 27.566948,0 27.6667249,0 Z" id="XMLID_50_"></path>
                    <path d="M32.256465,9.20880428 L34.3802888,9.20880428 C34.4800657,9.20880428 34.5655888,9.29446758 34.5655888,9.39440809 L34.5655888,9.65139798 C34.5655888,10.05116 34.9932044,10.2938727 35.8626893,10.2938727 C36.5753818,10.2938727 36.945982,10.1225461 36.945982,9.77989292 C36.945982,9.2230815 36.3473202,9.15169542 35.2070121,8.7804878 C33.9099117,8.35217133 32.3847496,7.72397383 32.3847496,5.92504462 C32.3847496,3.84057109 34.4943196,3.25520523 36.1905279,3.25520523 C37.5588976,3.25520523 39.5829444,3.74063058 39.5829444,5.18262939 L39.5829444,6.19631172 C39.5829444,6.29625223 39.4974213,6.38191553 39.3976444,6.38191553 L37.2738205,6.38191553 C37.1740436,6.38191553 37.0885205,6.29625223 37.0885205,6.19631172 L37.0885205,5.98215348 C37.0885205,5.71088638 36.8319512,5.49672814 36.1905279,5.49672814 C35.7058969,5.49672814 35.3495507,5.59666865 35.3495507,5.93932183 C35.3495507,6.46757882 36.0622432,6.68173706 36.9032204,6.91017252 C38.2430824,7.26710291 39.9250368,7.82391434 39.9250368,9.66567519 C39.9250368,11.6644854 37.9722592,12.5353956 35.8769431,12.5353956 C34.2947657,12.5353956 32.0854188,11.8643664 32.0854188,10.379536 L32.0854188,9.38013087 C32.0569111,9.29446758 32.1424342,9.20880428 32.256465,9.20880428 Z" id="XMLID_48_"></path>
                    <path d="M15.8360285,10.1939322 L14.9095282,10.1939322 L14.9095282,6.58179655 C14.9095282,4.12611541 13.6409355,3.25520523 12.1157734,3.25520523 C10.7474037,3.25520523 9.66411103,3.98334325 9.17948009,4.9256395 L9.15097239,4.9256395 C8.72335685,3.68352171 7.81111039,3.25520523 6.84184851,3.25520523 C5.34519415,3.25520523 4.47570924,4.26888757 4.03383985,4.96847115 L4.00533215,4.96847115 C4.00533215,4.96847115 4.019586,4.85425342 4.019586,4.75431291 L4.019586,4.45449137 C4.019586,3.8548483 3.59197047,3.45508626 2.77950096,3.45508626 L0.156792362,3.45508626 C0.0855231064,3.45508626 0.0285077021,3.49791791 0,3.54074955 C1.06903883,4.68292683 1.72471598,6.21058894 1.72471598,7.89530042 C1.72471598,9.55145747 1.09754653,11.0505651 0.0570154043,12.1784652 C0.0712692553,12.2641285 0.142538511,12.3355146 0.242315468,12.3355146 L5.08862483,12.3355146 C5.18840179,12.3355146 5.2739249,12.2498513 5.2739249,12.1499108 L5.2739249,10.3652588 C5.2739249,10.2653183 5.18840179,10.179655 5.08862483,10.179655 L4.16212451,10.179655 L4.16212451,8.83759667 C4.16212451,7.40987507 4.50421694,5.95359905 5.87258664,5.95359905 C6.44274068,5.95359905 6.55677149,6.42474717 6.55677149,7.08149911 L6.55677149,12.3497918 L10.4623267,12.3497918 C10.5621036,12.3497918 10.6476267,12.2641285 10.6476267,12.164188 L10.6476267,10.379536 C10.6476267,10.2795955 10.5621036,10.1939322 10.4623267,10.1939322 L9.53582637,10.1939322 L9.53582637,8.68054729 C9.53582637,7.19571684 9.94918805,5.96787626 11.2462885,5.96787626 C11.8164425,5.96787626 11.9304733,6.43902439 11.9304733,7.09577632 L11.9304733,12.364069 L15.8360285,12.364069 C15.9358055,12.364069 16.0213286,12.2784057 16.0213286,12.1784652 L16.0213286,10.3938132 C16.0355825,10.2795955 15.9500593,10.1939322 15.8360285,10.1939322 Z" id="XMLID_47_"></path>
                </g>
                <g id="XMLID_32_" transform="translate(33.083188, 8.095181)">
                    <path d="M1.45389281,13.1064842 L1.45389281,4.51160024 C1.45389281,4.297442 1.2828466,4.12611541 1.06903883,4.12611541 L0.285077021,4.12611541 C0.185300064,4.12611541 0.0997769575,4.04045211 0.0997769575,3.9405116 L0.0997769575,2.6841166 C0.0997769575,2.58417609 0.185300064,2.49851279 0.285077021,2.49851279 L2.35188543,2.49851279 C3.16435494,2.49851279 3.43517811,2.88399762 3.43517811,3.32659131 L3.43517811,3.38370018 C3.43517811,3.59785842 3.42092426,3.78346222 3.42092426,3.78346222 L3.44943196,3.78346222 C3.44943196,3.78346222 4.20488607,2.29863177 6.27169447,2.29863177 C8.6520876,2.29863177 10.1629958,4.18322427 10.1629958,6.91017252 C10.1629958,9.70850684 8.45253368,11.5217133 6.14340981,11.5217133 C4.40443998,11.5217133 3.60622432,10.2795955 3.60622432,10.2795955 L3.57771662,10.2795955 C3.57771662,10.2795955 3.63473202,10.5936942 3.63473202,11.0362879 L3.63473202,13.1207615 L4.7180247,13.1207615 C4.81780166,13.1207615 4.90332477,13.2064247 4.90332477,13.3063653 L4.90332477,14.5770375 C4.90332477,14.676978 4.81780166,14.7626413 4.7180247,14.7626413 L0.356346277,14.7626413 C0.256569319,14.7626413 0.171046213,14.676978 0.171046213,14.5770375 L0.171046213,13.3063653 C0.171046213,13.2064247 0.256569319,13.1207615 0.356346277,13.1207615 L1.45389281,13.1207615 L1.45389281,13.1064842 Z M5.75855583,9.65139798 C6.97013317,9.65139798 7.96790275,8.66627008 7.96790275,6.92444973 C7.96790275,5.25401547 7.06991013,4.16894706 5.77280968,4.16894706 C4.6325016,4.16894706 3.56346277,4.99702558 3.56346277,6.95300416 C3.57771662,8.30933968 4.33317073,9.65139798 5.75855583,9.65139798 Z" id="XMLID_43_"></path>
                    <path d="M15.50819,2.28435455 C18.2021678,2.28435455 20.3544993,4.19750149 20.3544993,6.8958953 C20.3544993,9.60856633 18.2021678,11.507436 15.5224438,11.507436 C12.828466,11.507436 10.6761345,9.60856633 10.6761345,6.8958953 C10.6903883,4.19750149 12.8427198,2.28435455 15.50819,2.28435455 Z M15.5366977,9.63712076 C16.9478289,9.63712076 18.1451524,8.53777513 18.1451524,6.8958953 C18.1451524,5.26829268 16.9620828,4.15466984 15.5366977,4.15466984 C14.1113126,4.15466984 12.9139891,5.2825699 12.9139891,6.8958953 C12.9139891,8.53777513 14.0970587,9.63712076 15.5366977,9.63712076 Z" id="XMLID_40_"></path>
                    <path d="M21.2382381,9.65139798 L22.3215308,9.65139798 L22.3215308,4.51160024 C22.3215308,4.297442 22.1504846,4.12611541 21.9366768,4.12611541 L21.1384611,4.12611541 C21.0386842,4.12611541 20.9531611,4.04045211 20.9531611,3.9405116 L20.9531611,2.6841166 C20.9531611,2.58417609 21.0386842,2.49851279 21.1384611,2.49851279 L23.2622849,2.49851279 C24.0319929,2.49851279 24.402593,2.85544319 24.402593,3.48364069 L24.402593,3.88340274 C24.402593,4.06900654 24.3740853,4.26888757 24.3740853,4.26888757 L24.402593,4.26888757 C24.50237,3.99762046 25.4431242,2.29863177 27.6382172,2.29863177 C29.5197256,2.29863177 30.5887644,3.3123141 30.5887644,5.65377751 L30.5887644,9.67995241 L31.6720571,9.67995241 C31.771834,9.67995241 31.8573571,9.7656157 31.8573571,9.86555622 L31.8573571,11.1219512 C31.8573571,11.2218917 31.771834,11.307555 31.6720571,11.307555 L28.4079252,11.307555 L28.4079252,6.09637121 C28.4079252,5.02558001 28.1085943,4.297442 27.0110478,4.297442 C25.4288703,4.297442 24.4881161,5.81082689 24.4881161,7.35276621 L24.4881161,9.66567519 L25.557155,9.66567519 C25.6569319,9.66567519 25.742455,9.75133849 25.742455,9.851279 L25.742455,11.107674 C25.742455,11.2076145 25.6569319,11.2932778 25.557155,11.2932778 L21.2382381,11.2932778 C21.1384611,11.2932778 21.052938,11.2076145 21.052938,11.107674 L21.052938,9.851279 C21.0386842,9.73706127 21.1242073,9.65139798 21.2382381,9.65139798 Z" id="XMLID_38_"></path>
                    <path d="M33.1402037,4.12611541 L31.9856418,4.12611541 C31.8858648,4.12611541 31.8003417,4.04045211 31.8003417,3.9405116 L31.8003417,2.6841166 C31.8003417,2.58417609 31.8858648,2.49851279 31.9856418,2.49851279 L33.211473,2.49851279 L33.211473,0.285544319 C33.211473,0.185603807 33.2969961,0.0999405116 33.3967731,0.0999405116 L35.1357429,0.0999405116 C35.2355198,0.0999405116 35.321043,0.185603807 35.321043,0.285544319 L35.321043,2.49851279 L37.131282,2.49851279 C37.231059,2.49851279 37.3165821,2.58417609 37.3165821,2.6841166 L37.3165821,3.9405116 C37.3165821,4.04045211 37.231059,4.12611541 37.131282,4.12611541 L35.321043,4.12611541 L35.321043,7.83819155 C35.321043,9.33729923 36.461351,9.55145747 37.0742666,9.55145747 C37.1455359,9.55145747 37.2168051,9.55145747 37.2738205,9.55145747 C37.3878514,9.55145747 37.4733745,9.63712076 37.4733745,9.73706127 L37.4733745,11.1647829 C37.4733745,11.2647234 37.4021052,11.3361095 37.3023282,11.3503867 C37.1882974,11.3646639 37.0029974,11.3789411 36.8034435,11.3789411 C35.5633584,11.3789411 33.1259499,11.0220107 33.1259499,8.06662701 L33.1259499,4.12611541 L33.1402037,4.12611541 Z" id="XMLID_36_"></path>
                    <path d="M42.7330455,2.28435455 C45.4270234,2.28435455 47.5793549,4.19750149 47.5793549,6.8958953 C47.5793549,9.60856633 45.4270234,11.507436 42.7472994,11.507436 C40.0533215,11.507436 37.90099,9.60856633 37.90099,6.8958953 C37.90099,4.19750149 40.0675754,2.28435455 42.7330455,2.28435455 Z M42.7472994,9.63712076 C44.1584306,9.63712076 45.3557541,8.53777513 45.3557541,6.8958953 C45.3557541,5.26829268 44.1726845,4.15466984 42.7472994,4.15466984 C41.3219143,4.15466984 40.1245908,5.2825699 40.1245908,6.8958953 C40.1245908,8.53777513 41.3219143,9.63712076 42.7472994,9.63712076 Z" id="XMLID_33_"></path>
                </g>
                <g id="XMLID_3_">
                    <path d="M26.4551476,6.38191553 C26.2413398,6.06781678 25.8137243,5.9964307 25.5143934,6.21058894 L24.5736392,6.85306365 L23.6613928,7.5240928 L22.7634002,8.22367638 C22.4640693,8.46638905 22.1789923,8.70910173 21.8939152,8.9518144 C21.6088382,9.19452707 21.3237612,9.46579417 21.0386842,9.70850684 C20.7536072,9.96549673 20.482784,10.2367638 20.2119608,10.4937537 C19.9411376,10.7650208 19.6703145,11.0362879 19.3994913,11.307555 C19.1286681,11.5788221 18.8720988,11.8643664 18.6155295,12.1499108 C18.3589602,12.4354551 18.1023909,12.7209994 17.8458215,13.0065437 C17.5892522,13.292088 17.3469368,13.5919096 17.1046213,13.8917311 C16.8623058,14.1915526 16.6199903,14.4913742 16.3919287,14.7911957 C16.1496133,15.0910173 15.9358055,15.405116 15.69349,15.7049375 C15.4654284,16.0190363 15.2516206,16.333135 15.023559,16.6472338 C14.8240051,16.9185009 14.638705,17.2040452 14.453405,17.4753123 C13.8975048,16.9185009 13.298843,16.3759667 12.6859275,15.8619869 C12.0445042,15.3337299 11.3603193,14.8340274 10.6333729,14.3914337 C10.2770266,14.1772754 9.90642649,13.9631172 9.52157251,13.7917906 C9.33627245,13.7061273 9.13671854,13.620464 8.93716462,13.5348007 L8.63783375,13.4063058 L8.36701058,13.3063653 C8.039172,13.1921475 7.65431802,13.3063653 7.45476411,13.620464 C7.22670249,13.9773944 7.3407333,14.4628198 7.69707958,14.6912552 L7.93939505,14.8483046 L8.15320281,14.9910767 C8.29574132,15.0910173 8.43827983,15.205235 8.58081834,15.3194527 C8.86589537,15.5478882 9.13671854,15.7763236 9.39328785,16.0333135 C9.92068034,16.5330161 10.3910574,17.0898275 10.8471807,17.6609161 C11.7451733,18.8173706 12.5148812,20.10232 13.2703353,21.4301011 L13.2703353,21.4301011 L13.4128739,21.6014277 C13.5696662,21.8013087 13.783474,21.9583581 14.0257895,22.0725758 C14.8952744,22.4723379 15.9358055,22.0868531 16.3206595,21.2016657 L16.7625289,20.230815 L17.2329059,19.2599643 L17.7175369,18.3033908 C17.8885831,17.9892921 18.0596293,17.6751933 18.2306755,17.3610946 C18.4159756,17.0469958 18.5870218,16.7328971 18.7723219,16.4330756 C18.9576219,16.133254 19.142922,15.8191553 19.3282221,15.5193337 C19.527776,15.2195122 19.713076,14.9054134 19.9126299,14.6198691 C20.1121839,14.3200476 20.3117378,14.0202261 20.5255455,13.7346817 C20.7393533,13.4491374 20.9389072,13.1493159 21.1669688,12.8637716 C21.3807766,12.5782272 21.5945844,12.2926829 21.822646,12.0071386 C22.0507076,11.7358715 22.2787692,11.4503272 22.5068308,11.1647829 C22.7491463,10.8935158 22.9772079,10.6222487 23.2195234,10.3509816 C23.4618389,10.0797145 23.7041543,9.82272457 23.9607236,9.55145747 L24.7161778,8.7804878 L25.5001396,8.02379536 L26.3126091,7.29565735 L26.3268629,7.28138013 C26.6119399,7.03866746 26.6547015,6.66745985 26.4551476,6.38191553 Z" id="XMLID_31_"></path>
                    <g id="XMLID_29_" transform="translate(10.044835, 0.595506)">
                        <path d="M0.973391946,2.63114458 C0.773838031,2.63114458 0.588537967,2.50264963 0.531522563,2.30276861 L0.0183839241,0.589502697 C-0.0528853313,0.346790026 0.0896531794,0.0898001387 0.331968648,0.0184140589 C0.574284116,-0.0529720208 0.830853435,0.0898001387 0.90212269,0.33251281 L1.41526133,2.04577872 C1.48653058,2.28849139 1.34399207,2.54548128 1.10167661,2.61686736 C1.05891505,2.63114458 1.0161535,2.63114458 0.973391946,2.63114458 Z" id="XMLID_30_"></path>
                    </g>
                    <g id="XMLID_27_" transform="translate(14.111313, 0.000000)">
                        <path d="M0.5,2.71267103 C0.21875,2.71267103 0,2.51279001 0,2.25580012 L0,0.45687091 C0,0.199881023 0.21875,0 0.5,0 C0.78125,0 1,0.199881023 1,0.45687091 L1,2.2415229 C1,2.49851279 0.78125,2.71267103 0.5,2.71267103 Z" id="XMLID_28_"></path>
                    </g>
                    <g id="XMLID_25_" transform="translate(14.111313, 26.484236)">
                        <path d="M0.5,2.71267103 C0.21875,2.71267103 0,2.51279001 0,2.25580012 L0,0.45687091 C0,0.199881023 0.21875,0 0.5,0 C0.78125,0 1,0.199881023 1,0.45687091 L1,2.25580012 C1,2.49851279 0.78125,2.71267103 0.5,2.71267103 Z" id="XMLID_26_"></path>
                    </g>
                    <g id="XMLID_23_" transform="translate(0.000000, 14.134444)">
                        <path d="M2.23785462,1 L0.456123234,1 C0.199553915,1 0,0.78125 0,0.5 C0,0.21875 0.199553915,0 0.456123234,0 L2.25210847,0 C2.50867779,0 2.7082317,0.21875 2.7082317,0.5 C2.7082317,0.78125 2.49442394,1 2.23785462,1 Z" id="XMLID_24_"></path>
                    </g>
                    <g id="XMLID_21_" transform="translate(0.594532, 17.685334)">
                        <path d="M0.460253307,1.43185844 C0.260699392,1.43185844 0.0753993283,1.30336349 0.0183839241,1.10348247 C-0.0528853313,0.8607698 0.0896531794,0.603779913 0.331968648,0.532393833 L2.04243078,0.0184140589 C2.28474624,-0.0529720208 2.54131556,0.0898001387 2.61258482,0.33251281 C2.68385407,0.575225481 2.54131556,0.832215368 2.2990001,0.903601447 L0.588537967,1.41758122 C0.545776414,1.43185844 0.50301486,1.43185844 0.460253307,1.43185844 Z" id="XMLID_22_"></path>
                    </g>
                    <g id="XMLID_19_" transform="translate(6.031839, 2.529531)">
                        <path d="M1.49419454,2.39610843 C1.35165603,2.39610843 1.20911752,2.32472235 1.10934056,2.1962274 L0.0830632867,0.725674161 C-0.059475224,0.511515922 -0.0167136708,0.225971603 0.197094095,0.0831994438 C0.410901861,-0.0595727156 0.695978883,-0.0167410678 0.838517393,0.197417171 L1.86479467,1.66797041 C2.00733318,1.88212865 1.96457163,2.16767297 1.75076386,2.31044513 C1.66524076,2.36755399 1.57971765,2.39610843 1.49419454,2.39610843 Z" id="XMLID_20_"></path>
                    </g>
                    <g id="XMLID_17_" transform="translate(2.525391, 21.189852)">
                        <path d="M0.467917266,1.95351473 C0.325378755,1.95351473 0.182840244,1.88212865 0.0830632867,1.75363371 C-0.059475224,1.53947547 -0.0167136708,1.25393115 0.197094095,1.11115899 L1.66524076,0.0831994438 C1.87904852,-0.0595727156 2.16412554,-0.0167410678 2.30666405,0.197417171 C2.44920256,0.41157541 2.40644101,0.697119729 2.19263324,0.839891889 L0.724486585,1.86785144 C0.653217329,1.9249603 0.553440372,1.95351473 0.467917266,1.95351473 Z" id="XMLID_18_"></path>
                    </g>
                    <g id="XMLID_15_" transform="translate(2.781092, 5.698203)">
                        <path d="M1.89417137,1.9972168 C1.79439441,1.9972168 1.7088713,1.96866237 1.6233482,1.9115535 L0.18370924,0.826485093 C-0.0158446753,0.669435717 -0.0586062285,0.383891399 0.0839322822,0.184010375 C0.240724644,-0.0158706479 0.525801665,-0.0587022957 0.72535558,0.0840698637 L2.16499454,1.15486106 C2.36454845,1.31191043 2.40731001,1.59745475 2.2647715,1.79733578 C2.17924839,1.92583072 2.03670988,1.9972168 1.89417137,1.9972168 Z" id="XMLID_16_"></path>
                    </g>
                    <g id="XMLID_13_" transform="translate(21.467891, 2.785651)">
                        <path d="M0.45453241,2.3541472 C0.354755452,2.3541472 0.269232346,2.32559277 0.18370924,2.2684839 C-0.0158446753,2.11143453 -0.0586062285,1.82589021 0.0839322822,1.62600919 L1.15297111,0.184010375 C1.30976347,-0.0158706479 1.5948405,-0.0587022957 1.79439441,0.0840698637 C1.99394833,0.241119239 2.03670988,0.526663558 1.89417137,0.726544581 L0.825132538,2.16854339 C0.72535558,2.29703833 0.597070921,2.3541472 0.45453241,2.3541472 Z" id="XMLID_14_"></path>
                    </g>
                    <g id="XMLID_11_" transform="translate(5.703131, 24.044425)">
                        <path d="M0.45453241,2.3541472 C0.354755452,2.3541472 0.269232346,2.32559277 0.18370924,2.2684839 C-0.0158446753,2.11143453 -0.0586062285,1.82589021 0.0839322822,1.62600919 L1.15297111,0.184010375 C1.30976347,-0.0158706479 1.5948405,-0.0587022957 1.79439441,0.0840698637 C1.99394833,0.241119239 2.03670988,0.526663558 1.89417137,0.726544581 L0.825132538,2.16854339 C0.72535558,2.29703833 0.58281707,2.3541472 0.45453241,2.3541472 Z" id="XMLID_12_"></path>
                    </g>
                    <g id="XMLID_9_" transform="translate(0.728937, 9.653392)">
                        <path d="M2.15034069,1.49711359 C2.10757914,1.49711359 2.05056374,1.48283638 2.00780218,1.46855916 L0.311593905,0.897470523 C0.069278437,0.811807227 -0.0590062226,0.55481734 0.0265168838,0.312104669 C0.11203999,0.069391998 0.368609309,-0.0591029454 0.610924778,0.0265603502 L2.30713305,0.597648988 C2.54944852,0.683312284 2.67773318,0.940302171 2.59221008,1.18301484 C2.52094082,1.38289586 2.33564076,1.49711359 2.15034069,1.49711359 Z" id="XMLID_10_"></path>
                    </g>
                    <g id="XMLID_7_" transform="translate(9.651848, 25.843755)">
                        <path d="M0.454132416,2.62501365 C0.411370863,2.62501365 0.354355458,2.61073644 0.311593905,2.59645922 C0.069278437,2.51079592 -0.0590062226,2.25380604 0.0265168838,2.01109337 L0.596670927,0.312104669 C0.682194033,0.069391998 0.938763352,-0.0591029454 1.18107882,0.0265603502 C1.42339429,0.112223646 1.55167895,0.369213533 1.46615584,0.611926204 L0.896001799,2.3109149 C0.838986395,2.49651871 0.653686331,2.62501365 0.454132416,2.62501365 Z" id="XMLID_8_"></path>
                    </g>
                    <g id="XMLID_5_" transform="translate(18.004605, 0.715855)">
                        <path d="M0.454132416,2.62501365 C0.411370863,2.62501365 0.354355458,2.61073644 0.311593905,2.59645922 C0.069278437,2.51079592 -0.0590062226,2.25380604 0.0265168838,2.01109337 L0.596670927,0.312104669 C0.682194033,0.069391998 0.938763352,-0.0591029454 1.18107882,0.0265603502 C1.42339429,0.112223646 1.55167895,0.369213533 1.46615584,0.611926204 L0.896001799,2.3109149 C0.824732544,2.49651871 0.653686331,2.62501365 0.454132416,2.62501365 Z" id="XMLID_6_"></path>
                    </g>
                </g>
            </g>
        </g>
    </g>
</svg>