<?xml version="1.0" encoding="utf-8"?>
<!-- Generator: Adobe Illustrator 24.3.0, SVG Export Plug-In . SVG Version: 6.00 Build 0)  -->
<svg version="1.1" id="Layer_1" xmlns="http://www.w3.org/2000/svg" xmlns:xlink="http://www.w3.org/1999/xlink" x="0px" y="0px"
	 viewBox="0 0 69 40" style="enable-background:new 0 0 69 40;" xml:space="preserve">
<style type="text/css">
	.st0{fill:#121E48;}
</style>
<g id="Symbols">
	<g id="marcas-_x2F_-integrações-2-atual" transform="translate(-727.000000, -11.000000)">
		<g id="Group" transform="translate(727.000000, 11.000000)">
			<g id="logo.1e3da8f8" transform="translate(0.000000, -0.000000)">
				<path id="Path" class="st0" d="M4.9,12.9c1.4,0,2.5,0.2,3.2,0.3c0.5,0.1,0.8,0.6,0.6,1.1c0,0,0,0,0,0c-0.1,0.4-0.6,0.6-1,0.5
					c-0.6-0.1-1.5-0.3-2.5-0.3c-2.1,0-3.2,0.8-3.2,2.3c0,1.5,1.7,1.9,3.6,2.5c1.9,0.6,3.8,1.5,3.8,4.1c0,2.7-1.7,4.2-5,4.2
					c-1.8,0-3.1-0.4-3.8-0.6C0.2,27,0,26.6,0,26.3c0,0,0,0,0-0.1c0-0.6,0.5-1,1.1-0.8c0.8,0.2,2.1,0.5,3.2,0.5
					c2.1,0,3.1-0.8,3.1-2.3c0-1.4-1.1-1.9-2.5-2.4C2.7,20.5,0,20,0,17C0,14.6,1.7,12.9,4.9,12.9z"/>
				<path id="Shape" class="st0" d="M15.2,16.8c2.8,0,4.5,1.5,4.5,5.5s-1.7,5.5-4.5,5.5s-4.5-1.5-4.5-5.5S12.4,16.8,15.2,16.8z
					 M15.2,18.3c-1.5,0-2.4,0.8-2.4,3.9s0.9,3.9,2.4,3.9s2.4-0.8,2.4-3.9S16.7,18.3,15.2,18.3z M17,12c0.2,0,0.4,0.1,0.6,0.2
					c0.4,0.2,0.5,0.7,0.2,1.1L16,15.1c-0.2,0.2-0.5,0.3-0.7,0.2c0,0,0,0,0,0c-0.4-0.2-0.5-0.7-0.3-1l1.3-2C16.4,12.1,16.7,12,17,12z
					"/>
				<path id="Path_1_" class="st0" d="M23.1,26.7c0,0.5-0.4,1-1,1c0,0,0,0,0,0c0,0,0,0,0,0c-0.5,0-1-0.4-1-1v-13c0-0.5,0.4-1,1-1
					c0,0,0,0,0,0c0,0,0,0,0,0c0.5,0,1,0.4,1,1V26.7z"/>
				<path id="Shape_1_" class="st0" d="M27.7,14.3c0,0.6-0.5,1-1,1c0,0,0,0,0,0c0,0,0,0,0,0c-0.6,0-1-0.5-1-1v-0.1c0-0.6,0.5-1,1-1
					c0,0,0,0,0,0c0,0,0,0,0,0c0.6,0,1,0.5,1,1V14.3z M27.6,26.7c0,0.5-0.4,1-1,1c0,0,0,0,0,0c0,0,0,0,0,0c-0.5,0-1-0.4-1-1v-8.5
					c0-0.5,0.4-1,1-1c0,0,0,0,0,0c0,0,0,0,0,0c0.5,0,1,0.4,1,1V26.7z"/>
				<path id="Shape_2_" class="st0" d="M37,12.5C37,12.5,37,12.5,37,12.5C37,12.5,36.9,12.5,37,12.5c-0.6,0-1,0.4-1,1v1.6v3
					c-0.6-0.8-1.5-1.3-2.9-1.3c-2.3,0-3.8,1.4-3.8,5.5s1.5,5.5,3.8,5.5c1.5,0,2.4-0.5,3-1.4l0,0.4l0,0l0,0c0.1,0.5,0.4,0.9,0.8,1
					c0.1,0,0.1,0,0.2,0c0,0,0,0,0,0c0.5,0,0.8-0.5,0.8-1.1v-0.1v-0.2V15.1v-1.6C38,13,37.5,12.5,37,12.5z M36,23.5
					c0,1.4-0.8,2.6-2.2,2.6c-1.6,0-2.4-0.8-2.4-3.8c0-3,0.8-3.8,2.4-3.8c1.4,0,2.2,1.2,2.2,2.5V23.5z"/>
				<path id="Shape_3_" class="st0" d="M44.1,27.7c-3.1,0-4.5-1.9-4.5-5.5c0-3.8,1.8-5.4,4.5-5.4c2.5,0,4,1.4,4,4
					c0,1.3-0.2,2.1-0.2,2.1h-6.1c0.2,2.4,1.1,3.1,2.8,3.1L44.1,27.7z M44.4,26c0.8,0,1.4-0.2,1.8-0.3c0.4-0.2,0.9,0,1,0.4
					c0,0,0,0,0,0c0.2,0.4,0,0.9-0.4,1c-0.5,0.2-1.5,0.5-2.7,0.5L44.4,26z M43.9,18.4c-1.3,0-2.2,0.9-2.4,3.1h4.3
					c0-0.2,0.1-0.5,0.1-0.9C45.9,19.4,45.4,18.4,43.9,18.4z"/>
				<path id="Path_2_" class="st0" d="M52.9,16.8c1,0,1.7,0.1,2.2,0.3c0.4,0.1,0.7,0.6,0.5,1c0,0,0,0,0,0c-0.1,0.4-0.5,0.6-0.9,0.5
					c-0.4-0.1-1-0.2-1.6-0.2c-1.4,0-2,0.5-2,1.4c0,1,1.3,1.2,2.5,1.6c1.3,0.4,2.7,1,2.7,3c0,2-1.3,3.2-3.8,3.2
					c-1.3,0-2.2-0.3-2.8-0.5c-0.4-0.1-0.6-0.6-0.5-1c0,0,0-0.1,0-0.1c0.1-0.4,0.6-0.6,1-0.5c0.5,0.1,1.3,0.3,2.2,0.3
					c1.2,0,1.9-0.5,1.9-1.4c0-1.1-1.1-1.3-2.3-1.7c-1.4-0.4-2.9-1-2.9-3C49.1,18,50.4,16.8,52.9,16.8z"/>
				<path id="Path_3_" class="st0" d="M68.1,27.7h-9.4c-0.3,0-0.6-0.3-0.6-0.6s0.3-0.6,0.6-0.6h9.4c0.3,0,0.6,0.3,0.6,0.6
					C68.7,27.4,68.4,27.7,68.1,27.7z"/>
				<path id="Path_4_" class="st0" d="M63,21.4h-4.3c-0.3,0-0.6-0.3-0.6-0.6s0.3-0.6,0.6-0.6H63c0.3,0,0.6,0.3,0.6,0.6
					C63.6,21.2,63.3,21.4,63,21.4z"/>
				<path id="Path_5_" class="st0" d="M65.2,25.6h-6.4c-0.3,0-0.6-0.3-0.6-0.6c0-0.3,0.3-0.6,0.6-0.6h6.4c0.3,0,0.6,0.3,0.6,0.6
					C65.8,25.3,65.5,25.6,65.2,25.6z"/>
				<path id="Path_6_" class="st0" d="M67.6,23.5h-8.8c-0.3,0-0.6-0.3-0.6-0.6c0-0.3,0.3-0.6,0.6-0.6h8.8c0.3,0,0.6,0.3,0.6,0.6
					C68.2,23.2,67.9,23.5,67.6,23.5z"/>
			</g>
		</g>
	</g>
</g>
</svg>
