<?xml version="1.0" encoding="utf-8"?>
<!-- Generator: Adobe Illustrator 24.3.0, SVG Export Plug-In . SVG Version: 6.00 Build 0)  -->
<svg version="1.1" id="Layer_1" xmlns="http://www.w3.org/2000/svg" xmlns:xlink="http://www.w3.org/1999/xlink" x="0px" y="0px"
	 viewBox="0 0 101 40" style="enable-background:new 0 0 101 40;" xml:space="preserve">
<style type="text/css">
	.st0{fill:#121E48;}
	.st1{fill:#FFFFFF;}
</style>
<g id="Symbols">
	<g id="marcas-_x2F_-integrações-atual" transform="translate(-595.000000, -6.000000)">
		<g id="Logo-Ahgora" transform="translate(596.000000, 7.000000)">
			<path id="Shape" class="st0" d="M47.9,15.6h-2.3c-0.1,0-0.1,0.1-0.1,0.1v0.8c-0.7-0.7-1.8-1.1-2.8-1.1c-1.3,0-2.5,0.5-3.4,1.4
				c-0.9,1-1.4,2.2-1.3,3.5c0,1.3,0.4,2.6,1.3,3.6c0.9,0.9,2.1,1.5,3.4,1.4c1,0,2-0.4,2.8-1.1V25c0,0,0,0.1,0,0.1c0,0,0.1,0,0.1,0
				h2.3c0,0,0.1,0,0.1,0s0-0.1,0-0.1v-9.2c0,0,0-0.1,0-0.1C48,15.6,47.9,15.6,47.9,15.6 M43.1,22.9c-0.7,0-1.3-0.2-1.7-0.7
				c-0.5-0.5-0.7-1.1-0.7-1.8c0-0.7,0.2-1.3,0.7-1.8c0.5-0.5,1.1-0.7,1.8-0.7c0.7,0,1.3,0.3,1.8,0.7c0.9,1,0.9,2.6,0,3.6
				C44.4,22.7,43.7,22.9,43.1,22.9"/>
			<path id="Path" class="st0" d="M55.3,15.4c-1,0-2.1,0.4-2.8,1.2v-4.4c0-0.1-0.1-0.1-0.1-0.1H50c0,0-0.1,0-0.1,0s0,0.1,0,0.1V25
				c0,0,0,0.1,0,0.1c0,0,0.1,0,0.1,0h2.4c0,0,0.1,0,0.1,0c0,0,0-0.1,0-0.1V20c-0.1-0.6,0.1-1.1,0.5-1.5s0.9-0.7,1.5-0.7
				c1.1,0,1.8,0.8,1.8,2.1v5c0,0,0,0.1,0,0.1s0.1,0,0.1,0h2.4c0,0,0.1,0,0.1,0s0-0.1,0-0.1v-5.6c0.1-1.1-0.3-2.2-1.1-2.9
				C57.2,15.7,56.3,15.3,55.3,15.4"/>
			<path id="Shape_1_" class="st0" d="M70.2,15.6H68c-0.1,0-0.1,0.1-0.1,0.1v0.7c-0.7-0.7-1.7-1.1-2.7-1.1c-1.3,0-2.5,0.5-3.5,1.4
				c-1.8,2-1.9,5-0.1,7c0.9,0.9,2.1,1.4,3.4,1.4c1,0,2-0.3,2.7-1v0.1c0,1.5-1,2.4-2.7,2.4c-1.1,0-2.2-0.4-3.2-1.1c0,0-0.1,0-0.1,0
				c0,0-0.1,0-0.1,0.1l-0.9,1.8c0,0.1,0,0.1,0,0.2c1.3,0.9,2.8,1.4,4.3,1.4c1.4,0.1,2.7-0.4,3.8-1.3c1-0.9,1.5-2.3,1.5-3.6v-8.3
				C70.3,15.7,70.3,15.7,70.2,15.6C70.3,15.6,70.2,15.6,70.2,15.6 M65.4,22.8c-0.6,0-1.3-0.2-1.7-0.7C63.2,21.6,63,21,63,20.3
				c0-0.9,0.4-1.7,1.2-2.1c0.8-0.4,1.7-0.4,2.5,0c0.8,0.4,1.2,1.3,1.2,2.1c0,0.7-0.2,1.3-0.7,1.8C66.7,22.5,66.1,22.8,65.4,22.8"/>
			<path id="Shape_2_" class="st0" d="M76.8,15.4c-1.4,0-2.7,0.5-3.7,1.5c-1.9,2-1.9,5.1,0,7.1c2.1,1.9,5.3,1.9,7.3,0
				c1.9-2,1.9-5.1,0-7.1C79.5,15.9,78.2,15.3,76.8,15.4 M78.5,22.2c-0.5,0.5-1.1,0.7-1.7,0.7c-0.6,0-1.3-0.3-1.7-0.7
				c-0.5-0.5-0.7-1.1-0.7-1.8c0-0.7,0.2-1.3,0.7-1.8c0.5-0.5,1.1-0.7,1.7-0.7c0.6,0,1.3,0.3,1.7,0.7c0.5,0.5,0.7,1.1,0.7,1.8
				C79.3,21,79,21.7,78.5,22.2"/>
			<path id="Path_1_" class="st0" d="M89.5,15.6c-0.4-0.1-0.8-0.2-1.2-0.2c-0.9,0-1.8,0.4-2.4,1.2v-0.8c0-0.1-0.1-0.1-0.1-0.1h-2.3
				c0,0-0.1,0-0.1,0s0,0.1,0,0.1V25c0,0,0,0.1,0,0.1c0,0,0.1,0,0.1,0h2.4c0,0,0.1,0,0.1,0c0,0,0-0.1,0-0.1v-4.4
				c0-1.7,0.8-2.7,2.1-2.7c0.4,0,0.7,0.1,1.1,0.2c0,0,0.1,0,0.1,0c0,0,0.1-0.1,0.1-0.1l0.2-2.3C89.6,15.7,89.5,15.6,89.5,15.6"/>
			<path id="Shape_3_" class="st0" d="M99.6,15.6h-2.3c-0.1,0-0.1,0.1-0.1,0.1v0.8c-0.7-0.7-1.8-1.1-2.8-1.1c-1.3,0-2.5,0.5-3.4,1.4
				c-0.9,1-1.4,2.2-1.3,3.5c0,1.3,0.4,2.6,1.3,3.6c0.9,0.9,2.1,1.5,3.4,1.4c1,0,2-0.4,2.8-1.1V25c0,0.1,0.1,0.1,0.1,0.1h2.3
				c0,0,0.1,0,0.1,0c0,0,0-0.1,0-0.1v-9.2c0,0,0-0.1,0-0.1C99.6,15.6,99.6,15.6,99.6,15.6 M94.7,22.9c-0.7,0-1.3-0.2-1.7-0.7
				c-0.5-0.5-0.7-1.1-0.7-1.8c0-0.7,0.2-1.3,0.7-1.8c0.5-0.5,1.1-0.7,1.8-0.7c0.7,0,1.3,0.3,1.8,0.7c0.9,1,0.9,2.6,0,3.6
				C96,22.7,95.4,22.9,94.7,22.9"/>
		</g>
	</g>
</g>
<path class="st1" d="M17.4,15.6L17.4,15.6L17.4,15.6L17.4,15.6z M17.4,15.6L17.4,15.6L17.4,15.6L17.4,15.6z"/>
<g>
	<polygon class="st0" points="24.8,16.3 10.5,16.3 17.7,23.5 17.7,23.5 	"/>
	<polygon class="st0" points="24.8,15.3 17.7,8.2 10.5,15.3 	"/>
</g>
<g>
	<polygon class="st0" points="1.7,24.2 8.8,31.3 8.8,17 	"/>
	<polygon class="st0" points="9.8,17 9.8,31.3 17,24.2 	"/>
</g>
<g>
	<polygon class="st0" points="18.4,24.2 25.5,31.3 25.5,17 	"/>
	<polygon class="st0" points="26.5,17 26.5,31.3 33.6,24.2 	"/>
</g>
</svg>
