<?xml version="1.0" encoding="utf-8"?>
<!-- Generator: Adobe Illustrator 24.3.0, SVG Export Plug-In . SVG Version: 6.00 Build 0)  -->
<svg version="1.1" id="Layer_1" xmlns="http://www.w3.org/2000/svg" xmlns:xlink="http://www.w3.org/1999/xlink" x="0px" y="0px"
	 viewBox="0 0 114 40" style="enable-background:new 0 0 114 40;" xml:space="preserve">
<style type="text/css">
	.st0{fill:#121E48;}
</style>
<g id="Symbols">
	<g id="marcas-_x2F_-integrações-2-atual" transform="translate(-566.000000, -7.000000)">
		<g id="Página-principal-Tangerino" transform="translate(566.000000, 7.000000)">
			<path id="Shape" class="st0" d="M13,7C5.8,7,0,12.8,0,20s5.8,13,13,13s13-5.8,13-13S20.2,7,13,7z M13,9.4c0.4,0,0.8,0,1.2,0.1
				v9.3c0.4,0.3,0.6,0.8,0.6,1.3c0,0,0,0.1,0,0.1l4.9,4.9c-0.5,0.6-1,1.2-1.7,1.7l-4.9-4.9c0,0-0.1,0-0.1,0c-1,0-1.8-0.8-1.8-1.8
				c0-0.5,0.2-1,0.6-1.3V9.4C12.2,9.4,12.6,9.4,13,9.4z M90.8,12.1c-0.5,0-0.9,0.1-1.2,0.4c-0.3,0.3-0.5,0.7-0.5,1.1
				c0,0.4,0.2,0.8,0.5,1.1c0.3,0.3,0.7,0.4,1.2,0.4c0.5,0,0.9-0.1,1.2-0.4c0.3-0.3,0.5-0.7,0.5-1.1c0-0.4-0.2-0.8-0.5-1
				C91.7,12.2,91.3,12.1,90.8,12.1L90.8,12.1z M32,12.1v2.5h4.3v10.6h3V14.5h4.2v-2.5H32L32,12.1z M88.1,16.4
				c-0.7,0-1.3,0.1-1.8,0.3c-0.5,0.2-0.9,0.5-1.2,1v-1.3h-2.5v8.7h2.5l0.1-4c0-0.8,0.2-1.4,0.6-1.8c0.4-0.4,1-0.6,1.7-0.6
				c0.1,0,0.3,0,0.6,0V16.4L88.1,16.4z M66.1,16.4c-0.7,0-1.4,0.2-2,0.5c-0.6,0.3-1.1,0.8-1.4,1.4c-0.4,0.6-0.5,1.3-0.5,2.1
				c0,0.8,0.2,1.5,0.5,2.1c0.3,0.6,0.8,1.1,1.4,1.4c0.6,0.3,1.3,0.5,2,0.5c1.1,0,1.9-0.3,2.5-1v0.4c0,0.8-0.2,1.3-0.6,1.7
				c-0.4,0.4-1,0.6-1.8,0.6c-0.5,0-1-0.1-1.5-0.3c-0.5-0.2-0.8-0.3-1.1-0.5l-1.3,1.3c0.4,0.4,1.3,0.9,1.9,1.1
				c0.7,0.2,1.4,0.3,2.2,0.3c1.4,0,2.5-0.4,3.3-1.1c0.8-0.7,1.1-1.9,1.1-3.4v-7h-2.2v1.2C68.1,16.8,67.2,16.4,66.1,16.4z M89.6,16.4
				v8.7h2.5v-8.7L89.6,16.4L89.6,16.4z M93.6,16.4v8.7h2.5v-4.2c0-0.8,0.2-1.3,0.6-1.7c0.4-0.4,0.9-0.6,1.5-0.6c0.6,0,1,0.2,1.3,0.5
				c0.3,0.3,0.4,0.8,0.4,1.5v4.5h2.5v-4.9c0-1.2-0.3-2.2-1-2.8c-0.7-0.6-1.5-1-2.6-1c-0.6,0-1.1,0.1-1.6,0.3
				c-0.5,0.2-0.9,0.5-1.2,0.8v-1.1H93.6L93.6,16.4z M108.5,16.4c-0.9,0-1.7,0.2-2.4,0.6c-0.7,0.4-1.3,0.9-1.7,1.5
				c-0.4,0.7-0.6,1.4-0.6,2.2c0,0.8,0.2,1.6,0.6,2.2c0.4,0.7,1,1.2,1.7,1.5c0.7,0.4,1.5,0.6,2.4,0.6c0.9,0,1.7-0.2,2.4-0.6
				c0.7-0.4,1.3-0.9,1.6-1.5c0.4-0.7,0.6-1.4,0.6-2.2s-0.2-1.6-0.6-2.2c-0.4-0.7-0.9-1.2-1.6-1.5C110.2,16.6,109.4,16.4,108.5,16.4
				L108.5,16.4z M46.5,16.4c-0.7,0-1.3,0.1-2,0.3c-0.6,0.2-0.4,0.1-1,0.4v2.1c0.3-0.2,0.9-0.4,1.3-0.6c0.4-0.1,0.9-0.2,1.3-0.2
				c0.7,0,1.1,0.1,1.5,0.4c0.3,0.3,0.5,0.7,0.5,1.2h-1.9c-1.2,0-2.1,0.2-2.7,0.7c-0.6,0.4-0.9,1.1-0.9,1.8c0,0.5,0.1,0.9,0.4,1.3
				c0.3,0.4,0.6,0.7,1.1,0.9c0.5,0.2,1,0.3,1.7,0.3c1.3,0,2.1-0.4,2.6-1.2v1.2h2.3v-4.9c0-1.3-0.4-2.2-1.1-2.8
				C48.8,16.7,47.8,16.4,46.5,16.4L46.5,16.4z M52,16.4v8.7h2.5v-4.2c0-0.8,0.2-1.3,0.6-1.7c0.4-0.4,0.9-0.6,1.5-0.6
				c0.6,0,1,0.2,1.3,0.5c0.3,0.3,0.4,0.8,0.4,1.5v4.5h2.5v-4.9c0-1.3-0.3-2.2-1-2.8c-0.6-0.6-1.5-1-2.6-1c-0.6,0-1.1,0.1-1.6,0.3
				c-0.5,0.2-0.9,0.5-1.2,0.8v-1.1H52L52,16.4z M76.9,16.4c-0.8,0-1.6,0.2-2.3,0.6c-0.7,0.4-1.2,0.9-1.6,1.6
				c-0.4,0.7-0.6,1.4-0.6,2.2c0,0.8,0.2,1.6,0.6,2.2c0.4,0.7,1,1.2,1.7,1.5c0.7,0.4,1.6,0.6,2.5,0.6c1.5,0,2.7-0.5,3.5-1.4l-1.3-1.4
				c-0.3,0.3-0.6,0.5-0.9,0.6c-0.3,0.1-0.7,0.2-1.2,0.2c-0.6,0-1.2-0.2-1.6-0.5c-0.4-0.3-0.7-0.7-0.8-1.2h6.4c0-0.4,0-0.6,0-0.7
				c0-0.9-0.2-1.6-0.6-2.3c-0.4-0.7-0.9-1.2-1.6-1.5C78.4,16.6,77.7,16.4,76.9,16.4L76.9,16.4z M76.9,18.3c0.5,0,1,0.2,1.4,0.5
				c0.4,0.3,0.6,0.7,0.7,1.3h-4.2c0.1-0.5,0.3-1,0.7-1.3C75.9,18.4,76.3,18.3,76.9,18.3z M66.5,18.4c0.6,0,1.1,0.2,1.5,0.6
				c0.4,0.4,0.6,0.9,0.6,1.5c0,0.6-0.2,1.1-0.6,1.5c-0.4,0.4-0.9,0.6-1.5,0.6c-0.6,0-1.1-0.2-1.5-0.6c-0.4-0.4-0.6-0.9-0.6-1.5
				c0-0.6,0.2-1.1,0.6-1.5C65.4,18.6,65.9,18.4,66.5,18.4z M108.5,18.4c0.6,0,1.1,0.2,1.5,0.6s0.6,1,0.6,1.7c0,0.7-0.2,1.3-0.6,1.7
				c-0.4,0.4-0.9,0.6-1.5,0.6c-0.6,0-1.1-0.2-1.6-0.6c-0.4-0.4-0.6-1-0.6-1.7c0-0.7,0.2-1.3,0.6-1.7
				C107.4,18.6,107.9,18.4,108.5,18.4L108.5,18.4z M46.4,21.5h1.7v0.5c0,0.5-0.2,0.9-0.6,1.2l-0.1,0c-0.3,0.2-0.7,0.3-1.1,0.3
				c-0.4,0-0.8-0.1-1-0.3c-0.2-0.2-0.4-0.4-0.4-0.7C44.9,21.8,45.4,21.5,46.4,21.5L46.4,21.5z"/>
		</g>
	</g>
</g>
</svg>
