<?xml version="1.0" encoding="utf-8"?>
<!-- Generator: Adobe Illustrator 26.0.3, SVG Export Plug-In . SVG Version: 6.00 Build 0)  -->
<svg version="1.1" id="Camada_1" xmlns="http://www.w3.org/2000/svg" xmlns:xlink="http://www.w3.org/1999/xlink" x="0px" y="0px"
	 viewBox="0 0 24 24" style="enable-background:new 0 0 24 24;" xml:space="preserve">
<style type="text/css">
	.st0{fill:none;stroke:#FF4B8C;stroke-width:1.5;stroke-linecap:round;stroke-linejoin:round;}
	.st1{fill:none;}
</style>
<g>
	<path class="st0" d="M19,11V7.8c0-0.5-0.2-1-0.6-1.4l-2.8-2.8C15.2,3.2,14.7,3,14.2,3H5C3.9,3,3,3.9,3,5v14c0,1.1,0.9,2,2,2h5"/>
	<path class="st0" d="M19,8h-4c-0.6,0-1-0.4-1-1V3"/>
	<path class="st0" d="M17.1,20.7l3.6-3.6c0.4-0.4,0.4-1,0-1.4l-1.6-1.6c-0.4-0.4-1-0.4-1.4,0l-3.6,3.6c-0.2,0.2-0.3,0.4-0.3,0.7V21
		h2.6C16.7,21,17,20.9,17.1,20.7z"/>
</g>
<path class="st1" d="M0,0h24v24H0V0z"/>
</svg>
