<?xml version="1.0" encoding="UTF-8"?>
<svg width="72px" height="24px" viewBox="0 0 72 24" version="1.1" xmlns="http://www.w3.org/2000/svg" xmlns:xlink="http://www.w3.org/1999/xlink">
    <title>svgexport-1 (6)</title>
    <g id="Symbols" stroke="none" stroke-width="1" fill="none" fill-rule="evenodd">
        <g id="marcas-/-parceiros-final-copy-3" transform="translate(-968.000000, -8.000000)" fill="#121E48" fill-rule="nonzero">
            <g id="svgexport-1-(6)" transform="translate(968.000000, 8.000000)">
                <polygon id="Path" points="29.3871027 3.88892553 26.7791088 3.88892553 26.7791088 17.6239534 35.0706509 17.6239534 35.0706509 15.1036236 29.3871027 15.1036236"></polygon>
                <path d="M40.5860708,7.45876251 C37.5926845,7.45876251 35.3035791,9.68257321 35.3035791,12.6106099 C35.3035791,15.5386465 37.5829013,17.7741641 40.5860708,17.7721868 C43.5892403,17.7702618 45.8685624,15.558158 45.8685624,12.6203381 C45.8685624,9.68257321 43.6225471,7.47046938 40.5978326,7.45876251 L40.5860708,7.45876251 Z M40.5723853,15.4566985 C38.970028,15.4566985 37.8333074,14.249187 37.8508952,12.5871961 C37.8685379,10.9252053 38.9954753,9.78793505 40.5997563,9.78985627 C42.2040922,9.79183734 43.3388342,10.9603259 43.3251487,12.6340236 C43.3114632,14.3077213 42.1825471,15.4684053 40.5704066,15.4566985" id="Shape"></path>
                <path d="M54.3617045,8.15925106 C53.5298022,7.6949335 52.5916587,7.45304648 51.6382907,7.45694877 C48.6448495,7.44529686 46.3557991,9.68081443 46.3557991,12.6068725 C46.3557991,15.5329305 48.6370449,17.7723504 51.6382907,17.7704267 C52.5976495,17.7766924 53.5419487,17.5326069 54.3773686,17.0622985 L54.3773686,18.176155 C54.3773686,19.847929 53.2347671,21.008613 51.6226266,21.008613 C49.5526541,21.008613 48.6409472,19.0071779 48.6409472,19.0071779 L46.7451487,20.156155 C46.7451487,20.156155 47.8348769,23.329981 51.6363121,23.329981 C54.6493197,23.329981 56.9190236,21.1158985 56.9190236,18.176155 L56.9190236,7.44722052 L54.37539,7.44722052 L54.37539,8.15925106 L54.3617045,8.15925106 Z M54.37539,12.6576022 C54.3538999,14.3117885 53.2249839,15.4627443 51.6226266,15.4510374 C50.0202693,15.4393305 48.8835487,14.2416023 48.9031151,12.5815351 C48.9226815,10.9214679 50.0457167,9.78221902 51.6519762,9.78221902 C53.2582358,9.78221902 54.3675854,10.9331748 54.37539,12.5912633 L54.37539,12.6556236" id="Shape"></path>
                <path d="M65.4139244,8.15925106 C64.5823519,7.69476861 63.6436038,7.45288159 62.6905656,7.45694877 C59.6973442,7.44529686 57.4081839,9.68081443 57.4081839,12.6068725 C57.4081839,15.5329305 59.6874511,17.7723504 62.6905656,17.7704267 C63.6496496,17.7764725 64.5938939,17.5323321 65.4293137,17.0622985 L65.4293137,18.176155 C65.4293137,19.847929 64.2850084,21.008613 62.6729778,21.008613 C60.6031152,21.008613 59.6929473,19.0071779 59.6929473,19.0071779 L57.7956648,20.156155 C57.7956648,20.156155 58.8850083,23.3280023 62.6867183,23.3280023 C65.699726,23.3280023 67.9691,21.1158985 67.9691,18.176155 L67.9691,7.44722052 L65.4254664,7.44722052 L65.4254664,8.15925106 L65.4139244,8.15925106 Z M65.4254664,12.6576022 C65.4040313,14.3117885 64.2751153,15.4627443 62.6729778,15.4510374 C61.0702908,15.4393305 59.9336801,14.2416023 59.9534664,12.5815351 C59.972703,10.9214679 61.0961229,9.78029535 62.6922145,9.78221659 C64.2888557,9.78419764 65.4078786,10.9331748 65.4177718,12.5912633 L65.4177718,12.6576022" id="Shape"></path>
                <polygon id="Path" points="71.596581 7.45095793 68.988642 7.45095793 68.988642 17.6239534 71.596581 17.6239534"></polygon>
                <path d="M70.2934359,6.46972433 C70.5512069,6.46972433 70.8034817,6.39338234 71.0183825,6.25042662 C71.2327336,6.10747089 71.4003672,5.904277 71.4987489,5.66651211 C71.5976802,5.42874722 71.6235123,5.1671289 71.573497,4.91474966 C71.5229321,4.66235393 71.3987184,4.43051393 71.2162451,4.24854629 C71.0337718,4.06658415 70.8012833,3.94266171 70.5479092,3.89245957 C70.2945352,3.84225194 70.0323672,3.86801805 69.7938329,3.96649866 C69.5552985,4.06497927 69.3519397,4.23174996 69.2084893,4.44571637 C69.065039,4.65968828 68.988642,4.91124859 68.988642,5.16861287 C68.988642,5.51366325 69.1260466,5.84458845 69.3706268,6.08861898 C69.6152069,6.33264952 69.9471764,6.46972433 70.2934359,6.46972433 Z" id="Path"></path>
                <path d="M21.4830965,5.8299686 C20.9877805,5.57906783 20.4789988,5.35570294 19.9590049,5.16086325 L19.8141805,5.0555179 C19.8141805,5.0555179 16.3610385,2.59371147 14.8388705,1.9538733 C13.3167575,1.31404062 10.6696308,-0.0748729207 7.99123078,0.00315584332 C6.67604909,0.0327467444 5.36934251,0.221393891 4.09977365,0.564960306 C3.55783349,0.695659544 3.1939257,0.847815881 3.78869517,1.12676917 C3.9843428,1.22040214 4.83736693,1.72368765 5.86646129,2.31085589 C7.37296513,3.1672217 9.26486133,4.20110324 10.0885743,4.38837469 C11.3132888,4.68070569 12.570156,4.81769256 13.8293316,4.79607607 C15.7212278,4.75705866 16.6407942,5.56076554 16.8266751,5.855306 C16.4881652,5.37543424 15.2008492,4.99114661 13.4810934,5.09650294 C11.8259178,5.19790752 10.4955117,5.09650294 9.72269339,4.85849622 C8.17865063,4.38155393 6.67093764,3.79483087 5.21105243,3.10285041 C4.8302109,3.21605529 4.4559483,3.35021163 4.08999044,3.50469835 C3.61457059,3.69976888 3.16653822,4.06845286 3.83564906,4.25767545 C4.31498769,4.39227698 8.78944147,5.98798387 10.0963789,6.06405104 C11.2497529,6.14555944 12.408898,6.08004494 13.5456736,5.8689915 C15.2380034,5.55098234 16.1203606,6.24350143 16.325808,6.51270448 C15.7517866,7.31668617 15.4751637,8.29429228 15.5432064,9.27882359 C9.35681247,8.1903045 7.38274833,7.62853961 5.9858384,7.38857625 C3.54218036,6.9691625 0.441162864,9.03303428 0.0596497005,11.5865061 C-0.155562698,13.0398068 0.216167809,14.3955504 1.10049545,15.6498893 C2.07873363,17.0387748 3.36805578,18.236558 3.55587685,18.4901519 C3.67522097,18.7086252 3.63608814,19.282097 3.64391471,19.6605641 C3.64391471,20.095587 4.19955685,20.4837825 4.51846189,20.5130222 C4.71410953,20.530555 8.37074223,21.6717275 8.37074223,21.6717275 L13.7960797,23.335697 C13.7960797,23.335697 13.8802263,22.9631107 13.8958354,22.8050955 C13.9369469,22.4051932 13.6317438,21.41621 12.3600369,21.0494497 C10.4896308,20.4876848 10.1198476,20.3823229 9.72269339,20.2691565 C9.50746285,20.2047962 9.65811324,20.2008939 9.99074225,19.9394954 C10.5298629,19.4800695 10.9721407,18.9184695 11.2917987,18.2872328 C12.3991698,15.9464084 11.0061621,13.847416 11.0061621,13.847416 C11.6129957,14.5665916 12.0246049,15.4289977 12.201527,16.3521366 C12.610443,18.3418649 11.2585468,19.919984 11.2585468,19.919984 L12.0646171,20.1540664 C12.0646171,20.1540664 17.2786263,14.9183473 17.787298,14.3526252 C18.2177042,13.874732 18.9611729,13.572387 19.3525011,13.451416 C20.7415515,13.04959 22.4828523,12.2810038 22.9230416,11.9922893 C23.3632309,11.7035748 23.9013073,10.7282221 24.0440981,10.4843564 C24.2227241,10.2026221 24.3412767,9.88719612 24.3924744,9.55775489 C24.4040981,9.43095794 23.6606294,8.44197473 23.6606294,8.44197473 C23.6606294,8.44197473 22.4730691,6.43663731 21.4928798,5.84359913" id="Path"></path>
                <path d="M6.30862924,21.9624756 C6.18804298,22.0315626 6.09971931,22.1454436 6.06305977,22.2792207 C6.02640023,22.4129978 6.04437275,22.5557886 6.11302008,22.6764298 C6.16660786,22.7706344 6.24784145,22.8462069 6.3458384,22.8929794 C6.73711168,23.1017245 8.08318193,22.3701825 8.08318193,22.3701825 L6.74101397,21.9488451 C6.60185061,21.8975657 6.44812237,21.9024573 6.31253153,21.9624756" id="Path"></path>
            </g>
        </g>
    </g>
</svg>