<?xml version="1.0" encoding="UTF-8"?>
<svg width="145px" height="41px" viewBox="0 0 145 41" version="1.1" xmlns="http://www.w3.org/2000/svg" xmlns:xlink="http://www.w3.org/1999/xlink">
    <title>logo-mm-grey copy</title>
    <g id="Page-1" stroke="none" stroke-width="1" fill="none" fill-rule="evenodd">
        <g id="Group" fill="#121E48" fill-rule="nonzero">
            <g id="logo-mm-grey-copy">
                <path d="M16.5982129,8.12878274 C20.2370803,8.12313669 23.773037,9.34268374 26.642122,11.5929341 C22.6201628,14.5267665 20.3075973,17.7306587 18.1610872,20.7086826 C14.954753,25.1597605 12.2099551,28.9626946 2.13674214,29.547006 L1.02563623,29.6108383 C-0.573789885,24.6074513 0.301088193,19.1369031 3.37991071,14.8897334 C6.45873322,10.6425637 11.370821,8.13011652 16.5982129,8.12878274 L16.5982129,8.12878274 Z M31.9998503,19.0269461 C29.8850861,21.4820359 28.3637257,23.9371257 26.9864427,26.1884431 C22.3173559,33.7869461 18.9425243,39.278982 5.25272268,36.3991617 C10.7229219,41.6950235 19.0986678,42.5105554 25.4780442,38.3684662 C31.8574206,34.226377 34.5632989,26.2156158 32.0120603,19.024491 L31.9998503,19.0269461 Z" id="Shape"></path>
                <polygon id="Path" points="37.1622193 40.3837725 39.1793039 16.6872455 42.0535273 16.6872455 45.2500936 33.0946108 48.5296875 16.6872455 51.3037893 16.6872455 53.3550618 40.3837725 50.4149046 40.3837725 49.4649701 23.7628144 46.3172436 40.3837725 44.1682915 40.3837725 41.0205651 23.7628144 40.0681886 40.3837725"></polygon>
                <path d="M58.5858065,32.3973653 C58.5858065,34.4334531 58.7551179,35.8672255 59.0937406,36.6986826 C59.4323634,37.5301397 59.9891374,37.9466866 60.7640625,37.9483234 C61.5406156,37.9483234 62.0973896,37.528503 62.4343844,36.6913174 C62.7713791,35.8541317 62.9447605,34.4228144 62.9447605,32.3973653 C62.9447605,30.3719162 62.7787051,28.9381437 62.4441523,28.1205988 C62.1095996,27.3030539 61.5503836,26.8930539 60.7640625,26.8930539 C59.9777414,26.8930539 59.4185254,27.3030539 59.0864147,28.1205988 C58.7543039,28.9381437 58.5980165,30.3620958 58.5980165,32.3973653 L58.5858065,32.3973653 Z M62.8470808,40.3837725 L62.8470808,38.8272455 C62.5142608,39.4005867 62.0463114,39.8828498 61.4844499,40.2315569 C60.9450207,40.5353974 60.3346362,40.6888121 59.7164484,40.6759281 C58.3814933,40.6759281 57.369695,39.9786826 56.6810535,38.5841916 C55.9924121,37.1897006 55.6440213,35.1274251 55.6358814,32.3973653 C55.6358814,29.6918563 55.9777601,27.6459481 56.6615176,26.2596407 C57.3452751,24.8733333 58.3595153,24.1777246 59.7042384,24.1728144 C60.3270508,24.1589684 60.9425761,24.3096541 61.4893338,24.6098204 C62.0467955,24.9486173 62.5103853,25.4231372 62.8373129,25.9895808 L62.8373129,24.462515 L65.7432822,24.462515 L65.7432822,40.3862275 L62.8470808,40.3837725 Z" id="Shape"></path>
                <polygon id="Path" points="71.2914858 31.9431737 68.1755052 24.4600599 71.227994 24.4600599 72.8079622 29.0535329 74.4245603 24.4600599 77.4428612 24.4600599 74.3586265 31.9431737 77.9923091 40.3837725 74.9251684 40.3837725 72.8079622 34.8328144 70.7273859 40.3837725 67.6431512 40.3837725"></polygon>
                <polygon id="Path" points="79.396454 40.3837725 81.4135385 16.6872455 84.287762 16.6872455 87.4843282 33.0946108 90.7614802 16.6872455 93.535582 16.6872455 95.5868544 40.3837725 92.6515812 40.3837725 91.6992047 23.7628144 88.5514783 40.3837725 86.4025262 40.3837725 83.2547998 23.7628144 82.3024233 40.3837725"></polygon>
                <path d="M98.5758514,40.3837725 L98.5758514,24.4600599 L101.481821,24.4600599 L101.481821,40.3837725 L98.5758514,40.3837725 Z M98.1704809,19.7045509 C98.159708,19.2009731 98.3527041,18.7145657 98.7052769,18.3567066 C99.0536407,18.0043809 99.5273748,17.8062694 100.02151,17.8062694 C100.515645,17.8062694 100.989379,18.0043809 101.337743,18.3567066 C101.68847,18.7155972 101.880398,19.2015324 101.870097,19.7045509 C101.879121,20.2020281 101.682873,20.6810605 101.327975,21.0278443 C100.989733,21.3826042 100.520024,21.5800334 100.031278,21.5728743 C99.5349724,21.5836818 99.0557748,21.3903952 98.704521,21.0377207 C98.3532673,20.6850463 98.1603828,20.2035325 98.1704809,19.7045509 L98.1704809,19.7045509 Z" id="Shape"></path>
                <rect id="Rectangle" x="105.193647" y="15.2264671" width="2.90596931" height="25.1573054"></rect>
                <path d="M111.782139,40.3837725 L111.782139,15.2264671 L114.688108,15.2264671 L114.688108,26.0509581 C115.001118,25.4978679 115.463353,25.045069 116.021435,24.7448503 C116.633911,24.4338524 117.313513,24.2803327 117.999448,24.298024 C119.160208,24.298024 120.023859,24.6253693 120.5904,25.2800599 C121.156942,25.9306587 121.435329,26.9200599 121.435329,28.2482635 L121.435329,40.3911377 L118.50494,40.3911377 L118.50494,29.6894012 C118.50494,28.6058882 118.364933,27.8693613 118.084918,27.4798204 C117.804089,27.0919162 117.320574,26.8930539 116.631933,26.8930539 C116.075513,26.8533145 115.53287,27.0788102 115.166738,27.5019162 C114.84114,27.9094611 114.67834,28.5134132 114.67834,29.3137725 L114.67834,40.3837725 L111.782139,40.3837725 Z" id="Path"></path>
                <path d="M127.24971,32.3973653 C127.24971,34.4334531 127.419021,35.8672255 127.757644,36.6986826 C128.096267,37.5301397 128.653855,37.9466866 129.430408,37.9483234 C130.203705,37.9483234 130.759665,37.5293214 131.098288,36.6913174 C131.436911,35.8533134 131.606222,34.421996 131.606222,32.3973653 C131.606222,30.3612774 131.443423,28.9356886 131.117824,28.1205988 C130.785713,27.3005988 130.226497,26.8930539 129.442618,26.8930539 C128.658739,26.8930539 128.094639,27.3030539 127.762528,28.1205988 C127.430417,28.9381437 127.26192,30.3620958 127.27413,32.3973653 L127.24971,32.3973653 Z M131.513426,40.3837725 L131.513426,38.8272455 C131.179281,39.4003866 130.710605,39.8825345 130.148353,40.2315569 C129.609642,40.5349728 129.000157,40.6883732 128.382794,40.6759281 C127.046211,40.6759281 126.034412,39.9786826 125.347399,38.5841916 C124.660385,37.1897006 124.316065,35.1282435 124.314437,32.3998204 C124.314437,29.6943114 124.656315,27.6484032 125.340073,26.2620958 C126.02383,24.8757884 127.038071,24.1801796 128.382794,24.1752695 C129.004783,24.1618546 129.619411,24.3125268 130.165447,24.6122754 C130.722712,24.9513223 131.186247,25.4257854 131.513426,25.9920359 L131.513426,24.4649701 L134.419396,24.4649701 L134.419396,40.3886826 L131.513426,40.3837725 Z" id="Shape"></path>
                <path d="M137.00058,37.0252096 C137.365003,37.3538106 137.776629,37.6252857 138.221576,37.830479 C138.610285,38.0056554 139.031249,38.0968239 139.457223,38.0980838 C140.010786,38.1208166 140.550771,37.9222012 140.959048,37.5456886 C141.344453,37.1812181 141.55604,36.6681832 141.540241,36.1364671 C141.540241,35.4523154 141.007887,34.6020359 139.943179,33.5856287 C139.801544,33.4456886 139.69898,33.3401198 139.618394,33.2787425 C138.586246,32.2967066 137.892721,31.4783433 137.537818,30.8236527 C137.180616,30.1668884 136.997301,29.4288497 137.005464,28.6803593 C137.005464,27.3374251 137.415719,26.2473653 138.22646,25.4028144 C139.061325,24.5519476 140.21303,24.0923569 141.401048,24.135988 C141.828619,24.1360509 142.254464,24.1904951 142.668441,24.298024 C143.09803,24.4148547 143.5133,24.5795478 143.906531,24.7890419 L143.906531,27.7940719 C143.626094,27.4518714 143.275392,27.1746624 142.878452,26.9814371 C142.474362,26.8013271 142.035902,26.7124944 141.593965,26.7211976 C141.098025,26.7033384 140.616656,26.8915909 140.26308,27.2416766 C139.913473,27.5866907 139.723137,28.0628597 139.738052,28.5551497 C139.738052,29.2589421 140.249242,30.0773054 141.271622,31.0102395 C141.473494,31.1935529 141.624083,31.3343114 141.723391,31.432515 C142.678209,32.3188024 143.347315,33.1191617 143.716055,33.8335928 C144.090288,34.5721869 144.280516,35.3911012 144.270387,36.2199401 C144.270387,37.573513 143.863389,38.6529341 143.049392,39.4582036 C142.235395,40.2634731 141.142197,40.6661078 139.769798,40.6661078 C139.313449,40.6651936 138.858428,40.61665 138.412051,40.5212575 C137.927015,40.4176586 137.452185,40.2705838 136.993254,40.0817964 L137.00058,37.0252096 Z" id="Path"></path>
                <path d="M41.4186097,8.18772455 C14.9889409,15.4498802 25.1378555,31.2508383 2.30279753,32.5643114 C27.8435816,39.7110778 18.2367889,19.4443114 41.4186097,8.18772455 Z" id="Path"></path>
                <path d="M50.578518,8.38413174 L50.5321201,8.49461078 C50.4954903,8.59281437 50.4515344,8.69101796 50.4124626,8.78922156 C50.307457,9.07155689 50.1682635,9.34407186 50.0705838,9.62640719 C50.0095341,9.7908982 49.9289484,9.95293413 49.8630146,10.1174251 C49.6554454,10.6477246 49.4332242,11.1706587 49.2256549,11.7034132 C49.1499532,11.8973653 49.0571576,12.0888623 48.9814558,12.2828144 C48.8642403,12.5872455 48.7372567,12.8843114 48.6102732,13.1862874 C48.5785273,13.2722156 48.5418975,13.3532335 48.5077096,13.4317964 C48.5005572,13.4682348 48.4890791,13.5036781 48.4735217,13.5373653 L47.5309132,13.8098802 C47.5309132,13.7730539 47.5113772,13.7435928 47.5016093,13.7092216 C47.5336985,13.6782357 47.5698488,13.6518036 47.6090569,13.6306587 C47.6530127,13.3164072 47.7140625,13.0021557 47.7604603,12.6903593 C47.8727919,11.9538323 47.9900075,11.2418563 48.0998971,10.5126946 C48.1511789,10.1861677 48.2073447,9.85964072 48.2561845,9.53065868 C48.2708365,9.43 48.2879304,9.3342515 48.3025823,9.23359281 C48.3165468,9.17804484 48.3255367,9.12135147 48.3294442,9.06419162 L48.3025823,9.06419162 L48.3025823,9.06419162 C48.3221183,9.06419162 48.3245603,9.06419162 48.3294442,9.04700599 C48.3343282,9.02982036 48.3099083,8.9488024 48.3050243,8.90215569 C48.3050243,8.79658683 48.2683945,8.68365269 48.2635105,8.58053892 L48.2464165,8.50934132 C48.2464165,8.3694012 48.1975767,8.21964072 48.1926927,8.0797006 C48.1926927,8.0551497 48.1926927,8.0305988 48.1755988,8.0060479 C48.1755988,7.90047904 48.134085,7.79245509 48.126759,7.68197605 C48.126759,7.62550898 48.1047811,7.56413174 48.0998971,7.50275449 C48.0955903,7.41182856 48.0833331,7.32146004 48.0632672,7.23269461 L46.8959955,7.5739521 C46.7728185,7.62066717 46.6451508,7.65440085 46.5150449,7.67461078 C46.488183,7.67461078 46.4491112,7.69670659 46.4271332,7.69670659 L46.21468,7.74826347 L45.6432541,7.8611976 C45.5284805,7.8611976 45.413707,7.91275449 45.2964914,7.92011976 L44.9326347,7.96676647 C44.9326347,8.02568862 44.871585,8.08952096 44.849607,8.14353293 C44.8007672,8.26383234 44.7421594,8.37185629 44.6933196,8.49215569 C44.6933196,8.52407186 44.6542478,8.55598802 44.6420378,8.59035928 C44.4759824,9.00281437 44.2513192,9.38826347 44.0828219,9.80071856 C44.038866,9.90383234 43.9753743,9.99958084 43.9363024,10.1026946 C43.8679266,10.2647305 43.777573,10.4218563 43.7091972,10.5937126 C43.7091972,10.6158084 43.6872193,10.6403593 43.6798933,10.6624551 C43.6813669,10.6722196 43.6813669,10.6821517 43.6798933,10.6919162 C43.6658496,10.7059164 43.6535495,10.7215801 43.6432635,10.7385629 C43.6432635,10.7557485 43.6286115,10.7925749 43.6164016,10.8048503 C43.3526665,10.878503 43.0913735,10.9546108 42.8276385,11.0356287 C42.8154285,11.0110778 42.7910086,10.988982 42.7787987,10.9693413 C42.7665887,10.9497006 42.7787987,10.9104192 42.7787987,10.8932335 C42.7787987,10.824491 42.7787987,10.7606587 42.7787987,10.6968263 C42.7934506,10.5446108 42.7934506,10.3923952 42.8056606,10.2401796 C42.8178705,10.0879641 42.8056606,10.0143114 42.8203125,9.90137725 C42.8545004,9.53311377 42.8545004,9.1648503 42.8911302,8.78676647 C42.9057822,8.61245509 42.8911302,8.43568862 42.9179921,8.26137725 C42.7763567,8.29329341 42.6322792,8.30802395 42.4979697,8.33011976 C42.4979697,8.36203593 42.4979697,8.36203593 42.5175056,8.3939521 C42.4096406,8.40576989 42.3046729,8.43651506 42.2073728,8.48479042 C42.1902788,8.42586826 42.2073728,8.39149701 42.1951628,8.33011976 C42.122895,8.33733996 42.0500933,8.33733996 41.9778256,8.33011976 C41.9241018,8.33011976 41.8484001,8.3694012 41.8020022,8.37185629 L41.7775823,8.35467066 C41.7604884,8.30802395 41.7775823,8.29329341 41.7775823,8.25646707 C41.6774607,8.28592814 41.4894274,8.36694611 41.4405876,8.30311377 C41.4405876,8.27365269 41.4234936,8.24419162 41.4137257,8.21473054 C41.4039577,8.18526946 41.4332616,8.16808383 41.4601235,8.1508982 L41.7238585,8.07479042 C41.7116486,8.0305988 41.6823447,8.01832335 41.6774607,7.96922156 C41.7238585,7.92502994 41.7873503,7.93730539 41.8532841,7.90047904 C41.9130057,7.85464043 41.9767616,7.81437382 42.0437594,7.78017964 C42.0266654,7.72371257 41.9802676,7.70407186 41.9656156,7.64760479 C42.0584113,7.6205988 42.2244667,7.60095808 42.3172624,7.5739521 C42.3172624,7.60586826 42.2952844,7.59113772 42.3172624,7.62796407 L42.3172624,7.62796407 C42.3392403,7.60095808 42.3856381,7.59359281 42.417384,7.57640719 C42.5154042,7.52480288 42.6185302,7.48366034 42.7250749,7.45365269 C42.6943881,7.39671408 42.6566432,7.34391767 42.6127433,7.29652695 C42.5345996,7.19341317 42.4662238,7.08538922 42.3905221,6.98473054 C42.3148204,6.88407186 42.2855165,6.82023952 42.2220247,6.73922156 C42.0535273,6.51580838 41.8923559,6.2702994 41.7214165,6.04197605 C41.6652507,5.97077844 41.6286209,5.89712575 41.5724551,5.82347305 C41.4821014,5.70317365 41.4015157,5.57796407 41.3087201,5.4502994 C41.2380608,5.37259648 41.1818205,5.28279451 41.1426647,5.1851497 L41.9704996,4.93964072 C42.0168975,4.97646707 42.0779472,5.00101796 42.1243451,5.03538922 C42.2293507,5.11149701 42.3416823,5.17287425 42.4491299,5.24898204 C42.4808757,5.27107784 42.5175056,5.28335329 42.5468095,5.3054491 C42.9008982,5.55095808 43.2794068,5.76209581 43.6432635,6.01497006 C43.7238492,6.07389222 43.8215288,6.11562874 43.9045565,6.17209581 C44.0290981,6.26293413 44.1634076,6.33658683 44.2879491,6.41760479 C44.3214228,6.43388553 44.3540271,6.45191411 44.3856287,6.47161677 C44.4494077,6.52315954 44.5190929,6.5668434 44.593198,6.60173653 C44.6249439,6.56736527 44.7177395,6.55017964 44.7641374,6.52317365 C44.8911209,6.45197605 45.0522923,6.40778443 45.1841598,6.33904192 L45.2720715,6.30712575 C45.391729,6.24329341 45.5480165,6.21628743 45.670116,6.14754491 L45.7970996,6.10580838 C45.8361714,6.08125749 45.8947792,6.0788024 45.941177,6.0542515 C46.1040563,5.98618624 46.2723303,5.93198405 46.4442272,5.89221557 L47.572427,5.56568862 C47.5514541,5.49598694 47.5219226,5.42918472 47.4845153,5.36682635 C47.4478855,5.30053892 47.4307915,5.22688623 47.3966037,5.16550898 L47.3575318,5.0648503 C47.2867141,4.94209581 47.2476422,4.78988024 47.1768245,4.66712575 L47.1499626,4.59592814 C47.0986808,4.50508982 47.0742609,4.39461078 47.0180951,4.29886228 C46.9619293,4.20311377 46.9692552,4.16383234 46.9301834,4.09754491 C46.8908963,4.02794305 46.858193,3.95478797 46.8325037,3.87904192 C46.8227816,3.87769649 46.812922,3.87769649 46.8031999,3.87904192 L46.8031999,3.87904192 L46.8031999,3.87904192 C46.6273765,3.66790419 46.4344592,3.46413174 46.2561939,3.26035928 C45.7018619,2.61467066 45.132878,1.98616766 44.580988,1.34293413 L43.9949102,0.672694611 L43.8264128,0.481197605 C43.8044349,0.454191617 43.7897829,0.417365269 43.760479,0.40754491 C43.6603574,0.378083832 43.6481475,0.449281437 43.6090756,0.294610778 L44.5516841,0.0220958084 C44.5807013,0.0433920878 44.610865,0.0630626965 44.6420378,0.0810179641 C44.7201815,0.13748503 44.8007672,0.191497006 44.8862369,0.250419162 C45.130436,0.429640719 45.3746351,0.594131737 45.6188342,0.773353293 C46.3148016,1.29383234 47.035189,1.77994012 47.7335984,2.29796407 C47.8312781,2.36670659 47.9387257,2.43299401 48.0339633,2.50419162 C48.2952564,2.69568862 48.5638754,2.87245509 48.8202844,3.06640719 L49.0009918,3.19407186 L49.1011134,3.24317365 L49.6139315,3.63844311 C49.6139315,3.63844311 49.758009,3.74155689 49.7775449,3.75874251 C49.8923185,3.84712575 50.021744,3.92568862 50.1316336,4.0042515 C50.2415232,4.08281437 50.3172249,4.12700599 50.4075786,4.19083832 C50.4979323,4.25467066 50.561424,4.3160479 50.6517777,4.37005988 C50.7043065,4.39431935 50.7591171,4.41323586 50.8153911,4.42652695 C50.8715569,4.44371257 50.9252807,4.47562874 50.9814465,4.49281437 C51.0179375,4.50201745 51.0538228,4.51349676 51.0888941,4.52718563 C51.0895632,4.53207277 51.0895632,4.53702903 51.0888941,4.54191617 L54.5809412,3.52550898 C54.6273391,3.52550898 54.7372287,3.47886228 54.7958365,3.4739521 C54.9667758,3.43467066 55.1377152,3.4002994 55.3086546,3.36347305 C55.4795939,3.32664671 55.5968095,3.3045509 55.736003,3.29718563 C56.1261744,3.25532126 56.5200601,3.26357123 56.9081587,3.32173653 L57.1108439,3.3757485 L57.1279379,3.3757485 C57.2363102,3.403334 57.3319895,3.46746234 57.3989989,3.55742515 C57.4722586,3.66790419 57.372137,3.82994012 57.3281811,3.88886228 C57.2835008,3.95202805 57.2354025,4.01267832 57.1841037,4.07053892 C56.9949537,4.24944897 56.7860195,4.4059605 56.561396,4.53700599 C55.9753181,4.92245509 55.1523671,5.17041916 54.3001123,5.41838323 L51.5870603,6.20892216 C51.5870603,6.24820359 51.5333365,6.28257485 51.5089165,6.31449102 C51.4844966,6.34640719 51.4234469,6.43724551 51.374607,6.49371257 C51.3257672,6.55017964 51.3062313,6.55754491 51.2940213,6.59682635 C51.1890157,6.85461078 51.0815681,7.11239521 50.9863305,7.37263473 L50.8227171,7.7654491 L50.578518,8.38413174 Z" id="Path"></path>
            </g>
        </g>
    </g>
</svg>