<?xml version="1.0" encoding="UTF-8"?>
<svg width="138px" height="21px" viewBox="0 0 138 21" version="1.1" xmlns="http://www.w3.org/2000/svg" xmlns:xlink="http://www.w3.org/1999/xlink">
    <title>rock</title>
    <g id="Symbols" stroke="none" stroke-width="1" fill="none" fill-rule="evenodd">
        <g id="marcas-/-parceiros-final-copy" transform="translate(-14.000000, -10.000000)" fill="#121E48">
            <g id="Group" transform="translate(14.000000, 10.000000)">
                <g id="rock" transform="translate(0.000000, 0.320399)">
                    <path d="M31.056214,7.9196775 L31.056214,15.9210813 L28.5593018,15.9210813 L28.5593018,5.24568288 L30.9395193,5.24568288 L30.9395193,6.11742519 C31.9498246,5.22654865 33.2634877,4.98060635 34.5963579,4.98060635 L34.5963579,7.27473519 C33.3033544,7.27473519 31.8743684,7.53981173 31.056214,7.9196775 Z" id="Path" fill-rule="nonzero"></path>
                    <path d="M35.5887474,11.238566 C35.5887474,14.6121352 37.3032561,16.2053083 40.4275439,16.2053083 C43.5503789,16.2053083 45.2648877,14.6121352 45.2662596,11.238566 L45.2662596,9.92953904 C45.2662596,6.57377942 43.5517509,4.98196327 40.4275439,4.98196327 C37.3032561,4.98196327 35.5887474,6.57377942 35.5887474,9.92953904 L35.5887474,11.238566 Z M40.4274632,7.12306673 C42.0651439,7.12306673 42.7706386,7.88001981 42.7706386,9.92961981 L42.7706386,11.238566 C42.7706386,13.2854198 42.0665158,14.0628237 40.4274632,14.0628237 C38.7884912,14.0628237 38.0842877,13.2880852 38.0842877,11.238566 L38.0842877,9.92961981 C38.0842877,7.88139288 38.7898632,7.12306673 40.4274632,7.12306673 Z" id="Shape"></path>
                    <path d="M51.7221579,16.2053083 C48.6363649,16.2053083 47.2073789,14.4604506 47.2073789,11.2563352 L47.2073789,9.9104775 C47.2073789,6.64893519 48.6363649,4.98060635 51.7221579,4.98060635 C53.3598386,4.98060635 54.5417158,5.22654865 55.0358526,5.37821712 L55.0358526,7.27473519 C53.6837754,7.16132712 52.7502982,7.10394058 52.153186,7.10394058 C50.5910421,7.10394058 49.7152667,7.59719827 49.7152667,9.9104775 L49.7152667,11.2563352 C49.7152667,13.5504237 50.5910421,14.081966 52.153186,14.081966 C52.7434386,14.081966 53.6769158,14.0246198 55.0358526,13.911139 L55.0358526,15.8063083 C53.9531579,16.0806813 52.839393,16.214839 51.7221579,16.2053083 Z" id="Path" fill-rule="nonzero"></path>
                    <polygon id="Path" fill-rule="nonzero" points="63.4738667 15.9197083 59.6838702 10.8642006 59.6838702 15.9197083 57.1883298 15.9197083 57.1883298 1.18894327 59.6838702 1.18894327 59.6838702 10.0047352 63.4930737 5.24568288 66.3757404 5.24568288 62.2165333 10.3654506 66.4828316 15.9210813"></polygon>
                    <path d="M71.6261158,16.2053083 C68.5403228,16.2053083 67.1113368,14.4604506 67.1113368,11.2563352 L67.1113368,9.9104775 C67.1113368,6.64893519 68.5403228,4.98060635 71.6261158,4.98060635 C73.2637158,4.98060635 74.4456737,5.22654865 74.9398105,5.37821712 L74.9398105,7.27473519 C73.5877333,7.16132712 72.6542561,7.10394058 72.0571439,7.10394058 C70.495,7.10394058 69.6192246,7.59719827 69.6192246,9.9104775 L69.6192246,11.2563352 C69.6192246,13.5504237 70.495,14.081966 72.0571439,14.081966 C72.6473965,14.081966 73.5808737,14.0246198 74.9398105,13.911139 L74.9398105,15.8063083 C73.8571158,16.0806813 72.7433509,16.214839 71.6261158,16.2053083 Z" id="Path" fill-rule="nonzero"></path>
                    <path d="M76.3880842,11.238566 C76.3880842,14.6121352 78.102593,16.2053083 81.2255088,16.2053083 C84.3494737,16.2053083 86.0627719,14.6121352 86.064386,11.238566 L86.064386,9.92953904 C86.064386,6.57377942 84.3486667,4.98196327 81.2255088,4.98196327 C78.102593,4.98196327 76.3880842,6.57377942 76.3880842,9.92953904 L76.3880842,11.238566 Z M81.2255088,7.12306673 C82.8645614,7.12306673 83.5682807,7.88001981 83.5682807,9.92961981 L83.5682807,11.238566 C83.5682807,13.2854198 82.8629474,14.0628237 81.2255088,14.0628237 C79.5877474,14.0628237 78.8835439,13.2880852 78.8835439,11.238566 L78.8835439,9.92961981 C78.8835439,7.88139288 79.5863754,7.12306673 81.2255088,7.12306673 Z" id="Shape"></path>
                    <path d="M95.2434035,15.9197083 L95.2434035,9.15213519 C95.2434035,7.6163325 94.9770877,7.0861875 93.7334737,7.0861875 C93.010386,7.0861875 92.0581053,7.35126404 90.9145614,7.8062775 L90.9145614,15.9210813 L88.4257193,15.9210813 L88.4257193,5.24569096 L90.8249825,5.24569096 L90.8249825,6.09830712 C91.9862807,5.43424673 93.149193,4.97924942 94.3484211,4.97924942 C97.3779649,4.97924942 97.7806667,6.72273404 97.7806667,9.14938904 L97.7806667,15.918416 L95.2434035,15.9197083 Z" id="Path" fill-rule="nonzero"></path>
                    <path d="M104.118982,16.2053083 C102.005404,16.2053083 101.166105,15.3704775 101.166105,13.1337352 L101.166105,7.25832288 L99.1679298,7.08616327 L99.1679298,5.24566673 L101.167719,5.24566673 L101.167719,2.53479288 L103.682386,2.53479288 L103.682386,5.24566673 L106.290667,5.24566673 L106.290667,7.25559288 L103.682386,7.25559288 L103.682386,13.0981967 C103.682386,14.0847121 103.758246,14.2732275 104.672596,14.2732275 C105.221368,14.2732275 105.985614,14.2350237 106.292281,14.1981121 L106.292281,15.9046852 C105.582912,16.0917467 104.853368,16.1926275 104.118982,16.2053083 Z" id="Path" fill-rule="nonzero"></path>
                    <path d="M110.044105,11.5597044 L110.044105,11.3697352 L117.227368,11.3683621 L117.227368,10.5335313 C117.227368,7.29250442 115.968421,4.97924942 112.388491,4.97924942 C109.188667,4.97924942 107.549614,6.72409904 107.549614,10.3081044 L107.549614,10.9707352 C107.549614,14.7255352 108.920737,16.2039854 112.787965,16.2039854 C114.128421,16.207166 115.464035,16.0545121 116.768982,15.7489621 L116.768982,13.8729352 C115.359123,14.0054775 114.024316,14.1188775 112.901754,14.1188775 C110.273298,14.1188775 110.044105,13.1145929 110.044105,11.5597044 Z M112.386877,6.9905325 C114.462526,6.9905325 114.711088,8.33911212 114.711088,9.56890442 L114.709474,9.73965058 L110.063474,9.73965058 L110.063474,9.56890442 C110.063474,8.35688135 110.367719,6.9905325 112.386877,6.9905325 Z" id="Shape"></path>
                    <path d="M126.366842,15.9197083 L126.366842,9.15213519 C126.366842,7.6163325 126.100526,7.0861875 124.856912,7.0861875 C124.133825,7.0861875 123.180737,7.35126404 122.037193,7.8062775 L122.037193,15.9210813 L119.547544,15.9210813 L119.547544,5.24569096 L121.948421,5.24569096 L121.948421,6.09830712 C123.109719,5.43424673 124.271825,4.97924942 125.47186,4.97924942 C128.501404,4.97924942 128.903298,6.72273404 128.903298,9.14938904 L128.903298,15.918416 L126.366842,15.9197083 Z" id="Path" fill-rule="nonzero"></path>
                    <path d="M135.242421,16.2053083 C133.128842,16.2053083 132.290351,15.3704775 132.290351,13.1337352 L132.290351,7.25832288 L130.289754,7.08616327 L130.289754,5.24566673 L132.290351,5.24566673 L132.290351,2.53479288 L134.805825,2.53479288 L134.805825,5.24566673 L137.414105,5.24566673 L137.414105,7.25559288 L134.805825,7.25559288 L134.805825,13.0981967 C134.805825,14.0847121 134.881684,14.2732275 135.796035,14.2732275 C136.344807,14.2732275 137.10986,14.2350237 137.415719,14.1981121 L137.415719,15.9046852 C136.706351,16.0917467 135.976807,16.1926275 135.242421,16.2053083 Z" id="Path" fill-rule="nonzero"></path>
                    <rect id="Rectangle" fill-rule="nonzero" x="5.73325439" y="9.19033904" width="10.235807" height="2.16885577"></rect>
                    <path d="M15.9691018,7.0228725 L5.73739439,7.0228725 L5.73739439,6.03577558 C5.73739439,5.38288558 6.26069684,4.85340288 6.90672246,4.85263558 L14.8038491,4.85263558 C15.4498667,4.85340288 15.9731368,5.38288558 15.9731368,6.03577558 L15.9691018,7.0228725 Z" id="Path" fill-rule="nonzero"></path>
                    <path d="M15.9691018,13.539116 L5.73739439,13.539116 L5.73739439,14.5248237 C5.73739439,15.1776813 6.26069684,15.7072044 6.90672246,15.7079313 L14.8038491,15.7079313 C15.4498667,15.7072044 15.9731368,15.1776813 15.9731368,14.5248237 L15.9691018,13.539116 Z" id="Path" fill-rule="nonzero"></path>
                    <path d="M8.18670877,0 L13.6604667,0 C19.1246211,0 21.8471754,3.36441404 21.8471754,10.2741006 C21.8471754,17.1837467 19.1246211,20.5233121 13.6604667,20.5233121 L8.18670877,20.5233121 C2.71979439,20.5233121 0,17.1893198 0,10.2741006 C0,3.35888942 2.71979439,0 8.18670877,0 Z M13.2505018,18.3710544 C13.2505018,18.3710544 10.7834491,18.3613621 13.2505018,18.3613621 L13.2505018,18.3558698 C19.1122737,18.3558698 19.1122737,14.8390967 19.1122737,10.3080237 L19.1122737,10.2795929 L19.1122737,10.2512429 C19.1122737,5.72002442 19.1122737,2.17852788 13.2505018,2.17852788 L8.58142105,2.17852788 C2.71969739,2.17852788 2.71969739,5.71350635 2.71969739,10.2387237 L2.71969739,10.2795929 L2.71969739,10.3080237 C2.71969739,14.8391775 2.71969739,18.3613621 8.58142105,18.3613621 C11.0484737,18.3613621 8.58142105,18.3710544 8.58142105,18.3710544 L13.2505018,18.3710544 Z" id="Shape"></path>
                </g>
            </g>
        </g>
    </g>
</svg>