<?xml version="1.0" encoding="UTF-8"?>
<svg width="135px" height="20px" viewBox="0 0 135 20" version="1.1" xmlns="http://www.w3.org/2000/svg" xmlns:xlink="http://www.w3.org/1999/xlink">
    <title>svgexport-1 (3)</title>
    <g id="Symbols" stroke="none" stroke-width="1" fill="none" fill-rule="evenodd">
        <g id="marcas-/-parceiros-final-copy-4" transform="translate(-586.000000, -11.000000)" fill="#121E48">
            <g id="svgexport-1-(3)" transform="translate(586.000000, 11.000000)">
                <path d="M3.94526967,3.98185383 L3.94526967,9.27491741 L4.35850445,9.68732073 L5.59571441,8.45177369 L5.59571441,5.00122172 L3.94526967,3.98019092 L3.94526967,3.98185383 Z M11.9996063,2.46859971 L4.96546901,2.46859971 C4.52479611,2.58084658 4.21715653,2.82945262 4.04504466,3.21358636 L5.59571441,4.12819049 L11.3909788,4.12819049 L11.9996063,2.46776826 L11.9996063,2.46859971 Z M10.1537688,15.605641 L5.59488295,15.605641 L4.28450466,16.8877497 C4.45578507,17.0690076 4.68111027,17.1953892 4.9596488,17.2668947 L11.0509124,17.2668947 L11.0234742,17.189569 L10.1521059,15.605641 L10.1537688,15.605641 Z M10.8455422,11.3535632 L10.8455422,15.4052595 L11.795899,17.1346928 C12.155089,16.9559293 12.3878973,16.652447 12.4959869,16.2234145 L12.4959869,10.4572511 L12.1185048,10.0806005 L10.8463736,11.3527317 L10.8455422,11.3535632 Z M5.01701942,10.110533 L5.59571441,10.698374 L10.5146218,10.698374 L11.5040571,9.70727573 L10.8455422,9.03712034 L6.09126356,9.03712034 L5.01868234,10.1097016 L5.01701942,10.110533 Z M21.4399839,14.4366106 L25.0900859,15.6987643 C25.2646921,15.743663 25.3619727,15.6405622 25.3037707,15.4684503 L21.5447477,4.28201028 C21.4865456,4.10989841 21.3925908,4.10989841 21.3352202,4.28201028 L17.5770286,15.4684503 C17.5188265,15.6405622 17.6136128,15.7428316 17.7898819,15.6987643 L21.4399839,14.4366106 L21.4399839,14.4366106 Z M1.64296161,0.00249437492 C0.735840602,0.00166291661 0,0.737503518 0,1.64379307 L0,18.0900384 C0,18.9963279 0.735840602,19.733 1.64462453,19.733 L27.9519654,19.733 C28.8615808,19.733 29.5982528,18.9971594 29.5982528,18.0892069 L29.5982528,1.64379307 C29.5982528,0.735840602 28.8615808,0 27.9519654,0 L1.64462453,0 L1.64296161,0.00249437492 Z M1.64296161,0.659346437 L27.9519654,0.659346437 C28.497402,0.659346437 28.9389064,1.10001934 28.9389064,1.64545599 L28.9389064,18.0900384 C28.9389064,18.6338121 28.4982335,19.0753165 27.9519654,19.0753165 L1.64462453,19.0753165 C1.09835642,19.0753165 0.656852063,18.6346436 0.656852063,18.0892069 L0.656852063,1.64379307 C0.656852063,1.09918788 1.09752497,0.657683521 1.64379307,0.657683521 L1.64296161,0.659346437 Z M45.9962735,10.1246678 C45.9962735,7.48395622 44.1188407,5.44522045 41.5172076,5.44522045 C39.0228327,5.44522045 37.132928,7.57791101 37.132928,10.1396341 C37.132928,12.6207056 39.0103608,14.8207443 41.5579491,14.8207443 C44.1587507,14.8207443 45.9962735,12.7005256 45.9962735,10.1396341 L45.9962735,10.1254993 L45.9962735,10.1246678 Z M46.8277319,10.0855893 C46.8277319,11.6678544 46.1176665,13.1162548 45.1922534,14.0150612 C44.8846138,14.3093975 44.3341884,14.7251266 43.6906397,15.006991 L43.6906397,15.0335976 C44.012414,15.2348106 44.4688846,15.4360235 44.8713105,15.6097983 C45.2454667,15.7711012 45.5946792,15.8924941 45.917285,15.9989207 C46.0644531,16.0654374 46.2664975,16.1070103 46.3862275,16.1460889 L46.3995308,16.173527 L45.8366335,16.7364243 L45.8091954,16.7364243 C45.4599829,16.6283347 45.0317819,16.4553914 44.3874017,16.1602237 C43.8918526,15.9324041 43.2882138,15.5698883 42.885788,15.3420687 C42.7652266,15.3819787 42.5507103,15.4218887 42.308756,15.4626301 C42.067633,15.4900683 41.7849372,15.5166749 41.4914324,15.5166749 C38.5264521,15.5166749 36.3006382,13.0888167 36.3006382,10.2061507 C36.3006382,7.16301331 38.6071036,4.76176172 41.7184206,4.76176172 C44.641828,4.76176172 46.8277319,7.09483373 46.8277319,10.0722859 L46.8277319,10.0855893 L46.8277319,10.0855893 Z M48.2362222,9.32147908 L48.2362222,4.89479505 L48.9870291,4.89479505 L48.9870291,10.9843957 C48.9870291,12.1509317 49.148332,12.98239 49.5507578,13.6118039 C50.0471384,14.3767456 51.0257648,14.8066095 51.9370431,14.8066095 C52.9572425,14.8066095 53.8161389,14.5255766 54.4064743,13.7473316 C54.8887201,13.1037829 55.1157083,12.1509317 55.1157083,10.8239242 L55.1157083,4.89479505 L55.839077,4.89479505 L55.839077,10.9037442 C55.839077,12.3920546 55.5455722,13.4787706 54.861282,14.2836223 C54.1902952,15.0876424 53.1318487,15.5033716 51.8971331,15.5033716 C50.6915186,15.5033716 49.6438811,15.0602043 48.9870291,14.1214879 C48.4632103,13.3839844 48.2362222,12.5666609 48.2362222,11.0500809 L48.2362222,9.32064762 M58.6427544,10.6626213 L58.6427544,15.3562035 L57.8919475,15.3562035 L57.8919475,4.89645797 L58.6427544,4.89645797 L58.6427544,10.6626213 M68.4722545,15.4900683 L68.4057378,15.4900683 C65.5496785,11.9098088 63.9408067,9.85776969 62.988787,8.65049223 C62.4250582,7.93959537 62.0766772,7.52386622 61.5004766,6.69240791 L61.4863418,6.69240791 L61.4863418,15.3562035 L60.7879168,15.3562035 L60.7879168,4.7343236 L60.8560964,4.7343236 C63.8061105,8.46341411 65.4557238,10.5678351 66.3936087,11.7485059 C66.9041241,12.4053579 67.26664,12.86266 67.7488858,13.5461187 L67.7763239,13.5461187 L67.7763239,4.89479505 L68.473086,4.89479505 L68.473086,15.4900683 M72.8324219,5.57908524 L69.559802,5.57908524 L69.559802,4.89479505 L76.8683205,4.89479505 L76.8683205,5.57908524 L73.5840602,5.57908524 L73.5840602,15.3570349 L72.8324219,15.3570349 L72.8324219,5.57825378 M86.5115739,10.1246678 C86.5115739,7.48395622 84.5933996,5.44522045 82.0466428,5.44522045 C79.5647398,5.44522045 77.6465655,7.52386622 77.6465655,10.1396341 C77.6465655,12.6606156 79.5780431,14.8207443 82.0865528,14.8207443 C84.6341411,14.8207443 86.5115739,12.7279638 86.5115739,10.1396341 L86.5115739,10.1254993 L86.5115739,10.1246678 Z M87.3430322,10.0855893 C87.3430322,13.0223 85.1429936,15.5166749 82.0050699,15.5166749 C79.0949658,15.5166749 76.8151072,13.0888167 76.8151072,10.2061507 C76.8151072,7.1214404 79.1215725,4.76176172 82.2337209,4.76176172 C85.1712631,4.76176172 87.3438637,7.09483373 87.3438637,10.0722859 L87.3438637,10.0855893 L87.3430322,10.0855893 Z M92.7175787,11.8690673 L92.7175787,11.8424607 C92.1804567,10.4871836 91.9792438,9.87190448 91.8861204,9.52269199 L91.8719856,9.52269199 C91.7780308,9.87190448 91.5643461,10.4871836 91.0139207,11.8424607 L91.0139207,11.8690673 L92.7184102,11.8690673 L92.7175787,11.8690673 Z M90.2622823,13.8537583 C89.940508,14.6320033 89.6993851,15.2223387 89.6586436,15.315462 L89.6586436,15.3570349 L87.1118868,15.3570349 L87.1118868,15.315462 C87.1517968,15.2223387 87.4195264,14.6320033 89.1905326,10.649318 L91.8179408,4.70854839 L92.1671533,4.70854839 L94.7696178,10.6501495 C96.5123544,14.6328347 96.7676121,15.2231701 96.8083536,15.3171249 L96.8083536,15.3586978 L94.0171481,15.3586978 L94.0171481,15.3171249 C93.9905414,15.2240016 93.7494185,14.6336662 93.4409475,13.8554212 L90.2622823,13.8554212 L90.2622823,13.8537583 Z M106.677764,15.4900683 L106.355158,15.4900683 C104.168423,13.6525454 102.854718,12.5134475 101.956743,11.6952925 C101.258318,11.0633842 100.762769,10.6077451 99.9321425,9.76298344 L99.9047043,9.76298344 C99.9321425,10.3117459 99.9321425,10.6609584 99.9321425,10.9968676 L99.9321425,15.355372 L97.6248457,15.355372 L97.6248457,4.80167172 L97.94662,4.80167172 C100.224816,6.73314937 101.566789,7.88638204 102.465596,8.73114368 C103.069235,9.29404096 103.67121,9.85776969 104.356332,10.5553632 L104.381276,10.5553632 C104.368804,9.87107302 104.368804,9.4686472 104.368804,9.05291805 L104.368804,4.89562651 L106.676101,4.89562651 L106.676101,15.4908997 M114.550011,9.97833114 C114.550011,9.02631138 114.228237,8.16741495 113.55725,7.63112434 C113.088307,7.27027144 112.458062,7.05575519 111.65321,7.05575519 C111.397953,7.05575519 111.143526,7.08236186 110.96892,7.09566519 L110.96892,13.0771763 C110.96892,13.1037829 110.983886,13.1037829 110.996358,13.1037829 C111.197571,13.1303896 111.412087,13.1436929 111.6133,13.1436929 C112.216939,13.1436929 112.807274,12.9690867 113.303655,12.6215371 C114.027024,12.0977184 114.550842,11.2396534 114.550842,9.99246593 L114.550842,9.9791626 L114.550011,9.97833114 Z M117.125037,9.92511781 C117.125037,11.9231121 116.266141,13.4920739 114.751224,14.4848352 C113.825811,15.1001143 112.591927,15.3961135 111.19674,15.3961135 C110.526584,15.3961135 109.883035,15.3828101 109.453172,15.3695068 C109.172139,15.3562035 108.769713,15.3295968 108.48868,15.3029901 L108.48868,4.94800838 C108.756409,4.92140172 109.091487,4.88149172 109.708429,4.8540536 C110.351978,4.82744693 110.861662,4.8141436 111.358043,4.8141436 C112.95278,4.8141436 114.118484,5.13591796 114.991515,5.67220857 C116.614522,6.67827312 117.124206,8.38109973 117.124206,9.91098302 L117.124206,9.92428635 L117.125037,9.92511781 Z M122.207742,11.8690673 L122.207742,11.8424607 C121.671451,10.4871836 121.470238,9.87190448 121.376284,9.52269199 L121.36298,9.52269199 C121.269026,9.87190448 121.055341,10.4871836 120.504915,11.8424607 L120.504915,11.8690673 L122.207742,11.8690673 Z M119.753277,13.8537583 C119.432334,14.6320033 119.19038,15.2223387 119.149638,15.315462 L119.149638,15.3570349 L116.60205,15.3570349 L116.60205,15.315462 C116.64196,15.2223387 116.90969,14.6320033 118.680696,10.649318 L121.308104,4.70854839 L121.657317,4.70854839 L124.259781,10.6501495 C126.003349,14.6328347 126.257775,15.2231701 126.298517,15.3171249 L126.298517,15.3586978 L123.508974,15.3586978 L123.508974,15.3171249 C123.481536,15.2240016 123.240413,14.6336662 122.931942,13.8554212 L119.752446,13.8554212 L119.753277,13.8537583 Z M131.233222,8.20815641 C131.233222,7.39000143 130.737673,6.90692416 129.932821,6.90692416 C129.70417,6.90692416 129.583609,6.92022749 129.462216,6.93353082 L129.462216,9.60251199 C129.55617,9.61581532 129.690867,9.61581532 129.811428,9.61581532 C130.160641,9.61581532 130.46828,9.50772574 130.6961,9.34808575 C130.937223,9.18761429 131.23239,8.79932326 131.23239,8.22145974 L131.23239,8.20898786 L131.233222,8.20815641 Z M127.117503,9.32231054 L127.117503,4.93470505 C127.344491,4.90726693 127.720311,4.88066026 128.068692,4.86818839 C128.363859,4.85322214 129.008239,4.84075026 129.369924,4.84075026 C130.227989,4.84075026 130.898144,4.92057026 131.501783,5.08187317 C132.399758,5.32299608 133.634473,6.08793772 133.634473,8.01858391 C133.634473,9.17098513 133.085711,10.0024434 132.669982,10.3383526 C132.428859,10.5528688 132.146163,10.7540817 131.971557,10.8205984 L131.971557,10.8621713 C132.066343,10.9952047 132.240118,11.2779005 134.224809,14.2004764 C134.507505,14.6162056 134.923234,15.2198443 134.989751,15.3271024 L134.989751,15.3537091 L132.200208,15.3537091 C131.449401,14.1464316 130.563898,12.7113346 129.705833,11.3294509 L129.46471,11.3294509 L129.46471,15.3537091 L127.117503,15.3537091 L127.117503,9.3189847 L127.117503,9.32231054 Z" id="Shape"></path>
            </g>
        </g>
    </g>
</svg>