<?xml version="1.0" encoding="UTF-8"?>
<svg width="36px" height="36px" viewBox="0 0 36 36" version="1.1" xmlns="http://www.w3.org/2000/svg" xmlns:xlink="http://www.w3.org/1999/xlink">
    <title>single-user-message-chat</title>
    <g id="Color-November-2022" stroke="none" stroke-width="1" fill="none" fill-rule="evenodd">
        <g id="Desktop-/-Home---Página-de-Preço-Color-November" transform="translate(-767.000000, -1229.000000)">
            <g id="Group-12-Copy-2" transform="translate(728.000000, 1190.000000)">
                <g id="Group-19" transform="translate(32.000000, 32.000000)">
                    <g id="single-user-message-chat" transform="translate(7.000000, 7.000000)">
                        <rect id="Rectangle" x="0" y="0" width="36" height="36"></rect>
                        <path d="M17.0317693,18.9682307 C16.0420583,17.9785197 15.2959685,16.8703818 14.8002671,15.7461716 C14.6962206,15.5084718 14.7571259,15.2301685 14.9406877,15.0466067 L15.6334854,14.353809 C16.2010888,13.7862056 16.2010888,12.98344 15.7053874,12.4877386 L14.7131387,11.4954899 C14.0524855,10.8348367 12.9815675,10.8348367 12.3209143,11.4954899 L11.769383,12.0461752 C11.1425661,12.6729922 10.8811809,13.5772666 11.0503623,14.4739278 C11.4682402,16.6842823 12.7523268,19.1044217 14.8239525,21.1760475 C16.8955783,23.2476732 19.3157177,24.5317598 21.5260722,24.9496377 C22.4227334,25.1188191 23.3270078,24.8574339 23.9538248,24.230617 L24.5045101,23.6799316 C25.1651633,23.0192784 25.1651633,21.9483604 24.5045101,21.2877072 L23.5122614,20.2954585 C23.01656,19.7997571 22.2129485,19.7997571 21.718093,20.2954585 L20.9542392,21.0601582 C20.7706774,21.24372 20.4923741,21.3054712 20.2546743,21.2005788 C19.1304641,20.7040315 18.0214803,19.9570957 17.0317693,18.9682307 Z" id="Path" stroke="#FFFFFF" stroke-width="1.5" stroke-linecap="round" stroke-linejoin="round"></path>
                        <path d="M6.94338,25.74552 C2.92647756,20.0123325 3.9585065,12.1597714 9.3203889,7.65919795 C14.6822713,3.15862455 22.5948519,3.50339857 27.54495,8.45329479 C32.4950481,13.403191 32.8401448,21.3157575 28.3397901,26.6778235 C23.8394354,32.0398894 15.9869163,33.0722386 10.253565,29.05557 L5.99766,30.001245 L6.94338,25.74552 Z" id="Path" stroke="#FFFFFF" stroke-width="1.5" stroke-linecap="round" stroke-linejoin="round"></path>
                    </g>
                </g>
            </g>
        </g>
    </g>
</svg>