<?xml version="1.0" encoding="UTF-8"?>
<svg width="74px" height="40px" viewBox="0 0 74 40" version="1.1" xmlns="http://www.w3.org/2000/svg" xmlns:xlink="http://www.w3.org/1999/xlink">
    <title>slack</title>
    <g id="slack" stroke="none" stroke-width="1" fill="none" fill-rule="evenodd">
        <g id="Group" transform="translate(0.000000, 11.000000)" fill="#121E48" fill-rule="nonzero">
            <g id="Slack_Technologies_Logo">
                <path d="M22.9090909,14.5082684 L23.8006247,12.4354383 C24.7640564,13.1551709 26.0438389,13.5294319 27.3092417,13.5294319 C28.2439143,13.5294319 28.8334769,13.1695656 28.8334769,12.6225688 C28.8190974,11.0967355 23.2398212,12.2914917 23.1966825,8.46251392 C23.1823029,6.51923571 24.9078522,5.02219176 27.3523804,5.02219176 C28.8047178,5.02219176 30.2570551,5.38205809 31.2923847,6.20255334 L30.4583692,8.31856739 C29.5093171,7.71399195 28.3301917,7.28215234 27.2085847,7.28215234 C26.446467,7.28215234 25.9431818,7.64201868 25.9431818,8.10264759 C25.9575614,9.59969154 31.5799763,8.7791963 31.6374946,12.4354383 C31.6374946,14.4219004 29.955084,15.8181818 27.539315,15.8181818 C25.7706269,15.8181818 24.1457346,15.4007369 22.9090909,14.5082684 M57.1181064,11.6869163 C56.6723395,12.4642276 55.838324,12.9968297 54.8748923,12.9968297 C53.4513141,12.9968297 52.3009479,11.8452575 52.3009479,10.4201868 C52.3009479,8.9951161 53.4513141,7.84354383 54.8748923,7.84354383 C55.838324,7.84354383 56.6723395,8.376146 57.1181064,9.15345729 L59.5770142,7.78596521 C58.6567212,6.14497472 56.8880332,5.02219176 54.8748923,5.02219176 C51.8983197,5.02219176 49.4825506,7.44049353 49.4825506,10.4201868 C49.4825506,13.39988 51.8983197,15.8181818 54.8748923,15.8181818 C56.9024128,15.8181818 58.6567212,14.7097935 59.5770142,13.0544084 L57.1181064,11.6869163 L57.1181064,11.6869163 Z M32.8741383,0.545454545 L35.9513679,0.545454545 L35.9513679,15.6166567 L32.8741383,15.6166567 L32.8741383,0.545454545 Z M60.7848988,0.545454545 L60.7848988,15.6166567 L63.8621284,15.6166567 L63.8621284,11.0967355 L67.5145411,15.6166567 L71.4545455,15.6166567 L66.8099418,10.2474509 L71.1094356,5.23811156 L67.3419862,5.23811156 L63.8621284,9.3981664 L63.8621284,0.545454545 L60.7848988,0.545454545 Z M45.0967794,11.7157056 C44.6510125,12.4498329 43.7307195,12.9968297 42.6953899,12.9968297 C41.2718117,12.9968297 40.1214455,11.8452575 40.1214455,10.4201868 C40.1214455,8.9951161 41.2718117,7.84354383 42.6953899,7.84354383 C43.7307195,7.84354383 44.6510125,8.41932996 45.0967794,9.16785194 L45.0967794,11.7157056 Z M45.0967794,5.23811156 L45.0967794,6.4616571 C44.5934942,5.61237255 43.3424709,5.02219176 42.0339293,5.02219176 C39.3305687,5.02219176 37.2023912,7.41170422 37.2023912,10.4057921 C37.2023912,13.39988 39.3305687,15.8181818 42.0339293,15.8181818 C43.3424709,15.8181818 44.5934942,15.228001 45.0967794,14.3787165 L45.0967794,15.602262 L48.174009,15.602262 L48.174009,5.23811156 L45.0967794,5.23811156 Z" id="Shape"></path>
                <path d="M4.18181818,11.6363636 C4.18181818,12.6418733 3.36914601,13.4545455 2.36363636,13.4545455 C1.35812672,13.4545455 0.545454545,12.6418733 0.545454545,11.6363636 C0.545454545,10.630854 1.35812672,9.81818182 2.36363636,9.81818182 L4.18181818,9.81818182 L4.18181818,11.6363636 Z M5.09090909,11.6363636 C5.09090909,10.630854 5.90358127,9.81818182 6.90909091,9.81818182 C7.91460055,9.81818182 8.72727273,10.630854 8.72727273,11.6363636 L8.72727273,16.1818182 C8.72727273,17.1873278 7.91460055,18 6.90909091,18 C5.90358127,18 5.09090909,17.1873278 5.09090909,16.1818182 L5.09090909,11.6363636 Z" id="Shape"></path>
                <path d="M6.36669213,3.6302521 C5.36287242,3.6302521 4.55156608,2.81894576 4.55156608,1.81512605 C4.55156608,0.811306341 5.36287242,0 6.36669213,0 C7.37051184,0 8.18181818,0.811306341 8.18181818,1.81512605 L8.18181818,3.6302521 L6.36669213,3.6302521 Z M6.36669213,4.55156608 C7.37051184,4.55156608 8.18181818,5.36287242 8.18181818,6.36669213 C8.18181818,7.37051184 7.37051184,8.18181818 6.36669213,8.18181818 L1.81512605,8.18181818 C0.811306341,8.18181818 0,7.37051184 0,6.36669213 C0,5.36287242 0.811306341,4.55156608 1.81512605,4.55156608 L6.36669213,4.55156608 Z" id="Shape"></path>
                <path d="M14.3636364,6.36669213 C14.3636364,5.36287242 15.1763085,4.55156608 16.1818182,4.55156608 C17.1873278,4.55156608 18,5.36287242 18,6.36669213 C18,7.37051184 17.1873278,8.18181818 16.1818182,8.18181818 L14.3636364,8.18181818 L14.3636364,6.36669213 Z M13.4545455,6.36669213 C13.4545455,7.37051184 12.6418733,8.18181818 11.6363636,8.18181818 C10.630854,8.18181818 9.81818182,7.37051184 9.81818182,6.36669213 L9.81818182,1.81512605 C9.81818182,0.811306341 10.630854,0 11.6363636,0 C12.6418733,0 13.4545455,0.811306341 13.4545455,1.81512605 L13.4545455,6.36669213 L13.4545455,6.36669213 Z" id="Shape"></path>
                <path d="M11.6333079,14.3636364 C12.6371276,14.3636364 13.4484339,15.1763085 13.4484339,16.1818182 C13.4484339,17.1873278 12.6371276,18 11.6333079,18 C10.6294882,18 9.81818182,17.1873278 9.81818182,16.1818182 L9.81818182,14.3636364 L11.6333079,14.3636364 Z M11.6333079,13.4545455 C10.6294882,13.4545455 9.81818182,12.6418733 9.81818182,11.6363636 C9.81818182,10.630854 10.6294882,9.81818182 11.6333079,9.81818182 L16.1848739,9.81818182 C17.1886937,9.81818182 18,10.630854 18,11.6363636 C18,12.6418733 17.1886937,13.4545455 16.1848739,13.4545455 L11.6333079,13.4545455 Z" id="Shape"></path>
            </g>
        </g>
    </g>
</svg>