<?xml version="1.0" encoding="UTF-8"?>
<svg width="50px" height="50px" viewBox="0 0 50 50" version="1.1" xmlns="http://www.w3.org/2000/svg" xmlns:xlink="http://www.w3.org/1999/xlink">
    <title>icon 2</title>
    <defs>
        <filter id="filter-1">
            <feColorMatrix in="SourceGraphic" type="matrix" values="0 0 0 0 1.000000 0 0 0 0 1.000000 0 0 0 0 1.000000 0 0 0 1.000000 0"></feColorMatrix>
        </filter>
    </defs>
    <g id="Internas" stroke="none" stroke-width="1" fill="none" fill-rule="evenodd">
        <g id="Group-9-Copy">
            <rect id="Rectangle" fill="#940DFF" x="0" y="0" width="50" height="50" rx="8"></rect>
            <g filter="url(#filter-1)" id="single-user-message-chat" transform="scale(1.45) translate(5.000000, 5.000000)">
                <line x1="4" y1="4.54902" x2="4" y2="21" fill="none" stroke="#323232" stroke-linecap="round" stroke-linejoin="round" stroke-width="1" />
                <path d="M4,16.5H4a7.96172,7.96172,0,0,1,7.18368-.36281l1.63262.72562A7.96174,7.96174,0,0,0,20,16.5h0V4.549h0a7.96171,7.96171,0,0,1-7.18369.36281l-1.63262-.72561A7.96172,7.96172,0,0,0,4,4.549H4" fill="none" stroke="#323232" stroke-linecap="round" stroke-linejoin="round" stroke-width="1"/>
                <path d="M13.75,9.40625l-2.18633,2.1875L10.25,10.28125" fill="none" stroke="#323232" stroke-linecap="round" stroke-linejoin="round" stroke-width="1"/>
                <rect width="28" height="28" fill="none"/>
            </g>
        </g>
    </g>
</svg>