<?xml version="1.0" encoding="utf-8"?>
<!-- Generator: Adobe Illustrator 26.0.3, SVG Export Plug-In . SVG Version: 6.00 Build 0)  -->
<svg version="1.1" id="Camada_1" xmlns="http://www.w3.org/2000/svg" xmlns:xlink="http://www.w3.org/1999/xlink" x="0px" y="0px"
	 viewBox="0 0 24 24" style="enable-background:new 0 0 24 24;" xml:space="preserve">
<style type="text/css">
	.st0{fill:none;}
	.st1{fill:none;stroke:#4BA9FF;stroke-width:1.5;stroke-linecap:round;stroke-linejoin:round;}
</style>
<g>
	<rect class="st0" width="24" height="24"/>
	<circle class="st1" cx="12" cy="8.2" r="4.2"/>
	<path class="st1" d="M4,20L4,20c0-2.5,2-4.5,4.5-4.5h2.6"/>
	<path class="st1" d="M15.2,19.1c-0.2-0.3-0.2-0.8,0-1.1c0.7-1,1.8-1.9,2.8-1.9c1.1,0,2.1,0.8,2.8,1.9c0.2,0.3,0.2,0.8,0,1.1
		c-0.7,1-1.8,1.9-2.8,1.9C16.9,21,15.9,20.2,15.2,19.1z"/>
	<path class="st1" d="M18,18.5C18,18.5,18,18.6,18,18.5C18,18.6,18,18.6,18,18.5C18,18.6,18,18.6,18,18.5C18,18.6,18,18.5,18,18.5"
		/>
</g>
</svg>
