<?xml version="1.0" encoding="UTF-8"?>
<svg width="74px" height="40px" viewBox="0 0 74 40" version="1.1" xmlns="http://www.w3.org/2000/svg" xmlns:xlink="http://www.w3.org/1999/xlink">
    <title>asana</title>
    <g id="asana" stroke="none" stroke-width="1" fill="none" fill-rule="evenodd">
        <g id="Group" transform="translate(-0.000000, 13.000000)" fill="#121E48" fill-rule="nonzero">
            <g id="Shape" transform="translate(0.000000, 0.096774)">
                <path d="M24.3974274,10.7054035 C22.6161071,10.7054035 21.172071,9.22706013 21.172071,7.40303248 C21.172071,5.57931428 22.6161071,4.10073886 24.3974274,4.10073886 C26.1788249,4.10073886 27.6225522,5.57931428 27.6225522,7.40303248 C27.6225522,9.22706013 26.1788249,10.7054035 24.3974274,10.7054035 L24.3974274,10.7054035 Z M27.6328992,11.1243397 C27.6328992,11.4266295 28.1500991,12.2761821 28.7839739,12.2761821 L29.194537,12.2761821 C29.3536813,12.2761821 29.4839465,12.1455352 29.4839465,11.9861909 L29.4839465,2.9492057 L29.4822477,2.9492057 C29.4739855,2.79705532 29.3481989,2.67507187 29.194537,2.67507187 L27.9224632,2.67507187 C27.7686468,2.67507187 27.6430147,2.79705532 27.6343664,2.9492057 L27.6328992,2.9492057 L27.6328992,3.68358179 C26.8534703,2.72186946 25.6247153,2.3228901 24.3924083,2.3228901 C21.591514,2.3228901 19.3211781,4.59718128 19.3211781,7.40303248 C19.3211781,10.2088837 21.591514,12.4835615 24.3924083,12.4835615 C25.6247153,12.4835615 26.9675971,12.0046779 27.6327448,11.1230247 L27.6328992,11.1243397 Z M32.5230554,9.83009295 C33.3722113,10.4192026 34.2991249,10.7054035 35.1897464,10.7054035 C36.0384391,10.7054035 36.9156248,10.2646542 36.9156248,9.49779058 C36.9156248,8.47373301 35.0040394,8.31431137 33.8030825,7.90550833 C32.6018168,7.49662787 31.5671082,6.65117501 31.5671082,5.28228413 C31.5671082,3.18775807 33.4302786,2.32258065 35.1691295,2.32258065 C36.2710168,2.32258065 37.4078063,2.68659724 38.1448431,3.20802413 C38.39881,3.40055222 38.244067,3.62185524 38.244067,3.62185524 L37.5405425,4.62843121 C37.4614722,4.74175138 37.2975404,4.83233005 37.1248058,4.71692154 C36.6508475,4.40310612 36.1229145,4.10066144 35.1691295,4.10066144 C33.9884807,4.10066144 33.4691188,4.59161193 33.4691188,5.19982745 C33.4691188,5.92948491 34.2997426,6.15890971 35.2726775,6.4076722 C36.9682869,6.86528419 38.8177126,7.41571804 38.8177126,9.49779058 C38.8177126,11.3432447 37.0943823,12.483871 35.1897464,12.483871 C33.7465596,12.483871 32.5176502,12.0715871 31.4870341,11.3140057 C31.2724479,11.0988135 31.4223262,10.8989372 31.4223262,10.8989372 L32.1224533,9.89762089 C32.2648415,9.71019807 32.4444484,9.77563745 32.5230554,9.83009295 Z M48.3574166,11.1243397 C48.3574166,11.4266295 48.8746163,12.2761821 49.5084913,12.2761821 L49.9188999,12.2761821 C50.0781987,12.2761821 50.2085411,12.1455352 50.2085411,11.9861909 L50.2085411,2.9492057 L50.2068422,2.9492057 C50.1983483,2.79705532 50.0727163,2.67507187 49.9188999,2.67507187 L48.6469032,2.67507187 C48.4930096,2.67507187 48.3673776,2.79705532 48.3589608,2.9492057 L48.3574166,2.9492057 L48.3574166,3.68358179 C47.5780648,2.72186946 46.3491554,2.3228901 45.1171573,2.3228901 C42.3161856,2.3228901 40.045541,4.59718128 40.045541,7.40303248 C40.045541,10.2088837 42.3161856,12.4835615 45.1171573,12.4835615 C46.3491554,12.4835615 47.6921144,12.0046779 48.3572621,11.1230247 L48.3574166,11.1243397 Z M45.1219446,10.7054035 C43.3405471,10.7054035 41.8965882,9.22706013 41.8965882,7.40303248 C41.8965882,5.57931428 43.3405471,4.10073886 45.1219446,4.10073886 C46.9031876,4.10073886 48.3471468,5.57931428 48.3471468,7.40303248 C48.3471468,9.22706013 46.9031876,10.7054035 45.1219446,10.7054035 Z M61.6053151,11.4349061 L61.6047745,6.75884841 L61.6049291,6.75884841 C61.6049291,4.12278402 59.9447624,2.34454839 57.2973757,2.34454839 C56.0337958,2.34454839 54.9998593,3.07652646 54.6340049,3.70524008 L54.6340049,3.69649939 L54.6318429,3.70369301 C54.6310707,3.06732169 54.1158784,2.69680758 53.4807682,2.69680758 L53.0723672,2.69680758 C52.9129912,2.69680758 52.7828033,2.82745451 52.7828033,2.98695336 L52.7828033,11.1469263 L52.7828033,11.1483186 L52.7828033,12.0244799 L52.784502,12.0244799 C52.792687,12.1766305 52.9186279,12.2987687 53.0723672,12.2987687 L54.3443637,12.2987687 C54.3638225,12.2987687 54.3829722,12.2964481 54.4015043,12.2929674 C54.4099982,12.2911883 54.4176428,12.2878621 54.4258277,12.2854643 C54.4354799,12.2826796 54.4452863,12.280359 54.4541664,12.2765687 C54.4656717,12.2719278 54.4758643,12.2655075 54.4864431,12.2596289 C54.4915395,12.2565347 54.4970219,12.2542915 54.502041,12.2511974 C54.5144728,12.2429208 54.5262871,12.2330199 54.5375608,12.2228868 C54.5394141,12.2209531 54.5416533,12.2197154 54.5434294,12.2179363 C54.5561701,12.2057921 54.5675982,12.1924876 54.577868,12.178255 L54.5780226,12.1781001 C54.609836,12.1342418 54.6291403,12.0815654 54.6323061,12.0244799 L54.6340049,12.0244799 L54.6340049,6.68629261 C54.6340049,5.27052672 55.7797515,4.12278402 57.1931327,4.12278402 C58.6065136,4.12278402 59.7523375,5.27052672 59.7523375,6.68629261 L59.7533414,11.1484734 L59.7537273,11.1469263 C59.7537273,11.1507938 59.7544223,11.1549709 59.7544223,11.1590704 L59.7544223,12.0244799 L59.7561212,12.0244799 C59.7645378,12.1766305 59.89017,12.2987687 60.0440634,12.2987687 L61.3160601,12.2987687 C61.3356731,12.2987687 61.3545141,12.2964481 61.3730462,12.2929674 C61.3806135,12.2912657 61.387563,12.288249 61.3947443,12.2864698 C61.4054002,12.2833757 61.4160562,12.2806685 61.4260172,12.2765687 C61.436287,12.2721598 61.445862,12.266281 61.4555913,12.2607891 C61.4616142,12.2574629 61.4679461,12.2549102 61.4736601,12.2511974 C61.4856287,12.2432303 61.4962846,12.2339481 61.5068634,12.2248205 C61.5095659,12.2224227 61.5125774,12.2203341 61.5151256,12.2178589 C61.5272487,12.2062561 61.5377502,12.1936478 61.5477112,12.1804981 C61.548329,12.1793377 61.5491783,12.1785644 61.5500277,12.177636 C61.5813779,12.1342418 61.6004505,12.0819521 61.603848,12.0252534 C61.603848,12.0249442 61.6040026,12.0244799 61.6040026,12.0244799 L61.6054697,12.0244799 L61.6054697,11.4351382 L61.6053151,11.4349061 Z M71.5255448,11.1243397 C71.5255448,11.4266295 72.0421268,12.2761821 72.6760789,12.2761821 L73.0868737,12.2761821 C73.2459408,12.2761821 73.3764376,12.1455352 73.3764376,11.9861909 L73.3764376,2.9492057 L73.3748932,2.9492057 C73.3663994,2.79705532 73.2405355,2.67507187 73.0868737,2.67507187 L71.8151086,2.67507187 C71.6606747,2.67507187 71.535583,2.79705532 71.5270891,2.9492057 L71.5255448,2.9492057 L71.5255448,3.68358179 C70.7456526,2.72186946 69.5171292,2.3228901 68.2847449,2.3228901 C65.4840823,2.3228901 63.2134375,4.59718128 63.2134375,7.40303248 C63.2134375,10.2088837 65.4840823,12.4835615 68.2847449,12.4835615 C69.5171292,12.4835615 70.8599338,12.0046779 71.5247726,11.1230247 L71.5255448,11.1243397 Z M68.2901502,10.7054035 C66.5087526,10.7054035 65.0647936,9.22706013 65.0647936,7.40303248 C65.0647936,5.57931428 66.5087526,4.10073886 68.2901502,4.10073886 C70.0707754,4.10073886 71.5147343,5.57931428 71.5147343,7.40303248 C71.5147343,9.22706013 70.0707754,10.7054035 68.2901502,10.7054035 Z"></path>
                <path d="M12.6071291,7.79032258 C10.6862013,7.79032258 9.12925666,9.35001309 9.12925666,11.2740727 C9.12925666,13.1982531 10.6862013,14.7580645 12.6071291,14.7580645 C14.5278155,14.7580645 16.0848808,13.1982531 16.0848808,11.2740727 C16.0848808,9.35001309 14.5278155,7.79032258 12.6071291,7.79032258 L12.6071291,7.79032258 Z M3.47772143,7.79032258 C1.55708517,7.79032258 0,9.34982542 0,11.2741331 C0,13.198199 1.55708517,14.7580645 3.47772143,14.7580645 C5.39847858,14.7580645 6.95562412,13.198199 6.95562412,11.2741331 C6.95562412,9.34982542 5.39847858,7.79032258 3.47772143,7.79032258 L3.47772143,7.79032258 Z M11.5927069,3.48368964 C11.5927069,5.40771582 10.0357352,6.96774194 8.11501543,6.96774194 C6.19411478,6.96774194 4.63708275,5.40771582 4.63708275,3.48368964 C4.63708275,1.55978435 6.19411478,0 8.11501543,0 C10.0357352,0 11.5927069,1.55978435 11.5927069,3.48368964 L11.5927069,3.48368964 Z"></path>
            </g>
        </g>
    </g>
</svg>