<?xml version="1.0" encoding="utf-8"?>
<!-- Generator: Adobe Illustrator 26.0.3, SVG Export Plug-In . SVG Version: 6.00 Build 0)  -->
<svg version="1.1" id="Camada_1" xmlns="http://www.w3.org/2000/svg" xmlns:xlink="http://www.w3.org/1999/xlink" x="0px" y="0px"
	 viewBox="0 0 24 24" style="enable-background:new 0 0 24 24;" xml:space="preserve">
<style type="text/css">
	.st0{fill:none;}
	.st1{fill:none;stroke:#FF4B8C;stroke-width:1.5;stroke-linecap:round;stroke-linejoin:round;}
</style>
<g>
	<path class="st0" d="M0,0h24v24H0V0z"/>
	<path class="st1" d="M18.4,6.4l-2.8-2.8C15.2,3.2,14.7,3,14.2,3H7C5.9,3,5,3.9,5,5v14c0,1.1,0.9,2,2,2h10c1.1,0,2-0.9,2-2V7.8
		C19,7.3,18.8,6.8,18.4,6.4z"/>
	<path class="st1" d="M19,8h-4c-0.6,0-1-0.4-1-1V3"/>
	<line class="st1" x1="16" y1="11.1" x2="11.2" y2="11.1"/>
	<line class="st1" x1="16" y1="14" x2="11.2" y2="14"/>
	<line class="st1" x1="16" y1="16.9" x2="11.2" y2="16.9"/>
	<path class="st1" d="M8.1,11C8.1,11,8,11.1,8,11.1s0.1,0.1,0.1,0.1s0.1-0.1,0.1-0.1S8.2,11,8.1,11"/>
	<path class="st1" d="M8.1,13.9C8.1,13.9,8,13.9,8,14s0.1,0.1,0.1,0.1s0.1-0.1,0.1-0.1S8.2,13.9,8.1,13.9"/>
	<path class="st1" d="M8.1,16.8c-0.1,0-0.1,0.1-0.1,0.1S8.1,17,8.1,17s0.1-0.1,0.1-0.1S8.2,16.8,8.1,16.8"/>
</g>
</svg>
