<?xml version="1.0" encoding="UTF-8"?>
<svg width="51px" height="40px" viewBox="0 0 51 40" version="1.1" xmlns="http://www.w3.org/2000/svg" xmlns:xlink="http://www.w3.org/1999/xlink">
    <title>zapier</title>
    <g id="zapier" stroke="none" stroke-width="1" fill="none" fill-rule="evenodd">
        <g id="Group" transform="translate(0.000000, 7.000000)" fill="#121E48" fill-rule="nonzero">
            <g id="Shape">
                <path d="M0,18.1093362 L5.22476836,10.0217729 L0.619131619,10.0217729 C0.580574678,9.79076856 0.561296207,9.53425328 0.561296207,9.25172489 C0.561296207,8.98225328 0.580776547,8.73166376 0.619434422,8.50045852 L8.0694026,8.50045852 L8.16629963,8.75124891 L2.90287339,16.8576943 L7.83715254,16.8576943 C7.87581042,17.1145109 7.89529076,17.3774541 7.89529076,17.6469258 C7.89529076,17.9040437 7.87591135,18.1478035 7.83725348,18.3788079 L0.0968970255,18.3788079 L0,18.1091354 L0,18.1093362 Z M15.0741491,13.7379301 C14.8806579,13.7125197 14.6354882,13.6871092 14.338842,13.6610961 C14.0420949,13.6356856 13.7904654,13.6226288 13.5843574,13.6226288 C12.7843513,13.6226288 12.1748085,13.7702707 11.7558297,14.0655546 C11.3362454,14.3610393 11.1270084,14.8100917 11.1270084,15.4134148 C11.1270084,15.7984891 11.1976625,16.1002009 11.3396772,16.3183493 C11.4813891,16.5368996 11.6589327,16.7034236 11.8718034,16.8190262 C12.084775,16.9345284 12.3199521,17.0052358 12.5779404,17.0309476 C12.8358278,17.056559 13.0810984,17.0693144 13.3132476,17.0693144 C13.6099947,17.0693144 13.9163306,17.0532445 14.2324572,17.0211048 C14.5483818,16.9892664 14.8289795,16.9409563 15.0742501,16.8767773 L15.0742501,13.7379301 L15.0741491,13.7379301 Z M15.0741491,11.8704105 C15.0741491,11.1128166 14.8806579,10.5865284 14.4937763,10.2912445 C14.106592,9.9959607 13.5454976,9.84831878 12.8101905,9.84831878 C12.3583072,9.84831878 11.9360986,9.88387336 11.5427572,9.95437991 C11.1535137,10.0238963 10.7689083,10.1170411 10.3910957,10.2332926 C10.1458251,9.80975109 10.0236945,9.30304803 10.0236945,8.71217904 C10.4617498,8.57116594 10.9455284,8.4620917 11.4747274,8.38505677 C12.0036237,8.3079214 12.5130396,8.26935371 13.0034799,8.26935371 C14.2934215,8.26935371 15.2737974,8.56162445 15.9447083,9.14566376 C16.6153165,9.73020524 16.9510243,10.6639651 16.9510243,11.9474454 L16.9510243,18.1285197 C16.499242,18.2311659 15.9511681,18.3370262 15.3061973,18.4462009 C14.6540543,18.5557773 13.9937998,18.6105412 13.3324251,18.609918 C12.7003739,18.609918 12.129287,18.552262 11.619972,18.4366594 C11.1102533,18.3208559 10.6780522,18.1351485 10.3233687,17.8780306 C9.96838243,17.6215153 9.6945474,17.2940917 9.50095522,16.896262 C9.30746397,16.4983319 9.21066788,16.0170393 9.21066788,15.4519825 C9.21066788,14.9002838 9.32351254,14.4156769 9.5493028,13.9981616 C9.77113715,13.5857633 10.0857202,13.2299376 10.4685124,12.958441 C10.8554949,12.6828428 11.3005147,12.4771485 11.8036727,12.3425633 C12.3069316,12.2076769 12.835626,12.1401834 13.3903614,12.1401834 C13.8031832,12.1401834 14.1418181,12.1500262 14.4063671,12.16931 C14.6708153,12.188393 14.8933756,12.2108908 15.0740482,12.2366026 L15.0740482,11.8707118 L15.0741491,11.8704105 Z M20.9566061,16.7609738 C21.2008974,16.8507722 21.4538247,16.9153246 21.7113935,16.9536114 C21.9693818,16.9922795 22.3044841,17.0114629 22.7177095,17.0114629 C23.1820077,17.0114629 23.6075472,16.9378428 23.9945297,16.7902009 C24.381714,16.6428603 24.7137882,16.4147686 24.991156,16.1065284 C25.2685237,15.7985895 25.4877532,15.4105022 25.6490464,14.9414629 C25.8102386,14.4732271 25.8910871,13.918214 25.8910871,13.2760218 C25.8910871,12.2491572 25.7005229,11.4340131 25.3202021,10.8305895 C24.9393766,10.2273668 24.3169142,9.92565502 23.4529157,9.92565502 C23.1304303,9.92565502 22.8205617,9.98330568 22.5243192,10.0990087 C22.2271683,10.2145109 21.962922,10.3878646 21.730672,10.618869 C21.4985229,10.8498734 21.3114914,11.1421441 21.1696786,11.4950786 C21.0273611,11.8484148 20.956707,12.268441 20.956707,12.7563624 L20.956707,16.7612751 L20.9566061,16.7609738 Z M19.0408711,8.50035808 C19.172065,8.47467961 19.3044491,8.45543946 19.4375433,8.44270742 C19.5758886,8.42993126 19.7147561,8.42356339 19.8536959,8.42362445 C19.9823872,8.42362445 20.1177402,8.43015284 20.2599568,8.44270742 C20.4016687,8.45576419 20.5371227,8.47504803 20.6663187,8.50035808 C20.6790365,8.52647162 20.6953878,8.60631878 20.7147672,8.74120524 C20.7339448,8.8760917 20.7533242,9.02041921 20.7728045,9.17428821 C20.7921839,9.32845852 20.8114624,9.47640175 20.8308418,9.61721397 C20.8502212,9.75862882 20.8599109,9.84851965 20.8599109,9.8869869 C20.9886023,9.68169432 21.1435366,9.48252838 21.3242091,9.28999127 C21.5048817,9.09735371 21.7211841,8.92410044 21.9727127,8.77023144 C22.2242412,8.61606114 22.5078669,8.49423144 22.8240944,8.40424017 C23.140019,8.31444978 23.4915736,8.26915284 23.878657,8.26915284 C24.4590298,8.26915284 24.9977167,8.36557205 25.4946168,8.55820961 C25.9910121,8.75084716 26.4164506,9.04894323 26.7714369,9.45340175 C27.1260195,9.85786026 27.4032863,10.371393 27.6034392,10.9937991 C27.8032893,11.6168079 27.9032144,12.3515022 27.9032144,13.1986856 C27.9032144,14.8930524 27.4419442,16.2188166 26.5196056,17.1749738 C25.5970652,18.1314323 24.2911759,18.6094105 22.6013321,18.6094105 C22.3173027,18.6094105 22.0272173,18.5901266 21.7304701,18.5516594 C21.4335211,18.5128908 21.1757346,18.4614672 20.9563033,18.3975895 L20.9563033,22.9226638 C20.7928461,22.9490834 20.6282978,22.968319 20.4631378,22.9803144 C20.2888241,22.992869 20.1306598,22.9993974 19.9887461,22.9993974 C19.8305707,22.9987198 19.6724715,22.9923546 19.5147581,22.9803144 C19.3558427,22.969116 19.1976066,22.9498405 19.0406692,22.9225633 L19.0406692,8.4998559 L19.0408711,8.50035808 Z M30.2836513,10.0024891 L29.0257059,10.0024891 C28.9998666,9.90004367 28.9805882,9.78122707 28.9677695,9.64634061 C28.942153,9.3838138 28.942153,9.11943511 28.9677695,8.8569083 C28.9805882,8.72232314 28.9998666,8.60360699 29.0257059,8.50055895 L32.1607284,8.50055895 L32.1607284,18.3788079 C32.0037847,18.4059987 31.8455496,18.425207 31.6866395,18.4363581 C31.5287915,18.4484027 31.3705577,18.4547679 31.2122478,18.455441 C31.0605985,18.4544799 30.9090325,18.4481149 30.7578411,18.4363581 C30.598959,18.4251615 30.4407563,18.4058859 30.2838532,18.378607 L30.2838532,10.0021878 L30.2836513,10.0024891 Z M41.1974863,12.4865895 C41.1974863,12.1270262 41.1490378,11.7837336 41.0525445,11.4561092 C40.9556474,11.1289869 40.8133299,10.8434454 40.6268032,10.5993843 C40.439368,10.3557249 40.20086,10.1597729 39.9105727,10.0122314 C39.6203862,9.86458952 39.2751906,9.79066812 38.8752885,9.79066812 C38.0884039,9.79066812 37.4852199,10.0285022 37.0660393,10.5032664 C36.6467578,10.978131 36.3921003,11.6392052 36.3016631,12.4865895 L41.1975872,12.4865895 L41.1974863,12.4865895 Z M36.2823847,13.9113843 C36.3082239,14.9896725 36.5888215,15.7793057 37.1241776,16.2796812 C37.6593318,16.7802576 38.4496481,17.0309476 39.494622,17.0309476 C40.4103998,17.0309476 41.2811609,16.8702489 42.1068043,16.5493537 C42.2099593,16.7418908 42.2937348,16.9762096 42.3583328,17.2522096 C42.4217083,17.5209274 42.4605578,17.794793 42.4744074,18.0704672 C42.048868,18.2506507 41.5808351,18.3848341 41.0716211,18.4749258 C40.5617005,18.5645153 39.9973762,18.6097118 39.3785474,18.6097118 C38.4753864,18.6097118 37.7012195,18.4843668 37.0564506,18.2340786 C36.4112779,17.9835895 35.8791517,17.6304541 35.4598702,17.1750742 C35.0406896,16.7194934 34.7341519,16.1802489 34.5406606,15.5575415 C34.3472703,14.9351354 34.2502723,14.2514629 34.2502723,13.5069258 C34.2502723,12.7752445 34.3436367,12.0915721 34.53087,11.4560087 C34.7175986,10.8209476 35.0052617,10.2688472 35.3918404,9.80031004 C35.7789239,9.33157205 36.2657305,8.95945415 36.8528659,8.68345415 C37.4395976,8.40745415 38.132916,8.26925328 38.9331239,8.26925328 C39.6167526,8.26925328 40.2166058,8.38495633 40.7327843,8.6159607 C41.2485591,8.84696507 41.6808611,9.16474672 42.0292867,9.5691048 C42.3775104,9.97356332 42.6417566,10.4549563 42.8226311,11.013083 C43.0030008,11.5717118 43.0936399,12.1781485 43.0936399,12.8329956 C43.0936399,13.0127773 43.0867764,13.202 43.0739577,13.4008646 C43.063332,13.5710995 43.0504449,13.7411871 43.0352999,13.911083 L36.2819809,13.911083 L36.2823847,13.9113843 Z M45.2039764,8.50045852 C45.3386484,8.47613159 45.4742,8.45690086 45.6103383,8.44280786 C45.7390297,8.43025328 45.8747864,8.42372489 46.0167002,8.42372489 C46.158614,8.42372489 46.3003259,8.43025328 46.4424415,8.44280786 C46.5842544,8.45586463 46.7133494,8.47514847 46.8295249,8.50045852 C46.8680819,8.69309607 46.9067398,8.94689956 46.9452967,9.2610655 C46.9839546,9.57573362 47.0036368,9.84189083 47.0036368,10.0602402 C47.2744438,9.62394323 47.6324581,9.24499563 48.077377,8.924 C48.5224977,8.60330568 49.0932817,8.44260699 49.78983,8.44260699 C49.892985,8.44260699 49.9993698,8.44602183 50.1090855,8.45244978 C50.2030379,8.4573462 50.2966867,8.46689953 50.3896832,8.48107424 C50.4152196,8.59677729 50.4349018,8.7189083 50.4477204,8.8470655 C50.4604382,8.97532314 50.466898,9.11020961 50.466898,9.25132314 C50.466898,9.40549345 50.4573092,9.5660917 50.4380307,9.73261572 C50.4194206,9.89356933 50.3968719,10.0540478 50.3704047,10.2139083 C50.2658704,10.1882978 50.1586034,10.1753814 50.0509473,10.175441 L49.7895272,10.175441 C49.4413035,10.175441 49.1090275,10.2236507 48.7930019,10.3197686 C48.4766734,10.4161878 48.1930478,10.5863275 47.9415192,10.8299869 C47.6901926,11.074048 47.4900397,11.4078996 47.3419689,11.8315415 C47.1932925,12.2551834 47.1193076,12.8007555 47.1193076,13.4681572 L47.1193076,18.3785066 C46.9623332,18.4057403 46.804064,18.4249822 46.6451178,18.4361572 C46.4712078,18.4489127 46.3130436,18.4552402 46.1712308,18.4552402 C46.0291151,18.4552402 45.8714556,18.4489127 45.697041,18.4361572 C45.5317468,18.4241629 45.3670641,18.4049273 45.2034717,18.3785066 L45.2034717,8.50055895 L45.2039764,8.50045852 Z M31.622748,3.2260262 C31.6227672,3.45649906 31.5809482,3.6850801 31.4993052,3.90075983 C31.2824842,3.98200286 31.0527099,4.02364824 30.8210261,4.02369432 L30.8181999,4.02369432 C30.5865219,4.02369432 30.356747,3.98207328 30.1399207,3.90086026 C30.0581786,3.68513495 30.0163237,3.45647606 30.016377,3.22592576 L30.016377,3.22291266 C30.016377,2.98548035 30.0601825,2.75789083 30.139517,2.54817904 C30.3563647,2.46677982 30.586234,2.42512963 30.817998,2.4252443 L30.8206223,2.4252443 C31.0594331,2.4252443 31.2879486,2.46883406 31.4989015,2.5480786 C31.5806349,2.76380315 31.6224565,2.99246657 31.6223443,3.2230131 L31.6223443,3.2260262 L31.622748,3.2260262 Z M33.9872373,2.69170306 L32.1122799,2.69170306 L33.4379523,1.37246725 C33.3338961,1.22700724 33.2178225,1.09044166 33.0909398,0.96419214 C32.9640507,0.8380501 32.8268461,0.722619381 32.6807424,0.619091703 L31.3548681,1.93842795 L31.3548681,0.0726157205 C31.178567,0.0431060155 31.0001067,0.0282236705 30.8213289,0.0281222707 L30.8178971,0.0281222707 C30.6360133,0.0281222707 30.4578641,0.0435895197 30.2842569,0.0726157205 L30.2842569,1.93842795 L28.9580798,0.619091703 C28.812031,0.722528736 28.6749532,0.837966399 28.5482861,0.96419214 L28.5476805,0.96479476 C28.4210188,1.09092687 28.3051169,1.22732112 28.2011727,1.37256769 L29.5273498,2.69170306 L27.6519887,2.69170306 C27.6519887,2.69170306 27.6073756,3.04222707 27.6073756,3.22341485 L27.6073756,3.22562445 C27.6073756,3.40681223 27.6228186,3.58438428 27.6520896,3.75723581 L29.5274508,3.75723581 L28.2010718,5.07637118 C28.4096864,5.36765281 28.6656297,5.6223001 28.9583826,5.82984716 L30.2843578,4.51061135 L30.2843578,6.37652402 C30.4577631,6.40544978 30.6356096,6.42071616 30.8172915,6.42091703 L30.8218335,6.42091703 C31.0004038,6.42075381 31.178655,6.40590561 31.3547672,6.37652402 L31.3547672,4.51061135 L32.6808433,5.83004803 C32.8269127,5.72651662 32.9640835,5.61108597 33.0909398,5.4849476 L33.0912426,5.4849476 C33.2178841,5.35865312 33.3337838,5.22212718 33.4377504,5.07677293 L32.1119771,3.75733624 L33.9873382,3.75733624 C34.0164073,3.58458515 34.0317494,3.40761572 34.0317494,3.22682969 L34.0317494,3.22220961 C34.0317494,3.04452375 34.0168391,2.86714813 33.9873382,2.69190393 L33.9872373,2.69170306 Z"></path>
            </g>
        </g>
    </g>
</svg>