<?xml version="1.0" encoding="utf-8"?>
<!-- Generator: Adobe Illustrator 26.0.3, SVG Export Plug-In . SVG Version: 6.00 Build 0)  -->
<svg version="1.1" id="Layer_3" xmlns="http://www.w3.org/2000/svg" xmlns:xlink="http://www.w3.org/1999/xlink" x="0px" y="0px"
	 viewBox="0 0 24 24" style="enable-background:new 0 0 24 24;" xml:space="preserve">
<style type="text/css">
	.st0{fill:none;stroke:#E64BFF;stroke-width:1.5;stroke-linecap:round;stroke-linejoin:round;}
	.st1{fill:none;}
</style>
<path class="st0" d="M14.7,20.7C14.5,20.9,14.3,21,14,21h-2v-2c0-0.3,0.1-0.5,0.3-0.7l6.8-6.8c0.7-0.7,1.8-0.7,2.4,0c0,0,0,0,0,0
	l0,0c0.7,0.7,0.7,1.8,0,2.4c0,0,0,0,0,0L14.7,20.7z"/>
<path class="st0" d="M16.6,14l2.4,2.4"/>
<path class="st0" d="M20.7,14.7l0.9,0.9l0,0c0.5,0.5,0.5,1.2,0,1.7L20,18.9"/>
<line class="st0" x1="7" y1="9" x2="13" y2="9"/>
<line class="st0" x1="7" y1="13" x2="11" y2="13"/>
<path class="st0" d="M9,21H6c-1.7,0-3-1.3-3-3V6c0-1.7,1.3-3,3-3h12c1.7,0,3,1.3,3,3v2"/>
<path class="st1" d="M0,24V0h24v24H0z"/>
</svg>
