<?xml version="1.0" encoding="UTF-8"?>
<svg width="50px" height="50px" viewBox="0 0 50 50" version="1.1" xmlns="http://www.w3.org/2000/svg" xmlns:xlink="http://www.w3.org/1999/xlink">
    <title>icon 1</title>
    <defs>
        <filter id="filter-1">
            <feColorMatrix in="SourceGraphic" type="matrix" values="0 0 0 0 1.000000 0 0 0 0 1.000000 0 0 0 0 1.000000 0 0 0 1.000000 0"></feColorMatrix>
        </filter>
    </defs>
    <g id="Internas" stroke="none" stroke-width="1" fill="none" fill-rule="evenodd">
        <g id="Group-9">
            <rect id="Rectangle" fill="#940dff" x="0" y="0" width="50" height="50" rx="8"></rect>
            <g filter="url(#filter-1)" id="checklist">
                <g transform="translate(6.000000, 6.000000)">
                    <polygon id="Path" points="36 36 0 36 0 0 36 0"></polygon>
                    <g id="Group" stroke-linecap="round" stroke-linejoin="round" transform="scale(1.55) translate(0.000000, 0.000000)">
                        <rect width="24" height="24" fill="none"/>
                        <path d="M13,9h4" fill="none" stroke="#323232" stroke-linecap="round" stroke-linejoin="round" stroke-width="1"/>
                        <path d="M10,21H8a5,5,0,0,1-5-5V8A5,5,0,0,1,8,3h8a5,5,0,0,1,5,5v2" fill="none" stroke="#323232" stroke-linecap="round" stroke-linejoin="round" stroke-width="1"/>
                        <path d="M7,8.726l.919.828,1.85-1.666" fill="none" stroke="#323232" stroke-linecap="round" stroke-linejoin="round" stroke-width="1"/>
                        <path d="M7,13.726l.919.828,1.85-1.666" fill="none" stroke="#323232" stroke-linecap="round" stroke-linejoin="round" stroke-width="1"/>
                        <path d="M14,21.5v-.406A2.1,2.1,0,0,1,16.094,19h2.812A2.1,2.1,0,0,1,21,21.094V21.5a.5.5,0,0,1-.5.5h-6A.5.5,0,0,1,14,21.5Z" fill="none" stroke="#323232" stroke-linecap="round" stroke-linejoin="round" stroke-width="1"/>
                        <circle cx="17.5" cy="14.75" r="2" fill="none" stroke="#323232" stroke-linecap="round" stroke-linejoin="round" stroke-width="1"/>
                    </g>
                    <!-- <path fill="none" d="M0 0h24v24h-24Z"></path> -->
                </g>
            </g>
        </g>
    </g>
</svg>