<?xml version="1.0" encoding="UTF-8"?>
<svg width="24px" height="24px" viewBox="0 0 24 24" version="1.1" xmlns="http://www.w3.org/2000/svg" xmlns:xlink="http://www.w3.org/1999/xlink">
    <title>826E4304-D61F-4BB4-8589-D307E64D75A7</title>
    <g id="Preço" stroke="none" stroke-width="1" fill="none" fill-rule="evenodd" opacity="0.5">
        <g id="Desktop-/-Home---Página-de-Preço-v7" transform="translate(-120.000000, -665.000000)">
            <g id="Group-9" transform="translate(112.000000, 655.000000)">
                <g id="Group-9-Copy-3" transform="translate(0.000000, 2.000000)">
                    <g id="checkmark-done-check-square" style="mix-blend-mode: overlay;" transform="translate(8.000000, 8.000000)">
                        <g id="Group" stroke-linecap="round" stroke-linejoin="round" transform="translate(3.000000, 3.000000)" stroke="#FFFFFF" stroke-width="1.5">
                            <line x1="5" y1="13" x2="13" y2="13" id="Path"></line>
                            <polyline id="Path" points="12.5 5.2 8.1 9.6 5.5 7"></polyline>
                            <path d="M14,18 L4,18 C1.8,18 0,16.2 0,14 L0,4 C0,1.8 1.8,0 4,0 L14,0 C16.2,0 18,1.8 18,4 L18,14 C18,16.2 16.2,18 14,18 Z" id="Path"></path>
                        </g>
                        <polygon id="Path" opacity="0" points="0 0 24 0 24 24 0 24"></polygon>
                    </g>
                </g>
            </g>
        </g>
    </g>
</svg>