<?xml version="1.0" encoding="UTF-8"?>
<svg width="99px" height="40px" viewBox="0 0 99 40" version="1.1" xmlns="http://www.w3.org/2000/svg" xmlns:xlink="http://www.w3.org/1999/xlink">
    <title>oitchau</title>
    <g id="oitchau" stroke="none" stroke-width="1" fill="none" fill-rule="evenodd">
        <g id="Shape" transform="translate(-0.000000, 5.000000)" fill="#121E48">
            <path d="M91.4552319,16.4040698 C91.4543541,17.9048565 92.3580541,19.2582409 93.7445832,19.8326092 C95.1311122,20.4069774 96.7271312,20.0890991 97.7877907,19.0273256 C98.4836406,18.3316713 98.8745315,17.3880118 98.8744186,16.4040698 L98.8744186,10.8709302 C98.8704678,10.7322808 98.7589983,10.6208112 98.6203488,10.6168598 L97.3715116,10.6168598 C97.2311928,10.6168598 97.1174419,10.7306114 97.1174419,10.8709302 L97.1174419,16.325 C97.1501508,17.0385972 96.7880749,17.712442 96.174958,18.0790188 C95.5618411,18.4455956 94.7968798,18.4455956 94.1837629,18.0790188 C93.570646,17.712442 93.2085702,17.0385972 93.2412791,16.325 L93.2412791,10.8715116 C93.241589,10.8039802 93.2149393,10.7391168 93.1672414,10.6913098 C93.1195436,10.6435028 93.0547413,10.6167049 92.9872093,10.6168598 L91.7383721,10.6168598 C91.5997227,10.6208112 91.4882531,10.7322808 91.4843023,10.8709302 L91.4552319,16.4040698 L91.4552319,16.4040698 Z M81.9337209,16.75 L83.2372093,13.8354651 L83.2744186,13.8354651 L84.6110465,16.7494186 L81.9337209,16.7494186 L81.9337209,16.75 Z M87.7087209,19.5848837 L83.6034884,10.6296512 C83.5700926,10.5358114 83.4777605,10.4761654 83.3784884,10.4843023 L83.2453488,10.4843023 C83.1468011,10.4826009 83.0567122,10.539764 83.0162791,10.6296512 L78.852907,19.5848837 C78.8136553,19.6613935 78.81854,19.7530931 78.8656977,19.825 C78.9135373,19.8965745 78.9961069,19.9369715 79.0819767,19.930814 L80.2395349,19.930814 C80.4111465,19.9297759 80.5646891,19.823956 80.6267442,19.6639535 L81.2802326,18.227907 L85.2604651,18.227907 L85.9139535,19.6639535 C85.9663032,19.8313624 86.1260844,19.9414819 86.3011628,19.930814 L87.4587209,19.930814 C87.5481238,19.9463765 87.6385327,19.9093088 87.6912791,19.8354651 C87.7442002,19.7620252 87.7509574,19.6649471 87.7087209,19.5848837 L87.7087209,19.5848837 Z M66.9953488,19.6802326 C66.9993867,19.8181747 67.1114292,19.9284226 67.2494186,19.9302326 L68.4988372,19.9302326 C68.5657904,19.9313254 68.6303709,19.9054506 68.6780472,19.8584304 C68.7257234,19.8114103 68.7524906,19.7471944 68.7523256,19.6802326 L68.7523256,16.0209302 L73.0947674,16.0209302 L73.0947674,19.697093 C73.0949163,19.7640593 73.1218635,19.8281799 73.1695967,19.8751485 C73.2173299,19.9221171 73.2818772,19.9480254 73.3488372,19.9471173 L74.5726744,19.9471173 C74.7106638,19.945283 74.8227064,19.8350352 74.8267442,19.697093 L74.8267442,10.872093 C74.8227934,10.7334436 74.7113238,10.621974 74.5726744,10.6180233 L73.3488372,10.6180233 C73.2087451,10.6180229 73.095088,10.7314199 73.0947674,10.8715116 L73.0947674,14.3976744 L68.7401163,14.3976744 L68.7401163,10.8715116 C68.7402711,10.8040808 68.7135529,10.7393671 68.6658719,10.6916862 C68.618191,10.6440053 68.5534774,10.617287 68.4860465,10.6174412 L67.2372093,10.6174412 C67.0985599,10.6213926 66.9870903,10.7328622 66.9831395,10.8715116 L66.9953488,19.6813953 L66.9953488,19.6802326 Z M30.0418605,18.3360465 C28.3908622,18.2803148 27.0812761,16.9257758 27.0812761,15.2738372 C27.0812761,13.6218986 28.3908622,12.2673596 30.0418605,12.2116279 C31.6928587,12.2673596 33.0024449,13.6218986 33.0024449,15.2738372 C33.0024449,16.9257758 31.6928587,18.2803148 30.0418605,18.3360465 Z M30.0418605,10.4836772 C27.3965835,10.4834086 25.2513094,12.6264399 25.2488527,15.2717157 C25.2464002,17.9169916 27.3876934,20.0640005 30.0329664,20.0686048 C32.6782394,20.0731943 34.8269818,17.9336405 34.8338063,15.2883721 C34.8413388,14.0131916 34.3387025,12.7879162 33.4377624,11.8854472 C32.5368223,10.9829783 31.3124009,10.4782652 30.0372093,10.4836772 L30.0418605,10.4836772 L30.0418605,10.4836772 Z M54.3761604,15.2883721 C54.3748821,16.5610824 54.8821694,17.7815491 55.7852183,18.6783745 C56.6882672,19.5752 57.9122127,20.0740353 59.1848837,20.0639535 C60.3910804,20.0765386 61.5535355,19.6127265 62.4197674,18.7732558 C62.4674857,18.7258838 62.4943229,18.6614255 62.4943229,18.594186 C62.4943229,18.5269466 62.4674857,18.4624882 62.4197674,18.4151163 L61.5872093,17.5825581 C61.4939806,17.4935952 61.3472985,17.4935952 61.2540698,17.5825581 C60.6844169,18.0642596 59.9645788,18.3321685 59.2186047,18.3401163 C58.413357,18.332209 57.6447195,18.0025701 57.0839334,17.4246382 C56.5231473,16.8467064 56.2167994,16.0684927 56.2331395,15.2633721 C56.2120827,14.4567433 56.5143528,13.6751675 57.0726703,13.0926085 C57.6309879,12.5100495 58.3990187,12.1748532 59.205814,12.1616279 C59.9607642,12.1699483 60.6876247,12.4490974 61.2540698,12.9482558 C61.2947384,12.9988763 61.3559988,13.0285459 61.4209302,13.0290698 C61.4857748,13.0288745 61.5469916,12.9991222 61.5872093,12.9482558 L62.3994186,12.1156977 C62.4817043,12.0430282 62.5075618,11.9254941 62.4633721,11.825 C62.4481676,11.792913 62.4263771,11.7643872 62.3994186,11.7412791 C61.5340289,10.9129108 60.3743578,10.4633107 59.1767442,10.4918605 C57.9039725,10.4909349 56.6830049,10.995853 55.7826375,11.8954571 C54.8822702,12.7950611 54.3763167,14.0156 54.3761604,15.2883721 L54.3761604,15.2883721 Z M46.9069767,19.6802326 C46.9110248,19.818397 47.0234123,19.9287318 47.1616279,19.9302326 L48.4104651,19.9302326 C48.5483309,19.9281268 48.6602033,19.8180464 48.6645349,19.6802326 L48.6645349,12.2122093 L50.7040698,12.2122093 C50.842141,12.2122093 50.9541249,12.1002805 50.9541249,11.9622093 L50.9541249,10.8715116 C50.9554819,10.8044118 50.9297295,10.7395867 50.882657,10.6917479 C50.8355844,10.6439091 50.7711836,10.6171134 50.7040698,10.6174389 L44.8755814,10.6174389 C44.7352625,10.6174389 44.6215116,10.7311928 44.6215116,10.8715116 L44.6215116,11.9622093 C44.6215116,12.0292246 44.6483999,12.0934377 44.6961679,12.1404406 C44.7439359,12.1874434 44.808575,12.2133002 44.8755814,12.2122093 L46.9075581,12.2122093 L46.9075581,19.6802326 L46.9069767,19.6802326 Z M38.6511628,19.6802326 C38.6553962,19.8165117 38.7648837,19.9259991 38.9011628,19.9302326 L40.15,19.9302326 C40.2878658,19.9281268 40.3997382,19.8180464 40.4040698,19.6802326 L40.4040698,10.8715116 C40.3995481,10.7331089 40.2884027,10.6219635 40.15,10.6174419 L38.9011628,10.6174419 C38.763349,10.6217734 38.6532685,10.7336458 38.6511628,10.8715116 L38.6511628,19.6813953 L38.6511628,19.6802326 Z"></path>
            <path d="M12.5232558,18.2040698 C12.1176163,19.8299331 10.8686641,21.1118535 9.25391874,21.5597065 C7.63917336,22.0075596 5.9083513,21.552086 4.7232081,20.3674297 C3.53806491,19.1827733 3.08188019,17.4521386 3.52906977,15.8372093 C4.2058674,13.3811935 6.73268937,11.9268361 9.19633391,12.5753145 C11.6599785,13.2237929 13.143329,15.7337044 12.5232558,18.2046512 L12.5232558,18.2040698 Z M15.7872093,19.0784884 C14.7293623,22.9538809 10.972055,25.452624 6.98907735,24.9295594 C3.00609968,24.4064947 0.0213625458,21.0223524 0,17.0052326 L0,10.6680233 C1.3960727,10.6705619 2.52843752,11.7992915 2.53546512,13.1953488 L2.53546512,17.0052326 C2.49620525,19.7936038 4.55144658,22.1694085 7.31643323,22.5319055 C10.0814199,22.8944026 12.6796267,21.1286772 13.3604651,18.4244186 L15.8581395,9.17732558 C15.974874,8.7392598 16.3164464,8.39674742 16.7541897,8.27880953 C17.191933,8.16087165 17.6593436,8.28542583 17.9803525,8.60555372 C18.3013614,8.92568161 18.4271996,9.39274818 18.3104651,9.83081395 L15.7872093,19.077907 L15.7872093,19.0784884 Z M13.2895349,15.3854651 L16.0331395,5.16453488 C16.1677985,4.72141406 16.0500434,4.24012676 15.7260088,3.90923308 C15.4019741,3.57833939 14.9232586,3.45053031 14.4774147,3.57587922 C14.0315708,3.70122814 13.6895941,4.0597747 13.5854651,4.51104651 L11.3866279,12.6587209 C12.2840491,13.3507276 12.9458035,14.3030529 13.2813953,15.3854651 L13.2895349,15.3854651 Z M10.65,12.1837209 L13.3226744,2.175 C13.4573334,1.73187918 13.3395783,1.25059188 13.0155437,0.919698194 C12.691509,0.588804511 12.2127935,0.460995424 11.7669496,0.586344339 C11.3211057,0.711693254 10.979129,1.07023981 10.875,1.52151163 L8.18023256,11.5133721 C8.60290698,11.5261628 9.02209302,11.5889535 9.42965116,11.7011628 C9.85073117,11.814914 10.2572917,11.9768359 10.6412791,12.1837209 L10.6494186,12.1837209 L10.65,12.1837209 Z M7.31918605,11.5761628 L9.35523256,3.95290698 C9.47196702,3.5148412 9.3461288,3.04777464 9.02511994,2.72764674 C8.70411108,2.40751885 8.23670046,2.28296467 7.79895714,2.40090256 C7.36121382,2.51884044 7.01964143,2.86135283 6.90290698,3.2994186 L4.29651163,12.9872093 C5.12989421,12.2195285 6.17931956,11.7268872 7.30232558,11.5761628 L7.31918605,11.5761628 L7.31918605,11.5761628 Z M10.075,17.5505814 C9.85706727,18.3787106 9.16130765,18.9937237 8.3126912,19.1083653 C7.46407474,19.2230069 6.63006615,18.8146537 6.20020773,18.0740362 C5.77034932,17.3334187 5.82946869,16.4066892 6.34995284,15.7266974 C6.87043698,15.0467056 7.74957433,14.7476401 8.57674419,14.969186 C9.70040951,15.2721259 10.3695311,16.4245308 10.0755814,17.5505814 L10.075,17.5505814 Z"></path>
        </g>
    </g>
</svg>