<?xml version="1.0" encoding="UTF-8"?>
<svg width="65px" height="16px" viewBox="0 0 65 16" version="1.1" xmlns="http://www.w3.org/2000/svg" xmlns:xlink="http://www.w3.org/1999/xlink">
    <title>AEVO _ Logo</title>
    <g id="Symbols" stroke="none" stroke-width="1" fill="none" fill-rule="evenodd">
        <g id="marcas-/-parceiros-final-copy-4" transform="translate(-54.000000, -12.000000)">
            <g id="AEVO-_-Logo" transform="translate(51.000000, 10.000000)">
                <rect id="Rectangle" x="0" y="0" width="70.4762222" height="20"></rect>
                <g id="Group" transform="translate(2.976222, 2.856922)" fill="#121E48" fill-rule="nonzero">
                    <path d="M64.0581112,4.36785577 C63.3451159,2.65438615 61.9897104,1.28809278 60.2820001,0.561411323 C59.4111404,0.18400323 58.4709824,-0.00712425248 57.521889,0.000300211818 C56.5628511,-0.00864629197 55.6124821,0.182456818 54.7314446,0.561411323 C53.023741,1.28810276 51.6683388,2.65439284 50.9553334,4.36785577 C50.2072058,6.14237551 50.2072058,8.14378047 50.9553334,9.91830021 C51.3184243,10.7624737 51.8323836,11.533375 52.4720001,12.1931891 C53.1229195,12.8404301 53.8893707,13.3599526 54.7316668,13.7248558 C55.6127043,14.1038103 56.5630733,14.2949134 57.5221112,14.2859669 C58.4704716,14.2859595 59.4091358,14.0951357 60.2822223,13.7248558 C61.1234303,13.3579742 61.8895349,12.8386866 62.541889,12.1931891 C64.5644995,10.1215173 65.1607057,7.04513006 64.0584446,4.36785577 L64.0581112,4.36785577 Z M62.753889,7.12796688 C62.7603761,7.83137519 62.6209608,8.52848949 62.3444446,9.17530021 C61.8138782,10.4338168 60.8125167,11.4351783 59.5540001,11.9657447 C58.9116146,12.2392972 58.2200854,12.3786315 57.521889,12.3751891 C56.8137398,12.380142 56.1119995,12.2408298 55.4594446,11.9657447 C54.8322433,11.7018067 54.2609775,11.3209628 53.7761112,10.8435224 C53.2989643,10.3641933 52.9180292,9.7979201 52.653889,9.17530021 C52.107926,7.86500836 52.107926,6.3909254 52.653889,5.08063355 C52.9180292,4.45801366 53.2989643,3.89174044 53.7761112,3.41241132 C54.7727317,2.42615422 56.1197741,1.87534209 57.521889,1.88068239 C58.2200854,1.87730222 58.9116146,2.01663653 59.5540001,2.2901891 C60.8125167,2.82075545 61.8138782,3.82211693 62.3444446,5.08063355 C62.6194988,5.72789676 62.7588525,6.42470316 62.753889,7.12796688 L62.753889,7.12796688 Z" id="Shape"></path>
                    <path d="M11.7834446,12.9363002 L11.7834446,12.9363002 L5.94444456,0.000300211818 L0.0910001145,12.9363002 L0.0910001145,12.9363002 C0.037744269,13.0507246 0.00685644165,13.1742759 1.57898386e-15,13.3003002 C1.57898386e-15,13.5296013 0.0909193781,13.7495447 0.253059741,13.911685 C0.415200104,14.0738254 0.635143489,14.16483 0.864444559,14.16483 C1.1830575,14.1692776 1.47676754,13.9930257 1.62266678,13.7097447 L1.62266678,13.7097447 L1.65300011,13.649078 L1.65300011,13.6336335 L5.91444456,4.35252243 L10.175889,13.6336335 L10.175889,13.6487447 L10.2062223,13.7094113 L10.2062223,13.7094113 C10.3580599,13.9870578 10.6480098,14.1610532 10.9644446,14.1644113 C11.1937456,14.1645293 11.413689,14.0734921 11.5758294,13.9113517 C11.7379697,13.7492113 11.829007,13.5292679 11.828889,13.2999669 C11.8675772,13.177925 11.8509752,13.0450688 11.7834446,12.9363002 L11.7834446,12.9363002 Z" id="Path"></path>
                    <path d="M25.6900001,12.4357447 L20.2153334,12.4357447 L20.2153334,7.11274466 L23.5365557,7.11274466 C24.0139752,7.11274466 24.4010001,6.7257197 24.4010001,6.24830021 C24.4010001,5.77088073 24.0139752,5.38385577 23.5365557,5.38385577 L20.2153334,5.38385577 L20.2153334,1.74430021 L25.0375557,1.74430021 C25.5095717,1.73673195 25.8882508,1.3519325 25.8882508,0.879855767 C25.8882508,0.407779036 25.5095717,0.022979581 25.0375557,0.0154112084 L19.3812223,0.0154112084 C19.1519213,0.0154112084 18.9319779,0.106330586 18.7698375,0.26847095 C18.6076972,0.430611313 18.5166599,0.650554697 18.5167778,0.879855767 L18.5167778,13.3154113 C18.5166599,13.5447124 18.6076972,13.7646558 18.7698375,13.9267961 C18.9319779,14.0889365 19.1519213,14.1798559 19.3812223,14.1798559 L25.6900001,14.1798559 C25.9193012,14.1798559 26.1392446,14.0889365 26.3013849,13.9267961 C26.4635253,13.7646558 26.5545625,13.5447124 26.5544447,13.3154113 C26.5505285,12.8371088 26.1681614,12.4480086 25.6900001,12.4357447 Z" id="Path"></path>
                    <path d="M41.4618891,8.93263355 C41.462007,8.70333247 41.3709697,8.48338909 41.2088294,8.32124873 C41.046689,8.15910836 40.8267456,8.06807112 40.5974446,8.0681891 C40.2788316,8.06365618 39.9851216,8.23990803 39.8392223,8.5231891 L39.8392223,8.5231891 L39.0961112,9.82741132 L34.8346668,0.546300212 L34.8346668,0.531189101 L34.803889,0.470411323 L34.803889,0.470411323 C34.652129,0.192902537 34.3623862,0.0189294158 34.0461112,0.0154112084 C33.8168102,0.0154112084 33.5968668,0.106330586 33.4347264,0.26847095 C33.272586,0.430611313 33.1815446,0.650554697 33.1816668,0.879855767 C33.1793237,1.0070962 33.2107215,1.13268743 33.2726668,1.24385577 L33.2726668,1.24385577 L39.1261112,14.1797447 L41.4161112,9.29652243 L41.4161112,9.29652243 C41.4397503,9.17642799 41.4550461,9.05484097 41.4618891,8.93263355 L41.4618891,8.93263355 Z" id="Path"></path>
                    <path d="M45.222889,0.894966878 C45.2259828,0.419675213 44.8487744,0.0289933856 44.3736668,0.0154109333 C44.0562758,0.0151163901 43.7622734,0.182285136 43.6002223,0.455189101 L43.6002223,0.455189101 L43.569889,0.500633545 C43.569889,0.515744656 43.5547779,0.515744656 43.5547779,0.530966878 L41.2344446,5.5051891 L41.2344446,5.5051891 C41.1862373,5.60980711 41.1604263,5.72334529 41.1586479,5.83852243 C41.155573,6.3138141 41.5327814,6.70449593 42.007889,6.71807799 C42.3466551,6.72230872 42.6560074,6.52624036 42.7967779,6.21807799 L42.7967779,6.21807799 L45.131889,1.25896688 L45.131889,1.25896688 C45.1938393,1.14780051 45.2252374,1.02220792 45.222889,0.894966878 L45.222889,0.894966878 Z" id="Path"></path>
                </g>
            </g>
        </g>
    </g>
</svg>