<?xml version="1.0" encoding="UTF-8"?>
<svg width="109px" height="10px" viewBox="0 0 109 10" version="1.1" xmlns="http://www.w3.org/2000/svg" xmlns:xlink="http://www.w3.org/1999/xlink">
    <title>endeavor</title>
    <g id="Symbols" stroke="none" stroke-width="1" fill="none" fill-rule="evenodd">
        <g id="marcas-/-parceiros-final-copy" transform="translate(-475.000000, -16.000000)" fill="#121E48" fill-rule="nonzero">
            <g id="Group" transform="translate(475.000000, 16.000000)">
                <g id="endeavor" transform="translate(0.058056, 0.000000)">
                    <polygon id="Path" points="81.5976032 0.202898551 76.9095872 9.75362319 75.5888149 9.75362319 70.6685752 0.202898551 73.194008 0.202898551 76.7209055 7.52173913 80.1171771 0.202898551"></polygon>
                    <path d="M40.7117177,4.76811594 C40.7117177,2.71014493 39.3183755,1.17391304 36.0817577,1.15942029 C35.2399467,1.15942029 34.7174434,1.17391304 34.252996,1.20289855 L34.252996,7.57971014 C34.252996,8.55072464 34.6884154,8.73913043 36.2123835,8.73913043 C38.7958722,8.75362319 40.7117177,7.10144928 40.7117177,4.76811594 Z M42.9468708,4.66666667 C42.9468708,7.30434783 40.7262317,9.65217391 36.2849534,9.65217391 L32.0904128,9.65217391 L32.0904128,0.202898551 L36.8655126,0.202898551 C41.1616511,0.202898551 42.9468708,2.53623188 42.9468708,4.66666667 L42.9468708,4.66666667 Z" id="Shape"></path>
                    <path d="M13.0770972,3.39130435 C13.0770972,2.26086957 11.8579228,0.956521739 9.95659121,0.956521739 C7.89560586,0.956521739 6.79254328,2.52173913 6.6183755,4.14492754 L11.7418109,4.14492754 C12.7432756,4.14492754 13.0770972,3.85507246 13.0770972,3.39130435 Z M15.2832224,4.26086957 C15.2832224,4.85507246 15.0219707,5.07246377 14.4414115,5.07246377 L6.60386152,5.07246377 C6.80705726,7.50724638 8.78095872,8.7826087 11.0451398,8.7826087 C12.3513981,8.76811594 13.6576565,8.50724638 14.8623169,7.98550725 L15.2106525,8.8115942 C13.5996005,9.52173913 11.8434088,9.88405797 10.0727031,9.85507246 C7.2424767,9.85507246 4.4412783,8.42028986 4.33968043,5.07246377 L0,5.07246377 L0.449933422,4.14492754 L4.39773635,4.14492754 C4.81864181,1.56521739 7.46018642,0 9.92756325,0 C13.8898802,0 15.2832224,2.7826087 15.2832224,4.26086957 L15.2832224,4.26086957 Z" id="Shape"></path>
                    <path d="M92.671771,4.92753623 C92.671771,2.60869565 91.1913449,0.927536232 88.8255659,0.927536232 C86.7355526,0.927536232 85.0083888,2.49275362 85.0083888,4.7826087 C85.0083888,7.23188406 86.5323569,8.92753623 88.8981358,8.92753623 C90.8865513,8.91304348 92.671771,7.52173913 92.671771,4.92753623 Z M94.8488682,4.92753623 C94.8488682,8.04347826 91.8154461,9.85507246 88.8545939,9.85507246 C85.8937417,9.85507246 82.8603196,8.04347826 82.8603196,4.92753623 C82.8603196,1.8115942 85.8937417,0 88.8545939,0 C91.8154461,0 94.8488682,1.79710145 94.8488682,4.92753623 L94.8488682,4.92753623 Z" id="Shape"></path>
                    <polygon id="Path" points="28.6360852 9.65217391 27.228229 9.65217391 19.7535286 2.52173913 19.7535286 9.65217391 18.3747004 9.65217391 18.3747004 0.202898551 20.4356858 0.202898551 27.257257 6.75362319 27.257257 0.202898551 28.6360852 0.202898551"></polygon>
                    <path d="M66.5030626,4.49275362 L66.5030626,6.50724638 C66.5030626,7.95652174 65.0806924,8.76811594 63.3535286,8.76811594 C61.9311585,8.76811594 61.0893475,8.17391304 61.0893475,6.98550725 C61.0893475,4.92753623 64.7033289,4.49275362 66.4304927,4.49275362 L66.5030626,4.49275362 Z M66.2998668,3.69565217 C62.7149134,3.69565217 58.8832224,4.72463768 58.8832224,7.08695652 C58.8832224,8.60869565 60.0443409,9.84057971 62.2359521,9.84057971 C64.1082557,9.84057971 65.6177097,9.15942029 66.4885486,8.69565217 L66.4885486,9.65217391 L68.6511318,9.65217391 L68.6511318,4.01449275 C68.6511318,0.971014493 66.9094541,0 64.2824234,0 C62.4391478,0 60.7845539,0.362318841 59.4492676,0.971014493 L59.8121172,1.89855072 C60.9587217,1.34782609 62.308522,0.985507246 63.4841545,0.985507246 C65.6612517,0.985507246 66.4885486,2.23188406 66.4885486,3.72463768 L66.2998668,3.69565217 Z" id="Shape"></path>
                    <path d="M99.7110519,4.94202899 L99.7110519,1.11594203 C100.190013,1.08695652 100.610919,1.05797101 101.031824,1.05797101 C103.005726,1.07246377 103.818509,1.71014493 103.818509,2.95652174 C103.818509,4.46376812 102.352597,4.92753623 100.146471,4.92753623 L99.7110519,4.92753623 L99.7110519,4.94202899 L99.7110519,4.94202899 Z M97.5484687,0.202898551 L97.5484687,9.65217391 L99.7110519,9.65217391 L99.7110519,5.84057971 C100.117443,5.84057971 100.364181,5.84057971 100.857656,5.84057971 C103.063782,8.02898551 104.950599,9.50724638 108.550067,9.8115942 L108.869374,9.20289855 C106.256858,8.49275362 104.29747,6.65217391 103.107324,5.42028986 C104.544208,5.10144928 105.981092,4.37681159 105.981092,2.63768116 C105.981092,1.36231884 104.878029,0.188405797 101.568842,0.188405797 L97.5484687,0.202898551 Z" id="Shape"></path>
                    <path d="M53.9920107,3.39130435 C53.9920107,2.26086957 52.7728362,0.956521739 50.8569907,0.956521739 C48.7960053,0.956521739 47.6929427,2.50724638 47.518775,4.14492754 L52.6422104,4.14492754 C53.6436751,4.14492754 53.9920107,3.85507246 53.9920107,3.39130435 Z M45.2545939,4.8115942 C45.2545939,2.05797101 47.9396804,0 50.8424767,0 C54.7902796,0 56.1836218,2.7826087 56.1836218,4.24637681 C56.1836218,4.84057971 55.9223702,5.05797101 55.3418109,5.05797101 L47.504261,5.05797101 C47.7074567,7.49275362 49.6813582,8.76811594 51.9455393,8.76811594 C53.2517976,8.75362319 54.5580559,8.49275362 55.7627164,7.97101449 L56.1110519,8.79710145 C54.5,9.50724638 52.7438083,9.86956522 50.9731025,9.84057971 C47.9396804,9.85507246 45.2545939,8.15942029 45.2545939,4.8115942 Z" id="Shape"></path>
                </g>
            </g>
        </g>
    </g>
</svg>