<?xml version="1.0" encoding="UTF-8"?>
<svg width="50px" height="50px" viewBox="0 0 50 50" version="1.1" xmlns="http://www.w3.org/2000/svg" xmlns:xlink="http://www.w3.org/1999/xlink">
    <title>icon 1</title>
    <defs>
        <filter id="filter-1">
            <feColorMatrix in="SourceGraphic" type="matrix" values="0 0 0 0 1.000000 0 0 0 0 1.000000 0 0 0 0 1.000000 0 0 0 1.000000 0"></feColorMatrix>
        </filter>
    </defs>
    <g id="Internas" stroke="none" stroke-width="1" fill="none" fill-rule="evenodd">
        <g id="Group-9">
            <rect id="Rectangle" fill="#940dff" x="0" y="0" width="50" height="50" rx="8"></rect>
            <g filter="url(#filter-1)" id="checklist">
                <g transform="translate(6.000000, 6.000000)">
                    <polygon id="Path" points="36 36 0 36 0 0 36 0"></polygon>
                    <g id="Group" stroke-linecap="round" stroke-linejoin="round" transform="scale(1.55) translate(0.000000, 0.000000)">
                        <path d="M11,21H6a1.99945,1.99945,0,0,1-2-2V8.5A1.50055,1.50055,0,0,1,5.5,7h13A1.50055,1.50055,0,0,1,20,8.5V11" fill="none" stroke="#323232" stroke-linecap="round" stroke-linejoin="round" stroke-width="1"/>
                        <path d="M18.243,20.4852A1.75869,1.75869,0,0,1,17,21h0a1.75869,1.75869,0,0,1-1.243-.5148l-2.10638-2.10638a2.2107,2.2107,0,0,1,3.12024-3.13255l.00615.00615.223.223.223-.223a2.2107,2.2107,0,1,1,3.13254,3.12025l-.00615.00615Z" fill="none" stroke="#323232" stroke-linecap="round" stroke-linejoin="round" stroke-width="1"/>
                        <path d="M8,7V6.75H8A3.75009,3.75009,0,0,1,11.75,3h.5A3.75009,3.75009,0,0,1,16,6.75h0V7" fill="none" stroke="#323232" stroke-linecap="round" stroke-linejoin="round" stroke-width="1"/>
                        <path d="M0,0H24V24H0Z" fill="none"/>
                    </g>
                    <!-- <path fill="none" d="M0 0h24v24h-24Z"></path> -->
                </g>
            </g>
        </g>
    </g>
</svg>