<?xml version="1.0" encoding="utf-8"?>
<!-- Generator: Adobe Illustrator 26.0.3, SVG Export Plug-In . SVG Version: 6.00 Build 0)  -->
<svg version="1.1" id="Camada_1" xmlns="http://www.w3.org/2000/svg" xmlns:xlink="http://www.w3.org/1999/xlink" x="0px" y="0px"
	 viewBox="0 0 24 24" style="enable-background:new 0 0 24 24;" xml:space="preserve">
<style type="text/css">
	.st0{fill:none;}
	.st1{fill:none;stroke:#E64BFF;stroke-width:1.5;stroke-linecap:round;stroke-linejoin:round;}
</style>
<g>
	<path class="st0" d="M0,0h24v24H0V0z"/>
	<path class="st1" d="M15,3v2"/>
	<path class="st1" d="M7,3v2"/>
	<path class="st1" d="M3,8h16"/>
	<path class="st1" d="M19,10V6c0-1.1-0.9-2-2-2H5C3.9,4,3,4.9,3,6v11c0,1.1,0.9,2,2,2h6"/>
	<path class="st1" d="M7,10.8c-0.1,0-0.2,0.1-0.2,0.2c0,0.1,0.1,0.2,0.2,0.2s0.2-0.1,0.2-0.2S7.1,10.8,7,10.8"/>
	<path class="st1" d="M7,14.8c-0.1,0-0.2,0.1-0.2,0.2c0,0.1,0.1,0.2,0.2,0.2s0.2-0.1,0.2-0.2S7.1,14.8,7,14.8"/>
	<path class="st1" d="M10.8,11c0,0.1,0.1,0.2,0.2,0.2c0.1,0,0.2-0.1,0.2-0.2s-0.1-0.2-0.2-0.2S10.8,10.9,10.8,11"/>
	<path class="st1" d="M17.3,20.7l4.4-4.4c0.4-0.4,0.4-1,0-1.4l-1.6-1.6c-0.4-0.4-1-0.4-1.4,0l-4.4,4.4c-0.2,0.2-0.3,0.4-0.3,0.7V21
		h2.6C16.9,21,17.1,20.9,17.3,20.7z"/>
</g>
</svg>
