<?xml version="1.0" encoding="UTF-8"?>
<svg width="143px" height="31px" viewBox="0 0 143 31" version="1.1" xmlns="http://www.w3.org/2000/svg" xmlns:xlink="http://www.w3.org/1999/xlink">
    <title>logo copy</title>
    <g id="Preço" stroke="none" stroke-width="1" fill="none" fill-rule="evenodd">
        <g id="Desktop-/-Home---Página-de-Preço" transform="translate(-790.000000, -1890.000000)">
            <g id="Group-15" transform="translate(728.000000, 1772.000000)">
                <g id="logo-1" transform="translate(62.000000, 118.000000)">
                    <g id="Group" transform="translate(40.085372, 2.899281)" fill="#202950" fill-rule="nonzero">
                        <polygon id="Path" points="16.071265 7.59760192 10.1104217 7.59760192 4.95128579 14.236211 4.95128579 0.988729017 0.0148464341 0.988729017 0.0148464341 24.7776978 4.95128579 24.7776978 4.95128579 17.9086331 10.4444664 24.7776978 16.2716918 24.7776978 9.16767309 16.0872902"></polygon>
                        <path d="M28.6610411,9.00263789 C27.3768246,7.76115108 25.6917543,7.13669065 23.6280999,7.13669065 C21.3417491,7.13669065 19.3597501,8.02134293 17.7266424,9.76834532 C16.1009578,11.5079137 15.2769807,13.671223 15.2769807,16.1913669 C15.2769807,18.7115108 16.1009578,20.8748201 17.7266424,22.6143885 C19.3597501,24.3613909 21.3417491,25.2460432 23.6280999,25.2460432 C25.6917543,25.2460432 27.3768246,24.6215827 28.6610411,23.3800959 L28.6610411,24.7851319 L33.5900573,24.7851319 L33.5900573,7.59760192 L28.6610411,7.59760192 L28.6610411,9.00263789 Z M27.45848,13.0764988 C28.2676106,13.8868106 28.6610411,14.9052758 28.6610411,16.1839329 C28.6610411,17.470024 28.2676106,18.4810552 27.45848,19.2913669 C26.6493493,20.1016787 25.6546382,20.4956835 24.414961,20.4956835 C23.1752837,20.4956835 22.1879958,20.1016787 21.3937116,19.2913669 L21.3937116,19.2913669 C20.5920042,18.4810552 20.2059969,17.4625899 20.2059969,16.1764988 C20.2059969,14.8904077 20.5920042,13.8719424 21.3937116,13.0616307 C22.1954191,12.2513189 23.1827069,11.8573141 24.414961,11.8573141 C25.6546382,11.8721823 26.6493493,12.2661871 27.45848,13.0764988 Z" id="Shape"></path>
                        <rect id="Rectangle" x="36.7746174" y="0" width="4.92901614" height="24.7776978"></rect>
                        <path d="M53.105695,7.12925659 C50.4704529,7.12925659 48.2880271,7.99904077 46.6029568,9.72374101 C44.9178865,11.4410072 44.0642166,13.6191847 44.0642166,16.1839329 C44.0642166,18.7709832 44.932733,20.9565947 46.6326497,22.6664269 C48.3399896,24.376259 50.6263404,25.2386091 53.4323165,25.2386091 C56.698532,25.2386091 59.2150026,23.9971223 60.9000729,21.558753 L61.107923,21.2539568 L57.0993857,18.9419664 L56.9212285,19.1798561 C56.149214,20.1983213 55.0283082,20.6964029 53.4991255,20.6964029 C51.3092764,20.6964029 49.9359813,19.9009592 49.3198542,18.2729017 L61.5681624,18.2729017 L61.6201249,17.9904077 C61.7314732,17.3585132 61.7908589,16.7489209 61.7908589,16.1839329 C61.7908589,13.6414868 60.9668818,11.4781775 59.3411973,9.74604317 C57.7006663,8.01390887 55.6073191,7.12925659 53.105695,7.12925659 Z M50.4778761,12.4446043 C51.1608121,11.9093525 52.0441749,11.6417266 53.105695,11.6417266 C53.996481,11.6417266 54.7981884,11.8944844 55.4959708,12.4 C56.0898282,12.8311751 56.5129516,13.4630695 56.7579178,14.2956835 L49.2307756,14.2956835 C49.4757418,13.522542 49.891442,12.8980815 50.4778761,12.4446043 Z" id="Shape"></path>
                        <path d="M77.112379,8.99520384 C75.8504321,7.76115108 74.172785,7.13669065 72.1091307,7.13669065 C69.8005102,7.13669065 67.8036648,8.02134293 66.1779802,9.76834532 C64.5522957,11.5079137 63.7283186,13.671223 63.7283186,16.1913669 C63.7283186,18.7115108 64.5522957,20.8748201 66.1779802,22.6143885 C67.811088,24.3613909 69.8079334,25.2460432 72.1091307,25.2460432 C74.1653618,25.2460432 75.8430088,24.6215827 77.112379,23.38753 L77.112379,24.7851319 L82.0413951,24.7851319 L82.0413951,0.99616307 L77.112379,0.99616307 L77.112379,8.99520384 Z M72.9034149,20.5031175 C71.6637376,20.5031175 70.6690265,20.1091127 69.8598959,19.298801 C69.0507652,18.4884892 68.6573347,17.470024 68.6573347,16.1913669 C68.6573347,14.9052758 69.0507652,13.8942446 69.8598959,13.0839329 C70.6690265,12.2736211 71.6637376,11.8796163 72.9034149,11.8796163 C74.1356689,11.8796163 75.13038,12.2736211 75.9246642,13.0839329 C76.7263717,13.8942446 77.112379,14.9127098 77.112379,16.198801 C77.112379,17.4848921 76.7263717,18.5033573 75.9246642,19.3136691 C75.1229568,20.1091127 74.1356689,20.5031175 72.9034149,20.5031175 Z" id="Shape"></path>
                        <path d="M99.8793857,9.75347722 C98.1275065,8.01390887 95.9599271,7.12925659 93.4434565,7.12925659 C90.9195627,7.12925659 88.7594066,8.01390887 87.0223738,9.75347722 C85.285341,11.4930456 84.4019781,13.6563549 84.4019781,16.1839329 C84.4019781,18.7115108 85.285341,20.8748201 87.0223738,22.6143885 C88.7594066,24.3539568 90.9195627,25.2386091 93.4434565,25.2386091 C95.9673503,25.2386091 98.1275065,24.3539568 99.8793857,22.6143885 L99.8793857,22.6143885 C101.631265,20.8748201 102.514628,18.7115108 102.514628,16.1839329 C102.514628,13.663789 101.623842,11.5004796 99.8793857,9.75347722 Z M97.5856117,16.1913669 C97.5856117,17.4328537 97.1996044,18.4215827 96.3978969,19.2170264 C95.5961895,20.0199041 94.6311713,20.4064748 93.4434565,20.4064748 C92.2483186,20.4064748 91.2907236,20.0199041 90.5038626,19.2170264 C89.7170016,18.4141487 89.3309943,17.4254197 89.3309943,16.1839329 C89.3309943,14.942446 89.7170016,13.953717 90.5038626,13.1508393 C91.2907236,12.3553957 92.2483186,11.9613909 93.4434565,11.9613909 C94.6385945,11.9613909 95.6036127,12.3479616 96.3978969,13.1508393 C97.1921812,13.9611511 97.5856117,14.9498801 97.5856117,16.1913669 Z" id="Shape"></path>
                    </g>
                    <g id="Group">
                        <path d="M7.78695471,0.0743405276 C3.52602811,0.0743405276 0.0742321707,3.53117506 0.0742321707,7.79832134 L0.0742321707,23.246283 C0.0742321707,27.5134293 3.52602811,30.9702638 7.78695471,30.9702638 C12.0478813,30.9702638 15.4996773,27.5134293 15.4996773,23.246283 L15.4996773,7.79832134 C15.4996773,3.53117506 12.0478813,0.0743405276 7.78695471,0.0743405276 Z M10.9789381,23.246283 C10.9789381,25.0155875 9.54625716,26.4429257 7.78695471,26.4429257 C6.02022905,26.4429257 4.59497137,25.0081535 4.59497137,23.246283 L4.59497137,7.79832134 C4.59497137,6.02901679 6.02765226,4.60167866 7.78695471,4.60167866 C9.55368037,4.60167866 10.9789381,6.03645084 10.9789381,7.79832134 L10.9789381,23.246283 Z" id="Shape" fill="#FF6362"></path>
                        <path d="M28.6610411,2.33429257 C25.647215,-0.683932854 20.7627382,-0.683932854 17.7563352,2.33429257 L2.33089016,17.7822542 C-0.682935971,20.8004796 -0.682935971,25.6920863 2.33089016,28.7028777 C5.34471629,31.7136691 10.2291931,31.7211031 13.235596,28.7028777 L28.6610411,13.2549161 C31.6748673,10.2441247 31.6748673,5.35251799 28.6610411,2.33429257 Z M10.0436127,25.506235 C8.79651223,26.7551559 6.76997397,26.7551559 5.5228735,25.506235 C4.27577303,24.2573141 4.27577303,22.2278177 5.5228735,20.9788969 L20.9483186,5.5383693 C22.1954191,4.28944844 24.2219573,4.28944844 25.4690578,5.5383693 C26.7161583,6.78729017 26.7161583,8.81678657 25.4690578,10.0657074 L10.0436127,25.506235 Z" id="Shape" fill="#00B2E3" fill-rule="nonzero"></path>
                        <path d="M23.2123998,15.5223022 C18.9514732,15.5223022 15.4996773,18.9791367 15.4996773,23.246283 C15.4996773,27.5134293 18.9514732,30.9702638 23.2123998,30.9702638 C27.4733264,30.9702638 30.9251223,27.5134293 30.9251223,23.246283 C30.9251223,18.9791367 27.4733264,15.5223022 23.2123998,15.5223022 Z M23.2123998,26.4429257 C21.4456741,26.4429257 20.0204164,25.0081535 20.0204164,23.246283 C20.0204164,21.4769784 21.4530973,20.0496403 23.2123998,20.0496403 C24.9791255,20.0496403 26.4043831,21.4844125 26.4043831,23.246283 C26.4043831,25.0155875 24.9791255,26.4429257 23.2123998,26.4429257 Z" id="Shape" fill="#FFD200"></path>
                    </g>
                </g>
            </g>
        </g>
    </g>
</svg>