<?xml version="1.0" encoding="UTF-8"?>
<svg width="94px" height="40px" viewBox="0 0 94 40" version="1.1" xmlns="http://www.w3.org/2000/svg" xmlns:xlink="http://www.w3.org/1999/xlink">
    <title>tiquetaque</title>
    <g id="tiquetaque" stroke="none" stroke-width="1" fill="none" fill-rule="evenodd">
        <g id="Group" transform="translate(0.000000, 11.000000)" fill="#121E48" fill-rule="nonzero">
            <g id="Group-61">
                <path d="M40.1010152,7.05888325 C39.3675127,6.33401015 38.4873096,5.96294416 37.4431472,5.96294416 C36.4076142,5.96294416 35.5187817,6.32538071 34.7852792,7.05888325 C34.2329949,7.60253807 33.8878173,8.24111675 33.7497462,8.95736041 L41.1192893,8.95736041 C40.9984772,8.23248731 40.6532995,7.60253807 40.1010152,7.05888325 Z M42.4827411,10.2258883 C42.3360406,10.3725888 42.1548223,10.4416244 41.9563452,10.4416244 L33.7670051,10.4416244 C33.9050761,11.157868 34.2502538,11.7878173 34.8025381,12.3401015 C35.5360406,13.0649746 36.4162437,13.4360406 37.4604061,13.4360406 C38.4010152,13.4360406 39.2035533,13.1426396 39.8766497,12.5472081 C40.0147208,12.4436548 40.1700508,12.3918782 40.3426396,12.3918782 C40.5497462,12.3918782 40.722335,12.4609137 40.8690355,12.6076142 C41.015736,12.7543147 41.093401,12.9269036 41.093401,13.1340102 C41.093401,13.3411168 41.0243655,13.5137056 40.877665,13.6690355 C39.9111675,14.5060914 38.7634518,14.928934 37.4517766,14.928934 C36.0020305,14.928934 34.7593909,14.419797 33.7411168,13.4015228 C32.7142132,12.3832487 32.2050761,11.1492386 32.2050761,9.70812183 C32.2050761,8.26700508 32.7142132,7.03299492 33.7411168,6.01472081 C34.7680203,4.9964467 36.0020305,4.48730964 37.4517766,4.48730964 C38.9015228,4.48730964 40.1441624,4.9964467 41.1624365,6.01472081 C42.1893401,7.03299492 42.6984772,8.26700508 42.6984772,9.70812183 C42.6984772,9.89796954 42.6294416,10.0791878 42.4827411,10.2258883 Z M31.2472081,14.7045685 C31.1005076,14.851269 30.9279188,14.9203046 30.7208122,14.9203046 C30.5137056,14.9203046 30.3411168,14.851269 30.1944162,14.7045685 C30.0477157,14.557868 29.9700508,14.3852792 29.9700508,14.1781726 L29.9700508,13.5741117 C29.0294416,14.480203 27.9076142,14.928934 26.5959391,14.928934 C25.2497462,14.928934 24.1020305,14.4543147 23.1527919,13.5050761 C22.2035533,12.5558376 21.7203046,11.4167513 21.7203046,10.0791878 L21.7203046,5.22944162 C21.7203046,5.02233503 21.7979695,4.84974619 21.9446701,4.70304569 C22.0913706,4.55634518 22.2639594,4.48730964 22.471066,4.48730964 C22.6781726,4.48730964 22.8507614,4.55634518 22.9974619,4.70304569 C23.1441624,4.84974619 23.2218274,5.02233503 23.2218274,5.22944162 L23.2218274,10.0791878 C23.2218274,11.0025381 23.5497462,11.7964467 24.2142132,12.4522843 C24.8700508,13.1081218 25.6725888,13.4360406 26.6045685,13.4360406 C27.5365482,13.4360406 28.3304569,13.1081218 28.9949239,12.4522843 C29.6507614,11.7964467 29.9873096,11.0025381 29.9873096,10.0791878 L29.9873096,5.22944162 C29.9873096,5.02233503 30.0649746,4.84974619 30.2116751,4.70304569 C30.3583756,4.55634518 30.5309645,4.48730964 30.7380711,4.48730964 C30.9451777,4.48730964 31.1177665,4.55634518 31.264467,4.70304569 C31.4111675,4.84974619 31.4888325,5.02233503 31.4888325,5.22944162 L31.4888325,14.186802 C31.4629442,14.3852792 31.3939086,14.557868 31.2472081,14.7045685 Z M15.9472081,10.8903553 L14.1695431,10.8903553 C13.7121827,10.8903553 13.3497462,10.5279188 13.3497462,10.0705584 C13.3497462,9.62182741 13.7208122,9.25076142 14.1695431,9.25076142 L15.1187817,9.25076142 L15.1187817,8.30152284 C15.1187817,7.85279188 15.4898477,7.48172589 15.9385787,7.48172589 C16.3959391,7.48172589 16.7583756,7.85279188 16.7583756,8.30152284 L16.7583756,10.0705584 C16.7670051,10.5192893 16.4045685,10.8903553 15.9472081,10.8903553 Z M8.77614213,14.7045685 C8.62944162,14.851269 8.45685279,14.9203046 8.24974619,14.9203046 C8.04263959,14.9203046 7.87005076,14.851269 7.72335025,14.7045685 C7.57664975,14.557868 7.49898477,14.3852792 7.49898477,14.1781726 L7.49898477,5.22081218 C7.49898477,5.01370558 7.5680203,4.84111675 7.72335025,4.69441624 C7.87005076,4.54771574 8.05126904,4.4786802 8.24974619,4.4786802 C8.45685279,4.4786802 8.62944162,4.54771574 8.77614213,4.69441624 C8.92284264,4.84111675 9.00050761,5.01370558 9.00050761,5.22081218 L9.00050761,14.1781726 C8.99187817,14.3852792 8.92284264,14.557868 8.77614213,14.7045685 Z M5.25532995,13.4274112 C5.46243655,13.4274112 5.63502538,13.4964467 5.78172589,13.6431472 C5.9284264,13.7898477 6.00609137,13.9624365 6.00609137,14.1695431 C6.00609137,14.3766497 5.9284264,14.5492386 5.78172589,14.6959391 C5.63502538,14.8426396 5.45380711,14.9116751 5.25532995,14.9116751 C2.75279188,14.9116751 1.50152284,13.6690355 1.50152284,11.1751269 L1.50152284,5.96294416 L0.750761421,5.96294416 C0.543654822,5.96294416 0.37106599,5.89390863 0.224365482,5.74720812 C0.0776649746,5.60050761 -2.58840568e-14,5.42791878 -2.58840568e-14,5.22081218 C-2.58840568e-14,5.01370558 0.0776649746,4.84111675 0.224365482,4.69441624 C0.37106599,4.54771574 0.543654822,4.4786802 0.750761421,4.4786802 L1.50152284,4.4786802 L1.50152284,0.74213198 C1.50152284,0.535025381 1.57918782,0.362436548 1.72588832,0.215736041 C1.87258883,0.069035533 2.05380711,-6.90241515e-14 2.25228426,-6.90241515e-14 C2.45939086,-6.90241515e-14 2.6319797,0.069035533 2.7786802,0.215736041 C2.92538071,0.362436548 3.00304569,0.535025381 3.00304569,0.74213198 L3.00304569,4.4786802 L4.51319797,4.4786802 C4.72030457,4.4786802 4.8928934,4.54771574 5.03959391,4.69441624 C5.18629442,4.84111675 5.26395939,5.01370558 5.26395939,5.22081218 C5.26395939,5.42791878 5.18629442,5.60050761 5.03959391,5.74720812 C4.8928934,5.89390863 4.72030457,5.96294416 4.51319797,5.96294416 L3.00304569,5.96294416 L3.00304569,11.1923858 C3.01167513,12.6852792 3.76243655,13.4274112 5.25532995,13.4274112 Z M8.90558376,2.89086294 C8.72436548,3.07208122 8.5,3.16700508 8.24111675,3.16700508 C7.9822335,3.16700508 7.76649746,3.07208122 7.57664975,2.89086294 C7.39543147,2.70964467 7.30050761,2.48527919 7.30050761,2.23502538 C7.30050761,1.97614213 7.39543147,1.76040609 7.57664975,1.57918782 C7.75786802,1.39796954 7.9822335,1.30304569 8.24111675,1.30304569 C8.5,1.30304569 8.71573604,1.39796954 8.90558376,1.57918782 C9.08680203,1.76040609 9.18172589,1.98477157 9.18172589,2.23502538 C9.18172589,2.48527919 9.08680203,2.70964467 8.90558376,2.89086294 Z M18.3807107,7.05888325 C17.6472081,6.33401015 16.7670051,5.96294416 15.7228426,5.96294416 C14.6873096,5.96294416 13.7984772,6.32538071 13.0649746,7.05888325 C12.3314721,7.78375635 11.9690355,8.66395939 11.9690355,9.69949239 C11.9690355,10.7350254 12.3314721,11.6152284 13.0649746,12.3401015 C13.7984772,13.0649746 14.6786802,13.4360406 15.7228426,13.4360406 C16.7583756,13.4360406 17.6472081,13.0736041 18.3807107,12.3401015 C19.1142132,11.6152284 19.4766497,10.7350254 19.4766497,9.69949239 C19.4766497,8.66395939 19.1142132,7.78375635 18.3807107,7.05888325 Z M19.442132,13.3928934 C18.6741117,14.1609137 17.7852792,14.635533 16.7670051,14.8253807 L16.7670051,16.119797 C16.7670051,16.5685279 16.3959391,16.9395939 15.9472081,16.9395939 C15.4898477,16.9395939 15.1274112,16.5771574 15.1274112,16.119797 L15.1274112,14.8944162 C13.9365482,14.7736041 12.9010152,14.2730964 12.0208122,13.3928934 C10.9939086,12.3746193 10.4847716,11.1406091 10.4847716,9.69949239 C10.4847716,8.25837563 10.9939086,7.02436548 12.0208122,6.00609137 C13.0477157,4.98781726 14.2817259,4.4786802 15.7314721,4.4786802 C17.1812183,4.4786802 18.4238579,4.98781726 19.442132,6.00609137 C20.4690355,7.02436548 20.9781726,8.25837563 20.9781726,9.69949239 C20.9781726,11.1406091 20.4690355,12.3746193 19.442132,13.3928934 Z" id="SVGID_9_"></path>
                <path d="M48.4888325,13.4274112 C48.6959391,13.4274112 48.8685279,13.4964467 49.0152284,13.6431472 C49.1619289,13.7898477 49.2395939,13.9624365 49.2395939,14.1695431 C49.2395939,14.3766497 49.1619289,14.5492386 49.0152284,14.6959391 C48.8685279,14.8426396 48.6873096,14.9116751 48.4888325,14.9116751 C45.9862944,14.9116751 44.7350254,13.6690355 44.7350254,11.1751269 L44.7350254,5.96294416 L43.984264,5.96294416 C43.7771574,5.96294416 43.6045685,5.89390863 43.457868,5.74720812 C43.3111675,5.60050761 43.2335025,5.42791878 43.2335025,5.22081218 C43.2335025,5.01370558 43.3111675,4.84111675 43.457868,4.69441624 C43.6045685,4.54771574 43.7857868,4.4786802 43.984264,4.4786802 L44.7350254,4.4786802 L44.7350254,0.74213198 C44.7350254,0.535025381 44.8040609,0.362436548 44.9593909,0.215736041 C45.1060914,0.069035533 45.2873096,-6.90241515e-14 45.4857868,-6.90241515e-14 C45.6928934,-6.90241515e-14 45.8654822,0.069035533 46.0121827,0.215736041 C46.1588832,0.362436548 46.2365482,0.535025381 46.2365482,0.74213198 L46.2365482,4.4786802 L47.7467005,4.4786802 C47.9538071,4.4786802 48.1263959,4.54771574 48.2730964,4.69441624 C48.419797,4.84111675 48.4974619,5.01370558 48.4974619,5.22081218 C48.4974619,5.42791878 48.419797,5.60050761 48.2730964,5.74720812 C48.1263959,5.89390863 47.9451777,5.96294416 47.7467005,5.96294416 L46.2365482,5.96294416 L46.2365482,11.1923858 C46.2365482,12.6852792 46.9873096,13.4274112 48.4888325,13.4274112 Z M57.3253807,7.05888325 C56.5918782,6.33401015 55.7116751,5.96294416 54.6675127,5.96294416 C53.6319797,5.96294416 52.7431472,6.32538071 52.0096447,7.05888325 C51.2761421,7.78375635 50.9137056,8.66395939 50.9137056,9.69949239 C50.9137056,10.7350254 51.2761421,11.6152284 52.0096447,12.3401015 C52.7431472,13.0649746 53.6233503,13.4360406 54.6675127,13.4360406 C55.7030457,13.4360406 56.5918782,13.0736041 57.3253807,12.3401015 C58.0588832,11.6152284 58.4213198,10.7350254 58.4213198,9.69949239 C58.4299492,8.66395939 58.0588832,7.78375635 57.3253807,7.05888325 Z M59.7071066,14.7045685 C59.5604061,14.851269 59.3791878,14.9203046 59.1807107,14.9203046 C58.9736041,14.9203046 58.8010152,14.851269 58.6543147,14.7045685 C58.5076142,14.557868 58.4299492,14.3852792 58.4299492,14.1781726 L58.4299492,13.3583756 C57.3771574,14.4025381 56.1258883,14.928934 54.6761421,14.928934 C53.2263959,14.928934 51.9837563,14.419797 50.9568528,13.4015228 C49.9299492,12.3832487 49.4208122,11.1492386 49.4208122,9.70812183 C49.4208122,8.26700508 49.9299492,7.03299492 50.9568528,6.01472081 C51.9837563,4.9964467 53.2177665,4.48730964 54.6761421,4.48730964 C56.1258883,4.48730964 57.3685279,4.9964467 58.3954315,6.01472081 C59.422335,7.03299492 59.9314721,8.26700508 59.9314721,9.70812183 L59.9314721,14.186802 C59.9228426,14.3852792 59.8538071,14.557868 59.7071066,14.7045685 Z M90.2984772,7.05888325 C89.5649746,6.33401015 88.6847716,5.96294416 87.6406091,5.96294416 C86.5964467,5.96294416 85.7162437,6.32538071 84.9827411,7.05888325 C84.4304569,7.60253807 84.0852792,8.24111675 83.9472081,8.95736041 L91.3253807,8.95736041 C91.1959391,8.23248731 90.8507614,7.60253807 90.2984772,7.05888325 Z M92.680203,10.2258883 C92.5335025,10.3725888 92.3522843,10.4416244 92.1538071,10.4416244 L83.964467,10.4416244 C84.1025381,11.157868 84.4477157,11.7878173 85,12.3401015 C85.7335025,13.0649746 86.6137056,13.4360406 87.657868,13.4360406 C88.5984772,13.4360406 89.4010152,13.1426396 90.0827411,12.5472081 C90.2208122,12.4436548 90.3761421,12.3918782 90.548731,12.3918782 C90.7558376,12.3918782 90.9284264,12.4609137 91.0751269,12.6076142 C91.2218274,12.7543147 91.2994924,12.9269036 91.2994924,13.1340102 C91.2994924,13.3411168 91.2304569,13.5137056 91.0837563,13.6690355 C90.1172589,14.5060914 88.9695431,14.928934 87.657868,14.928934 C86.2081218,14.928934 84.9654822,14.419797 83.9385787,13.4015228 C82.9116751,12.3832487 82.4025381,11.1492386 82.4025381,9.70812183 C82.4025381,8.26700508 82.9116751,7.03299492 83.9385787,6.01472081 C84.9654822,4.9964467 86.1994924,4.48730964 87.657868,4.48730964 C89.1076142,4.48730964 90.3502538,4.9964467 91.3771574,6.01472081 C92.4040609,7.03299492 92.913198,8.26700508 92.913198,9.70812183 C92.8959391,9.89796954 92.8269036,10.0791878 92.680203,10.2258883 Z M68.5695431,7.05888325 C67.8360406,6.33401015 66.9558376,5.96294416 65.9116751,5.96294416 C64.8761421,5.96294416 63.9873096,6.32538071 63.2538071,7.05888325 C62.5203046,7.78375635 62.157868,8.66395939 62.157868,9.69949239 C62.157868,10.7350254 62.5203046,11.6152284 63.2538071,12.3401015 C63.9873096,13.0649746 64.8675127,13.4360406 65.9116751,13.4360406 C66.9472081,13.4360406 67.8360406,13.0736041 68.5695431,12.3401015 C69.3030457,11.6152284 69.6654822,10.7350254 69.6654822,9.69949239 C69.6654822,8.66395939 69.3030457,7.78375635 68.5695431,7.05888325 Z M69.6309645,13.3928934 C68.8370558,14.1781726 67.922335,14.6614213 66.8781726,14.8426396 L66.8781726,16.119797 C66.8781726,16.5685279 66.5071066,16.9395939 66.0583756,16.9395939 C65.6010152,16.9395939 65.2385787,16.5771574 65.2385787,16.119797 L65.2385787,14.8771574 C64.0822335,14.7390863 63.0639594,14.2472081 62.2096447,13.384264 C61.1827411,12.3659898 60.6736041,11.1319797 60.6736041,9.69086294 C60.6736041,8.24974619 61.1827411,7.01573604 62.2096447,5.99746193 C63.2365482,4.97918782 64.4705584,4.47005076 65.928934,4.47005076 C67.3786802,4.47005076 68.6213198,4.97918782 69.6482234,5.99746193 C70.6751269,7.01573604 71.184264,8.24974619 71.184264,9.69086294 C71.1670051,11.1406091 70.657868,12.3746193 69.6309645,13.3928934 Z M81.4360406,14.7045685 C81.2893401,14.851269 81.1167513,14.9203046 80.9096447,14.9203046 C80.7025381,14.9203046 80.5299492,14.851269 80.3832487,14.7045685 C80.2365482,14.557868 80.1588832,14.3852792 80.1588832,14.1781726 L80.1588832,13.5741117 C79.2182741,14.480203 78.0964467,14.928934 76.7847716,14.928934 C75.4385787,14.928934 74.2908629,14.4543147 73.3329949,13.5050761 C72.3751269,12.5558376 71.9005076,11.4167513 71.9005076,10.0791878 L71.9005076,5.22944162 C71.9005076,5.02233503 71.9695431,4.84974619 72.1248731,4.70304569 C72.2715736,4.55634518 72.4527919,4.48730964 72.651269,4.48730964 C72.8583756,4.48730964 73.0309645,4.55634518 73.177665,4.70304569 C73.3243655,4.84974619 73.4020305,5.02233503 73.4020305,5.22944162 L73.4020305,10.0791878 C73.4020305,11.0025381 73.7299492,11.7964467 74.3944162,12.4522843 C75.0502538,13.1081218 75.8527919,13.4360406 76.7847716,13.4360406 C77.7167513,13.4360406 78.5106599,13.1081218 79.1751269,12.4522843 C79.8309645,11.7964467 80.1675127,11.0025381 80.1675127,10.0791878 L80.1675127,5.22944162 C80.1675127,5.02233503 80.2365482,4.84974619 80.3918782,4.70304569 C80.5385787,4.55634518 80.7111675,4.48730964 80.9182741,4.48730964 C81.1253807,4.48730964 81.2979695,4.55634518 81.4446701,4.70304569 C81.5913706,4.84974619 81.6690355,5.02233503 81.6690355,5.22944162 L81.6690355,14.186802 C81.6604061,14.3852792 81.5827411,14.557868 81.4360406,14.7045685 Z M67.6979695,10.5106599 L66.748731,10.5106599 L66.748731,11.4598985 C66.748731,11.9086294 66.377665,12.2796954 65.928934,12.2796954 C65.4715736,12.2796954 65.1091371,11.9086294 65.1091371,11.4598985 L65.1091371,9.69086294 C65.1091371,9.24213198 65.480203,8.87106599 65.928934,8.87106599 L67.706599,8.87106599 C68.1639594,8.87106599 68.5263959,9.24213198 68.5263959,9.69086294 C68.5263959,10.1395939 68.1553299,10.5106599 67.6979695,10.5106599 Z" id="SVGID_13_"></path>
            </g>
        </g>
    </g>
</svg>