<?xml version="1.0" encoding="utf-8"?>
<!-- Generator: Adobe Illustrator 26.0.3, SVG Export Plug-In . SVG Version: 6.00 Build 0)  -->
<svg version="1.1" id="Camada_1" xmlns="http://www.w3.org/2000/svg" xmlns:xlink="http://www.w3.org/1999/xlink" x="0px" y="0px"
	 viewBox="0 0 24 24" style="enable-background:new 0 0 24 24;" xml:space="preserve">
<style type="text/css">
	.st0{fill:none;stroke:#4BA9FF;stroke-width:1.5;stroke-linecap:round;stroke-linejoin:round;}
	.st1{fill:none;}
</style>
<g>
	<path class="st0" d="M9.7,18.3v0.4c0,1.3,1,2.3,2.3,2.3l0,0c1.3,0,2.3-1,2.3-2.3v-0.4"/>
	<path class="st0" d="M13.8,5.8V4.8C13.8,3.8,13,3,12,3l0,0c-1,0-1.8,0.8-1.8,1.8v0.9"/>
	<path class="st0" d="M6.6,10.2L6.6,10.2c0-2.5,2-4.5,4.5-4.5h1.8c2.5,0,4.5,2,4.5,4.5l0,0V13c0,0.5,0.2,1,0.6,1.4l0.6,0.6
		c0.4,0.4,0.6,0.9,0.6,1.4l0,0c0,1-0.8,1.9-1.9,1.9H6.6c-1,0-1.9-0.8-1.9-1.9l0,0c0-0.5,0.2-1,0.6-1.4L6,14.4
		C6.4,14,6.6,13.5,6.6,13C6.6,13,6.6,10.2,6.6,10.2z"/>
</g>
<path class="st1" d="M0,0h24v24H0V0z"/>
</svg>
