<?xml version="1.0" encoding="UTF-8"?>
<svg width="73px" height="17px" viewBox="0 0 73 17" version="1.1" xmlns="http://www.w3.org/2000/svg" xmlns:xlink="http://www.w3.org/1999/xlink">
    <title>marcas / solides copy</title>
    <g id="Symbols" stroke="none" stroke-width="1" fill="none" fill-rule="evenodd">
        <g id="marcas-/-parceiros-final-copy" transform="translate(-938.000000, -10.000000)" fill="#121E48" fill-rule="nonzero">
            <g id="Group" transform="translate(938.000000, 10.000000)">
                <g id="logo.1e3da8f8" transform="translate(0.000000, -0.000000)">
                    <path d="M5.23889714,0.971694249 C6.72695,0.971694249 7.89781786,1.17214485 8.61770214,1.34036243 C9.12958857,1.45984667 9.44286286,1.99044243 9.27595357,2.48645607 C9.27199071,2.49903092 9.26724571,2.51082273 9.26328286,2.52340273 C9.11139071,2.95495546 8.65493214,3.20335122 8.205565,3.10116576 C7.61223143,2.96674728 6.64466857,2.79695334 5.53710214,2.79695334 C3.27374757,2.79695334 2.18517679,3.66634879 2.18517679,5.21493031 C2.18517679,6.84837273 4.021351,7.2304091 6.00706571,7.86631213 C7.99277,8.54548788 9.99901857,9.45735758 9.99901857,12.2360849 C9.99901857,15.0785364 8.14148143,16.6695303 4.64000514,16.6695303 C2.76664264,16.6695303 1.3465945,16.275697 0.604528642,16.0115788 C0.24932055,15.8850576 0.0119865996,15.554897 0.00170209884,15.1799182 C0.000910987409,15.1563758 0.00090944398,15.1320091 0.000118327337,15.1084152 C-0.00937502545,14.509397 0.553897928,14.0645121 1.1377415,14.2154515 C1.99372907,14.436297 3.3243835,14.718497 4.53320614,14.718497 C6.73247714,14.718497 7.77835857,13.8915758 7.77835857,12.3005818 C7.77835857,10.7944333 6.561605,10.2638273 5.08856407,9.79771819 C2.86790929,9.05564243 0.0285996788,8.52503637 0.0285996788,5.32182425 C0.0293907903,2.71127334 1.75876293,0.971694249 5.23889714,0.971694249 Z" id="Path"></path>
                    <path d="M16.1397264,5.08762092 C19.0857979,5.08762092 20.8792514,6.67863031 20.8792514,10.8786091 C20.8792514,15.0785879 19.0644714,16.6695818 16.1397264,16.6695818 C13.2149814,16.6695818 11.4001493,15.0785879 11.4001493,10.8786091 C11.4001493,6.67863031 13.2141471,5.08762092 16.1397264,5.08762092 Z M16.1397264,6.72107879 C14.5812286,6.72107879 13.5780521,7.61167273 13.5780521,10.8786091 C13.5780521,14.1455455 14.5812286,15.0361394 16.1397264,15.0361394 C17.6982243,15.0361394 18.67997,14.1455455 18.67997,10.8786091 C18.67997,7.61167273 17.6982243,6.72107879 16.1397264,6.72107879 Z M18.0202064,0.00881496974 C18.2250757,0.0410439303 18.4307793,0.103929249 18.6206314,0.188824673 C19.0755257,0.392417188 19.1934207,0.981971521 18.8540229,1.34592092 L17.0091564,3.32525152 C16.8074157,3.5414194 16.4933593,3.61924334 16.2164286,3.51391031 C16.208555,3.51076273 16.2006293,3.50762031 16.1927036,3.50447273 C15.7654971,3.33546698 15.6167857,2.80723061 15.87312,2.42834182 L17.3010521,0.321670915 C17.4600879,0.0882078546 17.7401471,-0.0352049848 18.0202064,0.00881496974 Z" id="Shape"></path>
                    <path d="M24.5833236,15.6223818 C24.5833236,16.1970333 24.1181571,16.6671091 23.540675,16.6702515 C23.5327493,16.6702515 23.5240414,16.6702515 23.5161157,16.6702515 C23.5090243,16.6702515 23.5010986,16.6702515 23.4940071,16.6702515 C22.9149086,16.6678818 22.4489079,16.1978061 22.4489079,15.6223818 L22.4489079,1.80798607 C22.4489079,1.23258243 22.9149086,0.762506673 23.4940071,0.76015243 C23.5010986,0.76015243 23.5090243,0.76015243 23.5161157,0.76015243 C23.5240414,0.76015243 23.5327493,0.76015243 23.540675,0.76015243 C24.1189914,0.763294855 24.5833236,1.23336546 24.5833236,1.80798607 L24.5833236,15.6223818 Z" id="Path"></path>
                    <path d="M29.3921986,2.42837273 C29.3921986,3.02578879 28.9088343,3.51472425 28.307575,3.51787182 C28.2988671,3.51787182 28.2909414,3.51787182 28.2822857,3.51787182 C28.27436,3.51787182 28.2672164,3.51787182 28.2593429,3.51787182 C27.6573014,3.51551243 27.1723207,3.02657698 27.1723207,2.42837273 L27.1723207,2.31675485 C27.1723207,1.71855576 27.6573014,1.22961516 28.2593429,1.22725576 C28.2672164,1.22725576 28.27436,1.22725576 28.2822857,1.22725576 C28.2909414,1.22725576 28.2988671,1.22725576 28.307575,1.22725576 C28.9088343,1.23040334 29.3921986,1.71933879 29.3921986,2.31675485 L29.3921986,2.42837273 Z M29.3494936,15.6225879 C29.3494936,16.1971879 28.884275,16.6672636 28.3067929,16.6704061 C28.2988671,16.6704061 28.2901593,16.6704061 28.2822857,16.6704061 C28.2751421,16.6704061 28.2672164,16.6704061 28.260125,16.6704061 C27.6810264,16.6680364 27.2150779,16.1979606 27.2150779,15.6225879 L27.2150779,6.55916667 C27.2150779,5.98379395 27.6810264,5.51371819 28.260125,5.51134849 C28.2672164,5.51134849 28.2751421,5.51134849 28.2822857,5.51134849 C28.2901593,5.51134849 28.2988671,5.51134849 28.3067929,5.51134849 C28.8851093,5.51449092 29.3494936,5.98456667 29.3494936,6.55916667 L29.3494936,15.6225879 Z" id="Shape"></path>
                    <path d="M39.3162357,0.547600915 C39.3090921,0.547600915 39.3020007,0.547600915 39.2948571,0.547600915 C39.2735307,0.547600915 39.2521521,0.547600915 39.2315557,0.547600915 C38.6635636,0.554673945 38.2062707,1.01295273 38.2062707,1.57735273 L38.2062707,3.30435182 L38.2062707,6.46515152 C37.5868657,5.59495758 36.6264464,5.08637425 35.1320321,5.08637425 C32.6985771,5.08637425 31.1187007,6.55004849 31.1187007,10.8773727 C31.1187007,15.204697 32.6985771,16.6683455 35.1320321,16.6683455 C36.733235,16.6683455 37.7150329,16.0952909 38.3344379,15.1622485 L38.3874671,15.5670546 L38.3969571,15.5662818 L38.40092,15.609503 C38.4555136,16.1715333 38.7996043,16.6039 39.2236821,16.6447515 C39.294075,16.6518606 39.3684307,16.6557758 39.4444029,16.6557758 C39.44993,16.6557758 39.454675,16.6557758 39.4602021,16.6557758 C39.9490936,16.6518606 40.3407396,16.1149697 40.3407396,15.4640758 L40.3407396,15.3760364 L40.3407396,15.2086121 L40.3407396,3.30513485 L40.3407396,1.57735273 C40.3415207,1.01295273 39.8842279,0.549960309 39.3162357,0.547600915 Z M38.2062707,12.2144485 C38.2062707,13.6781485 37.3740186,14.9295546 35.8796043,14.9295546 C34.1716129,14.9295546 33.3179821,14.0389606 33.3179821,10.8781455 C33.3179821,7.71738182 34.1716129,6.82596364 35.8796043,6.82596364 C37.3526921,6.82596364 38.1857264,8.05614546 38.2062707,9.47739698 L38.2062707,12.2144485 Z" id="Shape"></path>
                    <path d="M46.8142743,16.6703546 C43.5264064,16.6703546 41.989235,14.6548758 41.989235,10.8157091 C41.989235,6.80674849 43.8895293,5.08837819 46.7288121,5.08837819 C49.3545179,5.08837819 50.9557729,6.53083334 50.9557729,9.3520091 C50.9557729,10.6883636 50.720765,11.5372818 50.720765,11.5372818 L44.1877864,11.5372818 C44.3586586,14.0613697 45.3831614,14.8678909 47.1552364,14.8678909 L46.8142743,16.6703546 Z M47.1552364,14.8671182 C47.9716893,14.8671182 48.6385964,14.6886697 49.0816021,14.5243879 C49.5167343,14.3624242 50.0095886,14.562097 50.1859879,14.9897242 C50.191515,15.0022939 50.19626,15.0148636 50.201005,15.0274849 C50.3679664,15.4519182 50.1551193,15.9306485 49.7350564,16.1138364 C49.1543936,16.3669303 48.1742121,16.6711273 46.8134921,16.6711273 L47.1552364,14.8671182 Z M46.6497114,6.76347576 C45.2620857,6.76347576 44.28034,7.67534546 44.1094679,10.0304121 L48.6781207,10.0304121 C48.6994993,9.86061819 48.7422043,9.52103031 48.7422043,9.07609395 C48.7422043,7.82391516 48.23037,6.76347576 46.6497114,6.76347576 Z" id="Shape"></path>
                    <path d="M56.2251214,5.08762607 C57.2961357,5.08762607 58.0600286,5.23775152 58.5501714,5.38477576 C59.0032929,5.52072425 59.2561857,6.00105152 59.1091429,6.44830607 C59.10445,6.46324546 59.0992357,6.47818485 59.0940214,6.49312425 C58.9548,6.88850304 58.5308786,7.11017273 58.11895,7.01899092 C57.7044143,6.9278091 57.1000786,6.82720001 56.4394286,6.82720001 C54.9877714,6.82720001 54.2614214,7.35780607 54.2614214,8.35452122 C54.2614214,9.39373637 55.6061857,9.64842728 56.95095,10.0941364 C58.3384714,10.5397939 59.79065,11.1969727 59.79065,13.2761242 C59.79065,15.4189485 58.4453643,16.6704061 55.7344571,16.6704061 C54.3975143,16.6704061 53.3869857,16.3991788 52.7889071,16.1798788 C52.3775,16.0289394 52.1480714,15.5887424 52.2674786,15.168997 C52.2773857,15.1359758 52.2867714,15.1037273 52.2977214,15.0715303 C52.43955,14.643903 52.8942357,14.4017818 53.3311929,14.5243879 C53.8745214,14.6769242 54.7322714,14.8679424 55.6286071,14.8679424 C56.9306143,14.8679424 57.6783429,14.3797849 57.6783429,13.3405697 C57.6783429,12.1740606 56.5040857,11.9193697 55.2448357,11.5585576 C53.7931786,11.1340727 52.2132486,10.5193939 52.2132486,8.41901819 C52.2116857,6.4239394 53.5136929,5.08762607 56.2251214,5.08762607 Z" id="Path"></path>
                    <path d="M72.3695929,16.6702515 L62.39675,16.6702515 C62.0484357,16.6702515 61.7668643,16.3904212 61.7668643,16.0445485 C61.7668643,15.6986758 62.0484357,15.4188455 62.39675,15.4188455 L72.3695929,15.4188455 C72.7173857,15.4188455 72.9989571,15.6986758 72.9989571,16.0445485 C72.9989571,16.389597 72.7173857,16.6702515 72.3695929,16.6702515 Z" id="Path"></path>
                    <path d="M66.9264,10.0115061 L62.39675,10.0115061 C62.0484357,10.0115061 61.7668643,9.73167576 61.7668643,9.38580304 C61.7668643,9.03993031 62.0484357,8.76010001 62.39675,8.76010001 L66.9264,8.76010001 C67.2747143,8.76010001 67.5562857,9.03993031 67.5562857,9.38580304 C67.5562857,9.73090304 67.2747143,10.0115061 66.9264,10.0115061 Z" id="Path"></path>
                    <path d="M69.2446714,14.4504121 L62.3977929,14.4504121 C62.0494786,14.4504121 61.7679071,14.1705818 61.7679071,13.8247091 C61.7679071,13.4796091 62.0494786,13.1990061 62.3977929,13.1990061 L69.2446714,13.1990061 C69.5929857,13.1990061 69.8745571,13.4788364 69.8745571,13.8247091 C69.8735143,14.1705818 69.5919429,14.4504121 69.2446714,14.4504121 Z" id="Path"></path>
                    <path d="M71.7809,12.2305727 L62.39675,12.2305727 C62.0484357,12.2305727 61.7668643,11.9507424 61.7668643,11.6048697 C61.7668643,11.258997 62.0484357,10.9791667 62.39675,10.9791667 L71.7809,10.9791667 C72.1286929,10.9791667 72.4107857,11.258997 72.4107857,11.6048697 C72.4107857,11.9507424 72.1286929,12.2305727 71.7809,12.2305727 Z" id="Path"></path>
                </g>
            </g>
        </g>
    </g>
</svg>