<?xml version="1.0" encoding="UTF-8"?>
<svg width="178px" height="40px" viewBox="0 0 178 40" version="1.1" xmlns="http://www.w3.org/2000/svg" xmlns:xlink="http://www.w3.org/1999/xlink">
    <title>logo-clicksign-default-2ddd5a7c23253b373542dd7252a75a05318ebd0460de3f35091d98b7c6facc37</title>
    <g id="Preço" stroke="none" stroke-width="1" fill="none" fill-rule="evenodd">
        <g id="Desktop-/-Home---Página-de-Preço" transform="translate(-125.000000, -1886.000000)" fill-rule="nonzero">
            <g id="Group-12" transform="translate(80.000000, 1772.000000)">
                <g id="logo-clicksign-default-2ddd5a7c23253b373542dd7252a75a05318ebd0460de3f35091d98b7c6facc37" transform="translate(45.000000, 114.000000)">
                    <path d="M19.8757895,0 C9.85515789,0 1.52252632,7.31621053 0,16.8547368 L6.44757895,16.8547368 C7.88126316,10.8058947 13.3583158,6.29094737 19.8757895,6.29094737 C26.3932632,6.29094737 31.8703158,10.8058947 33.3031579,16.8551579 L25.3566316,16.8551579 C24.2207594,14.9051104 22.132952,13.7068989 19.8762105,13.7098947 C16.3797895,13.7098947 13.5465263,16.5258947 13.5465263,20.0004211 C13.5465263,23.4741053 16.3802105,26.2905263 19.8762105,26.2905263 C22.1329114,26.2937823 24.220779,25.0956966 25.3566316,23.1456842 L33.3035789,23.1456842 C31.8703158,29.1941053 26.3936842,33.7094737 19.8762105,33.7094737 C13.3583158,33.7094737 7.88168421,29.1941053 6.448,23.1456842 L0,23.1456842 C1.52252632,32.6850526 9.85557895,40 19.8757895,40 C30.9722105,40 40,31.0282105 40,20 C40,8.97221053 30.9726316,0 19.8757895,0 Z" id="Path" fill="#1474F5"></path>
                    <path d="M74.6177062,8.96024777 L74.6177062,28.999579 L70,28.999579 L70,8.96024777 L74.6177062,8.96024777 Z M78.2994877,10.597426 C78.2994877,9.10211691 79.4889798,8 80.9897449,8 C82.462289,8 83.6804233,9.10169593 83.6804233,10.597426 C83.6804233,12.0649507 82.462289,13.1658047 80.9897449,13.1658047 C79.4889798,13.1658047 78.2994877,12.0649507 78.2994877,10.597426 Z M83.3122872,15.3111018 L83.3122872,29 L78.7240656,29 L78.7240656,15.3111018 L83.3122872,15.3111018 Z M110.21865,24.2581188 L108.321107,26.2897522 L108.321107,29 L103.704243,29 L103.704243,8.96024777 L108.321107,8.96024777 L108.321107,20.4192326 L113.079918,15.3106808 L118.545937,15.3106808 L113.33517,20.899146 L119,28.999579 L113.505338,28.999579 L110.21865,24.2581188 Z" id="Shape" fill="#4D4D4F"></path>
                    <path d="M126.820671,27.0996766 C128.042466,27.0996766 128.809522,26.7590594 128.809522,26.1637199 C128.809522,25.6822015 128.270258,25.3411612 127.361202,25.1994137 L124.576556,24.717049 C122.216644,24.320156 120.540531,22.9864599 120.540531,20.5750597 C120.540531,17.6817179 123.012861,15.9799015 126.678247,15.9799015 C129.947216,15.9799015 132.902178,17.0863783 133.101655,20.7176535 L129.037314,20.7176535 C128.952368,19.6962251 127.957097,19.2417868 126.677825,19.2417868 C125.484767,19.2417868 124.944659,19.6674525 124.944659,20.1781667 C124.944659,20.6605313 125.286136,21.086197 126.394247,21.2846435 L128.952368,21.7098861 C131.510066,22.1922507 133.243655,23.4404751 133.243655,25.8798017 C133.243655,29.0574848 130.401956,30.4762293 126.792355,30.4762293 C123.239808,30.4762293 120.313162,29.0291353 120,25.3699338 L124.092233,25.3978602 C124.290865,26.5893856 125.371505,27.0996766 126.820671,27.0996766 Z M136.311457,11.610693 C136.311457,10.1077462 137.504937,9 139.010733,9 C140.489059,9 141.711277,10.1073231 141.711277,11.610693 C141.711277,13.0857134 140.489059,14.1921903 139.010733,14.1921903 C137.504937,14.1921903 136.311457,13.0857134 136.311457,11.610693 Z M141.341907,16.348445 L141.341907,30.1072627 L136.738303,30.1072627 L136.738303,16.348445 L141.341907,16.348445 Z M160.040746,16.348445 L160.040746,30.1918881 C160.040746,34.5035512 156.971677,37 152.651651,37 C148.474049,37 145.433295,34.6177955 145.206348,31.0427963 L149.752898,31.0427963 C149.979845,32.3197933 150.946378,33.1140025 152.652074,33.1140025 C154.214924,33.1140025 155.43672,32.1496963 155.43672,30.2773597 L155.43672,28.631396 C154.413556,29.2559313 153.190915,29.624898 151.656803,29.624898 C147.933517,29.624898 144.807817,26.7032067 144.807817,22.9860368 C144.807817,18.7873485 147.933517,15.9794783 151.656803,15.9794783 C153.191338,15.9794783 154.413556,16.3767945 155.43672,17.0288331 L155.43672,16.3475988 L160.040746,16.3475988 L160.040746,16.348445 Z M155.437143,24.66035 L155.437143,21.0290749 C154.556402,20.035996 153.590291,19.7520779 152.595443,19.7520779 C150.719008,19.7520779 149.326897,21.0007254 149.326897,22.9860368 C149.326897,24.4898298 150.718586,25.9648502 152.595443,25.9648502 C153.589869,25.9648502 154.556402,25.6534288 155.437143,24.66035 Z M178,22.2489497 L178,30.1072627 L173.395973,30.1072627 L173.395973,22.9860368 C173.395973,21.029498 172.401548,20.1498171 170.867013,20.1498171 C170.042903,20.1498171 169.16174,20.5750597 168.365946,21.4547405 L168.365946,30.1076858 L163.734026,30.1076858 L163.734026,16.3480219 L168.365946,16.3480219 L168.365946,17.2556291 C169.474056,16.4326473 170.667959,15.9790552 172.146285,15.9790552 C175.612617,15.9790552 178,18.3329102 178,22.2485266 L178,22.2489497 Z" id="Shape" fill="#1474F5"></path>
                    <path d="M61.4554029,22.4029773 C60.5810671,23.8949575 58.9482661,24.9038683 57.0777816,24.9038683 C54.29264,24.9038683 52.0257333,22.6713492 52.0257333,19.927246 C52.0265822,17.1831429 54.2922156,14.9506238 57.0786305,14.9506238 C58.4283334,14.9506238 59.6973937,15.4684977 60.6515232,16.4090576 C60.9657058,16.7201299 61.2369948,17.0707783 61.4583739,17.4519342 L66.8427547,17.4519342 C66.3945669,15.7299648 65.4834028,14.1597813 64.2057409,12.9076423 C62.3021505,11.0323933 59.7703965,10 57.0790549,10 C51.5219291,10 47.0008489,14.453297 47,19.9268267 C47,25.4007758 51.5210803,29.8544921 57.0782061,29.8544921 C61.7682114,29.8544921 65.7205489,26.6826711 66.8402081,22.4029773 L61.4554029,22.4029773 L61.4554029,22.4029773 Z M96.6223787,24.7051054 C95.9863491,25.5573235 94.97857,26.0606006 93.9068444,26.0612224 C92.0452731,26.0612224 90.5308894,24.5696614 90.5308894,22.7355069 C90.5308894,20.9013523 92.0452731,19.4097914 93.9072688,19.4097914 C94.9789261,19.4102102 95.9866636,19.9135452 96.6223787,20.7659084 L101,20.7659084 C100.125664,17.7152741 97.2806772,15.4705944 93.9076933,15.4705944 C89.8407583,15.4705944 86.5322885,18.7300556 86.5322885,22.7350875 C86.5322885,26.7409582 89.8407583,30 93.9068444,30 C97.2802528,30 100.124391,27.7557396 101,24.704686 L96.6223787,24.704686 L96.6223787,24.7051054 L96.6223787,24.7051054 Z" id="Shape" fill="#4D4D4F"></path>
                </g>
            </g>
        </g>
    </g>
</svg>