<?xml version="1.0" encoding="utf-8"?>
<!-- Generator: Adobe Illustrator 26.0.3, SVG Export Plug-In . SVG Version: 6.00 Build 0)  -->
<svg version="1.1" id="Camada_1" xmlns="http://www.w3.org/2000/svg" xmlns:xlink="http://www.w3.org/1999/xlink" x="0px" y="0px"
	 viewBox="0 0 24 24" style="enable-background:new 0 0 24 24;" xml:space="preserve">
<style type="text/css">
	.st0{fill:none;stroke:#E64BFF;stroke-width:1.5;stroke-linecap:round;stroke-linejoin:round;}
	.st1{fill:none;}
</style>
<g>
	<path class="st0" d="M10.6,17.4l8.5-8.5c0.4-0.4,1-0.4,1.4,0l1.1,1.1c0.4,0.4,0.4,1,0,1.4l-8.5,8.5c-0.3,0.3-0.6,0.4-1,0.5
		l-1.6,0.4C10,21,9.6,20.5,9.7,20l0.4-1.7C10.2,18,10.4,17.7,10.6,17.4z"/>
	<path class="st0" d="M17.5,10.5L20,13"/>
	<path class="st0" d="M7,21H6.8C4.2,21,2,18.8,2,16.2l0,0c0-1.9,1.1-3.7,2.9-4.4l4-1.8C10.2,9.4,11,8.1,11,6.6l0,0
		C11,4.6,9.4,3,7.4,3H7"/>
</g>
<path class="st1" d="M0,0h24v24H0V0z"/>
</svg>
