<?xml version="1.0" encoding="utf-8"?>
<!-- Generator: Adobe Illustrator 26.0.3, SVG Export Plug-In . SVG Version: 6.00 Build 0)  -->
<svg version="1.1" id="Layer_3" xmlns="http://www.w3.org/2000/svg" xmlns:xlink="http://www.w3.org/1999/xlink" x="0px" y="0px"
	 viewBox="0 0 24 24" style="enable-background:new 0 0 24 24;" xml:space="preserve">
<style type="text/css">
	.st0{fill:none;}
	.st1{fill:none;stroke:#FF4B8C;stroke-width:1.5;stroke-linecap:round;stroke-linejoin:round;}
</style>
<path class="st0" d="M0,0h24v24H0V0z"/>
<polyline class="st1" points="12.1,7.8 12.1,12.2 15.6,14.4 "/>
<path class="st1" d="M4.2,8.7c1.6-4.5,6.5-6.8,11-5.2s6.8,6.5,5.2,11c-1,2.8-3.3,4.8-6.1,5.5"/>
<path class="st1" d="M10,21H3.5C3.2,21,3,20.8,3,20.5v-0.4C3,18.9,3.9,18,5.1,18h3.3c1.2,0,2.1,0.9,2.1,2.1v0.4
	C10.5,20.8,10.3,21,10,21z"/>
<path class="st1" d="M6.8,15.5c-1.1,0-2-0.9-2-2c0-1.1,0.9-2,2-2c1.1,0,2,0.9,2,2C8.8,14.6,7.9,15.5,6.8,15.5
	C6.8,15.5,6.8,15.5,6.8,15.5z"/>
</svg>
