<?xml version="1.0" encoding="UTF-8"?>
<svg width="82px" height="82px" viewBox="0 0 82 82" version="1.1" xmlns="http://www.w3.org/2000/svg" xmlns:xlink="http://www.w3.org/1999/xlink">
  <title>color icon 2</title>
  <defs>
      <filter x="-52.5%" y="-52.5%" width="205.0%" height="205.0%" filterUnits="objectBoundingBox" id="filter-1">
          <feGaussianBlur stdDeviation="7" in="SourceGraphic"></feGaussianBlur>
      </filter>
      <filter id="filter-2">
          <feColorMatrix in="SourceGraphic" type="matrix" values="0 0 0 0 1.000000 0 0 0 0 1.000000 0 0 0 0 1.000000 0 0 0 1.000000 0"></feColorMatrix>
      </filter>
  </defs>
  <g id="Page-1" stroke="none" stroke-width="1" fill="none" fill-rule="evenodd">
      <g id="Desktop-/-Home-A" transform="translate(-64.000000, -3448.000000)">
          <g id="color-icon-2" transform="translate(80.000000, 3457.000000)">
              <rect id="Rectangle" fill="#ff4bb7" opacity="0.3" filter="url(#filter-1)" x="5" y="12" width="40" height="40" rx="8"></rect>
              <rect id="Rectangle" fill="#ff4bb7" x="0" y="0" width="50" height="50" rx="8"></rect>
              <g filter="url(#filter-2)" id="calendar-schedule.7">
                  <g stroke-linecap="round" stroke-width="1" stroke="#ff4bb7" fill="none" stroke-linejoin="round" transform="translate(7.000000, 7.000000) scale(1.5)">
                    <path d="M17.0957 12.1235l-5.39675 4.3174 1.64474e-08-1.31579e-08c-.39789.318312-.971494.286544-1.3318-.07376l-2.73422-2.73422 -8.76814e-08-8.76818e-08c-.360304-.360306-.392072-.93391-.0737598-1.3318l4.3174-5.39675 -6.85763e-07 8.57205e-07c1.97422-2.46778 4.96317-3.90434 8.12347-3.90434v0l-4.37114e-08 8.88178e-16c.552285-2.41411e-08 1 .447715 1 1v0l5.3717e-12 1.0571e-05c0 3.1603-1.43657 6.14925-3.90435 8.12347Z"></path>
                    <path d="M16 13v4.382l4.03979e-11-8.98876e-06c0 .37877-.214.725032-.552782.894425l-2.41593 1.208 5.8517e-08-2.9258e-08c-.49398.246986-1.09465.0467575-1.34164-.447223 -.02116-.0423206-.0392896-.0860897-.0542523-.130977l-.635398-1.90622"></path>
                    <path d="M7 13l-1.90616-.63539 7.6144e-08 2.53815e-08c-.523943-.174649-.807101-.74097-.632452-1.26491 .0149627-.0448876.0330923-.0886567.0542522-.130977l1.208-2.41593 -1.91137e-08 3.82279e-08c.16938-.338764.515611-.552764.89436-.55279h4.382"></path>
                    <path d="M5.7501 20.5869l-2.7501.41315 .41315-2.7501 -1.83538e-08 1.22172e-07c.134024-.892135.834355-1.59247 1.72649-1.72649v0l-9.6652e-08 1.45231e-08c1.12208-.168606 2.16839.60434 2.337 1.72642 .0304114.20239.0304115.408187 2.90462e-08.610577v0l4.3039e-08-2.86434e-07c-.13405.892131-.834401 1.59244-1.72654 1.72644Z"></path>
                  </g>
                  <rect width="24" height="24" fill="none"></rect>
              </g>
          </g>
      </g>
  </g>
</svg>