<?xml version="1.0" encoding="UTF-8"?>
<svg width="50px" height="50px" version="1.1" xmlns="http://www.w3.org/2000/svg" xmlns:xlink="http://www.w3.org/1999/xlink">
    <title>icon 2</title>
    <defs>
        <filter id="filter-1">
            <feColorMatrix in="SourceGraphic" type="matrix" values="0 0 0 0 1.000000 0 0 0 0 1.000000 0 0 0 0 1.000000 0 0 0 1.000000 0"></feColorMatrix>
        </filter>
    </defs>
    <g id="Internas" stroke="none" stroke-width="1" fill="none" fill-rule="evenodd">
        <g id="Group-9-Copy">
            <rect id="Rectangle" fill="#ffffff" opacity="0.3" x="0" y="0" width="50" height="50" rx="8"></rect>
            <g stroke-linecap="round" transform="scale(1.4) translate(5.500000, 5.500000)" stroke-width="1" stroke="#ffffff" fill="none" stroke-linejoin="round">
                <circle cx="18" cy="14.5" r="3.5"></circle>
                <polyline points="16,17.372 16,22 18,21 20,22 20,17.372"></polyline>
                <path d="M13 21h-8c-1.105 0-2-.895-2-2v-14c0-1.105.895-2 2-2h13c1.105 0 2 .895 2 2v3"></path>
                <line x1="7" x2="16" y1="7" y2="7"></line>
                <line x1="7" x2="11" y1="11" y2="11"></line>
                <line x1="7" x2="10" y1="15" y2="15"></line>
            </g>
            <rect width="24" height="24" fill="none"></rect>
        </g>
    </g>
</svg>