<?xml version="1.0" encoding="UTF-8"?>
<svg width="100px" height="13px" viewBox="0 0 100 13" version="1.1" xmlns="http://www.w3.org/2000/svg" xmlns:xlink="http://www.w3.org/1999/xlink">
    <title>Trocafone-1</title>
    <g id="Symbols" stroke="none" stroke-width="1" fill="none" fill-rule="evenodd">
        <g id="marcas-/-parceiros-final-copy" transform="translate(-256.000000, -14.000000)" fill="#121E48" fill-rule="nonzero">
            <g id="Group" transform="translate(256.000000, 14.000000)">
                <g id="Trocafone-1" transform="translate(0.026178, 0.000000)">
                    <path d="M9.87434555,0.832 L9.87434555,2.392 C9.87434555,2.73 9.7591623,2.912 9.35078534,2.912 L6.43455497,2.912 L6.43455497,12.1576 C6.43455497,12.5944 6.22513089,12.6776 5.88481675,12.6776 L4.0052356,12.6776 C3.66492147,12.6776 3.45549738,12.5632 3.45549738,12.1576 L3.45549738,2.9432 L0.523560209,2.9432 C0.0837696335,2.9432 0,2.7352 0,2.3972 L0,0.8372 C0,0.4888 0.115183246,0.26 0.523560209,0.26 L9.35078534,0.26 C9.78010471,0.26 9.87434555,0.4888 9.87434555,0.832 Z" id="Path"></path>
                    <path d="M20.8115183,12.7088 L18.565445,12.7088 C18.1623758,12.7257315 17.787791,12.5029177 17.6125654,12.142 L15.5602094,9.1 C15.375369,8.81511955 15.3009508,8.47327595 15.3507853,8.138 L15.3507853,6.63 C15.3507853,6.292 15.4659686,6.084 15.8743455,6.084 L16.2565445,6.084 C17.1761324,6.14431263 17.9769245,5.4665389 18.0628272,4.5552 C18.0656134,4.13042658 17.8983849,3.72195246 17.597932,3.41964186 C17.2974791,3.11733127 16.8884148,2.94594931 16.460733,2.9432 L13.8115183,2.9432 L13.8115183,12.1576 C13.8115183,12.5944 13.6020942,12.6776 13.2879581,12.6776 L11.382199,12.6776 C11.0418848,12.6776 10.8586387,12.5632 10.8586387,12.1576 L10.8586387,0.8476 C10.8586387,0.5096 10.9528796,0.3276 11.382199,0.3276 L16.1570681,0.3276 C18.2513089,0.3276 19.1413613,0.7436 19.9424084,1.534 C20.6933881,2.33645193 21.0910152,3.40330591 21.0471204,4.498 C21.033391,6.16581733 19.9956425,7.65619768 18.4293194,8.2576 L21.1099476,12.1264 C21.2670157,12.3656 21.1727749,12.7088 20.8115183,12.7088 Z" id="Path"></path>
                    <path d="M32.3874346,8.7256 C32.3874346,11.7104 29.5340314,12.9948 27.2722513,12.9948 C25.0104712,12.9948 22.1937173,11.7104 22.1937173,8.7256 L22.1937173,4.2692 C22.1989529,1.3 25.0104712,0 27.2722513,0 C29.5340314,0 32.3874346,1.3 32.3874346,4.2692 L32.3874346,8.7256 Z M29.4031414,4.5292 C29.4031414,3.3228 28.5287958,2.6208 27.2722513,2.6208 C26.0157068,2.6208 25.1780105,3.3176 25.1780105,4.5292 L25.1780105,8.4552 C25.1780105,9.6616 26.052356,10.3636 27.2722513,10.3636 C28.4921466,10.3636 29.4031414,9.6668 29.4031414,8.4552 L29.4031414,4.5292 Z" id="Shape"></path>
                    <path d="M38.565445,12.9896 C36.3036649,12.9896 33.4712042,11.6844 33.4712042,8.7204 L33.4712042,4.2692 C33.4712042,1.3 36.3036649,0 38.565445,0 C40.921466,0 43.2774869,1.1908 43.5078534,3.588 C43.5078534,4.0404 43.3560209,4.108 42.9162304,4.108 L41.0942408,4.108 C40.6963351,4.108 40.6753927,3.7492 40.5235602,3.5204 C40.1256545,2.8964 39.591623,2.6156 38.565445,2.6156 C37.3089005,2.6156 36.4712042,3.3124 36.4712042,4.5032 L36.4712042,8.4292 C36.4712042,9.6356 37.3246073,10.3168 38.565445,10.3168 C39.6125654,10.3168 40.408377,9.9372 40.5602094,9.0324 C40.617801,8.6528 40.6544503,8.3512 41.0837696,8.3512 L42.947644,8.3512 C43.3664921,8.3512 43.5183246,8.5384 43.5183246,8.9908 C43.5078534,11.4608 40.921466,12.9896 38.565445,12.9896 Z" id="Path"></path>
                    <path d="M55.3717277,12.7088 L53.3769634,12.7088 C52.9581152,12.7088 52.8062827,12.5944 52.6544503,12.142 L52.1308901,10.6496 L47.4659686,10.6496 L46.9424084,12.142 C46.7905759,12.5944 46.6387435,12.7088 46.2198953,12.7088 L44.2146597,12.7088 C43.7958115,12.7088 43.7958115,12.4072 43.8900524,12.1888 L48.0942408,0.8684 C48.1651242,0.49410112 48.5075998,0.23227768 48.8900524,0.26 L50.7120419,0.26 C51.1308901,0.26 51.3193717,0.4472 51.4921466,0.8476 L55.6806283,12.1576 C55.7905759,12.4072 55.7905759,12.7088 55.3717277,12.7088 Z M51.2356021,8.0288 L49.8115183,3.8688 L48.3874346,8.0288 L51.2356021,8.0288 Z" id="Shape"></path>
                    <path d="M65.7172775,0.832 L65.7172775,2.392 C65.7172775,2.73 65.6020942,2.912 65.1675393,2.912 L59.408377,2.912 L59.408377,5.148 L64.3507853,5.148 C64.7905759,5.148 64.9005236,5.356 64.9005236,5.694 L64.9005236,7.176 C64.9005236,7.514 64.7853403,7.722 64.3507853,7.722 L59.408377,7.722 L59.408377,12.142 C59.408377,12.6308 59.2931937,12.7088 58.8586387,12.7088 L56.9947644,12.7088 C56.5549738,12.7088 56.4450262,12.5008 56.4450262,12.1888 L56.4450262,0.832 C56.4450262,0.494 56.5602094,0.312 56.9947644,0.312 L65.1623037,0.312 C65.6020942,0.26 65.7172775,0.4888 65.7172775,0.832 Z" id="Path"></path>
                    <path d="M88.408377,0.832 L88.408377,12.1576 C88.408377,12.4956 88.2931937,12.6776 87.8586387,12.6776 L86.1308901,12.6776 C85.6544503,12.6776 85.5235602,12.4124 85.2774869,12.038 L81.2460733,5.564 L81.2460733,12.1576 C81.2460733,12.5944 81.0366492,12.6776 80.6963351,12.6776 L78.8167539,12.6776 C78.4764398,12.6776 78.2670157,12.5632 78.2670157,12.1576 L78.2670157,0.832 C78.2670157,0.494 78.382199,0.312 78.8167539,0.312 L80.6020942,0.312 C81.078534,0.312 81.2094241,0.5772 81.4554974,0.9516 L85.486911,7.41 L85.486911,0.832 C85.486911,0.4004 85.6963351,0.312 86.0366492,0.312 L87.8848168,0.312 C88.1884817,0.26 88.408377,0.3952 88.408377,0.832 Z" id="Path"></path>
                    <path d="M99.8795812,10.6132 L99.8795812,12.1732 C99.8795812,12.5112 99.7643979,12.6932 99.3298429,12.6932 L90.8115183,12.6932 C90.3717277,12.6932 90.2617801,12.4852 90.2617801,12.1732 L90.2617801,0.832 C90.2617801,0.494 90.3769634,0.312 90.8115183,0.312 L99.0052356,0.312 C99.4450262,0.312 99.5549738,0.52 99.5549738,0.832 L99.5549738,2.392 C99.5549738,2.73 99.4397906,2.912 99.0052356,2.912 L93.2460733,2.912 L93.2460733,4.992 L98.3560209,4.992 C98.7958115,4.992 98.9057592,5.2 98.9057592,5.538 L98.9057592,7.02 C98.9057592,7.358 98.7905759,7.566 98.3560209,7.566 L93.2617801,7.566 L93.2617801,10.0568 L99.3246073,10.0568 C99.7643979,10.062 99.8795812,10.27 99.8795812,10.6132 Z" id="Path"></path>
                    <path d="M67.4240838,6.1724 C67.6282919,5.97078373 67.9580956,5.97078373 68.1623037,6.1724 L68.1623037,6.1724 L68.9895288,6.994 L68.9895288,3.2968 C68.9923858,2.84422341 69.3610787,2.47803755 69.8167539,2.4752 L73.4816754,2.4752 C73.9373506,2.47803755 74.3060435,2.84422341 74.3089005,3.2968 L74.3089005,4.5968 L75.0104712,5.2988 C75.2146793,5.50041627 75.544483,5.50041627 75.7486911,5.2988 L75.7486911,5.2988 L76.7277487,4.316 L76.7277487,4.0404 C76.5968586,1.2272 73.8481675,0.0104 71.6544503,0.0104 C69.460733,0.0104 66.5759162,1.3 66.5759162,4.2796 L66.5759162,7.02 L67.4240838,6.1724 Z" id="Path"></path>
                    <path d="M75.7748691,6.6352 C75.570661,6.83681627 75.2408573,6.83681627 75.0366492,6.6352 L75.0366492,6.6352 L74.3350785,5.9332 L74.3350785,9.5732 C74.3322216,10.0257766 73.9635286,10.3919624 73.5078534,10.3948 L69.8429319,10.3948 C69.3872568,10.3919624 69.0185638,10.0257766 69.0157068,9.5732 L69.0157068,8.32 L68.1884817,7.4984 C67.9842736,7.29678373 67.6544699,7.29678373 67.4502618,7.4984 L67.4502618,7.4984 L66.5968586,8.346 L66.5968586,8.7308 C66.5968586,11.7156 69.408377,13 71.6753927,13 C73.9424084,13 76.7905759,11.7156 76.7905759,8.7308 L76.7905759,5.642 L75.7748691,6.6352 Z M71.6544503,9.6668 C71.4607169,9.6668 71.3036649,9.51081601 71.3036649,9.3184 C71.3036649,9.12598399 71.4607169,8.97 71.6544503,8.97 C71.8481837,8.97 72.0052356,9.12598399 72.0052356,9.3184 L72.0052356,9.3184 C72.0052356,9.41080143 71.968278,9.49941833 71.902493,9.564756 C71.8367079,9.63009368 71.7474843,9.6668 71.6544503,9.6668 Z" id="Shape"></path>
                </g>
            </g>
        </g>
    </g>
</svg>