<?xml version="1.0" encoding="UTF-8"?>
<svg width="134px" height="21px" viewBox="0 0 134 21" version="1.1" xmlns="http://www.w3.org/2000/svg" xmlns:xlink="http://www.w3.org/1999/xlink">
    <title>marcas / catraca livre copy</title>
    <defs>
        <polygon id="path-1" points="0 0 57.9995105 0 57.9995105 20.6244419 0 20.6244419"></polygon>
    </defs>
    <g id="Symbols" stroke="none" stroke-width="1" fill="none" fill-rule="evenodd">
        <g id="marcas-/-parceiros-final-copy" transform="translate(-1130.000000, -9.000000)">
            <g id="Group" transform="translate(1130.000000, 9.000000)">
                <path d="M100.332734,15.1468605 L97.7042727,15.1468605 C97.3322587,15.1468605 97.0623846,15.0628605 96.904021,14.896814 C96.7423776,14.7283256 96.6641329,14.434814 96.6641329,13.9986977 L96.6641329,5.62604651 C96.6641329,5.55865116 96.6397692,5.50053488 96.5905734,5.44876744 C96.5409091,5.397 96.4856224,5.37209302 96.420028,5.37209302 L94.4184615,5.37209302 C94.3533357,5.37209302 94.2975804,5.397 94.2488531,5.44876744 C94.1987203,5.50053488 94.1748252,5.55865116 94.1748252,5.62604651 L94.1748252,13.9986977 C94.1748252,14.707814 94.2755594,15.2884884 94.4746853,15.7231395 C94.6724056,16.156814 94.9404056,16.4996512 95.2716573,16.7413953 C95.6038462,16.9841163 95.9969441,17.149186 96.4387692,17.2322093 C96.8871538,17.3162093 97.3594336,17.3586977 97.842021,17.3586977 C98.0388042,17.3586977 98.2618252,17.3533256 98.5045245,17.3430698 C98.7383217,17.3323256 98.9744615,17.3162093 99.2045105,17.2952093 C99.4331538,17.2737209 99.6472727,17.2527209 99.8454615,17.2312326 C100.038028,17.2112093 100.19686,17.1853256 100.317741,17.1535814 C100.550133,17.1057209 100.576371,16.9753256 100.576371,16.8820465 L100.576371,15.4003256 C100.576371,15.3334186 100.552944,15.274814 100.502811,15.2230465 C100.453615,15.1722558 100.398329,15.1468605 100.332734,15.1468605" id="Fill-57" fill="#121E48"></path>
                <path d="M104.400524,5.37209302 L102.353042,5.37209302 C102.203112,5.37209302 102.13986,5.44339535 102.13986,5.60944186 L102.13986,17.1066977 C102.13986,17.1770233 102.160476,17.2366047 102.201238,17.2883721 C102.240594,17.3372093 102.288853,17.3601628 102.353042,17.3601628 L104.400524,17.3601628 C104.464245,17.3601628 104.51672,17.3357442 104.561231,17.2859302 C104.60621,17.2341628 104.628231,17.1755581 104.628231,17.1066977 L104.628231,5.60944186 C104.628231,5.44339535 104.560294,5.37209302 104.400524,5.37209302" id="Fill-58" fill="#121E48"></path>
                <path d="M115.274203,5.37209302 L113.134888,5.37209302 C113.071168,5.37209302 113.024315,5.39113953 112.989643,5.4302093 C112.950755,5.47611628 112.922175,5.53618605 112.904371,5.60944186 L110.957622,14.9363721 C110.910769,15.1756744 110.782392,15.2264651 110.682126,15.2264651 C110.582329,15.2264651 110.452545,15.1756744 110.407566,14.934907 L108.470189,5.60797674 C108.453322,5.53716279 108.422399,5.4775814 108.380231,5.43265116 C108.340874,5.39211628 108.290273,5.37209302 108.225147,5.37209302 L106.100825,5.37209302 C106.034762,5.37209302 105.983224,5.39016279 105.943867,5.42727907 C105.906385,5.46244186 105.888112,5.50688372 105.888112,5.56255814 C105.888112,5.56548837 108.205469,15.6406047 108.205469,15.6406047 C108.294958,16.0122558 108.42521,16.3145581 108.592007,16.5396977 C108.758804,16.7648372 108.95465,16.9386977 109.174392,17.0554186 C109.396476,17.1736047 109.640112,17.2546744 109.897336,17.2956977 C110.421154,17.3796977 110.947783,17.3792093 111.45942,17.2956977 C111.71149,17.2546744 111.952315,17.1736047 112.174399,17.0554186 C112.395077,16.9382093 112.590923,16.7643488 112.757252,16.5396977 C112.924517,16.3145581 113.054301,16.0117674 113.14379,15.6401163 C113.14379,15.6401163 115.186587,6.82597674 115.44428,5.68709302 C115.461147,5.61139535 115.468175,5.50444186 115.459273,5.47806977 C115.432566,5.39846512 115.383839,5.37209302 115.274203,5.37209302" id="Fill-59" fill="#121E48"></path>
                <path d="M129.701224,7.81786047 C129.860524,7.65230233 130.129462,7.56830233 130.501007,7.56830233 L133.604091,7.56830233 C133.668748,7.56830233 133.724035,7.54339535 133.773231,7.49113953 C133.823364,7.44034884 133.847259,7.38272093 133.847259,7.31434884 L133.847259,5.83311628 C133.847259,5.74032558 133.82149,5.61432558 133.59472,5.57818605 C133.464,5.55767442 133.313133,5.53618605 133.145399,5.51469767 C132.980944,5.49418605 132.784161,5.47367442 132.543804,5.45169767 C132.30907,5.4302093 132.037322,5.41165116 131.736524,5.39553488 C131.43151,5.38039535 131.06793,5.37209302 130.653748,5.37209302 C130.171161,5.37209302 129.698413,5.4145814 129.248622,5.4985814 C128.804455,5.58111628 128.409483,5.74374419 128.074483,5.98206977 C127.741825,6.21893023 127.471951,6.55883721 127.272825,6.99202326 C127.072762,7.42765116 126.972028,8.00783721 126.972028,8.71646512 L126.972028,14.0055349 C126.972028,14.7136744 127.072762,15.2943488 127.272825,15.7294884 C127.47242,16.1641395 127.742294,16.5064884 128.074951,16.7477442 C128.409951,16.9909535 128.802112,17.1560233 129.240657,17.2390465 C129.686699,17.3230465 130.157105,17.3655349 130.638755,17.3655349 C131.45728,17.3655349 132.09542,17.3416047 132.535839,17.2947209 C132.975322,17.2468605 133.331874,17.2014419 133.59472,17.1594419 C133.76714,17.1325814 133.847259,17.0466279 133.847259,16.8888837 L133.847259,15.4071628 C133.847259,15.3397674 133.823364,15.2816512 133.773699,15.2303721 C133.724035,15.179093 133.668748,15.1536977 133.604091,15.1536977 L130.501007,15.1536977 C130.128993,15.1536977 129.860056,15.0696977 129.701224,14.9036512 C129.53958,14.7351628 129.460867,14.4416512 129.460867,14.0055349 L129.460867,12.2513023 L133.481336,12.2513023 C133.546462,12.2513023 133.602217,12.2268837 133.651881,12.1751163 C133.701077,12.1233488 133.725441,12.0657209 133.725441,11.9983256 L133.725441,10.4848605 C133.725441,10.4174651 133.701077,10.3593488 133.651881,10.307093 C133.602217,10.255814 133.546462,10.230907 133.481336,10.230907 L129.460867,10.230907 L129.460867,8.71646512 C129.460867,8.28034884 129.53958,7.98634884 129.701224,7.81786047" id="Fill-60" fill="#121E48"></path>
                <path d="M123.389636,12.3943953 L123.454762,12.3680233 C124.004818,12.1404419 124.471944,11.7668372 124.843021,11.2579535 C125.212224,10.7515116 125.399168,10.0731628 125.399168,9.24195349 L125.399168,9.03439535 C125.399168,8.34823256 125.282972,7.76316279 125.054329,7.29627907 C124.826154,6.83037209 124.506147,6.4504186 124.104615,6.1652093 C123.700273,5.88 123.216748,5.67390698 122.666692,5.55425581 C122.112888,5.43313953 121.505203,5.37209302 120.860972,5.37209302 C120.593441,5.37209302 120.309042,5.37746512 120.014804,5.3882093 C119.728531,5.39846512 119.443664,5.4145814 119.169105,5.4355814 C118.894077,5.4565814 118.63451,5.47806977 118.389937,5.49955814 C118.147238,5.52055814 117.937336,5.54693023 117.769133,5.57769767 C117.546112,5.61872093 117.381189,5.68367442 117.278112,5.7715814 C117.181594,5.85362791 117.132867,6.02406977 117.132867,6.279 L117.132867,17.1135349 C117.132867,17.1809302 117.156762,17.2390465 117.206427,17.2913023 C117.256091,17.342093 117.312315,17.367 117.377909,17.367 L119.376664,17.367 C119.441322,17.367 119.497545,17.342093 119.547678,17.290814 C119.597343,17.2390465 119.622175,17.1809302 119.622175,17.1135349 L119.622175,7.60004651 L119.68449,7.60004651 C119.737902,7.60004651 119.820364,7.59711628 119.915007,7.59223256 C120.021832,7.58734884 120.135217,7.58148837 120.256566,7.57611628 L120.338091,7.57269767 C120.431329,7.5687907 120.522224,7.56488372 120.612182,7.56048837 C120.734,7.55462791 120.814119,7.55218605 120.86472,7.55218605 C121.50942,7.55218605 122.014965,7.67134884 122.366832,7.9047907 C122.727133,8.14555814 122.90986,8.526 122.90986,9.03439535 L122.90986,9.24195349 C122.90986,9.51397674 122.873315,9.75474419 122.799755,9.95790698 C122.725259,10.1654651 122.601098,10.3339535 122.429147,10.4584884 C122.260944,10.580093 122.036517,10.671907 121.762427,10.7314884 C121.492084,10.7905814 121.154741,10.8203721 120.758832,10.8203721 L120.547056,10.8203721 C120.515196,10.8203721 120.480056,10.8198837 120.445853,10.818907 C120.413993,10.8179302 120.38307,10.8174419 120.356832,10.8174419 C120.264063,10.8174419 120.186287,10.8599302 120.142713,10.9341628 C120.094923,11.0176744 120.098671,11.1275581 120.152552,11.2354884 L123.084622,17.0837442 C123.125853,17.1696977 123.164741,17.2400233 123.204098,17.300093 C123.232678,17.346 123.275315,17.367 123.336692,17.367 L125.688252,17.367 C125.835371,17.367 125.855517,17.3064419 125.855517,17.241 C125.855517,17.1985116 125.84193,17.1496744 125.816161,17.094 L123.389636,12.3943953" id="Fill-61" fill="#121E48"></path>
                <path d="M27.373951,5.65681395 C27.1738881,5.58355814 26.8904266,5.51713953 26.5291888,5.45951163 C26.1660769,5.40139535 25.735965,5.37209302 25.2515035,5.37209302 C24.559014,5.37209302 23.9204056,5.47318605 23.353014,5.67195349 C22.7917133,5.86827907 22.3025664,6.18083721 21.9005664,6.59986047 C21.4976294,7.01937209 21.1794965,7.55902326 20.9550699,8.20416279 C20.7292378,8.85174419 20.6153846,9.639 20.6153846,10.542 L20.6153846,12.1956279 C20.6153846,13.0996047 20.7292378,13.8858837 20.9550699,14.5334651 C21.1794965,15.1786047 21.4976294,15.7182558 21.9005664,16.1382558 C22.303035,16.5577674 22.7917133,16.8698372 23.353014,17.0666512 C23.9194685,17.2649302 24.5580769,17.3660233 25.2515035,17.3660233 C25.735965,17.3660233 26.1660769,17.3367209 26.5291888,17.2786047 C26.8904266,17.2204884 27.1738881,17.1540698 27.3725455,17.0813023 C27.5116993,17.0324651 27.574014,16.9943721 27.6025944,16.9704419 C27.6264895,16.9504186 27.6400769,16.901093 27.6400769,16.8312558 L27.6400769,14.7649535 C27.6400769,14.602814 27.5777622,14.5705814 27.4695315,14.5705814 L27.4236154,14.5705814 C27.1148531,14.6023256 26.7864126,14.6340698 26.4476643,14.6667907 C26.107979,14.6990233 25.7106643,14.7151395 25.2674336,14.7151395 C25.0411329,14.7151395 24.8251399,14.6814419 24.6255455,14.6135581 C24.417986,14.5446977 24.2333846,14.4123488 24.0768951,14.220907 C23.9236853,14.0338605 23.7995245,13.7725814 23.7086294,13.4448837 C23.6191399,13.1220698 23.5736923,12.7001163 23.5736923,12.1912326 L23.5736923,10.5463953 C23.5736923,10.0277442 23.6191399,9.60090698 23.7086294,9.27760465 C23.799993,8.9494186 23.9264965,8.68765116 24.0862657,8.50011628 C24.246972,8.30916279 24.4348531,8.17974419 24.6438182,8.11576744 C24.8424755,8.05423256 25.0523776,8.02297674 25.2674336,8.02297674 C25.7125385,8.02297674 26.1093846,8.03909302 26.4476643,8.07132558 C26.7864126,8.10355814 27.1153217,8.1357907 27.4339231,8.16802326 L27.4695315,8.16753488 C27.5777622,8.16753488 27.6400769,8.1357907 27.6400769,7.97316279 L27.6400769,5.90637209 C27.6400769,5.79013953 27.6114965,5.7662093 27.6082168,5.76376744 C27.5786993,5.74227907 27.514042,5.70613953 27.373951,5.65681395" id="Fill-62" fill="#121E48"></path>
                <path d="M47.3352657,5.37209302 L39.5581119,5.37209302 C39.5018881,5.37209302 39.455972,5.39016279 39.4142727,5.43069767 C39.3749161,5.4687907 39.3566434,5.51176744 39.3566434,5.56597674 L39.3566434,7.62055814 C39.3566434,7.67476744 39.3749161,7.71725581 39.4142727,7.75486047 C39.455972,7.79490698 39.5018881,7.81395349 39.5581119,7.81395349 L42.0052517,7.81395349 L42.0052517,17.174093 C42.0052517,17.2297674 42.0249301,17.2756744 42.0670979,17.3196279 C42.1087972,17.363093 42.1533077,17.3836047 42.2076573,17.3836047 L44.7306993,17.3836047 C44.785049,17.3836047 44.830028,17.363093 44.8717273,17.3196279 C44.9134266,17.2756744 44.9331049,17.2297674 44.9331049,17.174093 L44.9331049,7.81395349 L47.3352657,7.81395349 C47.3914895,7.81395349 47.4420909,7.79393023 47.4889441,7.75193023 C47.532049,7.71481395 47.5517273,7.67281395 47.5517273,7.62055814 L47.5517273,5.56597674 C47.5517273,5.51372093 47.5315804,5.47123256 47.4884755,5.43362791 C47.4420909,5.39211628 47.3914895,5.37209302 47.3352657,5.37209302" id="Fill-63" fill="#121E48"></path>
                <path d="M77.0382867,5.65681395 C76.8382238,5.58355814 76.5547622,5.51713953 76.1935245,5.45951163 C75.8308811,5.40139535 75.4012378,5.37209302 74.9163077,5.37209302 C74.2233497,5.37209302 73.5847413,5.47318605 73.0178182,5.67195349 C72.4565175,5.86827907 71.9678392,6.18083721 71.5649021,6.59986047 C71.1624336,7.01937209 70.8438322,7.55902326 70.6194056,8.20416279 C70.3935734,8.85174419 70.2797203,9.639 70.2797203,10.542 L70.2797203,12.1956279 C70.2797203,13.0996047 70.3935734,13.8863721 70.6194056,14.5334651 C70.8438322,15.179093 71.1624336,15.7187442 71.5649021,16.1382558 C71.9678392,16.5582558 72.4565175,16.8698372 73.0178182,17.0666512 C73.5838042,17.2649302 74.2224126,17.3660233 74.9163077,17.3660233 C75.4007692,17.3660233 75.8304126,17.3367209 76.1935245,17.2786047 C76.5547622,17.2204884 76.8382238,17.1540698 77.0373497,17.0813023 C77.1765035,17.0324651 77.2388182,16.9943721 77.2664615,16.9704419 C77.2908252,16.9504186 77.3039441,16.901093 77.3039441,16.8312558 L77.3039441,14.7649535 C77.3039441,14.602814 77.2420979,14.5705814 77.1338671,14.5705814 L77.0874825,14.5705814 C76.7796573,14.6023256 76.4507483,14.6340698 76.112,14.6667907 C75.7727832,14.6990233 75.375,14.7151395 74.9317692,14.7151395 C74.7054685,14.7151395 74.4899441,14.6814419 74.2903497,14.6135581 C74.0823217,14.5446977 73.8977203,14.4123488 73.7416993,14.220907 C73.588021,14.0338605 73.4643287,13.7725814 73.3734336,13.4448837 C73.2834755,13.1220698 73.2384965,12.7001163 73.2384965,12.1912326 L73.2384965,10.5463953 C73.2384965,10.0277442 73.2834755,9.60090698 73.3734336,9.27760465 C73.4643287,8.9494186 73.5917692,8.68765116 73.7501329,8.50011628 C73.9113077,8.30916279 74.0996573,8.17974419 74.3081538,8.11576744 C74.5072797,8.05423256 74.7167133,8.02297674 74.9317692,8.02297674 C75.3773427,8.02297674 75.7741888,8.03909302 76.112,8.07132558 C76.4507483,8.10355814 76.7801259,8.1357907 77.0977902,8.16802326 L77.1338671,8.16753488 C77.2420979,8.16753488 77.3039441,8.1357907 77.3039441,7.97316279 L77.3039441,5.90637209 C77.3039441,5.79013953 77.2758322,5.7662093 77.273021,5.76376744 C77.2435035,5.74227907 77.1788462,5.70613953 77.0382867,5.65681395" id="Fill-64" fill="#121E48"></path>
                <path d="M36.8640559,7.21081395 C36.7853427,6.83232558 36.6602448,6.51976744 36.4896993,6.2824186 C36.321028,6.04506977 36.113,5.859 35.8717063,5.72860465 C35.6266643,5.59576744 35.3450769,5.50248837 35.0344406,5.4512093 C34.7167762,5.39846512 34.3724056,5.37209302 34.0116364,5.37209302 C33.6499301,5.37209302 33.306028,5.39846512 32.9883636,5.4512093 C32.6777273,5.50248837 32.3961399,5.59576744 32.1506294,5.72860465 C31.9098042,5.85948837 31.7017762,6.04506977 31.5331049,6.2824186 C31.3634965,6.51976744 31.2374615,6.83232558 31.1587483,7.21081395 L29.0639441,17.170186 C29.063007,17.1999767 29.0578531,17.2243953 29.048951,17.2463721 C29.0508252,17.3259767 29.0751888,17.3665116 29.1881049,17.3665116 L31.8681049,17.3665116 C31.9191748,17.3665116 31.9580629,17.349907 31.9894545,17.3147442 C32.0288112,17.2693256 32.0555175,17.2141395 32.0719161,17.1457674 L33.7216154,8.12944186 C33.7473846,8.0342093 33.7708112,7.9712093 33.7956434,7.92676744 C33.8228182,7.87548837 33.8832587,7.81395349 34.0116364,7.81395349 C34.1526643,7.81395349 34.2060769,7.89160465 34.2248182,7.93751163 C34.2426224,7.98 34.2618322,8.03909302 34.2838531,8.11918605 L35.9462028,17.1521163 C35.9607273,17.2116977 35.9897762,17.265907 36.0324126,17.3113256 C36.0684895,17.3489302 36.1106573,17.3665116 36.1645385,17.3665116 L38.8286084,17.3665116 C38.971042,17.3665116 38.9836923,17.3088837 38.9836923,17.2380698 C38.9729161,17.2146279 38.9696364,17.191186 38.9686993,17.170186 L36.8640559,7.21081395" id="Fill-65" fill="#121E48"></path>
                <path d="M66.8458531,7.21081395 C66.7676084,6.83232558 66.6411049,6.51976744 66.471965,6.2824186 C66.3028252,6.04506977 66.0943287,5.859 65.8535035,5.72860465 C65.6089301,5.59576744 65.3268741,5.50248837 65.0162378,5.4512093 C64.6985734,5.39846512 64.3546713,5.37209302 63.992965,5.37209302 C63.6317273,5.37209302 63.2878252,5.39846512 62.9706294,5.4512093 C62.6595245,5.50248837 62.3779371,5.59576744 62.1328951,5.72860465 C61.8916014,5.85948837 61.6835734,6.04506977 61.5144336,6.2824186 C61.3452937,6.51976744 61.2192587,6.83232558 61.1405455,7.21081395 L59.0494895,17.170186 C59.0485524,17.1994884 59.0433986,17.2243953 59.034965,17.2463721 C59.0368392,17.3259767 59.0602657,17.3665116 59.1736503,17.3665116 L61.8541189,17.3665116 C61.9056573,17.3665116 61.9440769,17.349907 61.975,17.3147442 C62.0138881,17.2693256 62.0415315,17.2146279 62.0574615,17.1457674 L63.7029441,8.12944186 C63.7296503,8.0342093 63.7526084,7.97072093 63.7774406,7.92627907 C63.8046154,7.87548837 63.8645874,7.81395349 63.992965,7.81395349 C64.1344615,7.81395349 64.1883427,7.89160465 64.2070839,7.93751163 C64.2248881,7.98146512 64.2445664,8.04251163 64.2656503,8.11967442 L65.9134755,17.1521163 C65.928,17.2116977 65.9565804,17.265907 65.9992168,17.3113256 C66.0357622,17.3489302 66.0779301,17.3665116 66.1318112,17.3665116 L68.7954126,17.3665116 C68.9387832,17.3665116 68.9504965,17.3083953 68.950965,17.2380698 C68.9401888,17.2146279 68.9369091,17.1906977 68.935972,17.170186 L66.8458531,7.21081395" id="Fill-66" fill="#121E48"></path>
                <path d="M88.6156993,17.170186 L86.526986,7.21081395 C86.4478042,6.83232558 86.3217692,6.51976744 86.1521608,6.2824186 C85.9834895,6.04506977 85.7745245,5.85948837 85.5341678,5.72860465 C85.2891259,5.59576744 85.0070699,5.50248837 84.6964336,5.4512093 C84.3792378,5.39846512 84.0353357,5.37209302 83.6736294,5.37209302 C83.3128601,5.37209302 82.968021,5.39846512 82.6508252,5.4512093 C82.3406573,5.50248837 82.0590699,5.59576744 81.8130909,5.72860465 C81.5727343,5.859 81.3647063,6.04506977 81.1950979,6.2824186 C81.025958,6.52025581 80.8999231,6.83281395 80.8212098,7.21081395 L78.7282797,17.170186 C78.7273427,17.1999767 78.7226573,17.2248837 78.7132867,17.2463721 C78.7151608,17.3259767 78.739993,17.3665116 78.8529091,17.3665116 L81.5329091,17.3665116 C81.5844476,17.3665116 81.6228671,17.349907 81.6547273,17.3147442 C81.6936154,17.2693256 81.7207902,17.2146279 81.7371888,17.1457674 L83.3840769,8.12944186 C83.4098462,8.0342093 83.4332727,7.9712093 83.4581049,7.92627907 C83.4862168,7.875 83.5466573,7.81395349 83.6736294,7.81395349 C83.8165315,7.81395349 83.869007,7.8925814 83.8877483,7.93848837 C83.9041469,7.97755814 83.9228881,8.03567442 83.9458462,8.11918605 L85.5932028,17.1521163 C85.6077273,17.2116977 85.6367762,17.265907 85.6794126,17.3113256 C85.7154895,17.3489302 85.7581259,17.3665116 85.8115385,17.3665116 L88.4760769,17.3665116 C88.6171049,17.3665116 88.6302238,17.3093721 88.6306923,17.2400233 C88.6199161,17.216093 88.6166364,17.191186 88.6156993,17.170186" id="Fill-67" fill="#121E48"></path>
                <mask id="mask-2" fill="white">
                    <use xlink:href="#path-1"></use>
                </mask>
                <g id="Clip-69"></g>
                <path d="M57.9189231,17.1120698 L55.5551818,12.5096512 L55.6638811,12.4622791 C55.900021,12.3597209 56.1305385,12.2185814 56.3484056,12.0432558 C56.5643986,11.868907 56.7593077,11.6530465 56.9265734,11.4020233 C57.0943077,11.1500233 57.2292448,10.8550465 57.3276364,10.5253953 C57.426965,10.1947674 57.4775664,9.81725581 57.4775664,9.40262791 L57.4775664,9.14574419 C57.4775664,8.42832558 57.3641818,7.82372093 57.1411608,7.34853488 C56.9195455,6.87627907 56.600007,6.48802326 56.190979,6.19548837 C55.7791399,5.90051163 55.2792168,5.6875814 54.7052657,5.56255814 C54.1247552,5.43655814 53.4716224,5.37209302 52.7636713,5.37209302 C52.4914545,5.37209302 52.1944056,5.37795349 51.8814266,5.3882093 C51.575007,5.39846512 51.2676503,5.4145814 50.9687273,5.43606977 C50.6721469,5.45755814 50.3933706,5.48197674 50.1408322,5.50834884 C49.8901678,5.53423256 49.684014,5.55865116 49.527993,5.58013953 C49.2253217,5.62946512 49.0116713,5.71395349 48.895007,5.83067442 C48.7853706,5.94055814 48.7272727,6.18181395 48.7272727,6.52855814 L48.7272727,17.1731163 C48.7272727,17.2268372 48.7483566,17.2717674 48.7938042,17.3157209 C48.8411259,17.3611395 48.8893846,17.3826279 48.9460769,17.3826279 L51.4527203,17.3826279 C51.5070699,17.3826279 51.552049,17.3621163 51.5937483,17.3186512 C51.6354476,17.2746977 51.6555944,17.2287907 51.6555944,17.1731163 L51.6555944,7.92725581 L51.7624196,7.92725581 C51.7820979,7.92725581 51.8495664,7.92432558 51.9638881,7.91846512 C52.2004965,7.9082093 52.4797413,7.91309302 52.7144755,7.90234884 C52.8348881,7.89746512 52.9103217,7.89453488 52.9417133,7.89453488 C54.0291748,7.89453488 54.5801678,8.31551163 54.5801678,9.14574419 L54.5801678,9.41825581 C54.5801678,9.82506977 54.448979,10.1483721 54.1903497,10.3783953 C54.009028,10.5395581 53.7321259,10.6450465 53.3671399,10.6924186 C53.153021,10.7104884 53.0241748,10.7202558 52.8105245,10.7217209 L52.714007,10.7217209 C52.5814126,10.7207442 52.3537063,10.7192791 52.3134126,10.7192791 C52.2346993,10.7192791 52.1681678,10.7563953 52.1306853,10.8193953 C52.0866434,10.8941163 52.0908601,10.996186 52.1405245,11.0977674 C52.2796783,11.382 54.7183846,16.8742326 54.8181818,17.1023023 C54.8589441,17.1877674 54.8987692,17.2605349 54.9376573,17.3225581 C54.9531189,17.3474651 54.977951,17.3733488 55.0393287,17.3733488 L57.8406783,17.3733488 C57.969993,17.3733488 57.969993,17.325 57.969993,17.283 C57.969993,17.244907 57.9582797,17.199 57.9339161,17.1472326 L57.9189231,17.1120698" id="Fill-68" fill="#121E48" mask="url(#mask-2)"></path>
                <path d="M13.723339,9.53497674 C13.3794369,10.156186 12.7380173,10.542 12.0492761,10.5415121 C11.712402,10.5415121 11.3797446,10.4482326 11.0864439,10.2714419 L8.44252084,8.68032558 L12.3036887,6.35665116 L13.0167936,6.78544186 C13.4633041,7.05453488 13.7828425,7.48869767 13.916374,8.00783721 C14.0499055,8.52697674 13.9814999,9.06955814 13.723339,9.53497674 Z M3.86403133,10.2714419 C3.57073063,10.4482326 3.23760475,10.5415121 2.90119916,10.5415121 C2.2124579,10.542 1.57056979,10.156186 1.22713622,9.53497674 C0.968975383,9.06955814 0.900569788,8.52697674 1.03410126,8.00783721 C1.16763273,7.48869767 1.48670266,7.05453488 1.93368168,6.78544186 L2.64678657,6.35665116 L6.50842294,8.68032558 L3.86403133,10.2714419 Z M1.93368168,4.7635814 C1.48717119,4.49497674 1.16763273,4.06081395 1.03410126,3.54167442 C0.900569788,3.02253488 0.968975383,2.48044186 1.22713622,2.01453488 C1.57056979,1.39332558 2.2124579,1.008 2.90119916,1.008 C3.23760475,1.008 3.57073063,1.10127907 3.86403133,1.27806977 L6.50842294,2.86918605 L2.64678657,5.19286047 L1.93368168,4.7635814 Z M11.3366397,5.775 L7.47500335,8.09867442 L3.61383552,5.775 L7.47500335,3.45083721 L11.3366397,5.775 Z M11.0859754,1.27806977 C11.3797446,1.10127907 11.712402,1.008 12.0492761,1.008 C12.7380173,1.008 13.3794369,1.39332558 13.723339,2.01453488 C13.9814999,2.48044186 14.0499055,3.02253488 13.916374,3.54167442 C13.7828425,4.06081395 13.4633041,4.49497674 13.0167936,4.7635814 L12.3036887,5.19286047 L8.44252084,2.86918605 L11.0859754,1.27806977 Z M13.500318,5.91272093 L13.2707376,5.775 L13.500318,5.6367907 C14.170318,5.23339535 14.6500943,4.58190698 14.8506257,3.80246512 C15.0506887,3.02302326 14.9480803,2.20939535 14.5606048,1.51102326 C14.0447516,0.57872093 13.082388,0 12.0492761,0 C11.5432621,0 11.0428705,0.140162791 10.6024509,0.405348837 L8.29352783,1.79476744 C8.28087748,1.33423256 7.91963972,0.965511628 7.47500335,0.965511628 C7.03083552,0.965511628 6.66959776,1.33423256 6.65694741,1.79476744 L4.34802433,0.405348837 C3.90760475,0.140162791 3.40721314,0 2.90119916,0 C1.86808727,0 0.905723634,0.57872093 0.389401956,1.51102326 C0.00239496312,2.20939535 -0.100213428,3.02302326 0.0998495086,3.80246512 C0.300380977,4.58190698 0.779688669,5.23339535 1.4501572,5.6367907 L1.67973762,5.775 L1.4501572,5.91272093 C0.779688669,6.31611628 0.300380977,6.96760465 0.0998495086,7.74704651 C-0.100213428,8.52648837 0.00239496312,9.34011628 0.389401956,10.0389767 C0.905723634,10.9707907 1.86808727,11.5495116 2.90119916,11.5495116 C3.40721314,11.5495116 3.90760475,11.4093488 4.34802433,11.1446512 L6.65554182,9.75523256 L6.65554182,15.3573488 L2.68942294,17.7445116 L7.47500335,20.6244419 L12.2610523,17.7445116 L8.29446489,15.3573488 L8.29446489,9.75572093 L10.6024509,11.1446512 C11.0428705,11.4093488 11.5432621,11.5495116 12.0492761,11.5495116 C13.082388,11.5495116 14.0447516,10.9707907 14.5606048,10.0389767 C14.9480803,9.34011628 15.0506887,8.52648837 14.8506257,7.74704651 C14.6500943,6.96760465 14.170318,6.31611628 13.500318,5.91272093 L13.500318,5.91272093 Z" id="Fill-70" fill="#121E48" mask="url(#mask-2)"></path>
            </g>
        </g>
    </g>
</svg>