<?xml version="1.0" encoding="utf-8"?>
<!-- Generator: Adobe Illustrator 26.0.3, SVG Export Plug-In . SVG Version: 6.00 Build 0)  -->
<svg version="1.1" id="Camada_1" xmlns="http://www.w3.org/2000/svg" xmlns:xlink="http://www.w3.org/1999/xlink" x="0px" y="0px"
	 viewBox="0 0 24 24" style="enable-background:new 0 0 24 24;" xml:space="preserve">
<style type="text/css">
	.st0{fill:none;}
	.st1{fill:none;stroke:#E64BFF;stroke-width:1.5;stroke-linecap:round;stroke-linejoin:round;}
</style>
<g>
	<path class="st0" d="M0,0h24v24H0V0z"/>
	<path class="st1" d="M8.6,10.1c1,1,1,2.7,0,3.8s-2.7,1-3.8,0s-1-2.7,0-3.8S7.5,9.1,8.6,10.1"/>
	<path class="st1" d="M19.2,4.8c1,1,1,2.7,0,3.8s-2.7,1-3.8,0s-1-2.7,0-3.8S18.2,3.7,19.2,4.8"/>
	<path class="st1" d="M19.2,15.4c1,1,1,2.7,0,3.8c-1,1-2.7,1-3.8,0s-1-2.7,0-3.8S18.2,14.4,19.2,15.4"/>
	<path class="st1" d="M9,10.8l5.9-3"/>
	<path class="st1" d="M9,13.2l5.9,3"/>
</g>
</svg>
