<?xml version="1.0" encoding="UTF-8"?>
<svg width="82px" height="82px" viewBox="0 0 82 82" version="1.1" xmlns="http://www.w3.org/2000/svg" xmlns:xlink="http://www.w3.org/1999/xlink">
    <title>color icon 2</title>
    <defs>
        <filter x="-52.5%" y="-52.5%" width="205.0%" height="205.0%" filterUnits="objectBoundingBox" id="filter-1">
            <feGaussianBlur stdDeviation="7" in="SourceGraphic"></feGaussianBlur>
        </filter>
        <filter id="filter-2">
            <feColorMatrix in="SourceGraphic" type="matrix" values="0 0 0 0 1.000000 0 0 0 0 1.000000 0 0 0 0 1.000000 0 0 0 1.000000 0"></feColorMatrix>
        </filter>
    </defs>
    <g id="Page-1" stroke="none" stroke-width="1" fill="none" fill-rule="evenodd">
        <g id="Desktop-/-Home-A" transform="translate(-64.000000, -3448.000000)">
            <g id="color-icon-2" transform="translate(80.000000, 3457.000000)">
                <rect id="Rectangle" fill="#FF4BB7" opacity="0.3" filter="url(#filter-1)" x="5" y="12" width="40" height="40" rx="8"></rect>
                <rect id="Rectangle" fill="#FF4BB7" x="0" y="0" width="50" height="50" rx="8"></rect>
                <g filter="url(#filter-2)" id="calendar-schedule.7">
                    <g transform="translate(7.000000, 7.000000)">
                        <g id="Group" stroke-linecap="round" stroke-linejoin="round" transform="translate(4.500000, 4.500000)" stroke-width="1.5">
                            <path d="M17.5095,27.0000007 L4.4999998,27.0000007 L4.4999998,27.0000007 C2.0147248,27.0000007 -1.96700999e-07,24.985275 -1.96700999e-07,22.5000007 C-1.96700999e-07,22.5000007 -1.96700999e-07,22.5000007 -1.96700999e-07,22.5000007 L-1.96700999e-07,4.50000068 L-1.96700999e-07,4.50000068 C-1.96700999e-07,2.01472568 2.0147248,6.79480489e-07 4.4999998,6.79480489e-07 L22.4999998,6.79480489e-07 L22.4999998,6.79480489e-07 C24.9852746,6.79480489e-07 26.9999998,2.01472568 26.9999998,4.50000068 L26.9999998,17.5080007" id="Path" stroke="#940DFF"></path>
                            <path d="M21.75,15 L21.7499997,15 C25.4779197,15 28.4999997,18.02208 28.4999997,21.75 C28.4999997,25.47792 25.4779197,28.5 21.7499997,28.5 C18.0220797,28.5 14.9999997,25.47792 14.9999997,21.75 L14.9999997,21.7500007 C14.9999997,18.0220807 18.0220797,15 21.7499997,15 C21.7499998,15 21.7499999,15 21.75,15" id="Path" stroke="#940DFF"></path>
                            <line x1="27" y1="7.5" x2="0" y2="7.5" id="Path" stroke="#940DFF"></line>
                            <polyline id="Path" stroke="#63E1A5" points="24 20.625 21.189 23.4375 19.5 21.75"></polyline>
                            <path d="M16.1235,12.675 L16.1235,12.675 C16.082907,12.675 16.05,12.707907 16.05,12.7485 C16.05,12.789093 16.082907,12.822 16.1235,12.822 C16.164093,12.822 16.197,12.789093 16.197,12.7485 C16.197,12.7485 16.197,12.7485 16.197,12.7485 L16.197,12.7485 C16.197,12.707907 16.164093,12.675 16.1235,12.675" id="Path" stroke="#940DFF"></path>
                            <path d="M10.8735,12.675 L10.8735,12.675 C10.8337354,12.6749914 10.8014929,12.7072198 10.8014844,12.7469844 C10.8014843,12.7474897 10.8014895,12.7479949 10.8015,12.7485 L10.8015,12.7484847 C10.8015,12.7890777 10.8344072,12.8219847 10.875,12.8219847 C10.915593,12.8219847 10.9485,12.7890776 10.9485,12.7484847 C10.9485,12.7078917 10.9155929,12.6749847 10.875,12.6749847 C10.8745051,12.6749847 10.8740102,12.6749897 10.8735153,12.6749997" id="Path" stroke="#940DFF"></path>
                            <path d="M5.6235,12.675 L5.6235,12.675 C5.5837449,12.6741366 5.55081705,12.7056647 5.5499538,12.7454198 C5.54992064,12.7469466 5.54993607,12.7484741 5.55000006,12.75 L5.55000006,12.7499847 C5.55000007,12.7905777 5.58290721,12.8234847 5.62350006,12.8234847 C5.66409306,12.8234847 5.69700006,12.7905775 5.69700006,12.7499847 C5.69700006,12.7093917 5.66409291,12.6764847 5.62350006,12.6764847 C5.62300513,12.6764847 5.6225102,12.6764897 5.62201537,12.6764997" id="Path" stroke="#940DFF"></path>
                            <path d="M10.8735,17.175 L10.8735,17.175 C10.8337354,17.1749914 10.8014929,17.2072198 10.8014844,17.2469844 C10.8014843,17.2474897 10.8014895,17.2479949 10.8015,17.2485 L10.8015,17.2484847 C10.8015,17.2890777 10.8344072,17.3219847 10.875,17.3219847 C10.915593,17.3219847 10.9485,17.2890776 10.9485,17.2484847 C10.9485,17.2078917 10.9155929,17.1749847 10.875,17.1749847 C10.8745051,17.1749847 10.8740102,17.1749897 10.8735153,17.1749997" id="Path" stroke="#940DFF"></path>
                            <path d="M5.6235,17.175 L5.6235,17.175 C5.5837449,17.1741366 5.55081705,17.2056647 5.5499538,17.2454198 C5.54992064,17.2469466 5.54993607,17.2484741 5.55000006,17.25 L5.55000006,17.2499847 C5.55000007,17.2905777 5.58290721,17.3234847 5.62350006,17.3234847 C5.66409306,17.3234847 5.69700006,17.2905775 5.69700006,17.2499847 C5.69700006,17.2093917 5.66409291,17.1764847 5.62350006,17.1764847 C5.62300513,17.1764847 5.6225102,17.1764897 5.62201537,17.1764997" id="Path" stroke="#940DFF"></path>
                            <path d="M10.8735,21.6765 L10.8735,21.6765 C10.8337354,21.6764914 10.8014929,21.7087198 10.8014844,21.7484844 C10.8014843,21.7489897 10.8014895,21.7494949 10.8015,21.75 L10.8015,21.7499847 C10.8015,21.7905777 10.8344072,21.8234847 10.875,21.8234847 C10.915593,21.8234847 10.9485,21.7905776 10.9485,21.7499847 C10.9485,21.7093917 10.9155929,21.6764847 10.875,21.6764847 C10.8745051,21.6764847 10.8740102,21.6764897 10.8735153,21.6764997" id="Path" stroke="#940DFF"></path>
                            <path d="M5.6235,21.6765 L5.6235,21.6765 C5.5837443,21.6756628 5.5508373,21.7072124 5.55,21.7469681 C5.54997872,21.7479786 5.54997872,21.7489895 5.55,21.75 L5.55,21.7499847 C5.55000001,21.7905777 5.58290715,21.8234847 5.6235,21.8234847 C5.664093,21.8234847 5.697,21.7905775 5.697,21.7499847 C5.69699999,21.7093917 5.66409285,21.6764847 5.6235,21.6764847 C5.62300507,21.6764847 5.62251014,21.6764897 5.62201531,21.6764997" id="Path" stroke="#940DFF"></path>
                        </g>
                        <rect id="Rectangle" x="0" y="0" width="36" height="36"></rect>
                    </g>
                </g>
            </g>
        </g>
    </g>
</svg>