<?xml version="1.0" encoding="UTF-8"?>
<svg width="84px" height="15px" viewBox="0 0 84 15" version="1.1" xmlns="http://www.w3.org/2000/svg" xmlns:xlink="http://www.w3.org/1999/xlink">
    <title>cortex</title>
    <g id="Symbols" stroke="none" stroke-width="1" fill="none" fill-rule="evenodd">
        <g id="marcas-/-parceiros-final-copy" transform="translate(-709.000000, -12.000000)" fill="#121E48" fill-rule="nonzero">
            <g id="Group" transform="translate(709.000000, 12.000000)">
                <g id="cortex" transform="translate(0.224000, 0.441379)">
                    <g id="Group" transform="translate(24.472000, 0.110345)">
                        <path d="M9.128,3.80689655 L8.512,4.8 C8.288,5.13103448 7.896,5.29655172 7.504,5.1862069 C6.944,5.02068966 6.384,4.96551724 5.936,4.96551724 C4.256,4.96551724 3.136,6.06896552 3.136,8.11034483 C3.136,10.1517241 4.256,11.2551724 5.992,11.2551724 C6.496,11.2551724 7.056,11.1448276 7.56,11.0344828 C7.952,10.9241379 8.344,11.0896552 8.512,11.4206897 L9.128,12.4137931 C8.232,13.2965517 6.888,13.7931034 5.488,13.7931034 C2.968,13.7931034 0,11.8068966 0,8.11034483 C0,4.46896552 2.968,2.42758621 5.488,2.42758621 C6.832,2.42758621 8.232,2.92413793 9.128,3.80689655 Z" id="Path"></path>
                        <path d="M20.944,8.11034483 C20.944,11.7517241 18.088,13.7931034 15.064,13.7931034 C12.04,13.7931034 9.184,11.8068966 9.184,8.11034483 C9.24,4.4137931 12.096,2.42758621 15.064,2.42758621 C18.088,2.42758621 20.944,4.4137931 20.944,8.11034483 Z M12.32,8.11034483 C12.32,10.1517241 13.496,11.2551724 15.064,11.2551724 C16.688,11.2551724 17.808,10.1517241 17.808,8.11034483 C17.864,6.06896552 16.688,4.96551724 15.064,4.96551724 C13.496,4.96551724 12.32,6.06896552 12.32,8.11034483 Z" id="Shape"></path>
                        <path d="M29.12,5.1862069 C29.12,5.1862069 25.032,3.97241379 25.032,6.89655172 L25.032,13.6827586 L21.896,13.6827586 L21.896,6.89655172 C21.896,2.53793103 25.2,1.76551724 29.512,3.03448276 L29.12,5.1862069 Z" id="Path"></path>
                        <path d="M36.848,2.53793103 L36.848,5.1862069 L33.656,5.1862069 L33.656,9.43448276 C33.656,11.9172414 36.232,11.3103448 36.904,11.0896552 L37.352,13.0758621 C34.16,14.4 30.52,13.9034483 30.52,9.32413793 L30.52,0 L33.656,0 L33.656,2.53793103 L36.848,2.53793103 Z" id="Path"></path>
                        <path d="M43.4,9.26896552 L40.768,9.26896552 C41.048,10.7034483 42.448,11.3655172 43.624,11.3103448 C44.24,11.3103448 44.744,11.2 45.08,11.1448276 C45.416,11.0344828 45.808,11.2 46.032,11.4758621 L46.76,12.5793103 C45.864,13.2965517 44.464,13.7931034 43.288,13.7931034 C40.264,13.7931034 37.632,11.7517241 37.632,8.11034483 C37.632,4.46896552 40.376,2.42758621 43.4,2.42758621 C49.168,2.42758621 49.392,9.26896552 43.4,9.26896552 Z M40.712,6.95172414 L43.792,6.95172414 C45.304,6.95172414 45.36,4.68965517 43.456,4.68965517 C42.168,4.68965517 40.992,5.46206897 40.712,6.95172414 Z" id="Shape"></path>
                        <polygon id="Path" points="59.08 13.6827586 55.552 13.6827586 53.312 10.5931034 51.072 13.6827586 47.544 13.6827586 51.576 8.11034483 47.544 2.53793103 51.072 2.53793103 53.312 5.62758621 55.552 2.53793103 59.08 2.53793103 55.104 8.11034483"></polygon>
                    </g>
                    <path d="M10.92,13.8482759 C10.08,13.8482759 9.352,13.1862069 9.352,12.3034483 L9.352,1.54482759 C9.352,0.717241379 10.024,0 10.92,0 C11.76,0 12.488,0.662068966 12.488,1.54482759 L12.488,12.3586207 C12.432,13.1862069 11.76,13.8482759 10.92,13.8482759 Z" id="Path"></path>
                    <path d="M6.216,13.8482759 C5.376,13.8482759 4.648,13.1862069 4.648,12.3034483 L4.648,6.17931034 C4.648,5.35172414 5.32,4.63448276 6.216,4.63448276 C7.056,4.63448276 7.784,5.29655172 7.784,6.17931034 L7.784,12.3586207 C7.784,13.1862069 7.056,13.8482759 6.216,13.8482759 Z" id="Path"></path>
                    <path d="M15.568,13.8482759 C15.176,13.8482759 14.784,13.737931 14.504,13.462069 C13.832,12.8551724 13.888,11.8068966 14.504,11.2 L16.464,9.26896552 C17.08,8.66206897 17.08,7.72413793 16.464,7.11724138 L14.504,5.1862069 C13.944,4.63448276 13.832,3.69655172 14.336,3.08965517 C14.952,2.37241379 16.016,2.31724138 16.632,2.97931034 L20.832,7.11724138 C21.448,7.72413793 21.448,8.66206897 20.832,9.26896552 L16.632,13.4068966 C16.352,13.737931 15.96,13.8482759 15.568,13.8482759 Z" id="Path"></path>
                    <path d="M1.568,13.8482759 C0.728,13.8482759 0,13.1862069 0,12.3034483 L0,10.7034483 C0,9.87586207 0.672,9.15862069 1.568,9.15862069 C2.464,9.15862069 3.136,9.82068966 3.136,10.7034483 L3.136,12.3034483 C3.08,13.1862069 2.408,13.8482759 1.568,13.8482759 Z" id="Path"></path>
                </g>
            </g>
        </g>
    </g>
</svg>