<?xml version="1.0" encoding="utf-8"?>
<!-- Generator: Adobe Illustrator 24.3.0, SVG Export Plug-In . SVG Version: 6.00 Build 0)  -->
<svg version="1.1" id="Layer_1" xmlns="http://www.w3.org/2000/svg" xmlns:xlink="http://www.w3.org/1999/xlink" x="0px" y="0px"
	 viewBox="0 0 57 40" style="enable-background:new 0 0 57 40;" xml:space="preserve">
<style type="text/css">
	.st0{fill:#121E48;}
</style>
<g id="Symbols">
	<g id="marcas-_x2F_-integrações-atual" transform="translate(-743.000000, -6.000000)">
		<g id="svgexport-1-_x28_3_x29_" transform="translate(744.000000, 6.000000)">
			<g id="Clipped" transform="translate(-19.637795, -18.267717)">
				<g id="d">
				</g>
			</g>
			<g id="Group" transform="translate(-0.023976, 0.033110)">
				<g id="Clipped_1_" transform="translate(0.000000, 2.531220)">
					<path id="Shape" class="st0" d="M7.2,18.3v-4.6H6.8c-0.1,0.2-0.3,0.4-0.5,0.6c-0.2,0.2-0.5,0.4-0.9,0.5C5,14.9,4.6,15,4.1,15
						c-0.7,0-1.4-0.2-2-0.5s-1.1-0.9-1.5-1.6C0.2,12.2,0,11.4,0,10.4v-0.3c0-1,0.2-1.8,0.6-2.5C0.9,6.9,1.4,6.4,2.1,6
						c0.6-0.4,1.3-0.5,2-0.5c0.8,0,1.4,0.1,1.9,0.4s0.7,0.6,0.9,0.9h0.3V5.8h2.2v12.6L7.2,18.3L7.2,18.3z M4.7,13
						c0.7,0,1.3-0.2,1.8-0.7c0.5-0.5,0.7-1.1,0.7-2v-0.2c0-0.9-0.2-1.5-0.7-2C6,7.7,5.4,7.5,4.7,7.5S3.5,7.7,3,8.2
						c-0.5,0.5-0.7,1.1-0.7,2v0.2c0,0.9,0.2,1.5,0.7,2C3.5,12.8,4,13,4.7,13"/>
				</g>
				<g id="Clipped_2_" transform="translate(11.049685, 2.785827)">
					<path id="Path" class="st0" d="M3.5,14.6c-0.7,0-1.3-0.2-1.8-0.5c-0.5-0.3-0.9-0.8-1.2-1.3c-0.3-0.6-0.4-1.2-0.4-2V5.5h2.3v5.2
						c0,0.7,0.2,1.2,0.5,1.5c0.3,0.3,0.8,0.5,1.4,0.5c0.7,0,1.2-0.2,1.6-0.7c0.4-0.5,0.6-1.1,0.6-1.9V5.5h2.3v9H6.4v-1.2H6.1
						c-0.1,0.3-0.4,0.6-0.8,0.9C4.9,14.5,4.3,14.6,3.5,14.6"/>
				</g>
				<g id="Clipped_3_" transform="translate(21.340118, 0.000000)">
					<rect id="Rectangle" x="0" y="5.5" class="st0" width="2.3" height="11.8"/>
				</g>
				<g id="Clipped_4_" transform="translate(25.225433, 0.000000)">
					<path id="Path_1_" class="st0" d="M2,17.3c-0.6,0-1.1-0.2-1.4-0.6S0,15.8,0,15.2V5.5h2.3v2.8h2.2v1.9H2.3v4.7
						c0,0.4,0.2,0.5,0.5,0.5h1.7v1.9H2L2,17.3z"/>
				</g>
				<g id="Clipped_5_" transform="translate(30.768543, 2.785827)">
					<path id="Path_2_" class="st0" d="M3.5,14.6c-0.7,0-1.3-0.2-1.8-0.5c-0.5-0.3-0.9-0.8-1.2-1.3c-0.3-0.6-0.4-1.2-0.4-2V5.5h2.3
						v5.2c0,0.7,0.2,1.2,0.5,1.5c0.3,0.3,0.8,0.5,1.4,0.5c0.7,0,1.2-0.2,1.6-0.7c0.4-0.5,0.6-1.1,0.6-1.9V5.5h2.3v9H6.4v-1.2H6.1
						c-0.1,0.3-0.4,0.6-0.8,0.9C4.9,14.5,4.3,14.6,3.5,14.6"/>
				</g>
				<g id="Clipped_6_" transform="translate(46.811024, 2.533504)">
					<path id="Shape_1_" class="st0" d="M4.5,15c-0.9,0-1.7-0.2-2.4-0.6c-0.7-0.4-1.2-0.9-1.6-1.6C0.2,12.1,0,11.3,0,10.3v-0.2
						c0-0.9,0.2-1.8,0.6-2.5C0.9,7,1.5,6.4,2.1,6.1c0.7-0.4,1.5-0.6,2.4-0.6c0.9,0,1.6,0.2,2.3,0.6C7.4,6.5,7.9,7,8.3,7.7
						c0.4,0.7,0.5,1.5,0.5,2.4v0.8H2.3c0,0.6,0.3,1.1,0.7,1.5S4,13,4.6,13c0.6,0,1.1-0.1,1.4-0.4s0.5-0.6,0.7-0.9l1.9,1
						c-0.2,0.3-0.4,0.7-0.7,1c-0.3,0.4-0.7,0.7-1.3,0.9C6,14.8,5.3,15,4.5,15 M2.3,9.2h4.2c0-0.5-0.3-0.9-0.6-1.2
						C5.5,7.6,5.1,7.5,4.5,7.5C3.9,7.5,3.4,7.6,3,8C2.6,8.3,2.4,8.7,2.3,9.2"/>
				</g>
				<g id="Clipped_7_" transform="translate(7.035354, 19.471102)">
					<path id="Shape_2_" class="st0" d="M4.7,15c-0.9,0-1.7-0.2-2.4-0.5c-0.7-0.4-1.3-0.9-1.7-1.6C0.2,12.2,0,11.4,0,10.4v-0.3
						c0-1,0.2-1.8,0.6-2.5C1,6.9,1.6,6.4,2.3,6C3,5.7,3.8,5.5,4.7,5.5c0.9,0,1.7,0.2,2.4,0.5c0.7,0.4,1.3,0.9,1.7,1.6
						c0.4,0.7,0.6,1.5,0.6,2.5v0.3c0,1-0.2,1.8-0.6,2.5c-0.4,0.7-1,1.2-1.7,1.6C6.4,14.8,5.6,15,4.7,15 M4.7,13
						c0.7,0,1.3-0.2,1.7-0.7c0.5-0.5,0.7-1.1,0.7-1.9v-0.2c0-0.8-0.2-1.5-0.7-1.9C6,7.8,5.4,7.5,4.7,7.5C4,7.5,3.4,7.8,3,8.2
						c-0.5,0.5-0.7,1.1-0.7,1.9v0.2c0,0.8,0.2,1.5,0.7,1.9C3.4,12.7,4,13,4.7,13"/>
				</g>
				<g id="Clipped_8_" transform="translate(17.309803, 19.473386)">
					<path id="Path_3_" class="st0" d="M4.7,15c-0.9,0-1.7-0.2-2.4-0.5S1,13.6,0.6,12.9C0.2,12.2,0,11.3,0,10.4v-0.3
						c0-1,0.2-1.8,0.6-2.5s1-1.2,1.7-1.6C3,5.7,3.8,5.5,4.7,5.5c0.9,0,1.6,0.2,2.2,0.5S8,6.7,8.3,7.2C8.7,7.7,9,8.3,9.1,9L6.9,9.4
						c0-0.4-0.2-0.7-0.3-1C6.4,8.2,6.2,7.9,5.9,7.8S5.2,7.5,4.7,7.5c-0.5,0-0.9,0.1-1.2,0.3C3.1,8,2.8,8.3,2.6,8.7
						c-0.2,0.4-0.3,0.9-0.3,1.4v0.2c0,0.6,0.1,1,0.3,1.4c0.2,0.4,0.5,0.7,0.9,0.9C3.8,12.9,4.2,13,4.7,13c0.7,0,1.2-0.2,1.6-0.5
						c0.4-0.4,0.6-0.8,0.7-1.4l2.2,0.5c-0.2,0.6-0.4,1.2-0.8,1.7c-0.4,0.5-0.9,0.9-1.5,1.2C6.2,14.8,5.5,15,4.7,15"/>
				</g>
				<g id="Clipped_9_" transform="translate(27.401575, 16.939882)">
					<polygon id="Path_4_" class="st0" points="0,17.3 0,5.5 2.3,5.5 2.3,11.6 2.6,11.6 5.6,8.3 8.5,8.3 4.4,12.6 8.7,17.3 
						5.8,17.3 2.6,13.7 2.3,13.7 2.3,17.3 					"/>
				</g>
				<g id="Clipped_10_" transform="translate(35.760197, 19.475669)">
					<path id="Path_5_" class="st0" d="M4.2,15c-1.2,0-2.1-0.3-2.9-0.8C0.6,13.7,0.2,13,0,12l2.1-0.5c0.1,0.4,0.2,0.8,0.4,1
						C2.7,12.7,3,12.9,3.3,13c0.3,0.1,0.6,0.2,1,0.2c0.5,0,0.9-0.1,1.2-0.3c0.3-0.2,0.4-0.4,0.4-0.7s-0.1-0.5-0.4-0.6
						c-0.2-0.2-0.6-0.3-1.2-0.4l-0.5-0.1C3.1,11,2.6,10.8,2,10.6c-0.5-0.2-0.9-0.5-1.2-0.9C0.5,9.3,0.3,8.9,0.3,8.3
						c0-0.9,0.3-1.6,1-2.1C2,5.7,2.8,5.5,3.9,5.5c1,0,1.8,0.2,2.5,0.7c0.7,0.4,1.1,1,1.3,1.8L5.6,8.6C5.5,8.1,5.3,7.8,5,7.6
						C4.7,7.4,4.3,7.3,3.9,7.3c-0.4,0-0.8,0.1-1,0.2C2.6,7.7,2.5,7.9,2.5,8.2c0,0.3,0.1,0.5,0.4,0.6c0.2,0.1,0.6,0.2,1,0.3l0.5,0.1
						c0.7,0.1,1.3,0.3,1.8,0.5c0.5,0.2,1,0.5,1.3,0.9C7.8,10.9,8,11.4,8,12c0,0.9-0.3,1.7-1,2.2C6.3,14.7,5.4,15,4.2,15"/>
				</g>
				<g id="Clipped_11_" transform="translate(1.191969, 19.690315)">
					<path id="Path_6_" class="st0" d="M2.2,6.8h0.2c0.2-0.5,0.4-0.8,0.8-1c0.4-0.2,0.8-0.3,1.4-0.3h0.9v1.9H4.3
						c-0.6,0-1.1,0.2-1.4,0.5C2.5,8.2,2.3,8.7,2.3,9.3v5.2H0v-9h2.2V6.8L2.2,6.8z"/>
				</g>
				<g id="Clipped_12_" transform="translate(41.003031, 2.749291)">
					<path id="Path_7_" class="st0" d="M2.2,6.8h0.2c0.2-0.5,0.4-0.8,0.8-1c0.4-0.2,0.8-0.3,1.4-0.3h0.9v1.9H4.3
						c-0.6,0-1.1,0.2-1.4,0.5C2.5,8.2,2.3,8.7,2.3,9.3v5.2H0v-9h2.2V6.8L2.2,6.8z"/>
				</g>
			</g>
		</g>
	</g>
</g>
</svg>
