<?xml version="1.0" encoding="utf-8"?>
<!-- Generator: Adobe Illustrator 26.0.3, SVG Export Plug-In . SVG Version: 6.00 Build 0)  -->
<svg version="1.1" id="Layer_3" xmlns="http://www.w3.org/2000/svg" xmlns:xlink="http://www.w3.org/1999/xlink" x="0px" y="0px"
	 viewBox="0 0 24 24" style="enable-background:new 0 0 24 24;" xml:space="preserve">
<style type="text/css">
	.st0{fill:none;}
	.st1{fill:none;stroke:#FF4B8C;stroke-width:1.5;stroke-linecap:round;stroke-linejoin:round;}
</style>
<rect y="0" class="st0" width="24" height="24"/>
<line class="st1" x1="7.5" y1="6" x2="7.5" y2="3"/>
<line class="st1" x1="16.5" y1="6" x2="16.5" y2="3"/>
<path class="st1" d="M21,7.5v8.7c0,0.5-0.2,1-0.6,1.4l-2.8,2.8c-0.4,0.4-0.9,0.6-1.4,0.6H6c-1.7,0-3-1.3-3-3V7.5c0-1.7,1.3-3,3-3h12
	C19.7,4.5,21,5.8,21,7.5z"/>
<path class="st1" d="M21,16h-3c-1.1,0-2,0.9-2,2v3"/>
<path class="st1" d="M11.8,10.8L12,11l0.2-0.2c0.7-0.8,2-0.8,2.7,0c0,0,0,0,0,0l0,0c0.8,0.8,0.8,2,0,2.8l-1.5,1.6
	c-0.8,0.8-2,0.8-2.8,0c0,0,0,0,0,0l-1.5-1.6c-0.8-0.8-0.8-2,0-2.8l0,0C9.8,10.1,11,10.1,11.8,10.8C11.8,10.8,11.8,10.8,11.8,10.8z"
	/>
</svg>
