<?xml version="1.0" encoding="UTF-8"?>
<svg width="65px" height="33px" viewBox="0 0 65 33" version="1.1" xmlns="http://www.w3.org/2000/svg" xmlns:xlink="http://www.w3.org/1999/xlink">
    <title>svgexport-1 (3)</title>
    <defs>
        <rect id="path-1" x="0" y="0" width="109.32874" height="77.4694488"></rect>
    </defs>
    <g id="Symbols" stroke="none" stroke-width="1" fill="none" fill-rule="evenodd">
        <g id="marcas-/-parceiros-final-copy-4" transform="translate(-988.000000, -4.000000)">
            <g id="svgexport-1-(3)" transform="translate(989.000000, 4.000000)">
                <g id="Clipped" transform="translate(-22.346457, -20.787402)">
                    <mask id="mask-2" fill="white">
                        <use xlink:href="#path-1"></use>
                    </mask>
                    <g id="d"></g>
                </g>
                <g id="Group" transform="translate(-0.027283, 0.037677)" fill="#121E48" fill-rule="nonzero">
                    <g id="Clipped" transform="translate(0.000000, 2.880354)">
                        <path d="M8.15125984,14.6174409 L8.15125984,9.32704724 L7.78098425,9.32704724 C7.64326772,9.56090551 7.44448819,9.79086614 7.18334646,10.0169291 C6.92220472,10.2429921 6.58311024,10.4287795 6.16476378,10.5729921 C5.74641732,10.7172047 5.2280315,10.7886614 4.61090551,10.7886614 C3.78720472,10.7886614 3.02586614,10.5859843 2.32559055,10.1819291 C1.62531496,9.77787402 1.06275591,9.18283465 0.637913386,8.40070866 C0.213070866,7.61858268 0,6.67145669 0,5.55933071 L0,5.22933071 C0,4.11850394 0.213070866,3.17137795 0.637913386,2.38795276 C1.06275591,1.60582677 1.6292126,1.01208661 2.33598425,0.608031496 C3.04275591,0.203976378 3.80149606,0 4.61090551,0 C5.54374016,0 6.25440945,0.154606299 6.74161417,0.463818898 C7.2288189,0.773031496 7.58870079,1.12641732 7.82255906,1.52397638 L8.19283465,1.52397638 L8.19283465,0.288425197 L10.7457874,0.288425197 L10.7457874,14.6161417 L8.15125984,14.6161417 L8.15125984,14.6174409 Z M5.3930315,8.52413386 C6.20244094,8.52413386 6.87153543,8.26688976 7.40031496,7.75240157 C7.92909449,7.23791339 8.19283465,6.48566929 8.19283465,5.49826772 L8.19283465,5.29299213 C8.19283465,4.30429134 7.92519685,3.55334646 7.38992126,3.03885827 C6.85464567,2.52437008 6.18944882,2.26712598 5.3930315,2.26712598 C4.59661417,2.26712598 3.93141732,2.52437008 3.39614173,3.03885827 C2.86086614,3.55334646 2.59322835,4.30429134 2.59322835,5.29299213 L2.59322835,5.49826772 C2.59322835,6.4869685 2.86086614,7.23791339 3.39614173,7.75240157 C3.93141732,8.26688976 4.59661417,8.52413386 5.3930315,8.52413386" id="Shape"></path>
                    </g>
                    <g id="Clipped" transform="translate(12.573780, 3.170079)">
                        <path d="M3.97299213,10.3755118 C3.1765748,10.3755118 2.48019685,10.193622 1.88385827,9.82984252 C1.28622047,9.46606299 0.823700787,8.9619685 0.493700787,8.31625984 C0.163700787,7.67185039 0,6.93 0,6.09330709 L0,0 L2.59322835,0 L2.59322835,5.8880315 C2.59322835,6.65716535 2.78161417,7.23271654 3.15968504,7.61728346 C3.53645669,8.00185039 4.07562992,8.19413386 4.77590551,8.19413386 C5.57232283,8.19413386 6.18944882,7.9303937 6.62858268,7.40161417 C7.06771654,6.87283465 7.28728346,6.13488189 7.28728346,5.18905512 L7.28728346,0.0012992126 L9.88051181,0.0012992126 L9.88051181,10.211811 L7.32755906,10.211811 L7.32755906,8.87362205 L6.95728346,8.87362205 C6.79228346,9.21661417 6.48437008,9.55311024 6.03094488,9.88181102 C5.5788189,10.2105118 4.89283465,10.3755118 3.97299213,10.3755118" id="Path"></path>
                    </g>
                    <g id="Clipped" transform="translate(24.283583, 0.000000)">
                        <rect id="Rectangle" x="0" y="0" width="2.59322835" height="13.3805906"></rect>
                    </g>
                    <g id="Clipped" transform="translate(28.704803, 0.000000)">
                        <path d="M2.26452756,13.3805906 C1.59153543,13.3805906 1.04586614,13.1714173 0.627519685,12.7530709 C0.209173228,12.3347244 0,11.7747638 0,11.0757874 L0,0 L2.59322835,0 L2.59322835,3.17007874 L5.11759843,3.17007874 L5.11759843,5.3111811 L2.59322835,5.3111811 L2.59322835,10.6223622 C2.59322835,11.0342126 2.78551181,11.2394882 3.17007874,11.2394882 L5.1461811,11.2394882 L5.1461811,13.3805906 L2.26452756,13.3805906 L2.26452756,13.3805906 Z" id="Path"></path>
                    </g>
                    <g id="Clipped" transform="translate(35.012480, 3.170079)">
                        <path d="M3.97299213,10.3755118 C3.1765748,10.3755118 2.48019685,10.193622 1.88385827,9.82984252 C1.28622047,9.46606299 0.823700787,8.9619685 0.493700787,8.31625984 C0.163700787,7.67185039 0,6.93 0,6.09330709 L0,0 L2.59322835,0 L2.59322835,5.8880315 C2.59322835,6.65716535 2.78161417,7.23271654 3.15968504,7.61728346 C3.53645669,8.00185039 4.07562992,8.19413386 4.77590551,8.19413386 C5.57232283,8.19413386 6.18944882,7.9303937 6.62858268,7.40161417 C7.06771654,6.87283465 7.28728346,6.13488189 7.28728346,5.18905512 L7.28728346,0.0012992126 L9.88051181,0.0012992126 L9.88051181,10.211811 L7.32755906,10.211811 L7.32755906,8.87362205 L6.95728346,8.87362205 C6.79228346,9.21661417 6.48437008,9.55311024 6.03094488,9.88181102 C5.5788189,10.2105118 4.89283465,10.3755118 3.97299213,10.3755118" id="Path"></path>
                    </g>
                    <g id="Clipped" transform="translate(53.267717, 2.882953)">
                        <path d="M5.1461811,10.786063 C4.13019685,10.786063 3.23503937,10.5703937 2.45940945,10.1377559 C1.68377953,9.70511811 1.07964567,9.09448819 0.648307087,8.30586614 C0.215669291,7.51724409 0,6.58700787 0,5.51645669 L0,5.2696063 C0,4.19905512 0.213070866,3.27011811 0.637913386,2.48019685 C1.06275591,1.6915748 1.6603937,1.07964567 2.42822835,0.648307087 C3.1973622,0.215669291 4.08862205,0 5.1046063,0 C6.10629921,0 6.97807087,0.223464567 7.71862205,0.669094488 C8.46047244,1.11602362 9.03602362,1.73314961 9.44787402,2.52177165 C9.85972441,3.31169291 10.065,4.2276378 10.065,5.2696063 L10.065,6.15437008 L2.63350394,6.15437008 C2.6607874,6.85464567 2.92192913,7.42370079 3.41562992,7.86283465 C3.90933071,8.3019685 4.51346457,8.52153543 5.22673228,8.52153543 C5.95429134,8.52153543 6.48956693,8.36433071 6.83255906,8.04862205 C7.17555118,7.73291339 7.43669291,7.3834252 7.61468504,6.99885827 L9.735,8.11098425 C9.54271654,8.46826772 9.26468504,8.85543307 8.90090551,9.27377953 C8.53712598,9.6934252 8.0538189,10.0494094 7.44968504,10.3443307 C6.84814961,10.6379528 6.07901575,10.786063 5.1461811,10.786063 M2.65559055,4.21854331 L7.43149606,4.21854331 C7.37692913,3.62870079 7.14047244,3.1557874 6.72082677,2.79850394 C6.30248031,2.44251969 5.75681102,2.26322835 5.0838189,2.26322835 C4.38354331,2.26322835 3.82748031,2.44251969 3.41562992,2.79850394 C3.00507874,3.1557874 2.75173228,3.62870079 2.65559055,4.21854331" id="Shape"></path>
                    </g>
                    <g id="Clipped" transform="translate(8.005748, 22.156772)">
                        <path d="M5.35275591,10.7886614 C4.33677165,10.7886614 3.42472441,10.5833858 2.61531496,10.1715354 C1.8046063,9.75968504 1.16669291,9.16334646 0.700275591,8.37992126 C0.233858268,7.59779528 0,6.65846457 0,5.55933071 L0,5.22933071 C0,4.13149606 0.232559055,3.19086614 0.700275591,2.40874016 C1.16669291,1.62661417 1.8046063,1.02897638 2.61531496,0.617125984 C3.42472441,0.205275591 4.33807087,0 5.35275591,0 C6.36874016,0 7.2807874,0.205275591 8.09019685,0.617125984 C8.8996063,1.02897638 9.53751969,1.62531496 10.0052362,2.40874016 C10.4716535,3.19086614 10.7055118,4.13149606 10.7055118,5.22933071 L10.7055118,5.55933071 C10.7055118,6.65716535 10.4716535,7.59779528 10.0052362,8.37992126 C9.5388189,9.16204724 8.8996063,9.75968504 8.09019685,10.1715354 C7.2807874,10.5833858 6.36744094,10.7886614 5.35275591,10.7886614 M5.35275591,8.48255906 C6.14787402,8.48255906 6.8065748,8.22531496 7.32885827,7.71082677 C7.84984252,7.19633858 8.11098425,6.45838583 8.11098425,5.49826772 L8.11098425,5.29169291 C8.11098425,4.3315748 7.85374016,3.59362205 7.33925197,3.07913386 C6.82476378,2.56464567 6.16216535,2.30740157 5.35275591,2.30740157 C4.55633858,2.30740157 3.8976378,2.56464567 3.37665354,3.07913386 C2.85437008,3.59362205 2.59452756,4.3315748 2.59452756,5.29169291 L2.59452756,5.49826772 C2.59452756,6.45838583 2.85437008,7.19633858 3.37665354,7.71082677 C3.8976378,8.22661417 4.55633858,8.48255906 5.35275591,8.48255906" id="Shape"></path>
                    </g>
                    <g id="Clipped" transform="translate(19.697362, 22.159370)">
                        <path d="M5.29169291,10.786063 C4.30299213,10.786063 3.40783465,10.5807874 2.60492126,10.168937 C1.80200787,9.75708661 1.16669291,9.16074803 0.700275591,8.37732283 C0.233858268,7.59519685 0,6.64807087 0,5.53724409 L0,5.2488189 C0,4.13669291 0.233858268,3.18956693 0.700275591,2.40744094 C1.16669291,1.62531496 1.80200787,1.02767717 2.60492126,0.617125984 C3.40783465,0.205275591 4.30299213,0 5.29169291,0 C6.26610236,0 7.10279528,0.171496063 7.80307087,0.514488189 C8.50334646,0.857480315 9.06850394,1.32779528 9.50114173,1.92413386 C9.93377953,2.52177165 10.2183071,3.1973622 10.3560236,3.95220472 L7.84464567,4.48748031 C7.79007874,4.07562992 7.66665354,3.70535433 7.47437008,3.37535433 C7.28208661,3.04535433 7.01055118,2.78551181 6.66106299,2.59322835 C6.3115748,2.40094488 5.87503937,2.30480315 5.35405512,2.30480315 C4.83177165,2.30480315 4.36275591,2.41783465 3.94311024,2.64389764 C3.52476378,2.86996063 3.19476378,3.20645669 2.95570866,3.65208661 C2.71535433,4.09771654 2.59582677,4.64338583 2.59582677,5.28909449 L2.59582677,5.49437008 C2.59582677,6.14007874 2.71535433,6.68444882 2.95570866,7.13137795 C3.19606299,7.57700787 3.52476378,7.91350394 3.94311024,8.14086614 C4.36145669,8.36692913 4.83177165,8.47996063 5.35405512,8.47996063 C6.1361811,8.47996063 6.72992126,8.27728346 7.13527559,7.87192913 C7.53933071,7.46787402 7.7965748,6.93519685 7.90700787,6.27649606 L10.4183858,6.87413386 C10.2403937,7.60169291 9.93507874,8.26299213 9.50244094,8.86062992 C9.06980315,9.45826772 8.50464567,9.92728346 7.80437008,10.2702756 C7.10409449,10.6145669 6.26610236,10.786063 5.29169291,10.786063" id="Path"></path>
                    </g>
                    <g id="Clipped" transform="translate(31.181102, 19.276417)">
                        <polygon id="Path" points="0 13.3805906 0 0 2.59452756 0 2.59452756 6.93779528 2.96480315 6.93779528 6.34145669 3.17007874 9.71681102 3.17007874 5.00326772 8.11098425 9.88181102 13.3805906 6.54673228 13.3805906 2.96480315 9.32574803 2.59452756 9.32574803 2.59452756 13.3805906"></polygon>
                    </g>
                    <g id="Clipped" transform="translate(40.692638, 22.161969)">
                        <path d="M4.8161811,10.7834646 C3.48448819,10.7834646 2.39314961,10.4950394 1.54346457,9.91948819 C0.692480315,9.3426378 0.177992126,8.51893701 0,7.44968504 L2.38795276,6.83255906 C2.48409449,7.31326772 2.64519685,7.69003937 2.87125984,7.96417323 C3.09732283,8.2396063 3.37925197,8.43448819 3.71574803,8.55141732 C4.05224409,8.66834646 4.41862205,8.72681102 4.81748031,8.72681102 C5.42161417,8.72681102 5.86724409,8.62027559 6.15566929,8.40720472 C6.44409449,8.19413386 6.58830709,7.9303937 6.58830709,7.61468504 C6.58830709,7.29897638 6.45059055,7.05602362 6.17645669,6.88452756 C5.90232283,6.7130315 5.46318898,6.57271654 4.85905512,6.46228346 L4.28220472,6.35964567 C3.56893701,6.22322835 2.91673228,6.03354331 2.32688976,5.79318898 C1.73704724,5.55283465 1.26283465,5.22023622 0.906850394,4.7953937 C0.549566929,4.37055118 0.371574803,3.82098425 0.371574803,3.14929134 C0.371574803,2.13330709 0.741850394,1.35507874 1.48370079,0.813307087 C2.22425197,0.271535433 3.19866142,0 4.40692913,0 C5.54633858,0 6.49216535,0.253346457 7.24830709,0.761338583 C8.00314961,1.26933071 8.49685039,1.93452756 8.73070866,2.75822835 L6.3219685,3.49877953 C6.21153543,2.97779528 5.98937008,2.60751969 5.65287402,2.38665354 C5.31637795,2.16708661 4.90192913,2.05665354 4.40692913,2.05665354 C3.91322835,2.05665354 3.53515748,2.14240157 3.27531496,2.31389764 C3.01417323,2.4853937 2.88425197,2.72185039 2.88425197,3.02456693 C2.88425197,3.35326772 3.02066929,3.59751969 3.29610236,3.75472441 C3.57023622,3.91322835 3.94051181,4.03275591 4.40822835,4.1146063 L4.98507874,4.21724409 C5.7542126,4.35496063 6.45059055,4.53685039 7.0742126,4.76291339 C7.69783465,4.98897638 8.19283465,5.31248031 8.55661417,5.73082677 C8.9203937,6.14917323 9.10228346,6.71562992 9.10228346,7.42889764 C9.10228346,8.49944882 8.7138189,9.32574803 7.93948819,9.90909449 C7.15996063,10.4924409 6.12059055,10.7834646 4.8161811,10.7834646" id="Path"></path>
                    </g>
                    <g id="Clipped" transform="translate(1.356378, 22.406220)">
                        <path d="M2.55295276,1.48110236 L2.75822835,1.48110236 C2.95051181,0.96011811 3.25582677,0.582047244 3.67417323,0.349488189 C4.09251969,0.115629921 4.63818898,0 5.3111811,0 L6.38173228,0 L6.38173228,2.18137795 L4.85775591,2.18137795 C4.17177165,2.18137795 3.62220472,2.36326772 3.21035433,2.72704724 C2.79850394,3.09082677 2.59322835,3.62220472 2.59322835,4.32248031 L2.59322835,10.2507874 L0,10.2507874 L0,0.0402755906 L2.55295276,0.0402755906 L2.55295276,1.48110236 L2.55295276,1.48110236 Z" id="Path"></path>
                    </g>
                    <g id="Clipped" transform="translate(46.658622, 3.128504)">
                        <path d="M2.55295276,1.48240157 L2.75822835,1.48240157 C2.95051181,0.961417323 3.25582677,0.583346457 3.67417323,0.349488189 C4.09251969,0.115629921 4.63818898,0 5.3111811,0 L6.38173228,0 L6.38173228,2.18267717 L4.85775591,2.18267717 C4.17177165,2.18267717 3.62220472,2.36456693 3.21035433,2.72834646 C2.79850394,3.09212598 2.59322835,3.62350394 2.59322835,4.32377953 L2.59322835,10.2520866 L0,10.2520866 L0,0.0415748031 L2.55295276,0.0415748031 L2.55295276,1.48240157 L2.55295276,1.48240157 Z" id="Path"></path>
                    </g>
                </g>
            </g>
        </g>
    </g>
</svg>