<?xml version="1.0" encoding="UTF-8"?>
<svg width="50px" height="50px" viewBox="0 0 50 50" version="1.1" xmlns="http://www.w3.org/2000/svg" xmlns:xlink="http://www.w3.org/1999/xlink">
    <title>icon 1</title>
    <defs>
        <filter id="filter-1">
            <feColorMatrix in="SourceGraphic" type="matrix" values="0 0 0 0 1.000000 0 0 0 0 1.000000 0 0 0 0 1.000000 0 0 0 1.000000 0"></feColorMatrix>
        </filter>
    </defs>
    <g id="Internas" stroke="none" stroke-width="1" fill="none" fill-rule="evenodd">
        <g id="Group-9">
            <rect id="Rectangle" fill="#ffffff" opacity="0.3" x="0" y="0" width="50" height="50" rx="8"></rect>
            <g filter="url(#filter-1)" id="checklist">
                <g transform="translate(6.000000, 6.000000)">
                    <polygon id="Path" points="36 36 0 36 0 0 36 0"></polygon>
                    <g id="Group" stroke-linecap="round" stroke-linejoin="round" transform="scale(1.55) translate(0.500000, 0.000000)">
                        <path d="M0,24V0H24V24Z" fill="none"/>
                        <line x1="4.5" y1="9" x2="3" y2="9" fill="none" stroke="#323232" stroke-linecap="round" stroke-linejoin="round" stroke-width="1"/>
                        <line x1="4.5" y1="15" x2="3" y2="15" fill="none" stroke="#323232" stroke-linecap="round" stroke-linejoin="round" stroke-width="1"/>
                        <line x1="4" y1="12" x2="2" y2="12" fill="none" stroke="#323232" stroke-linecap="round" stroke-linejoin="round" stroke-width="1"/>
                        <path d="M5.636,5.636a9,9,0,1,1,0,12.72792" fill="none" stroke="#323232" stroke-linecap="round" stroke-linejoin="round" stroke-width="1"/>
                        <line x1="12" y1="7.5" x2="12" y2="8.40884" fill="none" stroke="#323232" stroke-linecap="round" stroke-linejoin="round" stroke-width="1"/>
                        <path d="M9.75,10.22653A2.0688,2.0688,0,0,1,12,8.40884" fill="none" stroke="#323232" stroke-linecap="round" stroke-linejoin="round" stroke-width="1"/>
                        <line x1="12" y1="16.5" x2="12" y2="15.59116" fill="none" stroke="#323232" stroke-linecap="round" stroke-linejoin="round" stroke-width="1"/>
                        <path d="M14.25,13.77347A2.0688,2.0688,0,0,1,12,15.59116" fill="none" stroke="#323232" stroke-linecap="round" stroke-linejoin="round" stroke-width="1"/>
                        <path d="M14.19271,9.83A2.19464,2.19464,0,0,0,12,8.40884" fill="none" stroke="#323232" stroke-linecap="round" stroke-linejoin="round" stroke-width="1"/>
                        <path d="M9.80729,14.17A2.19464,2.19464,0,0,0,12,15.59116" fill="none" stroke="#323232" stroke-linecap="round" stroke-linejoin="round" stroke-width="1"/>
                        <path d="M9.75,10.22653h0a1.61437,1.61437,0,0,0,1.29777,1.583l1.90446.3809a1.61437,1.61437,0,0,1,1.29777,1.583h0" fill="none" stroke="#323232" stroke-linecap="round" stroke-linejoin="round" stroke-width="1"/>
                    </g>
                    <!-- <path fill="none" d="M0 0h24v24h-24Z"></path> -->
                </g>
            </g>
        </g>
    </g>
</svg>