<?xml version="1.0" encoding="UTF-8"?>
<svg width="82px" height="82px" viewBox="0 0 82 82" version="1.1" xmlns="http://www.w3.org/2000/svg" xmlns:xlink="http://www.w3.org/1999/xlink">
    <title>color icon 3</title>
    <defs>
        <filter x="-52.5%" y="-52.5%" width="205.0%" height="205.0%" filterUnits="objectBoundingBox" id="filter-1">
            <feGaussianBlur stdDeviation="7" in="SourceGraphic"></feGaussianBlur>
        </filter>
        <filter id="filter-2">
            <feColorMatrix in="SourceGraphic" type="matrix" values="0 0 0 0 1.000000 0 0 0 0 1.000000 0 0 0 0 1.000000 0 0 0 1.000000 0"></feColorMatrix>
        </filter>
    </defs>
    <g id="Page-1" stroke="none" stroke-width="1" fill="none" fill-rule="evenodd">
        <g id="Desktop-/-Home-A" transform="translate(-784.000000, -3686.000000)">
            <g id="color-icon-3" transform="translate(800.000000, 3695.000000)">
                <rect id="Rectangle" fill="#63E1A5" opacity="0.3" filter="url(#filter-1)" x="5" y="12" width="40" height="40" rx="8"></rect>
                <rect id="Rectangle" fill="#63E1A5" x="0" y="0" width="50" height="50" rx="8"></rect>
                <g filter="url(#filter-2)" id="done-check-notes">
                    <g transform="translate(7.00000, 7.600000) scale(1.5)">
                        <path d="M0,0h24v24h-24Z"></path>
                        <path stroke="#323232" stroke-linecap="round" stroke-linejoin="round" stroke-width="1" d="M12,3v8.743l-6.364,6.621"></path>
                        <path stroke="#323232" stroke-linecap="round" stroke-linejoin="round" stroke-width="1" d="M3.9,8.08l8.1,3.66"></path>
                        <path stroke="#323232" stroke-linecap="round" stroke-linejoin="round" stroke-width="1" d="M18.364,5.63604c3.51472,3.51472 3.51472,9.2132 0,12.7279c-3.51472,3.51472 -9.2132,3.51472 -12.7279,0c-3.51472,-3.51472 -3.51472,-9.2132 -1.77636e-15,-12.7279c3.51472,-3.51472 9.2132,-3.51472 12.7279,-1.77636e-15"></path>
                    </g>
                </g>
            </g>
        </g>
    </g>
</svg>